<svg xmlns="http://www.w3.org/2000/svg" width="232.057" height="61.525" viewBox="0 0 232.057 61.525">
    <defs>
        <style>
            .cls-1{fill:#f15b2b}
        </style>
    </defs>
    <g id="Page-1" transform="translate(-.6 -.1)">
        <g id="Artboard" transform="translate(.6 .1)">
            <g id="Group">
                <g id="logo">
                    <path id="Shape" d="M49.636 2.4A30.346 30.346 0 0 0 24.3 16.007c6.48-3.726 17.009-8.586 32.755-12.7a29.46 29.46 0 0 0-7.419-.907" class="cls-1" transform="translate(-16.622 -1.655)"/>
                    <path id="Shape-2" d="M48.42 6.9C30.893 13.606 17.512 22.322 8.959 31.879a31.966 31.966 0 0 0-.259 3.953A30.39 30.39 0 1 0 48.42 6.9" class="cls-1" transform="translate(-6.076 -4.697)"/>
                    <path id="Shape-3" fill="#fff" d="M93.563 51.989a.984.984 0 0 0-.68-.389h-25.5a.965.965 0 0 0-.875.745l-1.359 6.545a.852.852 0 0 0 .194.778.984.984 0 0 0 .68.389h8.65l-4.957 23.91a1.007 1.007 0 0 0 .194.842 1.026 1.026 0 0 0 .68.421h7.03a.96.96 0 0 0 .875-.778l5.054-24.4h7.97a.929.929 0 0 0 .875-.745l1.361-6.544a1.086 1.086 0 0 0-.194-.778" transform="translate(-44.22 -34.915)"/>
                    <path id="Shape-4" d="M4.261 29.064C14.013 13.837 49.036.132 49 .1 27.912 7.2 9.056 18.664.6 30.943z" class="cls-1" transform="translate(-.6 -.1)"/>
                </g>
                <path id="Tech-Apollo" fill="#f45a1c" fill-rule="evenodd" d="M249.106 83.419h-4.17v-15.8h-5.686V63.97h15.512v3.645h-5.657zm11.919.35a7.393 7.393 0 1 1-.233-14.783c4.228 0 7.056 3.149 7.056 7.727v.875H257.38a3.775 3.775 0 0 0 4.053 3.149 5.89 5.89 0 0 0 3.732-1.37l1.662 2.449a8.779 8.779 0 0 1-5.802 1.953zm3.266-8.748a3.506 3.506 0 0 0-6.94 0zm12.736 8.748A6.565 6.565 0 0 0 282.6 81.2l-2.42-2.274a3.507 3.507 0 0 1-2.974 1.545 4.107 4.107 0 0 1 0-8.194 3.415 3.415 0 0 1 2.974 1.516l2.42-2.274a6.554 6.554 0 0 0-5.569-2.537 7.392 7.392 0 1 0 0 14.783zm21.163-.35v-10c0-2.741-1.487-4.432-4.578-4.432a6.537 6.537 0 0 0-4.928 2.158V63.97h-3.732v19.449h3.732v-9.506a4.072 4.072 0 0 1 3.207-1.633c1.575 0 2.6.612 2.6 2.566v8.573zm29.262 0h-4.695l-1.225-3.295h-8.339l-1.225 3.295h-4.695l7.494-19.449h5.19zm-7.056-6.94l-3.032-8.369-3.033 8.369zm16.76 7.29a5.421 5.421 0 0 1-4.345-2.158v7.173h-3.7V69.335h3.7v1.779a5.441 5.441 0 0 1 4.345-2.129c3.616 0 6.24 2.683 6.24 7.377s-2.626 7.407-6.241 7.407zm-1.166-3.295c2.129 0 3.586-1.662 3.586-4.111 0-2.42-1.458-4.082-3.586-4.082a4.1 4.1 0 0 0-3.178 1.6v4.957a4.175 4.175 0 0 0 3.176 1.636zm16.585 3.295a7.392 7.392 0 1 1 7.465-7.406 7.156 7.156 0 0 1-7.467 7.406zm0-3.295c2.333 0 3.616-1.9 3.616-4.111 0-2.187-1.283-4.082-3.616-4.082-2.3 0-3.586 1.9-3.586 4.082-.002 2.215 1.281 4.111 3.584 4.111zm14.135 3.295a4.629 4.629 0 0 0 3.091-.9l-.787-2.828a1.864 1.864 0 0 1-1.283.437c-.816 0-1.283-.671-1.283-1.575V63.97h-3.7v15.921c-.005 2.536 1.366 3.878 3.961 3.878zm8.625 0a4.629 4.629 0 0 0 3.091-.9l-.787-2.828a1.864 1.864 0 0 1-1.283.437c-.816 0-1.283-.671-1.283-1.575V63.97h-3.7v15.921c-.005 2.536 1.365 3.878 3.96 3.878zm11.19 0a7.392 7.392 0 1 1 7.465-7.406 7.156 7.156 0 0 1-7.466 7.406zm0-3.295c2.333 0 3.616-1.9 3.616-4.111 0-2.187-1.283-4.082-3.616-4.082-2.3 0-3.587 1.9-3.587 4.082-.001 2.215 1.282 4.111 3.586 4.111z" transform="translate(-161.931 -43.277)"/>
            </g>
        </g>
    </g>
</svg>
