<svg xmlns="http://www.w3.org/2000/svg" width="63.1" height="86.045" viewBox="0 0 63.1 86.045">
    <defs>
        <style>
            .cls-2{fill:#fff}
        </style>
    </defs>
    <g id="outline" opacity="0.545">
        <path id="Path_1578" d="M229.736 408a5.736 5.736 0 1 0 5.736 5.736 5.736 5.736 0 0 0-5.736-5.736zm0 8.6a2.868 2.868 0 1 1 2.868-2.868 2.868 2.868 0 0 1-2.868 2.868z" class="cls-2" transform="translate(-196.752 -337.73)"/>
        <path id="Path_1579" d="M233.434 50.868h5.736a1.434 1.434 0 0 0 0-2.868h-5.736a1.434 1.434 0 0 0 0 2.868z" class="cls-2" transform="translate(-203.318 -42.264)"/>
        <path id="Path_1580" d="M297.434 50.868h1.434a1.434 1.434 0 0 0 0-2.868h-1.434a1.434 1.434 0 1 0 0 2.868z" class="cls-2" transform="translate(-255.845 -42.264)"/>
        <path id="Path_1581" d="M123.052 152.215l7.535-7.535a5.085 5.085 0 1 0-7.191-7.191l-1.359 1.359-1.359-1.359a5.085 5.085 0 1 0-7.191 7.191l7.535 7.535a1.434 1.434 0 0 0 2.03 0zm-7.535-9.564a2.216 2.216 0 1 1 3.135-3.134l2.373 2.373a1.434 1.434 0 0 0 2.028 0l2.373-2.373a2.216 2.216 0 1 1 3.134 3.135l-6.521 6.521z" class="cls-2" transform="translate(-104.829 -114.489)"/>
        <path id="Path_1582" d="M127.929 55.092v-33A6.1 6.1 0 0 0 121.834 16h-33.7a6.1 6.1 0 0 0-6.095 6.095v6.945a17.208 17.208 0 0 0-6.014 26.7l-2.386 3.977a1.434 1.434 0 0 0 1.23 2.172h7.17V95.95a6.1 6.1 0 0 0 6.095 6.095h33.7a6.1 6.1 0 0 0 6.095-6.095v-9.68h4.3a1.434 1.434 0 0 0 1.23-2.172l-2.386-3.977a17.2 17.2 0 0 0-3.146-25.03zm-43.023-33a3.23 3.23 0 0 1 3.227-3.227h33.7a3.23 3.23 0 0 1 3.227 3.227v6.812H96.082a17.219 17.219 0 0 0-11.176-.889zm40.154 9.68v21.647a17.2 17.2 0 0 0-18.54 28.549H84.906V61.891h4.3a17.2 17.2 0 0 0 11.369-30.116zM77.4 59.023l1.627-2.711a1.434 1.434 0 0 0-.193-1.728 14.341 14.341 0 1 1 10.374 4.439zm47.66 36.928a3.23 3.23 0 0 1-3.227 3.227h-33.7a3.23 3.23 0 0 1-3.227-3.227V84.836h26.11a17.109 17.109 0 0 0 6.874 1.434h7.17zm3.012-15.259L129.7 83.4h-11.81a14.341 14.341 0 1 1 10.374-4.439 1.434 1.434 0 0 0-.192 1.73z" class="cls-2" transform="translate(-71.999 -16)"/>
        <ellipse id="Ellipse_479" cx="1.231" cy="1.641" class="cls-2" rx="1.231" ry="1.641" transform="translate(44.829 54.038)"/>
        <ellipse id="Ellipse_480" cx="1.231" cy="1.641" class="cls-2" rx="1.231" ry="1.641" transform="translate(39.084 54.038)"/>
        <ellipse id="Ellipse_481" cx="1.231" cy="1.641" class="cls-2" rx="1.231" ry="1.641" transform="translate(50.574 54.038)"/>
    </g>
</svg>
