<svg xmlns="http://www.w3.org/2000/svg" width="1440" height="469" viewBox="0 0 1440 469">
    <defs>
        <style>
            .cls-2{fill:#f0f0f0}.cls-3{fill:#e6e6e6}.cls-4{fill:#fff}.cls-5{fill:#e0e0e0}.cls-6{fill:#fafafa}.cls-7{fill:#f5f5f5}.cls-8{fill:#263238}.cls-10{fill:#455a64}.cls-11{fill:#777}.cls-13{fill:#222}.cls-14{fill:#d6d8ff}.cls-15{fill:#ffdcd8}.cls-18{fill:#f45a1c}.cls-19{fill:#c34918}.cls-20{fill:#253238}.cls-21{fill:#fdc9c3}.cls-23{fill:#d04900}.cls-24{fill:#ce4a15}.cls-29{fill:#c64917}.cls-30{fill:#a36957}
        </style>
    </defs>
    <g id="Group_15199" transform="translate(0 -90)">
        <path id="Rectangle_2022" fill="#eff8ff" d="M0 0H1440V469H0z" transform="translate(0 90)"/>
        <g id="Group_15190" transform="translate(2550 12474)">
            <path id="Rectangle_2080" d="M0 0H411.639V275.7H0z" class="cls-2" transform="translate(-1960.943 -12344.524)"/>
            <path id="Rectangle_2081" d="M0 0H411.639V27.543H0z" class="cls-3" transform="translate(-1960.943 -12344.524)"/>
            <path id="Path_3870" d="M215.535 36.911a3.331 3.331 0 1 1-3.323-3.091 3.214 3.214 0 0 1 3.323 3.091z" class="cls-4" transform="translate(-2158.648 -12367.658)"/>
            <path id="Path_3871" d="M224.355 36.911a3.331 3.331 0 1 1-3.323-3.091 3.214 3.214 0 0 1 3.323 3.091z" class="cls-4" transform="translate(-2156.732 -12367.658)"/>
            <path id="Path_3872" d="M233.175 36.911a3.331 3.331 0 1 1-3.323-3.091 3.214 3.214 0 0 1 3.323 3.091z" class="cls-4" transform="translate(-2154.818 -12367.658)"/>
            <path id="Path_3873" d="M579.157 43.938a12.688 12.688 0 0 0 7.558-11.745c.024-7.011-5.282-12.719-11.855-12.743s-11.928 5.623-11.952 12.634a12.674 12.674 0 0 0 7.583 11.855C552.173 46.7 553 66.6 553 66.6l43.317.195c.013.005.999-20.118-17.16-22.857z" class="cls-5" transform="translate(-2083.938 -12370.776)"/>
            <path id="Path_3874" d="M11.573 85.965h197.914a7.314 7.314 0 0 0 7.313-7.315V7.315A7.314 7.314 0 0 0 209.487 0H11.573a7.3 7.3 0 0 0-7.3 7.315v71.347a7.3 7.3 0 0 0 7.3 7.303z" class="cls-2" transform="translate(-2203.073 -12375)"/>
            <circle id="Ellipse_593" cx="33.69" cy="33.69" r="33.69" class="cls-6" transform="translate(-2179.5 -12365.701)"/>
            <path id="Path_3875" d="M65.992 27.332a11.6 11.6 0 0 1-6.171-2.812 8.151 8.151 0 0 1-14.4 1.619 31.469 31.469 0 0 1-2.361 8.7 13.359 13.359 0 0 1-4.272 5.221c-.012 3.1-.049 8.033-.073 8.179a3.523 3.523 0 0 1-1.278.256l.548 6.84a4.633 4.633 0 0 1-.985-.618l.134 14.021a33.713 33.713 0 0 0 20.837 1.68c.158-2.252.316-5.538.414-7.668-8.568.243-10.82-6.061-10.82-6.061a19.885 19.885 0 0 0 10.942 3.846l-.012.122c.17-.012 8.617-.888 9.238-9.335.45-6.159.438-18.123.4-24.318a3.076 3.076 0 0 1-2.141.328zm-11.879 10.43a1.241 1.241 0 1 1-.3-1.728 1.245 1.245 0 0 1 .3 1.728zm.475-1.68c-.146.134-.937-.56-2.118-.633-1.181-.1-2.069.475-2.191.316-.061-.073.085-.329.475-.584a2.911 2.911 0 0 1 1.765-.438 2.823 2.823 0 0 1 1.68.694c.352.317.461.585.388.646zm1.96 14.155c-2.5-1.1-1.753-3.091-1.753-3.091-1.181-.8 3.262 2 5.672 2.033a3.269 3.269 0 0 1-3.92 1.059zm5.185-4.455a.839.839 0 0 1-.56.463 2.061 2.061 0 0 1-.523.037 6.258 6.258 0 0 1-1.935-.183 5.482 5.482 0 0 1 1.923-.28c.3-.012.56-.073.584-.231a1.774 1.774 0 0 0-.17-.9c-.256-.791-.511-1.607-.779-2.446-1.071-3.481-1.8-6.353-1.631-6.4s1.193 2.726 2.264 6.207c.256.852.5 1.667.73 2.459a1.852 1.852 0 0 1 .096 1.275zm5.258-8.094a1.239 1.239 0 1 1 .024-1.753 1.234 1.234 0 0 1-.025 1.754zm.438-1.85c-.146.134-.937-.56-2.118-.633-1.181-.1-2.069.475-2.191.316-.061-.073.085-.329.475-.584a2.911 2.911 0 0 1 1.765-.438 2.823 2.823 0 0 1 1.68.694c.351.307.46.585.388.646z" class="cls-7" transform="translate(-2195.967 -12369.677)"/>
            <path id="Path_3876" d="M60.287 33.932a1.239 1.239 0 1 0 1.753.024 1.245 1.245 0 0 0-1.753-.024z" class="cls-5" transform="translate(-2190.992 -12367.707)"/>
            <path id="Path_3877" d="M58.947 33.151c-.389.256-.536.523-.475.584.122.158 1.01-.414 2.191-.316 1.181.073 1.972.779 2.118.633.073-.061-.037-.341-.389-.657a2.9 2.9 0 0 0-1.68-.694 2.994 2.994 0 0 0-1.765.45z" class="cls-5" transform="translate(-2191.308 -12367.9)"/>
            <path id="Path_3878" d="M49.43 34.314a1.241 1.241 0 1 0 1.728-.3 1.245 1.245 0 0 0-1.728.3z" class="cls-5" transform="translate(-2193.316 -12367.665)"/>
            <path id="Path_3879" d="M50.152 32.921a2.96 2.96 0 0 0-1.765.438c-.389.256-.536.523-.475.584.122.158 1.01-.414 2.191-.316 1.181.073 1.972.779 2.118.633.073-.061-.037-.341-.389-.657a2.9 2.9 0 0 0-1.68-.682z" class="cls-5" transform="translate(-2193.601 -12367.853)"/>
            <path id="Path_3880" d="M57.059 40.007c-1.071-3.481-2.093-6.268-2.264-6.207s.548 2.921 1.631 6.4c.268.84.523 1.655.779 2.446a1.755 1.755 0 0 1 .17.9c-.037.158-.28.219-.584.231a5.767 5.767 0 0 0-1.923.28 5.456 5.456 0 0 0 1.935.183 2.061 2.061 0 0 0 .523-.037.779.779 0 0 0 .56-.463 1.98 1.98 0 0 0-.085-1.29c-.255-.775-.501-1.591-.742-2.443z" class="cls-5" transform="translate(-2192.11 -12367.661)"/>
            <path id="Path_3881" d="M51.665 43.136s-.755 2 1.753 3.091a3.252 3.252 0 0 0 3.919-1.059c-2.41-.024-6.853-2.836-5.672-2.032z" class="cls-4" transform="translate(-2192.825 -12365.665)"/>
            <path id="Path_3882" d="M45.69 50.96s2.252 6.3 10.82 6.061l.11-2.093.012-.122A19.625 19.625 0 0 1 45.69 50.96z" class="cls-5" transform="translate(-2194.08 -12363.936)"/>
            <path id="Path_3883" d="M65.744 19.747c-.475-.037-1.156-2.872-4.5-3.627a6.735 6.735 0 0 0-5.6 1.5c-1.485-.365-4.321-2.41-8.155-1.582-2.678.584-5.44 3.043-7.217 5.124a18.3 18.3 0 0 1-2.179 2.556 26.776 26.776 0 0 1-2.349 1.424 8.615 8.615 0 0 0-3.59 6.925 15.275 15.275 0 0 0 2.106 7.729c.122.231.256.45.377.682 2.033-2.118 5.1-1.1 5.221-1.022 0 0 0 1.035-.012 2.471a13.34 13.34 0 0 0 4.269-5.227 31.355 31.355 0 0 0 2.362-8.7 8.151 8.151 0 0 0 14.4-1.619 11.692 11.692 0 0 0 6.171 2.812 3.265 3.265 0 0 0 2.154-.3.908.908 0 0 0 .183-.11c.779-.621.511-1.789.755-2.751.642-2.597.338-5.932-4.396-6.285z" class="cls-5" transform="translate(-2197.021 -12371.562)"/>
            <path id="Path_3884" d="M38.323 44.613c-1.509.122-3.956-.134-5.027-2.2a4.009 4.009 0 0 0-.195.536 3.254 3.254 0 0 0 .389 2.958 1.875 1.875 0 0 0 2.714.268 4.783 4.783 0 0 0 1.696 4.657 4.348 4.348 0 0 0 .986.621z" class="cls-5" transform="translate(-2196.852 -12365.791)"/>
            <path id="Path_3885" d="M38.357 46.221a3.319 3.319 0 0 0 1.278-.256c.024-.146.061-5.075.073-8.179.012-1.424.012-2.471.012-2.471-.122-.073-3.189-1.1-5.221 1.022a6.99 6.99 0 0 0-1.667 4.15 5.97 5.97 0 0 0 .487 3.53c1.081 2.07 3.517 2.313 5.038 2.204zm-2.921-7.972a1.8 1.8 0 0 1 1.448-.974.936.936 0 0 1 .682.268.78.78 0 0 1 .231.487c.024.3-.122.426-.146.414s.024-.158-.049-.365a.635.635 0 0 0-.706-.426 1.46 1.46 0 0 0-1.059.864 4.247 4.247 0 0 0-.56 1.765 3.168 3.168 0 0 0 1.12 2.97 1.279 1.279 0 0 0 .949.085c.219-.073.329-.17.365-.146s-.037.17-.28.329a1.357 1.357 0 0 1-1.181.061c-1.01-.426-1.607-1.874-1.485-3.335a4.273 4.273 0 0 1 .671-1.997z" class="cls-7" transform="translate(-2196.886 -12367.399)"/>
            <path id="Path_3886" d="M35.9 43.155a1.357 1.357 0 0 0 1.181-.061c.243-.158.3-.316.28-.329s-.134.073-.365.146a1.279 1.279 0 0 1-.949-.085 3.129 3.129 0 0 1-1.12-2.97 4.247 4.247 0 0 1 .56-1.765 1.489 1.489 0 0 1 1.059-.864.648.648 0 0 1 .706.426c.073.219.012.353.049.365.012.024.17-.1.146-.414a.78.78 0 0 0-.231-.487.965.965 0 0 0-.682-.268 1.79 1.79 0 0 0-1.448.974 4.271 4.271 0 0 0-.669 1.972c-.126 1.485.458 2.934 1.483 3.36z" class="cls-5" transform="translate(-2196.532 -12367)"/>
            <path id="Rectangle_2082" d="M0 0H90.431V5.903H0z" class="cls-5" transform="translate(-2098.063 -12344.804)"/>
            <path id="Rectangle_2083" d="M0 0H90.431V5.903H0z" class="cls-5" transform="translate(-2098.063 -12329.469)"/>
            <path id="Path_3887" d="M46.985 112.22c-2.665-3.189-7.485-3.067-10.565-.511s-4.42 5.453-4.808 9.761a13.193 13.193 0 0 0-6.317-9.031c-3.408-2.13-8.252-1.607-10.491 1.9a10.162 10.162 0 0 0-1.083 7.29 13.86 13.86 0 0 0 3.043 6.816c5.915 6.3 8.97 7.29 16.309 11.55 6.67-5.185 8.824-6.524 13.826-13.534A14.117 14.117 0 0 0 49 119.3a10.1 10.1 0 0 0-2.015-7.08z" class="cls-5" transform="translate(-2201.071 -12351.16)"/>
            <path id="Path_3888" d="M748 343.446c0 .17-167.462.316-373.982.316C167.426 343.763 0 343.617 0 343.446s167.426-.316 374.018-.316c206.52 0 373.982.146 373.982.316z" class="cls-8" transform="translate(-2204 -12300.504)"/>
            <path id="Path_3889" fill="#a7bdf5" d="M552.547 42.55H138.218a12.939 12.939 0 0 0-12.938 12.938v292.654a12.939 12.939 0 0 0 12.938 12.938h159.028s10.114 31.28-21.239 47.467H424.7s-35.4-12.134-26.3-47.467h154.171a12.939 12.939 0 0 0 12.938-12.938V55.488a12.975 12.975 0 0 0-12.962-12.938z" transform="translate(-2176.8 -12365.763)"/>
            <path id="Path_3890" d="M313.117 279.411c5.635 8.057-3.189 16.881-11.246 11.246a2.684 2.684 0 0 1-.694-.694c-5.623-8.057 3.189-16.869 11.246-11.246a3.127 3.127 0 0 1 .694.694z" class="cls-10" transform="translate(-2138.997 -12314.872)"/>
            <g id="Group_10200" transform="translate(-2042.173 -12305.661)">
                <g id="Group_10199">
                    <path id="Path_3891" d="M549.626 306.478H136.94a3.982 3.982 0 0 1-3.98-3.98V60.95a3.981 3.981 0 0 1 3.98-3.98h412.686a3.981 3.981 0 0 1 3.98 3.98V302.5a3.974 3.974 0 0 1-3.98 3.978z" class="cls-2" transform="translate(-132.96 -56.97)"/>
                </g>
            </g>
            <g id="Group_10202" transform="translate(-2042.526 -12287.259)">
                <g id="Group_10201">
                    <path id="Rectangle_2084" d="M0 0H420.646V231.227H0z" class="cls-4"/>
                </g>
            </g>
            <g id="Group_10204" transform="translate(-2014.386 -12299.38)">
                <g id="Group_10203">
                    <path id="Path_3892" d="M162.508 65.489a3.359 3.359 0 1 1-3.359-3.359 3.366 3.366 0 0 1 3.359 3.359z" class="cls-10" transform="translate(-155.79 -62.13)"/>
                </g>
            </g>
            <g id="Group_10206" transform="translate(-2034.748 -12299.38)">
                <g id="Group_10205">
                    <path id="Path_3893" d="M145.778 65.489a3.359 3.359 0 1 1-3.359-3.359 3.366 3.366 0 0 1 3.359 3.359z" class="cls-10" transform="translate(-139.06 -62.13)"/>
                </g>
            </g>
            <g id="Group_10208" transform="translate(-2024.975 -12299.38)">
                <g id="Group_10207">
                    <path id="Path_3894" d="M153.808 65.489a3.359 3.359 0 1 1-3.359-3.359 3.366 3.366 0 0 1 3.359 3.359z" class="cls-10" transform="translate(-147.09 -62.13)"/>
                </g>
            </g>
            <g id="Group_10212" transform="translate(-1881.137 -12203.325)">
                <g id="Group_10211">
                    <path id="Rectangle_2085" d="M0 0H32.728V4.15H0z" class="cls-5"/>
                </g>
            </g>
            <g id="Group_10222" transform="translate(-1881.137 -12189.962)">
                <g id="Group_10214">
                    <g id="Group_10213">
                        <path id="Rectangle_2086" d="M0 0H154.549V69.582H0z" class="cls-7"/>
                    </g>
                </g>
                <g id="Group_10216" transform="translate(5.587 19.595)">
                    <g id="Group_10215">
                        <path id="Path_3895" d="M269.86 212.153l43.706-44.023 37.9 33.471 20.5-18.305 39.447 28.858z" class="cls-5" transform="translate(-269.86 -168.13)"/>
                    </g>
                </g>
                <g id="Group_10218" transform="translate(79.076 20.861)">
                    <g id="Group_10217">
                        <path id="Path_3896" d="M340.585 174.343a5.173 5.173 0 1 1-5.173-5.173 5.168 5.168 0 0 1 5.173 5.173z" class="cls-5" transform="translate(-330.24 -169.17)"/>
                    </g>
                </g>
                <g id="Group_10221" transform="translate(5.168 5.387)">
                    <g id="Group_10220">
                        <g id="Group_10219">
                            <path id="Path_3897" d="M411.107 214.882a.87.87 0 0 1-.036-.28c-.012-.207-.024-.475-.037-.815-.024-.742-.049-1.789-.085-3.128-.036-2.763-.1-6.755-.183-11.818l-.353-42.015.682.292c-40.724.012-89.007.037-140.613.049-.183.073 1.485-.645.779-.329v15.616q-.018 7.668-.024 14.995c-.024 9.749-.049 18.963-.073 27.434l-.694-.3 101.677.146c12.293.036 21.981.061 28.675.073 3.274.012 5.818.024 7.607.037.828.012 1.473.012 1.972.012l.706.037c.012 0-.195.012-.609.012-.487 0-1.108.012-1.9.012q-2.647.018-7.473.037c-6.658.012-16.3.049-28.517.073-24.756.037-59.967.085-102.128.146h-.694v-.3c-.024-8.471-.049-17.685-.073-27.434-.012-4.868-.012-9.883-.024-14.995v-15.625c-.706.3.962-.426.8-.353 51.605.012 99.888.036 140.613.049h.682v.292l-.353 42.2c-.073 5.039-.134 9.007-.183 11.745-.036 1.327-.061 2.349-.073 3.079-.012.329-.024.584-.036.779s-.02.289-.032.277z" class="cls-5" transform="translate(-269.516 -156.456)"/>
                        </g>
                    </g>
                </g>
            </g>
            <path id="Path_3898" d="M279.953 227.646a6.146 6.146 0 1 1-6.146-6.146 6.145 6.145 0 0 1 6.146 6.146z" class="cls-11" transform="translate(-2145.888 -12326.909)"/>
            <g id="Group_10224" transform="translate(-1861.03 -12102.878)">
                <path id="Path_3899" d="M377.808 223.9c0 .17-21.494.316-48 .316s-48.015-.146-48.015-.316 21.494-.316 48.015-.316 48 .142 48 .316z" class="cls-11" transform="translate(-281.79 -223.58)"/>
            </g>
            <g id="Group_10225" transform="translate(-1861.03 -12098.508)">
                <path id="Path_3900" d="M377.808 227.486c0 .17-21.494.316-48 .316s-48.015-.146-48.015-.316 21.494-.316 48.015-.316 48 .13 48 .316z" class="cls-11" transform="translate(-281.79 -227.17)"/>
            </g>
            <g id="Group_10226" transform="translate(-1861.042 -12093.433)">
                <path id="Path_3901" d="M333.118 231.656a11.627 11.627 0 0 1-2.02.122c-1.412.024-3.262.061-5.5.1-4.649.061-11.064.1-18.147.1s-13.5-.036-18.147-.1c-2.24-.037-4.089-.073-5.5-.1a13.417 13.417 0 0 1-2.02-.122 11.624 11.624 0 0 1 2.02-.122c1.412-.024 3.262-.061 5.5-.1 4.649-.061 11.064-.1 18.147-.1s13.5.037 18.147.1c2.239.036 4.089.073 5.5.1a10.258 10.258 0 0 1 2.02.122z" class="cls-11" transform="translate(-281.78 -231.34)"/>
            </g>
            <circle id="Ellipse_594" cx="6.146" cy="6.146" r="6.146" class="cls-11" transform="translate(-1878.228 -12082.149)"/>
            <g id="Group_10228" transform="translate(-1861.03 -12079.605)">
                <path id="Path_3902" d="M377.808 243.016c0 .17-21.494.316-48 .316s-48.015-.146-48.015-.316 21.494-.316 48.015-.316 48 .134 48 .316z" class="cls-11" transform="translate(-281.79 -242.7)"/>
            </g>
            <g id="Group_10229" transform="translate(-1861.03 -12075.249)">
                <path id="Path_3903" d="M377.808 246.6c0 .17-21.494.316-48 .316s-48.015-.146-48.015-.316 21.494-.316 48.015-.316 48 .142 48 .316z" class="cls-11" transform="translate(-281.79 -246.28)"/>
            </g>
            <g id="Group_10230" transform="translate(-1861.042 -12070.173)">
                <path id="Path_3904" d="M333.118 250.766a11.625 11.625 0 0 1-2.02.122c-1.412.024-3.262.061-5.5.1-4.649.061-11.064.1-18.147.1s-13.5-.037-18.147-.1c-2.24-.036-4.089-.073-5.5-.1a13.417 13.417 0 0 1-2.02-.122 11.623 11.623 0 0 1 2.02-.122c1.412-.024 3.262-.061 5.5-.1 4.649-.061 11.064-.1 18.147-.1s13.5.036 18.147.1c2.239.036 4.089.073 5.5.1a11.623 11.623 0 0 1 2.02.122z" class="cls-11" transform="translate(-281.78 -250.45)"/>
            </g>
            <path id="Rectangle_2087" fill="#989dff" d="M0 0H420.646V69.083H0z" transform="translate(-2042.173 -12287.611)"/>
            <path id="Rectangle_2088" d="M0 0H97.856V7.181H0z" class="cls-6" transform="translate(-1855.784 -12263.757)"/>
            <path id="Path_3905" d="M436.79 107.969a2.646 2.646 0 0 1-.5.037c-.353.012-.84.012-1.448.037-1.314.012-3.189.037-5.574.061-4.881.024-11.879.061-20.52.1-17.356.024-41.284.061-67.708.1-26.436-.037-50.352-.073-67.708-.1-8.641-.037-15.64-.073-20.52-.1-2.4-.024-4.272-.049-5.574-.061-.609-.012-1.1-.024-1.448-.037a2.647 2.647 0 0 1-.5-.037 2.648 2.648 0 0 1 .5-.037c.353-.012.84-.012 1.448-.037 1.314-.012 3.189-.036 5.574-.061 4.881-.024 11.879-.061 20.52-.1 17.356-.024 41.284-.061 67.708-.1 26.423.037 50.34.073 67.708.1 8.642.037 15.64.073 20.52.1 2.4.024 4.272.049 5.574.061.609.012 1.1.024 1.448.037.33.024.5.024.5.037z" class="cls-6" transform="translate(-2150.745 -12351.631)"/>
            <path id="Path_3906" d="M387.257 114.146a5.426 5.426 0 0 1-1.047.061c-.742.012-1.753.037-3.018.061-2.678.024-6.451.061-11.088.1-9.42.024-22.322.061-36.574.1-14.265-.037-27.166-.073-36.586-.1-4.637-.037-8.41-.073-11.088-.1-1.266-.024-2.264-.049-3.018-.061a6.879 6.879 0 0 1-1.047-.061 5.427 5.427 0 0 1 1.047-.061c.742-.012 1.753-.037 3.018-.061 2.678-.024 6.451-.061 11.088-.1 9.42-.024 22.322-.061 36.586-.1 14.252.037 27.166.073 36.574.1 4.637.037 8.41.073 11.088.1 1.266.024 2.264.049 3.018.061a5.3 5.3 0 0 1 1.047.061z" class="cls-6" transform="translate(-2142.386 -12350.286)"/>
            <g id="Group_10236" transform="translate(-2011.672 -12253.775)">
                <path id="Path_3907" d="M228.552 134.872A35.266 35.266 0 1 1 193.28 99.6a35.272 35.272 0 0 1 35.272 35.272z" class="cls-6" transform="translate(-158.02 -99.6)"/>
            </g>
            <g id="Group_10239" transform="translate(-2015.08 -12141.983)">
                <g id="Group_10238">
                    <path id="Path_3908" d="M236.134 191.791c0 .195-18.111.341-40.457.341s-40.457-.158-40.457-.341 18.111-.341 40.457-.341 40.457.158 40.457.341z" class="cls-13" transform="translate(-155.22 -191.45)"/>
                </g>
            </g>
            <g id="Group_10242" transform="translate(-2015.08 -12133.025)">
                <g id="Group_10241">
                    <path id="Path_3909" d="M236.134 199.151c0 .195-18.111.341-40.457.341s-40.457-.158-40.457-.341 18.111-.341 40.457-.341 40.457.146 40.457.341z" class="cls-13" transform="translate(-155.22 -198.81)"/>
                </g>
            </g>
            <g id="Group_10245" transform="translate(-2015.08 -12124.079)">
                <g id="Group_10244">
                    <path id="Path_3910" d="M236.134 206.5c0 .195-18.111.341-40.457.341s-40.457-.158-40.457-.341 18.111-.341 40.457-.341 40.457.159 40.457.341z" class="cls-13" transform="translate(-155.22 -206.16)"/>
                </g>
            </g>
            <g id="Group_10248" transform="translate(-2015.494 -12114.938)">
                <g id="Group_10247">
                    <path id="Path_3911" d="M201.787 214.011c0 .195-10.5.341-23.454.341s-23.454-.158-23.454-.341 10.5-.341 23.454-.341 23.454.158 23.454.341z" class="cls-13" transform="translate(-154.88 -213.67)"/>
                </g>
            </g>
            <g id="Group_10250" transform="translate(-2015.067 -12159.894)">
                <path id="Rectangle_2089" d="M0 0H55.744V4.077H0z" class="cls-13" transform="rotate(180 27.872 2.039)"/>
            </g>
            <g id="Group_10252" transform="translate(-1998.515 -12233.973)">
                <path id="Path_3912" d="M168.83 158.274a34.165 34.165 0 0 0 44.729-.024c-1.862-6.378-6.414-13.948-17.478-15.628a13.853 13.853 0 0 0 8.252-12.828c.037-7.656-5.757-13.9-12.938-13.924s-13.023 6.146-13.06 13.8a13.849 13.849 0 0 0 8.289 12.95c-11.246 1.706-15.883 9.313-17.794 15.654z" class="cls-5" transform="translate(-168.83 -115.87)"/>
            </g>
            <g id="Group_10254" transform="translate(-2015.068 -12100.626)">
                <path id="Rectangle_2090" d="M0 0H31.255V3.797H0z" class="cls-13"/>
            </g>
            <g id="Group_15189" transform="translate(-1602.993 -12290.471)">
                <path id="Path_3913" d="M536.935 69.462a4.971 4.971 0 0 0 .779.085c.56.037 1.315.1 2.288.17a24.749 24.749 0 0 1 3.676.487c.718.146 1.509.207 2.325.438s1.68.463 2.592.718a43.024 43.024 0 0 1 12.366 6.14 43.673 43.673 0 0 1 12.159 13.529 46.191 46.191 0 0 1 4.26 9.737 46.833 46.833 0 0 1 1.85 11.368 46.156 46.156 0 0 1-.109 6.073c-.049 1.035-.28 2.045-.4 3.091a22.823 22.823 0 0 1-.584 3.1 43.792 43.792 0 0 1-4.7 12.171 43.255 43.255 0 0 1-20.423 18.549 39.7 39.7 0 0 1-14.4 3.238 38.879 38.879 0 0 1-15.031-2.166l-1.473-.536-.195-.073-.17.085c-7.217 3.663-14.289 7.254-21.141 10.735l.633.536c2.264-7.011 4.442-13.8 6.548-20.314l.085-.256-.183-.183a45.087 45.087 0 0 1-11.1-18.451 46.126 46.126 0 0 1-1.607-19.644 45.2 45.2 0 0 1 15.092-28.334 46.583 46.583 0 0 1 10.382-6.609 45.051 45.051 0 0 1 8.775-2.763c1.229-.207 2.337-.4 3.286-.56.949-.061 1.753-.122 2.422-.17.621-.049 1.12-.085 1.485-.11a3.383 3.383 0 0 0 .511-.085 3.233 3.233 0 0 0-.511-.012c-.377.012-.864.024-1.5.037-.669.024-1.485.061-2.446.1-.962.146-2.069.3-3.323.5a44.407 44.407 0 0 0-8.885 2.665A44.946 44.946 0 0 0 494.227 108a47.116 47.116 0 0 0 1.57 19.985 45.872 45.872 0 0 0 11.258 18.829l-.11-.438c-2.106 6.512-4.309 13.3-6.572 20.314l-.329 1.022.962-.487c6.852-3.481 13.936-7.059 21.153-10.723l-.365.012 1.509.548a39.632 39.632 0 0 0 15.36 2.2 40.634 40.634 0 0 0 14.715-3.323 45.011 45.011 0 0 0 25.547-31.365 21.9 21.9 0 0 0 .584-3.164c.134-1.059.353-2.093.4-3.14a45.572 45.572 0 0 0 .091-6.17 47.656 47.656 0 0 0-1.935-11.538 46.579 46.579 0 0 0-4.385-9.862 44.015 44.015 0 0 0-12.427-13.632 42.775 42.775 0 0 0-12.561-6.061c-.925-.243-1.8-.475-2.629-.682a20.222 20.222 0 0 0-2.349-.4 22.3 22.3 0 0 0-3.712-.4q-1.46-.055-2.3-.073a7.446 7.446 0 0 0-.767.01z" class="cls-14" transform="translate(-493.798 -69.45)"/>
                <path id="Path_3914" d="M521.39 104.4h3.1l6.767-9.42V88.8s4.783-.292 4.223 7.8.049 6.037.049 6.037 10.163.037 11.015.925c.621.645.888 10.747 1 16.224a5.945 5.945 0 0 1-4.2 5.976 4.236 4.236 0 0 1-1.1.146c-2.532 0-15.494-2.057-15.494-2.057h-5.35V104.4z" class="cls-14" transform="translate(-487.807 -65.249)"/>
                <path id="Path_3915" d="M514.1 100.23l1.911 21.19h5.294v-20.764z" class="cls-14" transform="translate(-489.39 -62.769)"/>
            </g>
            <path id="Path_3916" d="M598.657 165.02H411.295a7.314 7.314 0 0 0-7.315 7.315v59.419a7.314 7.314 0 0 0 7.315 7.315h4.284v21.592l21.251-21.592h161.839a7.314 7.314 0 0 0 7.315-7.315v-59.419a7.332 7.332 0 0 0-7.327-7.315z" class="cls-14" transform="translate(-2116.292 -12339.173)"/>
            <path id="Path_3917" d="M525.717 211.264c-.11-3.384-.024-8.386.1-12.841l-.024.024a14.02 14.02 0 0 1 3.371-15.177c7.011-7.217 11.709-5.611 14.411-5.574 2.519.049 15.19 3.031 18.719 17.965a28.774 28.774 0 0 1 .377 2.9c.073.742.134 1.448.195 1.947h.012a15.66 15.66 0 0 0 8.155 12.914 30.912 30.912 0 1 0-44.023 14.143 44.265 44.265 0 0 1-1.293-16.301z" class="cls-6" transform="translate(-2092.876 -12338.082)"/>
            <path id="Path_3918" d="M523.309 204.65c-.012-.231-.024-.475-.024-.73a43.906 43.906 0 0 0 1.3 16.285 31.01 31.01 0 0 0 6.475 2.9c-.1-4.309-.45-10.431-.45-10.431s-7.01-.891-7.301-8.024z" class="cls-8" transform="translate(-2090.443 -12330.728)"/>
            <path id="Path_3919" d="M549.209 195.893s-11.429-1.3-13.267-12.013l-.061.061c-.694 1.619-1.935 5.088-1.181 7.911l-10.2 2.519-1.156 1.059c-.122 4.455-.195 9.457-.1 12.841.012.256.012.5.024.73.3 7.132 7.291 8.009 7.291 8.009a17 17 0 0 0 9.25-3.031s-2.179 5.2-9.128 4.783l-.122-1.753s.353 6.122.45 10.431a31.051 31.051 0 0 0 17.113.4zm-14.045 1.728a.889.889 0 1 1 .876.925.9.9 0 0 1-.876-.925zm-.207-1.546a2.236 2.236 0 0 1 1.375-.536 2.28 2.28 0 0 1 1.424.414c.316.231.426.45.377.5-.1.134-.815-.365-1.765-.316s-1.619.6-1.74.475c-.061-.05.037-.281.329-.537zm-10.6-.183a2.236 2.236 0 0 1 1.375-.536 2.279 2.279 0 0 1 1.424.414c.3.231.426.45.377.5-.1.134-.815-.365-1.765-.316s-1.619.6-1.74.475c-.062-.049.036-.281.328-.536zm.511 1.546a.889.889 0 1 1 .876.925.884.884 0 0 1-.877-.924zm4.175 7.424a.611.611 0 0 1-.414-.365 1.63 1.63 0 0 1 .11-1.035c.207-.645.426-1.327.657-2.033a36.358 36.358 0 0 1 1.935-5.148 36.735 36.735 0 0 1-1.546 5.282c-.243.706-.475 1.375-.694 2.02a1.442 1.442 0 0 0-.146.779c.049.183.28.219.523.231a5.883 5.883 0 0 1 1.558.243 6 6 0 0 1-1.582.061.95.95 0 0 1-.402-.034zm3.627 3.505a2.613 2.613 0 0 1-3.152-.974c1.947.037 5.635-2.191 4.649-1.558.011.002.571 1.681-1.499 2.533z" class="cls-15" transform="translate(-2090.407 -12335.078)"/>
            <path id="Path_3921" d="M525.614 193.907c.961-.049 1.667.45 1.765.316.049-.061-.061-.28-.377-.5a2.28 2.28 0 0 0-1.424-.414 2.236 2.236 0 0 0-1.375.536c-.292.256-.389.487-.329.536.121.119.778-.438 1.74-.474z" class="cls-8" transform="translate(-2090.265 -12333.031)"/>
            <path id="Path_3926" fill="#ffc9c2" d="M538.5 208.61a17 17 0 0 1-9.25 3.031l.122 1.753c6.949.413 9.128-4.784 9.128-4.784z" transform="translate(-2089.094 -12329.709)"/>
            <path id="Path_3927" fill="#243238" d="M560.554 199.172h-.012c-.061-.5-.122-1.2-.195-1.947a28.772 28.772 0 0 0-.377-2.9c-3.53-14.922-16.212-17.916-18.719-17.965-2.7-.049-7.4-1.655-14.411 5.574a14.02 14.02 0 0 0-3.371 15.177l.024-.024 1.156-1.059 10.2-2.519c-.755-2.824.487-6.292 1.181-7.911l.061-.061c1.838 10.7 13.266 12.013 13.266 12.013l-1.1 31.961c.426-.11.84-.231 1.266-.353a30.98 30.98 0 0 0 19.182-17.088 15.65 15.65 0 0 1-8.151-12.898z" transform="translate(-2090.554 -12336.751)"/>
            <path id="Rectangle_2091" d="M0 0H97.15V5.355H0z" class="cls-6" transform="translate(-1689.43 -12152.367)"/>
            <path id="Rectangle_2092" d="M0 0H97.15V5.355H0z" class="cls-6" transform="translate(-1689.43 -12138.591)"/>
            <path id="Rectangle_2093" d="M0 0H48.149V5.355H0z" class="cls-6" transform="translate(-1689.43 -12125.202)"/>
            <g id="Group_10268" transform="translate(-1550.582 -11978.624)">
                <path id="Path_3928" d="M560.74 337.2l-2.264-11.526-21.616 4.1 3.14 16.891 1.351-.17c6.025-.8 30.586-4.5 34.347-6.463 4.202-2.191-14.958-2.832-14.958-2.832z" class="cls-18" transform="translate(-536.86 -325.67)"/>
            </g>
            <g id="Group_10269" transform="translate(-1548.634 -11964.234)">
                <path id="Path_3929" d="M547.454 342.443a7.587 7.587 0 0 0-3.639-4.089 7.381 7.381 0 0 0-5.355-.609l1.144 6.037z" class="cls-2" transform="translate(-538.46 -337.492)"/>
            </g>
            <path id="Path_3930" d="M569.613 335.66s6.792.633 6.183 1.85-25.279 5.879-36.355 6.986l-.061-.487 28.833-5.209c.025.012.159-2.848 1.4-3.14z" class="cls-2" transform="translate(-2086.894 -12302.126)"/>
            <g id="Group_10276" transform="translate(-1525.615 -11967.025)">
                <path id="Path_3933" d="M557.394 337.221c.073.024.3-.4.523-.962a2.537 2.537 0 0 0 .28-1.059 2.419 2.419 0 0 0-.523.962c-.232.56-.353 1.022-.28 1.059z" class="cls-19" transform="translate(-557.373 -335.199)"/>
            </g>
            <g id="Group_10278" transform="translate(-1527.528 -11967.079)">
                <path id="Path_3934" d="M555.812 336.634c.061.049.353-.243.669-.657s.511-.767.45-.815-.353.243-.669.657-.511.766-.45.815z" class="cls-19" transform="translate(-555.801 -335.156)"/>
            </g>
            <g id="Group_10280" transform="translate(-1529.015 -11967.878)">
                <path id="Path_3935" d="M554.58 334.938a2.649 2.649 0 0 0 1.156-.073 2.613 2.613 0 0 0 1.108-.329 2.649 2.649 0 0 0-1.156.073 2.829 2.829 0 0 0-1.108.329z" class="cls-19" transform="translate(-554.58 -334.499)"/>
            </g>
            <g id="Group_10282" transform="translate(-1529.672 -11969.102)">
                <path id="Path_3936" d="M554.04 333.793a2.168 2.168 0 0 0 1.327.134 2.332 2.332 0 0 0 1.266-.414 6.555 6.555 0 0 0-1.3.158 7.417 7.417 0 0 0-1.293.122z" class="cls-19" transform="translate(-554.04 -333.494)"/>
            </g>
            <g id="Group_10284" transform="translate(-1525.217 -11969.541)">
                <path id="Path_3937" d="M557.7 335.637a4.114 4.114 0 0 0 1.388-.268 8.214 8.214 0 0 0 1.412-.609 3.564 3.564 0 0 0 .779-.511.834.834 0 0 0 .268-.5.555.555 0 0 0-.316-.511 2.586 2.586 0 0 0-3.006 1.339 2.5 2.5 0 0 0-.28 1.01.791.791 0 0 0 .037.377 3.792 3.792 0 0 1 .414-1.3 2.523 2.523 0 0 1 1.047-1 2.13 2.13 0 0 1 1.68-.195c.256.122.219.4 0 .584a3.717 3.717 0 0 1-.718.487 10.269 10.269 0 0 1-1.363.645c-.819.315-1.354.415-1.342.452z" class="cls-18" transform="translate(-557.7 -333.132)"/>
            </g>
            <g id="Group_10286" transform="translate(-1527.081 -11969.504)">
                <path id="Path_3938" d="M558.4 335.63a1.394 1.394 0 0 0-.024-1 2.332 2.332 0 0 0-.572-.949 1.407 1.407 0 0 0-1.29-.487.553.553 0 0 0-.3.718 1.478 1.478 0 0 0 .353.572 4.257 4.257 0 0 0 .815.718 2.13 2.13 0 0 0 .9.414c.012-.037-.329-.195-.791-.56a5.734 5.734 0 0 1-.742-.718c-.243-.256-.475-.755-.146-.889a1.267 1.267 0 0 1 1.022.414 2.126 2.126 0 0 1 .56.828 3.3 3.3 0 0 1 .215.939z" class="cls-18" transform="translate(-556.169 -333.163)"/>
            </g>
            <g id="Group_10288" transform="translate(-1548.513 -11964.535)">
                <path id="Path_3939" d="M538.56 337.726c.012.049.609-.17 1.607-.243a6.909 6.909 0 0 1 6.524 3.444c.511.864.657 1.485.706 1.461a1.2 1.2 0 0 0-.085-.438 5.743 5.743 0 0 0-.45-1.12 6.684 6.684 0 0 0-6.694-3.542 5.485 5.485 0 0 0-1.181.256c-.293.097-.439.156-.427.182z" class="cls-19" transform="translate(-538.559 -337.245)"/>
            </g>
            <g id="Group_10290" transform="translate(-1547.988 -11973.476)">
                <path id="Path_3940" d="M539 329.9a37.653 37.653 0 0 0 .657 4.479 40.124 40.124 0 0 0 .913 4.43 37.668 37.668 0 0 0-.657-4.479 40.137 40.137 0 0 0-.913-4.43z" class="cls-19" transform="translate(-538.991 -329.9)"/>
            </g>
            <g id="Group_10292" transform="translate(-1537.315 -11963.042)">
                <path id="Path_3941" d="M547.76 339.614a12.244 12.244 0 0 0 3.213-.28 12.816 12.816 0 0 0 3.116-.852c-.024-.073-1.412.28-3.164.584s-3.165.462-3.165.548z" class="cls-19" transform="translate(-547.76 -338.472)"/>
            </g>
            <path id="Path_3946" d="M479.62 329.455s29.9-66.99 58.044-67.513c0 0 16.224-3.663 22.577 29.418 3.189 16.589 13.863 56.425 13.863 56.425l-28.4 4.893-10.604-49.44-13.461 30.683z" class="cls-20" transform="translate(-2099.869 -12318.156)"/>
            <path id="Path_3947" d="M532.34 335.525l.84 3.615 30.878-5.842-.718-3.8z" class="cls-10" transform="translate(-2088.423 -12303.463)"/>
            <path id="Path_3948" d="M517.221 284.421c.049.17-.426.462-1.083.645s-1.29.122-1.278-.073c.012-.158.462-.341 1.107-.536s1.206-.207 1.254-.036z" class="cls-10" transform="translate(-2092.218 -12313.272)"/>
            <path id="Path_3949" d="M525.472 283.051a8.078 8.078 0 0 1-2.4.341 6.228 6.228 0 0 1-2.434.085c-.037-.158 1-.56 2.361-.718 1.39-.159 2.51.109 2.473.292z" class="cls-10" transform="translate(-2090.964 -12313.62)"/>
            <path id="Path_3950" d="M529.229 289.771c-.17.049-.657-.937-1.083-2.191a5.135 5.135 0 0 1-.487-2.41c.158-.073.645.913 1.083 2.191s.658 2.362.487 2.41z" class="cls-10" transform="translate(-2089.45 -12313.086)"/>
            <path id="Path_3951" d="M531.3 297.478c-.17.049-.584-.974-.937-2.264s-.487-2.385-.316-2.434.584.974.937 2.264.483 2.386.316 2.434z" class="cls-10" transform="translate(-2088.937 -12311.435)"/>
            <path id="Path_3952" d="M533.232 305.22c-.17.036-.572-.986-.888-2.276s-.45-2.386-.28-2.434.572.974.888 2.276.448 2.398.28 2.434z" class="cls-10" transform="translate(-2088.499 -12309.756)"/>
            <path id="Path_3953" d="M535.083 312.973c-.17.037-.56-.986-.864-2.288s-.426-2.4-.256-2.434.56.986.864 2.288.427 2.397.256 2.434z" class="cls-10" transform="translate(-2088.087 -12308.075)"/>
            <path id="Path_3954" d="M536.89 320.755c-.17.037-.548-.986-.852-2.3s-.414-2.4-.243-2.434.548.986.852 2.3.413 2.385.243 2.434z" class="cls-10" transform="translate(-2087.691 -12306.389)"/>
            <path id="Path_3955" d="M538.656 328.535c-.17.037-.548-.986-.84-2.3s-.4-2.4-.231-2.434.548.986.84 2.3.401 2.399.231 2.434z" class="cls-10" transform="translate(-2087.302 -12304.698)"/>
            <path id="Path_3956" d="M539.869 333.964c-.17.036-.426-.463-.572-1.12s-.122-1.217.049-1.254.426.463.572 1.12.121 1.205-.049 1.254z" class="cls-10" transform="translate(-2086.933 -12303.007)"/>
            <path id="Path_3957" d="M444.005 241.48l-3.785.3-10.394 23.539 6.4 25.791c3.432 11.964-6.183 27.227-7.838 37.876l55.354 1.388 2.726-36.4 1.85 16.163 23.941 3.018-12.889-45.52c-6.937-26.192-29.405-25.924-29.405-25.924" class="cls-18" transform="translate(-2110.992 -12322.572)"/>
            <path id="Path_3958" d="M464.813 250.524c-.353-2.045.426-9.518.426-9.518s7.826-.828 8.3-8.593 0-25.669 0-25.669l-14.265-6.974-13.484 12.03.17 38.692z" class="cls-15" transform="translate(-2107.214 -12331.628)"/>
            <path id="Path_3965" d="M463.615 234.269a19.357 19.357 0 0 1-10.285-3.469s2.337 5.7 10.114 5.38z" class="cls-21" transform="translate(-2105.577 -12324.891)"/>
            <path id="Path_3966" d="M435.31 220.717c.049-.365.122-.937.195-1.57.024-.475.049-.755.049-.755h.037c.17-1.509.341-3.213.463-3.956C439.363 194 456.6 195.194 456.6 195.194c.925-.024 6.414-.475 13.157 4.248a18.675 18.675 0 0 1 8.643 15.238 16.579 16.579 0 0 1-.207 3.25 3.29 3.29 0 0 1-.3 1.156c-.122-.012.231-1.68.037-4.382a20.048 20.048 0 0 0-1.314-5.83 14.743 14.743 0 0 1-.584 9.761l-13.839-2.166c.889-3.031.231-7.85-.17-10.2C459.567 217.564 449.867 223 449.867 223l-1.156-.183v17.2c-11.77-2.519-13.194-14.216-13.242-19.279z" class="cls-20" transform="translate(-2109.489 -12332.626)"/>
            <path id="Path_3967" d="M438.626 212.157a9.818 9.818 0 0 0-13.6-1.035 5.435 5.435 0 0 0-1.753 2.337 2.841 2.841 0 0 0 .487 2.775 1.933 1.933 0 0 0 2.653.158 2.243 2.243 0 1 0 2.763 3.091 5.51 5.51 0 0 0-.389 2.239 2.148 2.148 0 0 0 1.2 1.813 2.331 2.331 0 0 0 2.459-.8 19.656 19.656 0 0 0 1.521-2.288 7.3 7.3 0 0 1 6.11-3.116" class="cls-8" transform="translate(-2112.136 -12329.653)"/>
            <path id="Path_3968" d="M426.1 206.843a4.158 4.158 0 0 1 2.033-.4 10.166 10.166 0 0 1 8.678 4.345 4.423 4.423 0 0 1 .9 1.862 17.644 17.644 0 0 1-1.254-1.594 11.6 11.6 0 0 0-3.712-2.97 11.754 11.754 0 0 0-4.613-1.193 16.635 16.635 0 0 1-2.032-.05z" class="cls-8" transform="translate(-2111.489 -12330.183)"/>
            <path id="Path_3969" d="M436.126 211.13c.17.037-.049 1.619-.231 3.554s-.243 3.53-.426 3.542-.389-1.607-.207-3.6a8.1 8.1 0 0 1 .864-3.496z" class="cls-10" transform="translate(-2109.515 -12329.162)"/>
            <path id="Path_3970" d="M447.572 222.409a3.181 3.181 0 0 1-3.992-.548 4.686 4.686 0 0 1-1.022-4.1 3.519 3.519 0 0 1 1.29-2.252 3.65 3.65 0 0 1 3.432.219z" class="cls-15" transform="translate(-2107.938 -12328.282)"/>
            <path id="Path_3971" d="M445.635 220.9c.012-.1-.377-.158-.828-.5a2.01 2.01 0 0 1-.84-1.8 1.972 1.972 0 0 1 1.156-1.619c.511-.243.9-.231.913-.341.024-.073-.389-.268-1.071-.1a2.3 2.3 0 0 0-.389 4.26c.624.294 1.059.172 1.059.1z" class="cls-21" transform="translate(-2107.753 -12328.001)"/>
            <path id="Path_3972" fill="#ebebeb" d="M443.194 220.162a2.471 2.471 0 0 0-1.412.876 1.9 1.9 0 0 0-.341 1.692 2.131 2.131 0 0 0 1.5 1.461 2.043 2.043 0 0 0 2.41-2.386 4.535 4.535 0 0 0-.657-1.57c.012-.012.134.1.316.353a3.157 3.157 0 0 1 .511 1.193 2.263 2.263 0 0 1-.426 1.874 2.2 2.2 0 0 1-3.87-.852 2.105 2.105 0 0 1 .426-1.874 1.85 1.85 0 0 1 1.543-.767z" transform="translate(-2108.221 -12327.202)"/>
            <path id="Path_3973" d="M442.414 241.66s-11.66.183-17.587 15.6a32.7 32.7 0 0 0-.073 22.614l2.13 6 23.563-6.828z" class="cls-18" transform="translate(-2112.211 -12322.532)"/>
            <path id="Path_3974" d="M475.666 299.4a7.743 7.743 0 0 1-.1-1.619 43.669 43.669 0 0 1 .195-4.418 45.144 45.144 0 0 1 1.108-6.475c.548-2.41 1.485-4.978 2.179-7.7a13.764 13.764 0 0 0-.414-7.729 40.274 40.274 0 0 0-2.5-5.988c-.8-1.57-1.485-2.884-2.008-3.919a7.941 7.941 0 0 1-.682-1.473 8.352 8.352 0 0 1 .9 1.351c.536.888 1.314 2.191 2.191 3.834a37.551 37.551 0 0 1 2.653 6.025 17.255 17.255 0 0 1 .815 3.834 12.743 12.743 0 0 1-.341 4.211c-.706 2.787-1.643 5.319-2.227 7.692a54.639 54.639 0 0 0-1.229 6.39c-.231 1.838-.341 3.335-.4 4.382a8.222 8.222 0 0 1-.14 1.602z" class="cls-23" transform="translate(-2101.209 -12318.534)"/>
            <path id="Rectangle_2094" d="M0 0H19.815V4.674H0z" class="cls-18" transform="translate(-1661.765 -12085.546)"/>
            <path id="Path_3975" d="M466.671 328.99a4.324 4.324 0 0 1-.11-.889c-.049-.645-.109-1.5-.195-2.556-.146-2.288-.353-5.489-.609-9.408-.523-7.948-1.278-18.926-2.422-31.024s-2.556-23.016-3.7-30.89c-.584-3.883-1.071-7.059-1.412-9.323-.158-1.047-.28-1.9-.377-2.532a3.769 3.769 0 0 1-.085-.888 4.39 4.39 0 0 1 .219.864c.122.633.292 1.473.5 2.519.426 2.191.974 5.367 1.607 9.3 1.266 7.875 2.726 18.792 3.883 30.9s1.838 23.1 2.24 31.048c.207 3.98.341 7.205.414 9.433.024 1.059.049 1.911.073 2.568a4.852 4.852 0 0 1-.026.878z" class="cls-24" transform="translate(-2104.617 -12322.572)"/>
            <path id="Path_3976" d="M460.032 237.86c.049 0 .122.28.207.815a11.262 11.262 0 0 1 .17 2.3 5.7 5.7 0 0 1-1.132 3.3 4.006 4.006 0 0 1-1.728 1.241 6.172 6.172 0 0 1-2.215.353 17.227 17.227 0 0 1-7.351-1.935 8.86 8.86 0 0 1-2.592-1.777c.061-.085 1.047.6 2.787 1.375a19.192 19.192 0 0 0 7.157 1.7 4.377 4.377 0 0 0 3.505-1.327 5.469 5.469 0 0 0 1.144-2.958c.121-1.87-.074-3.087.048-3.087z" class="cls-23" transform="translate(-2107.301 -12323.358)"/>
            <path id="Path_3977" d="M462.951 241.806c.085-.012.122.791-.609 1.716a3.394 3.394 0 0 1-1.68 1.217 2.646 2.646 0 0 1-1.278-.1 2.516 2.516 0 0 1-1.181-.694 3.918 3.918 0 0 1-.913-2.349 16.05 16.05 0 0 1-.061-1.96 4.58 4.58 0 0 1 .231-1.789 5.843 5.843 0 0 1 .219 1.777c.036.548.085 1.193.195 1.9a3.588 3.588 0 0 0 .779 1.984 2.12 2.12 0 0 0 .9.536 2.206 2.206 0 0 0 .974.122 3.136 3.136 0 0 0 1.461-.937 6.048 6.048 0 0 0 .963-1.423z" class="cls-23" transform="translate(-2104.731 -12323.36)"/>
            <path id="Path_4009" d="M428.666 312.538s-12.268 33.909 17.526 35.3c26.643 1.241 62.146 1.108 75.716 1.083 6.39-.012 11.5 1.035 17.319-1.594 6.317-2.848 12.768-7.534 13.279-14.9.669-9.579-5.7-18.6-27.847-19.863s-95.993-.026-95.993-.026z" class="cls-20" transform="translate(-2111.475 -12307.264)"/>
            <path id="Path_4010" d="M432.668 314.661c-.17-.049-.122-.621.1-1.254s.523-1.108.694-1.047.122.621-.1 1.254-.536 1.108-.694 1.047z" class="cls-10" transform="translate(-2110.085 -12307.185)"/>
            <path id="Path_4011" d="M431.4 323.055c-.17.012-.4-1.1-.3-2.483s.45-2.459.621-2.422a6.569 6.569 0 0 1 .012 2.459c-.103 1.339-.152 2.434-.333 2.446z" class="cls-10" transform="translate(-2110.41 -12305.927)"/>
            <path id="Path_4012" d="M435.178 330.046c-.11.134-1.083-.487-1.9-1.643s-1.12-2.264-.962-2.312c.17-.073.706.876 1.485 1.947.756 1.083 1.486 1.874 1.377 2.008z" class="cls-10" transform="translate(-2110.148 -12304.203)"/>
            <path id="Path_4013" d="M442.962 332.427c-.024.17-1.144.134-2.483-.183s-2.349-.815-2.288-.974 1.132.049 2.434.353 2.361.634 2.337.804z" class="cls-10" transform="translate(-2108.865 -12303.09)"/>
            <path id="Path_4014" d="M451.049 332.855a5.07 5.07 0 0 1-2.471.28 4.917 4.917 0 0 1-2.459-.414c.012-.183 1.108-.256 2.459-.219a5.259 5.259 0 0 1 2.471.353z" class="cls-10" transform="translate(-2107.142 -12302.813)"/>
            <path id="Path_4015" d="M459.139 332.941a5.157 5.157 0 0 1-2.471.292 5.1 5.1 0 0 1-2.459-.341 9.755 9.755 0 0 1 4.929.049z" class="cls-10" transform="translate(-2105.386 -12302.789)"/>
            <path id="Path_4016" d="M467.227 332.979a5.044 5.044 0 0 1-2.459.3c-1.363 0-2.458-.146-2.458-.329a5.044 5.044 0 0 1 2.458-.3 5.223 5.223 0 0 1 2.459.329z" class="cls-10" transform="translate(-2103.627 -12302.777)"/>
            <path id="Path_4017" d="M475.307 332.976a5.092 5.092 0 0 1-2.459.316c-1.363 0-2.459-.134-2.459-.316a9.708 9.708 0 0 1 4.917 0z" class="cls-10" transform="translate(-2101.873 -12302.776)"/>
            <path id="Path_4018" d="M483.4 332.934a5.011 5.011 0 0 1-2.459.329c-1.363.012-2.459-.122-2.459-.3a5.011 5.011 0 0 1 2.459-.329 5.217 5.217 0 0 1 2.459.3z" class="cls-10" transform="translate(-2100.116 -12302.784)"/>
            <path id="Path_4019" d="M491.487 332.873a9.71 9.71 0 0 1-4.917.049 5.1 5.1 0 0 1 2.459-.341c1.351-.025 2.458.109 2.458.292z" class="cls-10" transform="translate(-2098.36 -12302.795)"/>
            <path id="Path_4020" d="M499.567 332.782a9.711 9.711 0 0 1-4.917.049 9.709 9.709 0 0 1 4.917-.049z" class="cls-10" transform="translate(-2096.606 -12302.814)"/>
            <path id="Path_4021" d="M507.647 332.7a9.71 9.71 0 0 1-4.917.049 5.1 5.1 0 0 1 2.459-.341c1.351-.008 2.458.112 2.458.292z" class="cls-10" transform="translate(-2094.852 -12302.832)"/>
            <path id="Path_4022" d="M515.727 332.622a9.711 9.711 0 0 1-4.917.049 9.712 9.712 0 0 1 4.917-.049z" class="cls-10" transform="translate(-2093.097 -12302.848)"/>
            <path id="Path_4023" d="M523.817 332.564a5.012 5.012 0 0 1-2.459.329c-1.363.012-2.459-.122-2.459-.3a5.012 5.012 0 0 1 2.459-.329 5.217 5.217 0 0 1 2.459.3z" class="cls-10" transform="translate(-2091.341 -12302.862)"/>
            <path id="Path_4024" d="M529.4 332.546c0 .17-.548.316-1.217.316s-1.217-.134-1.217-.316.548-.316 1.217-.316 1.217.146 1.217.316z" class="cls-10" transform="translate(-2089.589 -12302.87)"/>
            <g id="Group_10377" transform="translate(-1689.022 -12058.006)">
                <path id="Path_4026" d="M491.3 317.362s-62.036 5.611-65.76-22.87c-3.943-30.221-1.9-34.043-1.9-34.043l23.868.268s1.254 28.943 3.895 30.513c11.66 6.962 31.84 9.128 38.595 9.116z" class="cls-18" transform="translate(-423.115 -260.45)"/>
            </g>
            <path id="Path_4027" d="M487 317.733a6.831 6.831 0 0 1-.158-1.193c-.085-.84-.195-1.984-.329-3.4-.256-3.018-.621-7.254-1.059-12.4l.231.231a202.671 202.671 0 0 1-27.6-4.272c-3.006-.682-6.086-1.485-8.483-3.371a13.371 13.371 0 0 1-4.552-7.169 33.427 33.427 0 0 1-1.144-7.595c-.183-2.386-.353-4.6-.5-6.645-.28-4.065-.426-7.351-.438-9.64q-.018-1.716.037-2.629a4.941 4.941 0 0 1 .085-.913 4.849 4.849 0 0 1 .049.913c.024.657.049 1.534.085 2.617.1 2.276.3 5.55.645 9.615.182 2.033.365 4.248.572 6.633a33.9 33.9 0 0 0 1.181 7.473 13.589 13.589 0 0 0 4.369 6.852c2.264 1.777 5.234 2.568 8.24 3.25a218.126 218.126 0 0 0 27.507 4.394l.207.024.012.207c.353 5.161.633 9.4.84 12.427.085 1.424.146 2.568.195 3.408a6.717 6.717 0 0 1 .008 1.183z" class="cls-24" transform="translate(-2107.829 -12318.826)"/>
            <path id="Path_4028" d="M491.33 312.026a3.871 3.871 0 0 1-.809.181c-.531.085-1.315.266-2.341.375a63.432 63.432 0 0 1-8.713.484c-7.385.012-17.546-1.185-28.54-3.531-5.491-1.149-10.728-2.673-15.012-5.1a25.95 25.95 0 0 1-5.587-4.148 22.436 22.436 0 0 1-3.681-4.837 17.007 17.007 0 0 1-2.317-8.405 11.124 11.124 0 0 1 .422-3.181c.085.012-.229 1.137-.181 3.181a17.319 17.319 0 0 0 2.45 8.187 22.262 22.262 0 0 0 3.656 4.68 25.651 25.651 0 0 0 5.5 4.015c4.091 2.286 9.256 3.822 14.867 4.995a154.962 154.962 0 0 0 28.407 3.7 74.147 74.147 0 0 0 8.677-.29c1.026-.073 1.81-.206 2.353-.254a4.443 4.443 0 0 1 .849-.052z" class="cls-24" transform="translate(-2111.299 -12313.185)"/>
            <path id="Path_4032" fill="#b78876" d="M478.51 296.52s10.37-.182 11.989 2.775 3.091 9.688 3.091 9.688l-14.179-.56z" transform="translate(-2100.11 -12310.623)"/>
            <path id="Path_4075" d="M460.73 318.423l.012-2.13 25.182-3.554 12.5-31.5h47.8l-17.088 37.207z" class="cls-3" transform="translate(-2103.97 -12313.941)"/>
            <path id="Path_4076" d="M509.079 297.614a2.426 2.426 0 1 1-.755-3.347 2.425 2.425 0 0 1 .755 3.347z" class="cls-4" transform="translate(-2094.446 -12311.194)"/>
            <path id="Path_4077" d="M38.578 358.609L45 351.72l-12.824-12.11-9.506 9.98.742.8c3.359 3.542 17.307 17.758 20.35 19.279 3.396 1.683-5.184-11.06-5.184-11.06z" class="cls-18" transform="translate(-2199.078 -12301.266)"/>
            <path id="Path_4078" d="M27.382 352.765a6.175 6.175 0 0 0 .949-4.284 5.956 5.956 0 0 0-2.118-3.761l-3.383 3.58z" class="cls-2" transform="translate(-2199.043 -12300.158)"/>
            <path id="Path_4079" d="M42.594 363.291s2.775 4.71 1.7 4.893-15.709-13.656-21.624-20.326l.292-.268L39.9 363.875c-.008 0 1.915-1.254 2.694-.584z" class="cls-2" transform="translate(-2199.078 -12299.535)"/>
            <path id="Path_4080" d="M22.75 347.42a2.785 2.785 0 0 0 .195.231c.183.195.377.4.6.633.609.621 1.351 1.4 2.239 2.3 1.9 1.935 4.564 4.564 7.57 7.412s5.781 5.355 7.814 7.157c.949.828 1.765 1.534 2.422 2.106.243.207.463.39.669.56a1.881 1.881 0 0 0 .241.181 2.855 2.855 0 0 0-.219-.219c-.195-.183-.4-.377-.645-.6q-.968-.876-2.373-2.154c-2.008-1.826-4.759-4.357-7.765-7.193s-5.684-5.453-7.607-7.363c-.9-.889-1.667-1.643-2.288-2.252-.231-.231-.438-.426-.621-.609a1.277 1.277 0 0 0-.232-.19z" class="cls-8" transform="translate(-2199.061 -12299.573)"/>
            <path id="Path_4081" d="M36.671 361.313a7.042 7.042 0 0 1 1.485-.706 8.211 8.211 0 0 1 1.643-.146 2.335 2.335 0 0 0-1.692-.061 2.305 2.305 0 0 0-1.436.913z" class="cls-8" transform="translate(-2196.039 -12296.778)"/>
            <path id="Path_4082" d="M35.05 356.691c.012.061.4.012.864-.11s.828-.256.815-.316-.4-.012-.864.11-.827.255-.815.316z" class="cls-8" transform="translate(-2196.39 -12297.656)"/>
            <path id="Path_4083" d="M34.62 355.366c0 .061.329.11.742.122s.742-.024.742-.085-.329-.11-.742-.122-.742.019-.742.085z" class="cls-8" transform="translate(-2196.484 -12297.865)"/>
            <path id="Path_4084" d="M35.021 353.851c-.037.049.219.365.584.718s.694.609.742.56-.219-.365-.584-.718-.694-.611-.742-.56z" class="cls-8" transform="translate(-2196.397 -12298.177)"/>
            <path id="Path_4085" d="M35.5 352.97a1.831 1.831 0 0 0 .536.925c.4.45.84.669.864.621s-.329-.353-.706-.767a6.681 6.681 0 0 0-.694-.779z" class="cls-8" transform="translate(-2196.294 -12298.366)"/>
            <path id="Path_4086" d="M36.288 356.063a3.761 3.761 0 0 0 .828.779 6.4 6.4 0 0 0 1.059.633 3.581 3.581 0 0 0 .694.268.606.606 0 0 0 .45-.061.437.437 0 0 0 .183-.45 2.072 2.072 0 0 0-2.288-1.327 2.157 2.157 0 0 0-.791.292c-.17.11-.243.195-.231.207a3.455 3.455 0 0 1 1.035-.353 2.07 2.07 0 0 1 1.132.207 1.753 1.753 0 0 1 .913 1c.037.219-.158.329-.389.28a3.187 3.187 0 0 1-.645-.243 7 7 0 0 1-1.059-.584c-.551-.38-.867-.672-.891-.648z" class="cls-8" transform="translate(-2196.143 -12297.734)"/>
            <path id="Path_4087" d="M36.459 356.666c0 .024.329-.073.633-.487a1.8 1.8 0 0 0 .341-.816 1.159 1.159 0 0 0-.292-1.071.44.44 0 0 0-.609.146 1.248 1.248 0 0 0-.207.5 3.831 3.831 0 0 0-.085.864 1.637 1.637 0 0 0 .158.779c.037-.012-.024-.3 0-.779a4.418 4.418 0 0 1 .122-.815c.049-.28.268-.669.511-.511a1.01 1.01 0 0 1 .207.864 1.841 1.841 0 0 1-.268.755c-.255.405-.535.534-.511.571z" class="cls-8" transform="translate(-2196.132 -12298.095)"/>
            <path id="Path_4088" d="M25.69 344.74c-.024.036.4.316.913.925a5.7 5.7 0 0 1 1.266 2.812 5.644 5.644 0 0 1-.438 3.043c-.329.73-.657 1.12-.621 1.144.012.012.1-.085.243-.256a4.352 4.352 0 0 0 .511-.828 5.548 5.548 0 0 0 .511-3.14 5.428 5.428 0 0 0-1.363-2.872 4.942 4.942 0 0 0-.718-.645 1.029 1.029 0 0 0-.304-.183z" class="cls-8" transform="translate(-2198.423 -12300.153)"/>
            <path id="Path_4089" d="M31.821 341.39a34.414 34.414 0 0 0-2.6 2.532 29 29 0 0 0-2.451 2.678 34.433 34.433 0 0 0 2.6-2.532 29.021 29.021 0 0 0 2.451-2.678z" class="cls-8" transform="translate(-2198.188 -12300.88)"/>
            <path id="Path_4090" d="M28.86 351.55a9.693 9.693 0 0 0 1.692 1.96 9.64 9.64 0 0 0 2.02 1.619c.037-.049-.852-.791-1.874-1.777s-1.789-1.838-1.838-1.802z" class="cls-8" transform="translate(-2197.735 -12298.676)"/>
            <path id="Path_4091" d="M26.865 349.6c-.061 0-.1.243-.195.511s-.207.487-.158.523.256-.146.365-.463.049-.583-.012-.571z" class="cls-8" transform="translate(-2198.247 -12299.098)"/>
            <path id="Path_4092" d="M26.957 347.89c-.061 0-.1.207-.1.475s.061.475.122.462.1-.207.1-.475c-.012-.243-.061-.462-.122-.462z" class="cls-8" transform="translate(-2198.168 -12299.47)"/>
            <path id="Path_4093" d="M26.251 346.4c-.037.049.134.207.268.45s.17.475.231.475.122-.28-.037-.572-.438-.4-.462-.353z" class="cls-8" transform="translate(-2198.302 -12299.797)"/>
            <path id="Path_4094" d="M25.655 345.441c-.049.024-.037.158.024.3s.17.231.219.207.037-.158-.024-.3-.174-.232-.219-.207z" class="cls-8" transform="translate(-2198.437 -12300.002)"/>
            <path id="Path_4095" d="M136.435 367.968l-.329-9.408-17.636.5.341 13.778 1.1.036c4.881.134 24.793.316 28.018-.755 3.586-1.205-11.494-4.151-11.494-4.151z" class="cls-18" transform="translate(-2178.279 -12297.153)"/>
            <path id="Path_4096" fill="#e8505b" d="M125.154 370.9a6.163 6.163 0 0 0-2.361-3.7 5.954 5.954 0 0 0-4.163-1.168l.134 4.929z" transform="translate(-2178.244 -12295.536)"/>
            <path id="Path_4097" d="M143.752 367.69s5.294 1.363 4.662 2.252-20.764 1.448-29.673.925l.012-.389 23.49-.462c.012-.016.474-2.253 1.509-2.326z" class="cls-2" transform="translate(-2178.22 -12295.171)"/>
            <path id="Path_4098" d="M118.53 370.1a1.542 1.542 0 0 0 .3.024c.268.012.548.012.876.024.876.012 1.947.024 3.213.049 2.714.024 6.451 0 10.589-.11s7.875-.292 10.577-.462c1.266-.085 2.337-.158 3.2-.219.329-.024.609-.049.864-.073l.3-.037a.983.983 0 0 0-.3 0l-.876.037c-.876.036-1.947.1-3.2.158-2.7.134-6.451.292-10.577.4s-7.875.158-10.589.17c-1.266.012-2.337.012-3.213.024-.329 0-.609.012-.876.012a1.76 1.76 0 0 0-.288.003z" class="cls-8" transform="translate(-2178.266 -12294.823)"/>
            <path id="Path_4099" d="M138.066 370.32a7.251 7.251 0 0 1 .56-1.546 7.046 7.046 0 0 1 1.059-1.254 2.387 2.387 0 0 0-1.241 1.156 2.351 2.351 0 0 0-.378 1.644z" class="cls-8" transform="translate(-2174.032 -12295.208)"/>
            <path id="Path_4100" d="M133.722 368.037c.049.024.292-.28.536-.694s.4-.767.353-.8-.292.28-.536.694-.402.763-.353.8z" class="cls-8" transform="translate(-2174.969 -12295.422)"/>
            <path id="Path_4101" d="M132.531 367.364c.037.049.316-.146.609-.438s.5-.548.463-.584-.316.146-.609.438-.5.535-.463.584z" class="cls-8" transform="translate(-2175.227 -12295.466)"/>
            <path id="Path_4102" d="M131.75 365.852a3.962 3.962 0 0 0 1.85-.024 3.961 3.961 0 0 0-1.85.024z" class="cls-8" transform="translate(-2175.396 -12295.597)"/>
            <path id="Path_4103" d="M131.47 364.873a1.846 1.846 0 0 0 1.035.268 1.931 1.931 0 0 0 1.059-.17 6.122 6.122 0 0 0-1.047-.049 8.767 8.767 0 0 0-1.047-.049z" class="cls-8" transform="translate(-2175.457 -12295.785)"/>
            <path id="Path_4104" d="M134.18 366.786a3.417 3.417 0 0 0 1.132-.036 6.232 6.232 0 0 0 1.2-.3 3.017 3.017 0 0 0 .682-.3.573.573 0 0 0 .268-.365.45.45 0 0 0-.183-.45 2.11 2.11 0 0 0-2.909 1.448.729.729 0 0 0-.024.3 3.033 3.033 0 0 1 .487-.986 2.073 2.073 0 0 1 .949-.657 1.736 1.736 0 0 1 1.351.049c.183.134.122.341-.073.462a3.737 3.737 0 0 1-.633.292 8.378 8.378 0 0 1-1.156.341c-.665.154-1.091.166-1.091.202z" class="cls-8" transform="translate(-2174.868 -12295.728)"/>
            <path id="Path_4105" d="M134.693 366.915a1.181 1.181 0 0 0 .11-.791 1.889 1.889 0 0 0-.329-.815 1.136 1.136 0 0 0-.962-.548.457.457 0 0 0-.341.535 1.237 1.237 0 0 0 .207.5 3.189 3.189 0 0 0 .56.669c.365.341.645.463.657.438s-.231-.195-.56-.548a3.982 3.982 0 0 1-.5-.669c-.158-.231-.28-.657 0-.718.28-.036.584.243.755.462a1.878 1.878 0 0 1 .341.73 3.115 3.115 0 0 1 .062.755z" class="cls-8" transform="translate(-2175.089 -12295.808)"/>
            <path id="Path_4106" d="M118.71 366.014c0 .036.5-.061 1.3.012a5.563 5.563 0 0 1 2.872 1.1 5.67 5.67 0 0 1 1.85 2.459 12.008 12.008 0 0 1 .365 1.254 1.131 1.131 0 0 0-.012-.353 4.376 4.376 0 0 0-.219-.949 5.353 5.353 0 0 0-5.83-3.6 1.083 1.083 0 0 0-.326.077z" class="cls-8" transform="translate(-2178.227 -12295.563)"/>
            <path id="Path_4107" d="M120.062 359.92a29.346 29.346 0 0 0-.049 3.627 32.579 32.579 0 0 0 .158 3.627 29.237 29.237 0 0 0 .049-3.627c-.037-2.008-.11-3.627-.158-3.627z" class="cls-8" transform="translate(-2177.948 -12296.858)"/>
            <path id="Path_4108" d="M125.78 368.581a9.969 9.969 0 0 0 2.58.183 9.561 9.561 0 0 0 2.568-.28c-.012-.061-1.156.037-2.58.061s-2.568-.025-2.568.036z" class="cls-8" transform="translate(-2176.692 -12295.002)"/>
            <path id="Path_4109" d="M122.941 368.642c-.037.049.1.243.231.5s.195.5.256.487.085-.28-.061-.584-.389-.452-.426-.403z" class="cls-8" transform="translate(-2177.309 -12294.966)"/>
            <path id="Path_4110" d="M121.831 367.342c-.037.049.073.219.268.4s.377.292.414.243-.073-.219-.268-.4-.377-.292-.414-.243z" class="cls-8" transform="translate(-2177.551 -12295.249)"/>
            <path id="Path_4111" d="M120.28 366.79c.012.061.243.049.511.134s.45.219.5.17-.11-.28-.438-.377-.597.024-.573.073z" class="cls-8" transform="translate(-2177.886 -12295.39)"/>
            <path id="Path_4112" d="M119.181 366.517c-.024.061.085.146.231.195s.28.049.3 0-.085-.146-.231-.195-.281-.049-.3 0z" class="cls-8" transform="translate(-2178.125 -12295.435)"/>
            <path id="Path_4113" d="M114.51 258.2l-6.84 41.954c-1.887 8.252-4.357 18.342-8.9 25.486l-52.056 61.9-23.524-24.087L75.282 296.8 87.9 228.22z" class="cls-8" transform="translate(-2198.965 -12325.452)"/>
            <path id="Path_4114" d="M74.191 249.669l29.6 64.531 20.91 82.411 33.714.438-22.346-89.385-28.127-90.273-43.926-7.911-.511 4.589a46.733 46.733 0 0 0 6.695 30.22 43.22 43.22 0 0 0 3.991 5.38z" class="cls-8" transform="translate(-2190.279 -12329.521)"/>
            <path id="Path_4115" d="M80.9 241.779c-.158.085-.657-.584-1.12-1.473s-.718-1.68-.56-1.765.657.572 1.12 1.473.704 1.68.56 1.765z" class="cls-10" transform="translate(-2186.811 -12323.212)"/>
            <path id="Path_4116" d="M83.612 247.133c-.158.073-.657-.584-1.108-1.485s-.694-1.692-.536-1.777.645.584 1.108 1.485.682 1.692.536 1.777z" class="cls-10" transform="translate(-2186.214 -12322.055)"/>
            <path id="Path_4117" d="M86.243 252.515c-.158.073-.645-.6-1.083-1.5s-.669-1.7-.511-1.777.645.6 1.083 1.5.668 1.704.511 1.777z" class="cls-10" transform="translate(-2185.633 -12320.889)"/>
            <path id="Path_4118" d="M88.8 257.942c-.158.073-.633-.609-1.059-1.521s-.645-1.716-.487-1.789.633.609 1.059 1.521.65 1.715.487 1.789z" class="cls-10" transform="translate(-2185.066 -12319.719)"/>
            <path id="Path_4119" d="M91.3 263.4c-.158.073-.621-.621-1.047-1.534s-.621-1.716-.462-1.789.621.609 1.047 1.534.619 1.72.462 1.789z" class="cls-10" transform="translate(-2184.517 -12318.536)"/>
            <path id="Path_4120" d="M93.7 268.908c-.158.073-.621-.621-1.022-1.546s-.6-1.728-.438-1.8.621.621 1.022 1.546.597 1.727.438 1.8z" class="cls-10" transform="translate(-2183.986 -12317.347)"/>
            <path id="Path_4121" d="M96.032 274.43c-.158.061-.609-.633-1-1.558s-.572-1.74-.414-1.8.609.633 1 1.558.572 1.739.414 1.8z" class="cls-10" transform="translate(-2183.469 -12316.151)"/>
            <path id="Path_4122" d="M98.284 279.994c-.158.061-.6-.645-.974-1.57s-.548-1.74-.389-1.813.6.645.974 1.57.547 1.752.389 1.813z" class="cls-10" transform="translate(-2182.97 -12314.947)"/>
            <path id="Path_4123" d="M100.445 285.589c-.158.061-.584-.645-.949-1.594s-.523-1.753-.365-1.814.584.645.949 1.594.536 1.753.365 1.814z" class="cls-10" transform="translate(-2182.491 -12313.737)"/>
            <path id="Path_4124" d="M102.536 291.213c-.17.061-.584-.657-.925-1.607s-.5-1.765-.329-1.826.584.657.925 1.607.488 1.777.329 1.826z" class="cls-10" transform="translate(-2182.026 -12312.522)"/>
            <path id="Path_4125" d="M104.538 296.875c-.17.061-.572-.669-.9-1.619s-.475-1.765-.3-1.826.572.669.9 1.619.462 1.765.3 1.826z" class="cls-10" transform="translate(-2181.581 -12311.295)"/>
            <path id="Path_4126" d="M106.46 302.557c-.17.061-.56-.669-.876-1.631s-.45-1.777-.28-1.826.56.669.876 1.631.438 1.769.28 1.826z" class="cls-10" transform="translate(-2181.154 -12310.063)"/>
            <path id="Path_4127" d="M108.291 308.271c-.17.049-.548-.682-.852-1.643s-.426-1.777-.256-1.838.548.682.852 1.643.427 1.778.256 1.838z" class="cls-10" transform="translate(-2180.746 -12308.826)"/>
            <path id="Path_4128" d="M110.052 314c-.17.049-.536-.694-.828-1.655s-.389-1.789-.231-1.838.536.694.828 1.655.39 1.793.231 1.838z" class="cls-10" transform="translate(-2180.353 -12307.586)"/>
            <path id="Path_4129" d="M111.714 319.766c-.17.049-.536-.694-.8-1.667s-.365-1.789-.195-1.838.536.694.8 1.667.365 1.789.195 1.838z" class="cls-10" transform="translate(-2179.981 -12306.338)"/>
            <path id="Path_4130" d="M113.308 325.55c-.17.049-.523-.706-.791-1.68s-.341-1.8-.17-1.85.523.706.779 1.68c.279.986.352 1.813.182 1.85z" class="cls-10" transform="translate(-2179.628 -12305.086)"/>
            <path id="Path_4131" d="M114.81 331.362c-.17.049-.511-.718-.767-1.692s-.316-1.8-.146-1.85.511.706.767 1.692.316 1.802.146 1.85z" class="cls-10" transform="translate(-2179.292 -12303.828)"/>
            <path id="Path_4132" d="M116.232 337.194c-.17.037-.5-.718-.742-1.7s-.292-1.8-.122-1.85.5.718.742 1.7.29 1.801.122 1.85z" class="cls-10" transform="translate(-2178.974 -12302.564)"/>
            <path id="Path_4133" d="M117.574 343.036c-.17.036-.487-.73-.718-1.716s-.268-1.814-.1-1.85.487.73.718 1.716.27 1.814.1 1.85z" class="cls-10" transform="translate(-2178.673 -12301.298)"/>
            <path id="Path_4134" d="M118.836 348.906c-.17.037-.475-.73-.694-1.716s-.243-1.814-.073-1.85.475.73.694 1.716.243 1.814.073 1.85z" class="cls-10" transform="translate(-2178.389 -12300.024)"/>
            <path id="Path_4135" d="M120.008 354.789c-.17.036-.475-.742-.669-1.728s-.219-1.814-.049-1.85.475.742.669 1.728.22 1.813.049 1.85z" class="cls-10" transform="translate(-2178.125 -12298.749)"/>
            <path id="Path_4136" d="M120.792 358.88c-.17.036-.389-.341-.475-.84s-.024-.913.146-.949.389.341.475.84.025.912-.146.949z" class="cls-10" transform="translate(-2177.887 -12297.474)"/>
            <path id="Path_4137" d="M112.32 358.56l1.716 5.684 33.726.438-1.388-5.526z" class="cls-10" transform="translate(-2179.614 -12297.153)"/>
            <path id="Path_4139" d="M32.548 336.033c.134.109-.292.828-.949 1.594s-1.29 1.29-1.424 1.181.292-.828.949-1.594 1.29-1.303 1.424-1.181z" class="cls-10" transform="translate(-2197.454 -12302.048)"/>
            <path id="Path_4140" d="M36.379 331.423c.134.11-.28.828-.913 1.607s-1.278 1.314-1.412 1.2.28-.828.913-1.607 1.278-1.31 1.412-1.2z" class="cls-10" transform="translate(-2196.612 -12303.047)"/>
            <path id="Path_4141" d="M40.155 326.752c.134.11-.268.84-.9 1.619s-1.255 1.339-1.4 1.229.268-.84.9-1.619 1.254-1.338 1.4-1.229z" class="cls-10" transform="translate(-2195.787 -12304.061)"/>
            <path id="Path_4142" d="M43.891 322.063c.134.11-.256.84-.888 1.631s-1.241 1.339-1.388 1.229.256-.84.888-1.631 1.242-1.339 1.388-1.229z" class="cls-10" transform="translate(-2194.97 -12305.08)"/>
            <path id="Path_4143" d="M47.611 317.362c.134.109-.256.84-.888 1.631s-1.241 1.339-1.388 1.229.256-.84.888-1.631 1.254-1.338 1.388-1.229z" class="cls-10" transform="translate(-2194.163 -12306.099)"/>
            <path id="Path_4144" d="M51.341 312.662c.134.11-.256.84-.888 1.631s-1.254 1.339-1.388 1.229.256-.84.888-1.631 1.254-1.338 1.388-1.229z" class="cls-10" transform="translate(-2193.353 -12307.12)"/>
            <path id="Path_4145" d="M55.1 307.982c.134.11-.268.84-.9 1.619s-1.254 1.327-1.4 1.217.268-.84.9-1.619 1.271-1.326 1.4-1.217z" class="cls-10" transform="translate(-2192.541 -12308.136)"/>
            <path id="Path_4146" d="M58.931 303.353c.134.11-.28.828-.925 1.607s-1.278 1.314-1.412 1.2.28-.828.925-1.607 1.281-1.31 1.412-1.2z" class="cls-10" transform="translate(-2191.718 -12309.141)"/>
            <path id="Path_4147" d="M62.828 298.783c.134.11-.292.828-.949 1.594s-1.29 1.29-1.424 1.181.292-.828.949-1.594 1.29-1.291 1.424-1.181z" class="cls-10" transform="translate(-2190.88 -12310.134)"/>
            <path id="Path_4148" d="M66.716 294.213c.134.11-.28.828-.937 1.594s-1.29 1.3-1.424 1.193.292-.828.937-1.594 1.29-1.306 1.424-1.193z" class="cls-10" transform="translate(-2190.033 -12311.127)"/>
            <path id="Path_4149" d="M70.471 289.552c.134.11-.256.84-.888 1.631s-1.241 1.351-1.388 1.241.256-.84.888-1.631 1.254-1.35 1.388-1.241z" class="cls-10" transform="translate(-2189.2 -12312.138)"/>
            <path id="Path_4150" d="M72.783 284.19c.17.049.085.876-.183 1.85a7.554 7.554 0 0 1-.438 1.217c-.146.3-.329.487-.4.438s-.061-.231-.037-.56a8.592 8.592 0 0 1 .256-1.266c.279-.969.632-1.727.802-1.679z" class="cls-10" transform="translate(-2188.433 -12313.298)"/>
            <path id="Path_4151" d="M74.188 278.36c.17.036.122.864-.11 1.85s-.56 1.753-.73 1.7-.122-.864.11-1.85.56-1.736.73-1.7z" class="cls-10" transform="translate(-2188.097 -12314.566)"/>
            <path id="Path_4152" d="M75.377 272.48c.17.037.158.864-.037 1.85s-.487 1.765-.669 1.728-.158-.864.037-1.85.499-1.752.669-1.728z" class="cls-10" transform="translate(-2187.814 -12315.842)"/>
            <path id="Path_4153" d="M76.414 266.58c.17.024.17.864 0 1.85s-.45 1.777-.621 1.74-.17-.864 0-1.85.45-1.764.621-1.74z" class="cls-10" transform="translate(-2187.572 -12317.123)"/>
            <path id="Path_4154" d="M77.39 260.66c.17.024.183.852.012 1.85s-.438 1.777-.609 1.753-.183-.852-.012-1.85.439-1.777.609-1.753z" class="cls-10" transform="translate(-2187.356 -12318.408)"/>
            <path id="Path_4155" d="M78.194 255.67c.17.024.219.609.11 1.29s-.353 1.217-.523 1.193-.219-.609-.11-1.29.34-1.229.523-1.193z" class="cls-10" transform="translate(-2187.15 -12319.49)"/>
            <path id="Path_4156" d="M23.19 340.416l4.686-6.146 23.149 25.121-4.308 5.109z" class="cls-10" transform="translate(-2198.965 -12302.427)"/>
            <path id="Path_4157" d="M73.3 244.83s19.1 67.659 19.34 66.941 4.15-15.226 4.15-15.226z" opacity="0.2" transform="translate(-2188.086 -12321.846)"/>
            <path id="Path_4158" d="M92.73 170.8l20.484-3.079s9.554 20.837 12.135 21.543c14.289 3.87 30.671 1.777 36.452.828.657-.523 1.424-1.156 2.288-1.947a8.9 8.9 0 0 0 1.826-2.373 13.72 13.72 0 0 0 1.412-3.457 1.162 1.162 0 0 1 2.118-.56c.487.925.1 4.065-1.923 7.157s3.517 1.327 5.55.718 8.4-2.2 9.08-1.728c1 .694.438 1.9-1.607 2.459-2.069.572-8.045 2.678-7.668 3.737s10.662-2.2 10.662-2.2 2.093-1.047 2.556.158c.852 2.179-10.345 4.82-11.417 5.051-.742.158-.377 1.314.414 1.108.815-.219 10.2-3.481 11.088-1.266.682 1.692-9.189 2.264-10.759 4.016s7.449-1.193 8.033.45c.219.609.292 1.1-5.124 2.045a109.7 109.7 0 0 1-11.879.913l.012.061S116.038 216.441 104.4 194.4c-11.512-21.812-11.67-23.6-11.67-23.6z" class="cls-15" transform="translate(-2183.867 -12338.588)"/>
            <path id="Path_4159" d="M95.138 132.234c1.777-1.387 4.455-.84 6.256.511s2.994 3.335 4.406 5.1 3.274 3.4 5.514 3.566a5.794 5.794 0 0 1-9.457 2.69 5.065 5.065 0 0 1 1.619 1.594 1.752 1.752 0 0 1-.231 2.106 2.29 2.29 0 0 1-1.753.329 10.741 10.741 0 0 1-9.445-12.1 7.225 7.225 0 0 1 1.558-3.785 4.377 4.377 0 0 1 3.664-1.582" class="cls-20" transform="translate(-2184.036 -12346.636)"/>
            <path id="Path_4160" d="M97.952 156.3a68.7 68.7 0 0 1 0-8.349s7.339-.779 7.79-8.057 0-24.074 0-24.074l-13.377-6.54-13.644 11.234.292 35.564-7.364.292 23.381 32.217c3.25-12.5 7.473-24.1 7.631-31.657z" class="cls-15" transform="translate(-2188.444 -12351.273)"/>
            <path id="Path_4166" fill="#d78776" d="M94.982 141.642a18.244 18.244 0 0 1-9.652-3.262s2.191 5.343 9.493 5.051z" transform="translate(-2185.474 -12344.957)"/>
            <path id="Path_4167" d="M68.548 123.419c4.394-15.068 17.319-18.025 19.961-18.025 2.836 0 7.79-1.558 15.007 5.952a16.081 16.081 0 0 1 2.739 3.785 16.155 16.155 0 0 1 3.212 6.869 8.309 8.309 0 0 1 .17 3.615c-.134 0-.158-1.375-.73-3.481a17.717 17.717 0 0 0-1.4-3.59 13.78 13.78 0 0 1-.742 8.386l-2.592-.718-9.273-3.158c.84-2.872-.4-6.439-1.1-8.106l-.073-.061C91.612 125.793 79.6 126.925 79.6 126.925l.6 20.691c-12.329-2.641-12.488-16.1-12.415-19.449a37.825 37.825 0 0 1 .763-4.748z" class="cls-20" transform="translate(-2189.286 -12352.147)"/>
            <path id="Path_4169" d="M80.012 127.377c2.276-.45 4.175-.767 4.832-.8a6.392 6.392 0 0 1-.146-1.181 5.922 5.922 0 0 1 1.156-3.493 5.859 5.859 0 0 1 5.842-2.276 5.943 5.943 0 0 1 2.459 1.12 5.679 5.679 0 0 1 2.069 3.238 4.271 4.271 0 0 1 .122 1.047 1.2 1.2 0 0 1-.024.365c-.049 0-.024-.511-.256-1.375a5.653 5.653 0 0 0-2.081-3.043 5.561 5.561 0 0 0-5.258-.767 5.535 5.535 0 0 0-3.627 5.173 5.567 5.567 0 0 0 1.071 3.262 5.492 5.492 0 0 0 2.556 1.935 5.6 5.6 0 0 0 2.909.256 5.511 5.511 0 0 0 2.349-1.022 5.739 5.739 0 0 0 2.081-3.043 9.092 9.092 0 0 0 .207-1.059c-.183-.037-.292-.085-.292-.146s.134-.11.341-.146c0-.012 0-.037.012-.037v.024a3.783 3.783 0 0 1 .694-.049 3.672 3.672 0 0 1 .852.085v-.073a5.922 5.922 0 0 1 1.156-3.493 5.859 5.859 0 0 1 5.842-2.276 5.943 5.943 0 0 1 2.459 1.12 5.679 5.679 0 0 1 2.069 3.238 4.271 4.271 0 0 1 .122 1.047 1.2 1.2 0 0 1-.024.365c-.049 0-.024-.511-.256-1.375a5.653 5.653 0 0 0-2.081-3.043 5.56 5.56 0 0 0-5.258-.767 5.535 5.535 0 0 0-3.627 5.173 5.567 5.567 0 0 0 1.071 3.262 5.492 5.492 0 0 0 2.556 1.935 5.6 5.6 0 0 0 2.909.256 5.512 5.512 0 0 0 2.349-1.022 5.669 5.669 0 0 0 2.081-3.043c.231-.864.207-1.375.256-1.375a1.2 1.2 0 0 1 .024.365 4.976 4.976 0 0 1-.122 1.047 5.615 5.615 0 0 1-2.069 3.238 5.725 5.725 0 0 1-2.459 1.12 5.9 5.9 0 0 1-3.091-.231 5.789 5.789 0 0 1-2.751-2.045 5.947 5.947 0 0 1-1.132-3.2 3.06 3.06 0 0 1-.864.1 5.049 5.049 0 0 1-.669-.049v.037a4.977 4.977 0 0 1-.122 1.047 5.78 5.78 0 0 1-4.528 4.357 5.859 5.859 0 0 1-5.842-2.276 5.783 5.783 0 0 1-.986-2.191c-.621.207-2.507.645-4.783 1.1a33.945 33.945 0 0 1-5.1.8 32.73 32.73 0 0 1 5.002-1.216z" class="cls-8" transform="translate(-2187.714 -12349.06)"/>
            <path id="Path_4170" d="M74.1 134.464c-1.777-1.387-4.455-.84-6.256.511s-2.994 3.335-4.406 5.1-3.274 3.4-5.514 3.566a5.794 5.794 0 0 0 9.457 2.69 5.066 5.066 0 0 0-1.619 1.594 1.752 1.752 0 0 0 .231 2.106 2.29 2.29 0 0 0 1.753.329 10.741 10.741 0 0 0 9.445-12.1 7.225 7.225 0 0 0-1.558-3.785 4.377 4.377 0 0 0-3.664-1.582" class="cls-20" transform="translate(-2191.425 -12346.152)"/>
            <path id="Path_4171" d="M74.7 139.951c-.1-.012-.049-.548-.17-1.351a5.822 5.822 0 0 0-1.2-2.872 5.691 5.691 0 0 0-2.556-1.765c-.767-.268-1.3-.292-1.3-.4-.012-.073.536-.207 1.424-.036a5.209 5.209 0 0 1 2.933 1.8 5.3 5.3 0 0 1 1.156 3.238c-.003.887-.21 1.41-.287 1.386z" class="cls-8" transform="translate(-2188.917 -12346.028)"/>
            <path id="Path_4172" d="M108.792 135.08c-.012-.024.207-.183.645-.134a1.845 1.845 0 0 1 1.436 1.1 2.345 2.345 0 0 1-.669 2.592 3.457 3.457 0 0 1-3.2.633 7.888 7.888 0 0 1-2.812-1.534 11.814 11.814 0 0 1-1.838-1.813 4.6 4.6 0 0 1-1.132-2.069c.085-.049.511.742 1.473 1.777a13.526 13.526 0 0 0 1.85 1.643 7.9 7.9 0 0 0 2.617 1.375 2.989 2.989 0 0 0 2.653-.463 1.893 1.893 0 0 0 .645-1.984 1.733 1.733 0 0 0-1.071-1.022c-.353-.113-.589-.053-.597-.101z" class="cls-20" transform="translate(-2182.026 -12345.94)"/>
            <path id="Path_4173" d="M70.677 135.1c.024.1-.779.292-1.911.962-1.144.633-2.507 1.838-4.187 3.055a10.356 10.356 0 0 1-2.6 1.375 6.069 6.069 0 0 1-2.41.316A2.792 2.792 0 0 1 57.52 140a9.69 9.69 0 0 0 2.069.365 8.191 8.191 0 0 0 4.625-1.765 30.776 30.776 0 0 1 4.333-2.921 3.847 3.847 0 0 1 2.13-.579z" class="cls-10" transform="translate(-2191.512 -12345.675)"/>
            <path id="Path_4174" d="M73.38 124.286c.024-.11 1.327.17 3.457.11a16.943 16.943 0 0 0 13.814-7.79c1.156-1.777 1.594-3.043 1.7-3.006a2.339 2.339 0 0 1-.231.913 13.219 13.219 0 0 1-1.1 2.325 16.1 16.1 0 0 1-14.192 8 14.661 14.661 0 0 1-2.556-.268c-.588-.125-.904-.235-.892-.284z" class="cls-8" transform="translate(-2188.068 -12350.338)"/>
            <path id="Path_4175" d="M117.016 195.775l18.6-13.376-20.825-29.138a12.724 12.724 0 0 0-10.467-5.44s2.751 17.551-8.289 17.685-12.609-17.575-12.609-17.575l-.073-.341-1.753.073v-.073s-.864.037-2.154.158l-3.371.134-.146.329c-2.58.438-5.453 1.168-7.23 2.4-3.87 2.678-24.087 25.961-24.087 25.961l21.02 15.482s2-2.58 4.5-5.842l2.13 8.581c1.777 7.157-6.84 24.147-6.633 32.059l53.285 5.879-1.874-26.935z" class="cls-18" transform="translate(-2194.314 -12342.958)"/>
            <path id="Path_4182" d="M78.554 167.77a29.885 29.885 0 0 1-2.434 2.97c-1.546 1.789-3.664 4.284-5.952 7.071s-4.309 5.367-5.769 7.23A25.211 25.211 0 0 1 61.941 188a20.686 20.686 0 0 1 2.093-3.225c1.375-1.935 3.347-4.552 5.635-7.363s4.467-5.258 6.11-6.974a19.2 19.2 0 0 1 2.775-2.668z" class="cls-29" transform="translate(-2190.553 -12338.576)"/>
            <path id="Path_4183" d="M101.925 191.58c-.085-.073 1.059-1.363 2.592-3.627a14.77 14.77 0 0 0 2.045-4.284 8.136 8.136 0 0 0 .268-2.739 9.164 9.164 0 0 0-.73-2.872 26.275 26.275 0 0 0-3.1-4.966 31.7 31.7 0 0 1-2.7-4.077 10.992 10.992 0 0 1-1.083-3.128 4.435 4.435 0 0 1-.037-1.217 4.841 4.841 0 0 1 .28 1.168 12.728 12.728 0 0 0 1.229 2.97 37.784 37.784 0 0 0 2.775 3.943 24.1 24.1 0 0 1 3.225 5.063 9.627 9.627 0 0 1 .767 3.067 8.563 8.563 0 0 1-.329 2.933 14.186 14.186 0 0 1-2.239 4.382 27.259 27.259 0 0 1-2.093 2.544c-.517.585-.834.877-.87.84z" class="cls-29" transform="translate(-2182.473 -12339.249)"/>
            <path id="Path_4184" d="M97.893 148.03c.049.012-.049.645-.11 1.814-.085 1.156-.061 2.848-.11 4.941A16.13 16.13 0 0 1 96.091 162 7.777 7.777 0 0 1 93 165.191a8.4 8.4 0 0 1-4.674.913 9.853 9.853 0 0 1-4.5-1.546 12.2 12.2 0 0 1-3.2-3.055 18.283 18.283 0 0 1-3.006-6.755 36.964 36.964 0 0 1-.8-4.9 9.637 9.637 0 0 1-.11-1.814 10.645 10.645 0 0 1 .353 1.777c.207 1.144.462 2.824 1 4.82a18.909 18.909 0 0 0 3.043 6.512 10.34 10.34 0 0 0 7.278 4.321 7.777 7.777 0 0 0 4.333-.828 7.2 7.2 0 0 0 2.872-2.921 16.165 16.165 0 0 0 1.643-6.962c.11-2.081.158-3.785.316-4.941.073-.584.158-1.035.219-1.339s.101-.455.126-.443z" class="cls-29" transform="translate(-2187.35 -12342.862)"/>
            <path id="Path_4185" d="M164.2 246l2.373-49.987a7.306 7.306 0 0 0-6.95-7.643l-145.067-6.9a7.306 7.306 0 0 0-7.643 6.95l-2.371 49.988a7.306 7.306 0 0 0 6.95 7.643l125.168 5.964 12.95 13.875.986-13.218 5.964.28A7.3 7.3 0 0 0 164.2 246z" class="cls-14" transform="translate(-2203.016 -12335.603)"/>
            <path id="Rectangle_2095" d="M0 0H76.934V4.236H0z" class="cls-6" transform="rotate(2.722 254226.924 -50908.235)"/>
            <path id="Rectangle_2096" d="M0 0H76.934V4.236H0z" class="cls-6" transform="rotate(2.722 253997.381 -50913.542)"/>
            <path id="Rectangle_2097" d="M0 0H38.132V4.236H0z" class="cls-6" transform="rotate(2.722 253774.364 -50918.94)"/>
            <circle id="Ellipse_595" cx="25.34" cy="25.34" r="25.34" class="cls-7" transform="rotate(-13.939 -50749.677 2915.392)"/>
            <path id="Path_4186" d="M46.733 204.756c-.049.037-.085.073-.134.11a7.447 7.447 0 0 1-3.189.755c-6.791.669-11.319-3.469-14.776-3.992s-3.359 3.517-3.359 3.517l-.268 9.566-1.692-.049-.8-5.7a4.124 4.124 0 0 0-1.412-.037c-1.375.183-3.25 1.083-3.14 4.625.134 4.016 3.116 4 4.686 3.664l-.584 15.591a25 25 0 0 0 15.628 2.775c.158-1.485.329-3.189.438-4.394-6.439-.122-7.9-4.929-7.9-4.929a14.91 14.91 0 0 0 8.069 3.274l-.012.085c.122-.012 6.487-.353 7.266-6.67.571-4.571.985-13.541 1.179-18.191zM21.71 215.309a1.022 1.022 0 0 1-.864.17 2.451 2.451 0 0 1-1.461-2.313 3.145 3.145 0 0 1 .28-1.534 1.328 1.328 0 0 1 .962-.876.768.768 0 0 1 .536.122.659.659 0 0 1 .231.341c.049.219-.049.329-.061.316s0-.122-.073-.268a.5.5 0 0 0-.572-.243 1.113 1.113 0 0 0-.694.755 3.149 3.149 0 0 0-.219 1.375 2.366 2.366 0 0 0 1.156 2.081.952.952 0 0 0 .706-.037c.158-.073.231-.17.256-.146.007-.011-.013.111-.183.257zm11.319-4.625c-.037-.061.085-.243.377-.426a2.18 2.18 0 0 1 1.339-.268 2.116 2.116 0 0 1 1.229.572c.243.243.316.463.268.5-.11.1-.682-.45-1.57-.548s-1.558.291-1.643.17zm2.8 1.631a.937.937 0 1 1-.17-1.314.933.933 0 0 1 .169 1.314zm7.217-1.789a2.18 2.18 0 0 1 1.339-.268 2.051 2.051 0 0 1 1.229.584c.243.243.316.463.268.5-.11.1-.682-.45-1.57-.548s-1.57.28-1.655.158c-.038-.052.084-.244.388-.427zm-2.276 5.221c.158.645.316 1.266.463 1.874a1.466 1.466 0 0 1 .024.974.617.617 0 0 1-.438.329 2.338 2.338 0 0 1-.4.012 4.468 4.468 0 0 1-1.448-.207 4.162 4.162 0 0 1 1.461-.146c.231 0 .414-.036.45-.158a1.159 1.159 0 0 0-.1-.682c-.158-.609-.329-1.217-.5-1.862a24.623 24.623 0 0 1-.986-4.856 24.39 24.39 0 0 1 1.473 4.722zm-3.554 6.013c-1.838-.913-1.2-2.373-1.2-2.373-.852-.645 2.373 1.619 4.175 1.728a2.457 2.457 0 0 1-2.975.644zm8.276-9.043a.931.931 0 1 1 .085-1.314.951.951 0 0 1-.085 1.313z" class="cls-15" transform="translate(-2200.102 -12331.234)"/>
            <path id="Path_4187" d="M40.931 209.707a.931.931 0 1 0-.085 1.314.928.928 0 0 0 .085-1.314z" class="cls-8" transform="translate(-2195.468 -12329.54)"/>
            <path id="Path_4193" d="M28.05 221.88s1.461 4.808 7.9 4.929l.158-1.57.012-.085a14.91 14.91 0 0 1-8.07-3.274z" class="cls-30" transform="translate(-2197.91 -12326.828)"/>
            <path id="Path_4194" d="M22.96 216.716l1.692.049.268-9.566s-.1-4.041 3.359-3.517 7.972 4.649 14.776 3.992a7.315 7.315 0 0 0 3.189-.755 1.06 1.06 0 0 0 .134-.11 3.075 3.075 0 0 0 1.436-2.629 2.1 2.1 0 0 0-2.2-1.972 2.406 2.406 0 1 0-1.108-4.515 7.191 7.191 0 0 0 1.947-2.215 2.417 2.417 0 0 0-.329-2.763 2.7 2.7 0 0 0-2.763-.292c-1.388.511-2.519 1.619-3.931 2.033-1.436.426-2.97.1-4.467.1a7.874 7.874 0 0 0-4.686 1.375 5.321 5.321 0 0 0-2.264 4.211c-2.081-.365-4.394-.5-6.11.73a5.992 5.992 0 0 0-2.239 4.637 18.121 18.121 0 0 0 1.01 5.221c.037.122.061.195.1.3a4.124 4.124 0 0 1 1.412.037c-.03-.047.445 3.312.774 5.649z" class="cls-8" transform="translate(-2199.733 -12333.275)"/>
            <path id="Path_4195" d="M21.383 213.544a.964.964 0 0 1-.706.037 2.366 2.366 0 0 1-1.156-2.081 3.337 3.337 0 0 1 .219-1.375 1.113 1.113 0 0 1 .694-.755.482.482 0 0 1 .572.243c.073.146.049.256.073.268s.11-.1.061-.316a.633.633 0 0 0-.231-.341.768.768 0 0 0-.536-.122 1.311 1.311 0 0 0-.962.876 3.145 3.145 0 0 0-.28 1.534 2.475 2.475 0 0 0 1.461 2.313 1.022 1.022 0 0 0 .864-.17c.17-.146.195-.268.17-.268a2.019 2.019 0 0 1-.243.157z" class="cls-30" transform="translate(-2199.848 -12329.604)"/>
            <path id="Path_4196" d="M63.36 242.61c-2.422-1.473-5.392-3.566-5.647-4.917 0-.012-.012-.037-.012-.049-.195-1.059-.316-1.862-.365-2.142-1.217-8.422-2.2-28.067-.779-39.617.146-1.2 4.223-5.854 8.8-10.759L50.081 173.88c-.779.974-1.582 1.984-2.434 3.043-12.938 16.224-8.362 48.538-5.842 61.488l1.375 7.059s1.132 7.753 2.166 8.228c.925.426 1.582-.669 1.582-.669s1.083 1.339 1.96 1.241c1.132-.134 1.667-2.191 1.667-2.191s1.035 1.667 2 1.655c1.2-.012 1.5-1.984 1.5-1.984s1.059 1.814 2.787 1.631a1.906 1.906 0 0 0 1.631-1.424s-1.667-7.291-.682-8.021 2.5.6 3.1.84 4.345 1.838 6.219.8c1.873-1.067-1.328-1.493-3.75-2.966z" class="cls-15" transform="translate(-2195.55 -12337.25)"/>
        </g>
    </g>
</svg>
