<svg xmlns="http://www.w3.org/2000/svg" width="1440" height="469" viewBox="0 0 1440 469">
    <defs>
        <style>
            .cls-2{fill:#ebebeb}.cls-3{fill:#d6d8ff}.cls-4{fill:#f0f0f0}.cls-5{fill:#e6e6e6}.cls-6{fill:#fafafa}.cls-7{fill:#f5f5f5}.cls-8{fill:#e0e0e0}.cls-10{fill:#ffdcd8}.cls-11{opacity:.1}.cls-12{fill:#f45a1c}.cls-13{fill:#263238}.cls-14,.cls-21{opacity:.3}.cls-15{opacity:.2}.cls-16{fill:#407bff}.cls-20{fill:#fff}.cls-22{opacity:.4}
        </style>
    </defs>
    <g id="Group_15201" transform="translate(0 -90)">
        <path id="Rectangle_2022" fill="#eff8ff" d="M0 0H1440V469H0z" transform="translate(0 90)"/>
        <g id="Group_10138" transform="translate(-5.097 -31.965)">
            <g id="Group_10083" transform="translate(332.834 121.965)">
                <path id="Rectangle_2036" d="M0 0H41.773V0.315H0z" class="cls-2" transform="translate(659.529 433.296)"/>
                <path id="Rectangle_2037" d="M0 0H10.96V0.315H0z" class="cls-2" transform="translate(494.67 436.727)"/>
                <path id="Rectangle_2038" d="M0 0H24.204V0.315H0z" class="cls-2" transform="translate(610.617 421.592)"/>
                <path id="Rectangle_2039" d="M0 0H54.474V0.315H0z" class="cls-2" transform="translate(66.166 423.711)"/>
                <path id="Rectangle_2040" d="M0 0H7.984V0.315H0z" class="cls-2" transform="translate(160.229 423.711)"/>
                <path id="Rectangle_2041" d="M0 0H118.156V0.315H0z" class="cls-2" transform="translate(209.13 429.033)"/>
                <path id="Path_3608" d="M288.95 356.75H45.412a7.208 7.208 0 0 1-7.2-7.2V7.2a7.208 7.208 0 0 1 7.2-7.2h243.551a7.208 7.208 0 0 1 7.2 7.2v342.348a7.227 7.227 0 0 1-7.213 7.202zM45.412.315A6.9 6.9 0 0 0 38.525 7.2v342.348a6.9 6.9 0 0 0 6.887 6.887h243.551a6.9 6.9 0 0 0 6.887-6.887V7.2a6.9 6.9 0 0 0-6.887-6.885z" class="cls-2" transform="translate(9.983)"/>
                <path id="Path_3609" d="M505.253 356.75H261.7a7.208 7.208 0 0 1-7.2-7.2V7.2a7.208 7.208 0 0 1 7.2-7.2h243.553a7.208 7.208 0 0 1 7.2 7.2v342.348a7.208 7.208 0 0 1-7.2 7.202zM261.7.315a6.9 6.9 0 0 0-6.885 6.885v342.348a6.9 6.9 0 0 0 6.886 6.887h243.552a6.9 6.9 0 0 0 6.886-6.887V7.2a6.9 6.9 0 0 0-6.886-6.885z" class="cls-2" transform="translate(200.35)"/>
                <path id="Rectangle_2042" d="M0 0H764.491V0.315H0z" class="cls-2" transform="translate(0 413.003)"/>
            </g>
            <g id="Group_10101" transform="translate(315.096 157.593)">
                <path id="Path_3610" d="M379.512 173.157l83.707-.014a16.066 16.066 0 0 0 14.708-22.492c-5.559-12.769-17.393-19.692-28.065-10.112-16.072 14.435-15.325-13.544-34.543-9.623-16.819 3.433-14.507 19.993-24.8 23.4S366 169.351 379.512 173.157z" class="cls-3" transform="translate(367.181 12.574)"/>
                <path id="Path_3611" d="M286.706 64.887h61.1a11.723 11.723 0 0 0 10.729-16.417c-4.05-9.322-12.7-14.363-20.482-7.383-11.735 10.528-11.189-9.882-25.221-7.023-12.28 2.514-10.585 14.593-18.112 17.078s-17.867 10.973-8.014 13.745z" class="cls-3" transform="translate(-129.805 4.845)"/>
                <g id="Group_10100">
                    <g id="Group_10089" transform="translate(651.148)">
                        <g id="Group_10084" transform="translate(0 47.604)">
                            <path id="Path_3612" d="M371.942 407.6h-9.272V111.1a30.147 30.147 0 0 1 30.107-30.11h8.186v9.272h-8.186a20.856 20.856 0 0 0-20.835 20.838z" class="cls-4" transform="translate(-362.67 -80.99)"/>
                        </g>
                        <g id="Group_10088" transform="translate(38.306)">
                            <path id="Rectangle_2043" d="M0 0H35.153V99.314H0z" class="cls-2"/>
                            <path id="Path_3613" d="M426.743 120.02H391.59v.185a6.84 6.84 0 0 0 6.848 6.848H419.9a6.848 6.848 0 0 0 6.848-6.848v-.185z" class="cls-5" transform="translate(-391.59 -20.719)"/>
                            <g id="Group_10085" transform="translate(6.676 6.98)">
                                <circle id="Ellipse_582" cx="10.901" cy="10.901" r="10.901" class="cls-4" transform="translate(0 2.649)"/>
                                <circle id="Ellipse_583" cx="10.901" cy="10.901" r="10.901" class="cls-6"/>
                            </g>
                            <g id="Group_10086" transform="translate(6.676 36.783)">
                                <circle id="Ellipse_584" cx="10.901" cy="10.901" r="10.901" class="cls-4" transform="translate(0 2.649)"/>
                                <circle id="Ellipse_585" cx="10.901" cy="10.901" r="10.901" class="cls-6"/>
                            </g>
                            <g id="Group_10087" transform="translate(6.676 66.585)">
                                <circle id="Ellipse_586" cx="10.901" cy="10.901" r="10.901" class="cls-4" transform="translate(0 2.649)"/>
                                <circle id="Ellipse_587" cx="10.901" cy="10.901" r="10.901" class="cls-6"/>
                            </g>
                        </g>
                    </g>
                    <g id="Group_10093" transform="translate(768.451 244.025)">
                        <g id="Group_10091">
                            <path id="Rectangle_2044" d="M0 0H66.342V28.956H0z" class="cls-2" transform="translate(9.25 36.152)"/>
                            <path id="Rectangle_2045" d="M0 0H9.235V36.97H0z" class="cls-3" transform="translate(4.625 32.144)"/>
                            <path id="Rectangle_2046" d="M0 0H9.235V36.97H0z" class="cls-3" transform="translate(70.967 32.144)"/>
                            <path id="Path_3614" d="M393.53 278.21h-6.262a2.985 2.985 0 0 1-2.987-2.987v-3.275a2.985 2.985 0 0 1 2.987-2.988h6.262z" class="cls-7" transform="translate(-384.28 -222.955)"/>
                            <path id="Path_3615" d="M436.91 268.96h6.262a2.985 2.985 0 0 1 2.988 2.988v3.275a2.985 2.985 0 0 1-2.988 2.987h-6.262z" class="cls-3" transform="translate(-361.318 -222.955)"/>
                            <g id="Group_10090" transform="translate(18.155)">
                                <path id="Path_3616" d="M437.049 354.807H401.4V254.754a17.832 17.832 0 0 1 17.824-17.824 17.832 17.832 0 0 1 17.824 17.824z" class="cls-3" transform="translate(-394.965 -236.93)"/>
                                <path id="Path_3617" d="M445.438 333.12H396.92v-9.436a8.827 8.827 0 0 1 8.833-8.833h30.866a8.827 8.827 0 0 1 8.833 8.833v9.436z" class="cls-2" transform="translate(-396.92 -202.934)"/>
                            </g>
                            <circle id="Ellipse_588" cx="15.253" cy="15.253" r="15.253" class="cls-3" transform="translate(27.16 35.319)"/>
                            <path id="Path_3618" d="M418.548 273.244a3.634 3.634 0 1 1-3.634-3.634 3.629 3.629 0 0 1 3.634 3.634z" class="cls-2" transform="translate(-372.5 -222.672)"/>
                            <path id="Path_3619" d="M396.92 254.285a4.622 4.622 0 0 1 4.625-4.625h39.283a4.622 4.622 0 0 1 4.625 4.625 4.622 4.622 0 0 1-4.625 4.625h-39.283a4.64 4.64 0 0 1-4.625-4.625z" class="cls-4" transform="translate(-378.765 -231.376)"/>
                        </g>
                        <g id="Group_10092" transform="translate(30.033 74.113)">
                            <path id="Path_3620" d="M409.815 288.53a4.622 4.622 0 0 1 4.625 4.625v23.885a4.622 4.622 0 0 1-4.625 4.625 4.622 4.622 0 0 1-4.625-4.625v-23.885a4.64 4.64 0 0 1 4.625-4.625z" class="cls-2" transform="translate(-405.19 -288.53)"/>
                            <path id="Path_3621" d="M420.615 288.53a4.622 4.622 0 0 1 4.625 4.625v23.885a4.622 4.622 0 0 1-4.625 4.625 4.622 4.622 0 0 1-4.625-4.625v-23.885a4.64 4.64 0 0 1 4.625-4.625z" class="cls-2" transform="translate(-400.478 -288.53)"/>
                        </g>
                    </g>
                    <g id="Group_10094" transform="translate(34.309 194.688)">
                        <path id="Path_3622" d="M73.674 354.661h-3.533a1.8 1.8 0 0 1-1.81-1.9l3.806-86.8h9.077l-5.731 87a1.819 1.819 0 0 1-1.809 1.7z" class="cls-4" transform="translate(-63.62 -174.923)"/>
                        <path id="Path_3623" d="M84 354.661h-3.529a1.8 1.8 0 0 1-1.81-1.9l3.806-86.8h9.077l-5.731 87a1.809 1.809 0 0 1-1.813 1.7z" class="cls-4" transform="translate(-59.113 -174.923)"/>
                        <path id="Path_3624" d="M113.371 354.661h3.529a1.8 1.8 0 0 0 1.81-1.9l-3.806-86.8h-9.074l5.731 87a1.809 1.809 0 0 0 1.81 1.7z" class="cls-4" transform="translate(-47.258 -174.923)"/>
                        <path id="Path_3625" d="M123.551 354.661h3.533a1.8 1.8 0 0 0 1.81-1.9l-3.806-86.8h-9.078l5.731 87a1.809 1.809 0 0 0 1.81 1.7z" class="cls-4" transform="translate(-42.816 -174.923)"/>
                        <path id="Rectangle_2047" d="M0 0H7.699V40.676H0z" class="cls-4" transform="translate(25.121 39.986)"/>
                        <path id="Rectangle_2048" d="M0 0H7.699V40.676H0z" class="cls-4" transform="translate(59.161 39.986)"/>
                        <path id="Path_3626" d="M157.978 269.717c0 8.991-20.8 8.158-46.464 8.158s-46.464.847-46.464-8.158 20.8-16.288 46.464-16.288 46.464 7.297 46.464 16.288z" class="cls-7" transform="translate(-65.05 -180.394)"/>
                        <path id="Path_3627" d="M130.7 246.99H86.5a13.387 13.387 0 0 1-13.343-12.338L71.782 217a13.388 13.388 0 0 1 13.343-14.42h46.967A13.388 13.388 0 0 1 145.436 217l-1.379 17.652A13.4 13.4 0 0 1 130.7 246.99z" class="cls-7" transform="translate(-62.131 -202.58)"/>
                    </g>
                    <g id="Group_10095" transform="translate(-30.862 112.38)">
                        <path id="Rectangle_2049" d="M0 0H52.181V41.136H0z" class="cls-4" transform="translate(2.815)"/>
                        <path id="Rectangle_2050" d="M0 0H2.815V41.136H0z" class="cls-8"/>
                        <path id="Rectangle_2051" d="M0 0H41.538V32.748H0z" class="cls-6" transform="translate(8.129 4.194)"/>
                        <path id="Rectangle_2052" d="M0 0H34.701V27.361H0z" class="cls-2" transform="translate(11.562 6.894)"/>
                    </g>
                    <g id="Group_10097" transform="translate(41.149 45.621)">
                        <g id="Group_10096">
                            <path id="Rectangle_2053" d="M0 0H57.437V72.835H0z" class="cls-2" transform="translate(2.743)"/>
                            <path id="Rectangle_2054" d="M0 0H2.743V72.835H0z" class="cls-8"/>
                            <path id="Rectangle_2055" d="M0 0H45.717V57.983H0z" class="cls-7" transform="translate(8.603 7.426)"/>
                            <path id="Rectangle_2056" d="M0 0H38.191V48.446H0z" class="cls-3" transform="translate(12.367 12.194)"/>
                        </g>
                        <path id="Path_3628" d="M127.08 93.944s6.751 9.551 10.212 9.393c3.174-.144 8.575-9.393 8.575-9.393s-6.751-9.551-10.212-9.393c-3.175.129-8.575 9.393-8.575 9.393z" class="cls-2" transform="translate(-103.18 -64.644)"/>
                        <path id="Path_3629" d="M146.571 109.38c2-3.849-8.445-11.936-12.769-11.749-3.979.172-12.266 8.086-10.715 11.749 2.27 5.415 20.784 5.214 23.484 0z" class="cls-4" transform="translate(-105.005 -58.937)"/>
                    </g>
                    <g id="Group_10099" transform="translate(-49 18.36)">
                        <g id="Group_10098">
                            <ellipse id="Ellipse_589" cx="25.925" cy="36.152" class="cls-8" rx="25.925" ry="36.152"/>
                            <ellipse id="Ellipse_590" cx="25.925" cy="36.152" class="cls-2" rx="25.925" ry="36.152" transform="translate(3.088)"/>
                            <ellipse id="Ellipse_591" cx="22.09" cy="30.794" class="cls-5" rx="22.09" ry="30.794" transform="translate(6.923 5.357)"/>
                            <ellipse id="Ellipse_592" cx="19.735" cy="27.519" class="cls-3" rx="19.735" ry="27.519" transform="translate(9.278 8.632)"/>
                        </g>
                        <path id="Path_3630" d="M92.414 97.483s6.808-5.989 6.09-15.325c0 0-8.144-.962-7.9 12.682 0 0-9.178-9.523-6.463-15.555 4.237-9.422 4.237-9.422 1.25-15.325 0 0-8 3.232-4.352 14.119a34.178 34.178 0 0 0 1.261 8.373s-8.055-7.713-10.64-2.652c0 0 4.295 8.173 10.643 4.768-.003.01 7.138 12.532 10.111 8.915z" class="cls-2" transform="translate(-57.211 -46.365)"/>
                    </g>
                </g>
            </g>
            <ellipse id="_x3C_Path_x3E__2_" cx="278.483" cy="16.259" fill="#d6d6d6" rx="278.483" ry="16.259" transform="translate(437.723 558.447)"/>
            <g id="Group_10107" transform="translate(724.235 209.712)">
                <path id="Path_3631" d="M326.636 145.6c-3.864-4.022-6.607-11.533-7.943-16.288l-6.047 14.564a9.937 9.937 0 0 1 2.241 8.359c-.029.129-.215 2.571-4.237 5.07 0 0 .733 14.736 9.508 12.639S333.7 150.38 333.7 150.38l.632-4.955s-4.12 3.361-7.696.175z" class="cls-10" transform="translate(-224.645 -91.979)"/>
                <path id="Path_3632" d="M313.519 138.2l-1.479 3.576a10.544 10.544 0 0 1 2.269 4.783c4.022-4.754 4.467-12.41 4.467-12.41z" class="cls-11" transform="translate(-224.038 -89.867)"/>
                <path id="Path_3633" d="M276.537 195.363s23.684.977 34.2-1.91 19.447-21.272 19.447-21.272l-11.994-6.621-11.922 17.74-29.717 4.754-8.532-6.076s-17.25-3.677-17.25-1.451 8.891 4.065 8.891 4.065.517 10.6 4.18 10.916c3.66.343 12.697-.145 12.697-.145z" class="cls-10" transform="translate(-250.77 -76.163)"/>
                <path id="Path_3634" d="M315.143 151.036s-10.255 1.436-16.963 13.86-.991 12.912 4.7 16.431 8.517 4.266 11.131-3.361 7.768-27.691 1.132-26.93z" class="cls-12" transform="translate(-231.407 -82.509)"/>
                <path id="Path_3635" d="M312.2 169.864l-3.792-7.756-6.392-.488a107.922 107.922 0 0 0 .33 16.46c4.151 2.169 6.55 1.752 8.761-4.725.314-.992.701-2.169 1.093-3.491z" class="cls-11" transform="translate(-228.489 -77.882)"/>
                <g id="Group_10102" transform="translate(59.06 16.017)">
                    <path id="Path_3636" d="M296.113 117.515s-7.469 2.643-2.542 10.255-5.013 12.754 11.706 14.866.589-28.166.589-28.166z" class="cls-13" transform="translate(-291.889 -114.47)"/>
                    <path id="Path_3637" d="M296.113 117.515s-7.469 2.643-2.542 10.255-5.013 12.754 11.706 14.866.589-28.166.589-28.166z" class="cls-14" transform="translate(-291.889 -114.47)"/>
                </g>
                <path id="Path_3638" d="M356.066 154.154c-2.5-16.259-11.964-15.972-21.2-12.338.646 6.133.661 13.946-8.187 18.8-7.971 4.381-11.088-2.815-11.261-8.934-8.345 4.754-15.34 10.858-13.056 22.923 1.307 6.909 7.4 14.478 13.63 24.087 7.454 11.476 15.124 24.532 15.124 24.532l42.6-21.688c.016-.013-14.935-29.758-17.65-47.382z" class="cls-12" transform="translate(-228.451 -87.408)"/>
                <path id="Path_3639" d="M343.067 151.989a31.17 31.17 0 0 0-1.537-6.147l-6.449-1.092-3.361 5.357s7.11 12.524 16.56 20.438a104.8 104.8 0 0 1-5.213-18.556z" class="cls-15" transform="translate(-215.452 -85.242)"/>
                <path id="Path_3640" d="M349.452 146.19s14.621 10 19.074 13.86c6.65 5.731 24.575 25.092 24.575 25.092l10.973 6.018v6.94l-5.185 3.591a3.49 3.49 0 0 1-4.883-.934l-6.65-9.953s-16.431-15.024-22.478-19.3c-5.113-3.619-21.688-12.51-21.688-12.51z" class="cls-10" transform="translate(-210.448 -84.614)"/>
                <path id="Path_3641" d="M328.863 140.712s9.408-4.237 17.451 0 11.562 6.578 10.786 11.688-3.72 15.684-9.02 13.918-22.147-18.468-19.217-25.606z" class="cls-12" transform="translate(-216.846 -87.826)"/>
                <path id="Path_3642" d="M327.125 125.054c1.092 11 1.8 15.641-2.815 22.119-6.923 9.752-20.668 8.69-25.035-1.767-3.921-9.408-5.041-25.825 4.912-31.886a15.09 15.09 0 0 1 22.938 11.533z" class="cls-10" transform="translate(-230.85 -99.845)"/>
                <path id="Path_3651" d="M305.564 122.5c-4.28.5-15.8 3.792-13.975-6.923s22.349-16.072 31.886-9.149 16.862 6.406 24.446.79 11.246-3.4 20.912 1.824c0 0-5.228 9.02-2.743 14.507 0 0-5.745-5.745-16.46.388 0 0 12.41-3.3 17.121 5.271 0 0-1.307 9.465 3.26 15.1s-.129 12.295-17.638 5.5-19.376-.56-23.412-3.562-7.067-11.131-7.684-17.034c-.459-4.247-2.37-8.312-15.713-6.712z" class="cls-13" transform="translate(-233.046 -103.319)"/>
                <path id="Path_3652" d="M321.215 127.456a8.012 8.012 0 0 1-3.088 5.343c-2.269 1.709-4.424-.057-4.668-2.743-.215-2.4.7-6.19 3.4-6.851a3.674 3.674 0 0 1 4.338 2.815 3.717 3.717 0 0 1 .018 1.436z" class="cls-10" transform="translate(-223.432 -94.677)"/>
                <path id="Path_3653" d="M362.667 338.05c.388 9.178.646 16.46.646 16.46l-10.2 1.163s-.977-6.2-2.456-15.727z" class="cls-10" transform="translate(-207.188 -.906)"/>
                <g id="Group_10105" transform="translate(130.619 347.629)">
                    <path id="Path_3654" d="M350.214 349.5c-1.264.086-2.585-.072-3.045-.589a.884.884 0 0 1-.043-1.049 1.315 1.315 0 0 1 .718-.618c1.666-.574 5.357 1.221 5.515 1.307a.242.242 0 0 1 .129.244.262.262 0 0 1-.187.215 17.073 17.073 0 0 1-3.087.49zm-1.738-1.882a2.369 2.369 0 0 0-.46.086.647.647 0 0 0-.445.373c-.158.316-.086.46-.014.531.517.632 3.088.488 4.97.129a11.523 11.523 0 0 0-4.051-1.119z" class="cls-16" transform="translate(-339.416 -344.574)"/>
                    <path id="Path_3655" d="M352.518 349.788a.123.123 0 0 1-.1 0c-1.25-.46-3.849-2.514-3.706-3.677 0-.273.187-.632.847-.733a1.715 1.715 0 0 1 1.365.33c1.364.977 1.81 3.72 1.838 3.835a.249.249 0 0 1-.1.23.159.159 0 0 1-.144.015zm-2.758-3.964h-.144c-.431.057-.445.244-.46.3-.014.689 1.695 2.327 3 2.987a5.648 5.648 0 0 0-1.551-3.031 1.114 1.114 0 0 0-.847-.258z" class="cls-16" transform="translate(-338.66 -345.351)"/>
                    <path id="Path_3656" d="M356.56 347.614l11.117-.7a.9.9 0 0 1 .919.646l2.585 8.919a1.491 1.491 0 0 1-1.005 1.853 2.058 2.058 0 0 1-.316.057c-4.007.187-7.6.2-12.582.517-5.889.373-4.352.991-11.275 1.522-4.165.316-5.242-4.366-3.476-4.725 8.029-1.537 8.718-4.036 11.663-7.138a3.7 3.7 0 0 1 2.37-.951z" class="cls-13" transform="translate(-341.712 -344.671)"/>
                </g>
                <path id="Path_3657" d="M369.327 189.658l-1.939-6.966a1.4 1.4 0 0 0-1.982-.876l-43.462 21.918a1.4 1.4 0 0 0-.517 2.054l4.409 6.406s10.787 73.5 15.253 97.912C345.657 335.011 362 409.483 362 409.483a1.057 1.057 0 0 0 1.192.833l12.654-2.054a1.058 1.058 0 0 0 .876-1.005c.144-6.348.043-46.479-3.993-74.874-1.451-10.14-4.855-18.27-6.018-23.857-1.278-6.162.7-10.3 1.479-25.149 1.482-27.951 3.234-72.002 1.137-93.719z" class="cls-13" transform="translate(-220.053 -69.137)"/>
                <path id="Path_3658" d="M360.629 272.475c.488-9.35 1.02-20.5 1.422-32.015l-12.6-21.257-5.63-12.553-5.314 7.225s9.393 39.513 21.731 64.346c.147-1.721.276-3.605.391-5.746z" opacity="0.5" transform="translate(-212.489 -58.236)"/>
                <path id="Path_3659" d="M423.471 313.59c5.3 7.512 8.733 12.453 8.733 12.453l-7.943 6.492s-4.18-4.7-10.571-11.893z" class="cls-10" transform="translate(-179.689 -11.578)"/>
                <g id="Group_10106" transform="translate(233.627 310.801)">
                    <path id="Path_3660" d="M418.217 327.885c-1.02.747-2.212 1.35-2.873 1.163a.916.916 0 0 1-.6-.862 1.282 1.282 0 0 1 .273-.9c1.092-1.393 5.171-1.867 5.343-1.882a.238.238 0 0 1 .2.4 18.954 18.954 0 0 1-2.343 2.081zm-2.485-.632a1.388 1.388 0 0 0-.33.316.659.659 0 0 0-.187.56c.029.345.172.431.273.46.776.258 2.858-1.264 4.251-2.585a10.878 10.878 0 0 0-4.007 1.25z" class="cls-16" transform="translate(-412.859 -317.228)"/>
                    <path id="Path_3661" d="M420.373 326.473c-.014.029-.057.043-.086.057-1.307.287-4.6-.029-5.1-1.092-.144-.244-.172-.632.316-1.077a1.757 1.757 0 0 1 1.336-.46c1.68.086 3.533 2.14 3.619 2.241a.251.251 0 0 1 .043.244.408.408 0 0 1-.128.087zm-4.467-1.853l-.115.072c-.33.287-.244.445-.23.5.359.589 2.686 1.034 4.151.89a5.6 5.6 0 0 0-2.944-1.709 1.3 1.3 0 0 0-.862.244z" class="cls-16" transform="translate(-412.702 -317.883)"/>
                    <path id="Path_3662" d="M421.114 326.5l8.962-6.621a.906.906 0 0 1 1.12.043l7.009 6.1a1.47 1.47 0 0 1 .158 2.1 1.08 1.08 0 0 1-.23.215c-3.275 2.327-6.277 4.28-10.3 7.253-4.754 3.5-3.131 3.189-8.646 7.383-3.332 2.528-6.765-.847-5.487-2.083 5.918-5.645 5.142-8.115 5.946-12.309a3.66 3.66 0 0 1 1.468-2.081z" class="cls-13" transform="translate(-413.429 -319.71)"/>
                </g>
                <path id="Path_3663" d="M332.54 205.795s33.279 76.727 49.006 99.593c13.961 20.295 67.018 72.274 67.018 72.274a2.239 2.239 0 0 0 3.088.187l7.368-6.262a2.248 2.248 0 0 0 .46-2.873c-4.51-7.368-23.57-38-40.274-57.926-6.664-7.957-13.085-13.774-16.23-18.155-4.151-5.788-3.189-10.428-6.478-26.5-6.119-29.875-18.025-73.826-36.137-80.863z" class="cls-13" transform="translate(-215.094 -67.564)"/>
            </g>
            <g id="Group_10132" transform="translate(619.881 182.841)">
                <g id="Group_10121" transform="translate(0 7.426)">
                    <g id="Group_10109">
                        <path id="Path_3664" fill="#407bff" d="M333.72 464.222H198.148a15.322 15.322 0 0 1-15.5-16.991l29.789-340.46a18.916 18.916 0 0 1 18.472-16.991h135.572a15.322 15.322 0 0 1 15.5 16.991l-29.791 340.46a18.9 18.9 0 0 1-18.47 16.991z" opacity="0.3" transform="translate(-182.584 -89.78)"/>
                        <g id="Group_10108" transform="translate(0 .014)">
                            <path id="Path_3665" d="M366.481 89.79H230.909a18.916 18.916 0 0 0-18.471 16.991l-29.788 340.46a15.322 15.322 0 0 0 15.5 16.991h135.57a18.915 18.915 0 0 0 18.471-16.991l29.789-340.459a15.315 15.315 0 0 0-15.499-16.992zM344.65 447.227a10.536 10.536 0 0 1-10.27 9.451H198.808a8.522 8.522 0 0 1-8.618-9.451l29.789-340.459a10.536 10.536 0 0 1 10.27-9.451h135.572a8.522 8.522 0 0 1 8.618 9.451z" class="cls-16" transform="translate(-182.584 -89.79)"/>
                            <path id="Path_3666" fill="#fff" d="M366.481 89.79H230.909a18.916 18.916 0 0 0-18.471 16.991l-29.788 340.46a15.322 15.322 0 0 0 15.5 16.991h135.57a18.915 18.915 0 0 0 18.471-16.991l29.789-340.459a15.315 15.315 0 0 0-15.499-16.992zM344.65 447.227a10.536 10.536 0 0 1-10.27 9.451H198.808a8.522 8.522 0 0 1-8.618-9.451l29.789-340.459a10.536 10.536 0 0 1 10.27-9.451h135.572a8.522 8.522 0 0 1 8.618 9.451z" opacity="0.6" transform="translate(-182.584 -89.79)"/>
                        </g>
                        <path id="Path_3667" d="M266.808 335.84h-37.286a2.326 2.326 0 0 0-2.269 2.1 1.89 1.89 0 0 0 1.91 2.1h37.286a2.326 2.326 0 0 0 2.269-2.1 1.891 1.891 0 0 0-1.91-2.1z" class="cls-20" transform="translate(-163.099 17.575)"/>
                    </g>
                    <g id="Group_10119" transform="translate(44.19 94.681)">
                        <g id="Group_10110" transform="translate(5.663)">
                            <path id="Path_3668" d="M268.921 218.062H229.38a8.944 8.944 0 0 1-9.049-9.91l3.461-39.541a11.029 11.029 0 0 1 10.787-9.91h39.541a8.944 8.944 0 0 1 9.049 9.91l-3.462 39.541a11.029 11.029 0 0 1-10.786 9.91z" class="cls-11" transform="translate(-215.985 -154.391)"/>
                            <path id="Path_3669" d="M265.921 215.062H226.38a8.944 8.944 0 0 1-9.049-9.91l3.461-39.541a11.029 11.029 0 0 1 10.787-9.91h39.541a8.944 8.944 0 0 1 9.049 9.91l-3.461 39.541a11.029 11.029 0 0 1-10.787 9.91z" class="cls-12" transform="translate(-217.294 -155.7)"/>
                            <path id="Path_3670" d="M253.385 178.075c.675-7.655-5.817-13.875-14.507-13.875s-16.259 6.2-16.934 13.875c-.531 6.061 3.418 11.189 9.393 13.085a8.578 8.578 0 0 1-3.763 3.72 6.616 6.616 0 0 0 .9.445 7.284 7.284 0 0 0 8.589-3.4c8.422-.292 15.676-6.367 16.322-13.85z" class="cls-20" transform="translate(-215.285 -151.992)"/>
                            <path id="Path_3671" d="M263.8 181.967c.56-6.32-4.812-11.447-11.979-11.447a15.378 15.378 0 0 0-3.734.474 14.864 14.864 0 0 1 .273 4.323 17.873 17.873 0 0 1-8.632 13.358 12.155 12.155 0 0 0 9.164 4.7 4.711 4.711 0 0 0 6.076 2.715 6.936 6.936 0 0 0 .747-.33 5.1 5.1 0 0 1-2.312-2.772c5.573-1.388 9.94-5.788 10.397-11.021z" class="cls-20" transform="translate(-207.505 -149.234)"/>
                        </g>
                        <g id="Group_10118" transform="translate(0 69.344)">
                            <path id="Path_3672" d="M252.515 298.657h-29.4a6.656 6.656 0 0 1-6.736-7.368l2.571-29.4a8.2 8.2 0 0 1 8.015-7.368h29.4a6.656 6.656 0 0 1 6.736 7.368l-2.571 29.4a8.193 8.193 0 0 1-8.015 7.368z" class="cls-11" transform="translate(-212.042 -181.93)"/>
                            <path id="Path_3673" d="M285.3 262.177h-36.752a8.318 8.318 0 0 1-8.417-9.221l3.217-36.755a10.276 10.276 0 0 1 10.025-9.221h36.755a8.318 8.318 0 0 1 8.417 9.221l-3.217 36.755a10.275 10.275 0 0 1-10.028 9.221z" class="cls-11" transform="translate(-201.683 -202.671)"/>
                            <path id="Path_3674" d="M282.3 259.177h-36.752a8.318 8.318 0 0 1-8.417-9.221l3.217-36.755a10.276 10.276 0 0 1 10.025-9.221h36.755a8.318 8.318 0 0 1 8.417 9.221l-3.217 36.755a10.275 10.275 0 0 1-10.028 9.221z" class="cls-12" transform="translate(-202.992 -203.98)"/>
                            <path id="Path_3675" d="M249.515 295.657h-29.4a6.656 6.656 0 0 1-6.736-7.368l2.571-29.4a8.2 8.2 0 0 1 8.015-7.368h29.4a6.656 6.656 0 0 1 6.736 7.368l-2.571 29.4a8.192 8.192 0 0 1-8.015 7.368z" class="cls-12" transform="translate(-213.351 -183.238)"/>
                            <path id="Path_3676" d="M282.491 212.64h-34.1a4.356 4.356 0 0 0-4.251 3.907l-1.968 22.492a3.525 3.525 0 0 0 3.562 3.907h34.1a4.356 4.356 0 0 0 4.251-3.907l1.968-22.492a3.509 3.509 0 0 0-3.562-3.907zm-26.112 15.139l-11.419 10.5 1.838-21zm-7.5-12.424h32.647l-16.5 15.182a1.611 1.611 0 0 1-2.284 0zm9.25 14.334l2.514 2.758a3.944 3.944 0 0 0 2.959 1.264 4.7 4.7 0 0 0 3.174-1.264l3-2.758 9.623 10.542H246.67zm13.731-1.91l11.418-10.5-1.838 21z" class="cls-20" transform="translate(-200.782 -200.202)"/>
                            <g id="Group_10117" transform="translate(9.909 74.687)">
                                <g id="Group_10111">
                                    <path id="Path_3677" d="M220.25 263.707l8.6 3.519 9.494-6.506-7.124 8.445 5.228 7.383 8.287-20.568z" class="cls-20" transform="translate(-220.25 -255.98)"/>
                                    <path id="Path_3678" d="M225.919 265.17l3.878 4.74h-4.137z" class="cls-20" transform="translate(-217.89 -251.97)"/>
                                </g>
                                <g id="Group_10116" transform="translate(2.183 17.58)">
                                    <g id="Group_10112" transform="translate(1.508)">
                                        <path id="Path_3679" d="M223.725 270.03l-.9-.589a11.515 11.515 0 0 1 .891-1.221l.819.7a9.4 9.4 0 0 0-.81 1.11z" class="cls-20" transform="translate(-222.82 -268.22)"/>
                                    </g>
                                    <g id="Group_10113" transform="translate(0 2.413)">
                                        <path id="Path_3680" d="M223.752 276.378a3.855 3.855 0 0 1-1.853-2.3l1.034-.287a2.831 2.831 0 0 0 1.365 1.666zm-.9-3.706l-1.077-.086a7.7 7.7 0 0 1 .819-2.686l.962.474a6.9 6.9 0 0 0-.709 2.298z" class="cls-20" transform="translate(-221.77 -269.9)"/>
                                    </g>
                                    <g id="Group_10114" transform="translate(3.289 8.388)">
                                        <path id="Path_3681" d="M244.47 278.311l-1.063-.187a5.372 5.372 0 0 0 .072-.776 1.941 1.941 0 0 0-.388-1.278l.833-.689a3.049 3.049 0 0 1 .632 1.968 5.829 5.829 0 0 1-.086.962zm-15.27-2.484c-.373 0-.761-.014-1.12-.029l.043-1.077a25.629 25.629 0 0 0 2.571-.014l.043 1.077c-.515.043-1.037.043-1.537.043zm2.858-.1l-.072-1.077c.876-.057 1.752-.144 2.6-.23l.1 1.077c-.859.071-1.735.157-2.626.229zm-5.329-.014c-.144-.014-.3-.029-.445-.057a12.464 12.464 0 0 1-2.226-.5l.345-1.02a10.55 10.55 0 0 0 2.025.46l.417.057zm15.512-.215a6.823 6.823 0 0 0-2.384-.359l.014-1.077a8.008 8.008 0 0 1 2.772.431zm-6.241-.131l-.1-1.077c.919-.086 1.81-.158 2.643-.2l.057 1.077c-.823.042-1.7.114-2.6.2z" class="cls-20" transform="translate(-224.06 -274.06)"/>
                                    </g>
                                    <g id="Group_10115" transform="translate(21.817 13.688)">
                                        <path id="Path_3682" d="M237.951 279.474l-.991-.431c.2-.46.373-.89.5-1.293l1.02.345c-.141.416-.314.876-.529 1.379z" class="cls-20" transform="translate(-236.96 -277.75)"/>
                                    </g>
                                </g>
                            </g>
                        </g>
                    </g>
                    <g id="Group_10120" transform="translate(73.959 36.985)">
                        <path id="Path_3683" d="M277.757 168.211h-33.078a7.484 7.484 0 0 1-7.569-8.3l2.9-33.078a9.24 9.24 0 0 1 9.02-8.3h33.078a7.484 7.484 0 0 1 7.569 8.3l-2.9 33.078a9.24 9.24 0 0 1-9.02 8.3z" class="cls-11" transform="translate(-232.769 -114.221)"/>
                        <path id="Path_3684" d="M274.757 165.211h-33.078a7.484 7.484 0 0 1-7.569-8.3l2.9-33.078a9.24 9.24 0 0 1 9.02-8.3h33.078a7.484 7.484 0 0 1 7.569 8.3l-2.9 33.078a9.24 9.24 0 0 1-9.02 8.3z" class="cls-12" transform="translate(-234.077 -115.53)"/>
                        <path id="Path_3685" d="M273.57 144.9a24.6 24.6 0 0 0-21.415-23.469 8.154 8.154 0 0 0-10.068 2.327c-2.844 3.49-.33 5.7 2.93 8.244s6.047 4.424 8.891.934a8.511 8.511 0 0 0 1.867-4.5 19.254 19.254 0 0 1 11.16 12.237 8.282 8.282 0 0 0-4.625 1.479c-3.706 2.528-2.083 5.487.144 8.962s4.208 6.19 7.914 3.663a8.241 8.241 0 0 0 3.202-9.877z" class="cls-20" transform="translate(-231.123 -113.334)"/>
                    </g>
                </g>
                <g id="Group_10126" transform="translate(101.847)">
                    <g id="Group_10122">
                        <path id="Path_3686" d="M254.25 86.334h22.521c1.106 0 1.264-1.724.144-1.724h-22.522c-1.092 0-1.25 1.724-.144 1.724z" class="cls-16" transform="translate(-253.494 -84.61)"/>
                    </g>
                    <g id="Group_10123" transform="translate(30.769)">
                        <path id="Path_3687" d="M275.683 86.334h6.478c1.106 0 1.264-1.724.144-1.724h-6.478c-1.106 0-1.264 1.724-.144 1.724z" class="cls-16" transform="translate(-274.916 -84.61)"/>
                    </g>
                    <g id="Group_10124" class="cls-21">
                        <path id="Path_3688" d="M254.25 86.334h22.521c1.106 0 1.264-1.724.144-1.724h-22.522c-1.092 0-1.25 1.724-.144 1.724z" class="cls-20" transform="translate(-253.494 -84.61)"/>
                    </g>
                    <g id="Group_10125" class="cls-21" transform="translate(30.769)">
                        <path id="Path_3689" d="M275.683 86.334h6.478c1.106 0 1.264-1.724.144-1.724h-6.478c-1.106 0-1.264 1.724-.144 1.724z" class="cls-20" transform="translate(-274.916 -84.61)"/>
                    </g>
                </g>
                <g id="Group_10131" transform="translate(173.566 175.195)">
                    <g id="Group_10127" transform="translate(1.293)">
                        <path id="Path_3690" d="M306.3 207.352q-.991 11.268-1.968 22.521a.859.859 0 0 0 1.709.158q.991-11.268 1.968-22.521a.858.858 0 0 0-1.709-.158z" class="cls-16" transform="translate(-304.327 -206.587)"/>
                    </g>
                    <g id="Group_10128" transform="translate(0 30.771)">
                        <path id="Path_3691" d="M303.991 228.771l-.56 6.478a.859.859 0 0 0 1.709.158l.56-6.478a.859.859 0 0 0-1.709-.158z" class="cls-16" transform="translate(-303.427 -228.011)"/>
                    </g>
                    <g id="Group_10129" class="cls-21" transform="translate(1.293)">
                        <path id="Path_3692" d="M306.3 207.352q-.991 11.268-1.968 22.521a.859.859 0 0 0 1.709.158q.991-11.268 1.968-22.521a.858.858 0 0 0-1.709-.158z" class="cls-20" transform="translate(-304.327 -206.587)"/>
                    </g>
                    <g id="Group_10130" class="cls-21" transform="translate(0 30.771)">
                        <path id="Path_3693" d="M303.991 228.771l-.56 6.478a.859.859 0 0 0 1.709.158l.56-6.478a.859.859 0 0 0-1.709-.158z" class="cls-20" transform="translate(-303.427 -228.011)"/>
                    </g>
                </g>
            </g>
            <g id="Group_10137" transform="translate(462.313 206.844)">
                <path id="Path_3694" d="M169.1 137.382s-8.331-1.149-7.325 3.189c.733 3.174 3.534-3.046 7.325-3.189z" class="cls-13" transform="translate(-27.713 -85.649)"/>
                <g id="Group_10136">
                    <path id="Path_3695" d="M161.81 148.215s6.865-.057 7.928-12.582c0 0 6.549-2.284 10.27 1.8s-4.826 11.993-.115 16.087c0-.005-4.711 2.566-18.083-5.305z" class="cls-10" transform="translate(-27.661 -86.63)"/>
                    <path id="Path_3696" d="M180.093 113.508s8.848-1.9 11.146 4.611-13.1 3.648-13.1 3.648z" class="cls-13" transform="translate(-20.536 -96.117)"/>
                    <path id="Path_3697" d="M180.093 113.508s8.848-1.9 11.146 4.611-13.1 3.648-13.1 3.648z" class="cls-14" transform="translate(-20.536 -96.117)"/>
                    <path id="Path_3700" d="M164.557 126.191c-.488 10.643-.919 15.139 3.835 21.142 7.569 6.392 20.352 7.3 24-3 3.289-9.264 3.519-25.063-6.377-30.435a14.517 14.517 0 0 0-21.458 12.295z" class="cls-10" transform="translate(-26.587 -96.605)"/>
                    <g id="Group_10133" transform="translate(129.323 59.043)">
                        <path id="Path_3702" d="M158.45 147.127s2.959-8.173 15.21-2.959 13.4 12.4 13.4 12.4z" class="cls-13" transform="translate(-158.45 -142.429)"/>
                        <path id="Path_3703" d="M158.45 147.127s2.959-8.173 15.21-2.959 13.4 12.4 13.4 12.4z" class="cls-22" transform="translate(-158.45 -142.429)"/>
                    </g>
                    <path id="Path_3704" d="M173.768 253.54s-1.752 14.894-2.585 19.821c-.733 4.366-24.388 117.345-24.388 117.345l-10.787-1.781s-1.192-57.265 7.11-95.169c1.695-7.756 5.128-14.262 6.377-20.18 1.005-4.768-.517-19.462-.517-19.462z" class="cls-10" transform="translate(-38.944 -34.91)"/>
                    <path id="Path_3705" d="M155.546 255.5s-5.013 13.645-7.354 17.868C145.65 277.961 136 290.471 136 290.471L84.579 362.6l-9.839-6.219s14.837-39.714 37.186-72.073c5.329-7.713 13-13.587 17.164-21.243 2.4-4.409 4.453-19.577 4.453-19.577z" class="cls-10" transform="translate(-65.649 -39.294)"/>
                    <path id="Path_3706" d="M144.04 155.69s-12.309 15.7-11.261 22.291 20.338 14.619 20.338 14.619l4.9-6.966-12.668-9.25 12.065-13.832z" class="cls-10" transform="translate(-40.354 -77.601)"/>
                    <path id="Path_3707" d="M161.781 144.919c-1.551-.718-8.359-3.461-23.081 15.684 0 0 5.357 6.679 16.848 10.657-.015-.014 12.912-23.225 6.233-26.341z" class="cls-13" transform="translate(-37.744 -82.543)"/>
                    <path id="Path_3708" d="M153.71 170.407s2.14-3.849 4.237-8.632c-.345-8.2-1.35-18.385-4.237-14.722-3.821 4.855-9.106 14.636-10.83 17.911a45.29 45.29 0 0 0 10.83 5.443z" class="cls-22" transform="translate(-35.92 -81.704)"/>
                    <path id="Path_3709" d="M155.631 189a111.743 111.743 0 0 0 45.8 13.185l-16.6 92.512s-47.886-.144-72.921-23.943c.014.014 9.997-50.4 43.721-81.754z" class="cls-12" transform="translate(-49.432 -63.068)"/>
                    <path id="Path_3710" d="M140.94 208.767s19.175 14.133 49.725 13.171c0 0 17.537-48.518 6.55-64.921-6.794-10.14-32.877-14.736-39.9-11.849-8.475 3.462-3.578 33.897-16.375 63.599z" class="cls-13" transform="translate(-36.766 -82.563)"/>
                    <path id="Path_3711" d="M150.619 223.89l-21.329 46.636c8.7 3.418 17.839 5.185 22.981 6.305 0 .001.718-43.562-1.652-52.941z" class="cls-11" transform="translate(-41.849 -47.846)"/>
                    <path id="Path_3712" d="M175.54 158.67l-3.39 2.5s2.93 12.266 12.639 26.413a109.288 109.288 0 0 0 2.4-20.582l-7.555-6.406z" class="cls-22" transform="translate(-23.149 -76.301)"/>
                    <path id="Path_3713" d="M191.642 163.56l11.49 16.015 28.87 1.91 5.3-4.409a2.251 2.251 0 0 1 1.264-.517l15.411-1.221a.77.77 0 0 1 .833.833l-.086 1.307a.772.772 0 0 1-.718.718l-7.311.575-1.494 7.5a2.26 2.26 0 0 1-1.666 1.752l-5.731 1.465a2.118 2.118 0 0 1-1.12 0l-4.05-1.02s-22.507 4.553-32.834 2.729-20.51-18.629-20.51-18.629z" class="cls-10" transform="translate(-20.034 -74.167)"/>
                    <path id="Path_3714" d="M181.911 181.539s-18.5-24.733-7.081-30.493 23.426 19.677 23.426 19.677-4.696 7.197-16.345 10.816z" class="cls-13" transform="translate(-23.604 -79.996)"/>
                    <g id="Group_10134" transform="translate(92.209 349.885)">
                        <path id="Path_3715" d="M145.2 349.3a.289.289 0 0 1-.072-.531c.187-.1 4.424-2.312 6.392-1.695a1.479 1.479 0 0 1 .862.689 1.035 1.035 0 0 1-.029 1.221c-.517.618-2.054.833-3.533.776a20.626 20.626 0 0 1-3.62-.46zm.934-.345c2.2.359 5.2.445 5.788-.3.086-.086.158-.259-.029-.618a.783.783 0 0 0-.531-.417 1.713 1.713 0 0 0-.531-.086 12.939 12.939 0 0 0-4.701 1.42z" class="cls-16" transform="translate(-127.213 -344.034)"/>
                        <path id="Path_3716" d="M145.066 350.161a.264.264 0 0 1-.115-.259c.014-.144.46-3.346 2.025-4.539a2.079 2.079 0 0 1 1.58-.417c.776.1 1.005.5 1.02.833.2 1.35-2.758 3.821-4.194 4.4a.157.157 0 0 1-.115 0 .2.2 0 0 1-.201-.018zm3.275-4.682a1.544 1.544 0 0 0-.991.316 6.616 6.616 0 0 0-1.709 3.591c1.508-.819 3.461-2.758 3.418-3.576-.014-.072-.043-.273-.546-.345l-.172.014z" class="cls-16" transform="translate(-127.226 -344.924)"/>
                        <path id="Path_3717" d="M149.444 347.548l-12.984-.488a1.049 1.049 0 0 0-1.048.776l-2.743 10.471a1.735 1.735 0 0 0 1.221 2.126 1.561 1.561 0 0 0 .359.057c4.682.1 8.862-.014 14.679.215 6.88.259 5.1 1.02 13.185 1.436 4.869.244 5.961-5.257 3.907-5.6-9.408-1.537-10.284-4.438-13.8-7.957a4.246 4.246 0 0 0-2.776-1.036z" class="cls-13" transform="translate(-132.609 -343.992)"/>
                    </g>
                    <g id="Group_10135" transform="translate(0 315.547)">
                        <path id="Path_3718" d="M82.741 327.073a.288.288 0 0 1-.086-.316.276.276 0 0 1 .259-.187c.215 0 5-.072 6.463 1.364a1.464 1.464 0 0 1 .46 1.005 1.052 1.052 0 0 1-.575 1.077c-.733.316-2.212-.187-3.5-.9a19.876 19.876 0 0 1-3.021-2.043zm.991.115c1.81 1.307 4.438 2.743 5.3 2.341.115-.043.259-.158.244-.56a.791.791 0 0 0-.287-.618 1.665 1.665 0 0 0-.445-.316 12.557 12.557 0 0 0-4.812-.847z" class="cls-16" transform="translate(-62.203 -318.594)"/>
                        <path id="Path_3719" d="M82.639 327.911a.293.293 0 0 1 .014-.287c.086-.129 1.91-2.772 3.849-3.131a2.075 2.075 0 0 1 1.609.345c.646.445.661.9.531 1.206-.431 1.293-4.18 2.169-5.731 2.04a.163.163 0 0 1-.115-.043.688.688 0 0 1-.157-.13zm5.041-2.715a1.491 1.491 0 0 0-1.02-.158 6.668 6.668 0 0 0-3.145 2.427c1.709-.043 4.338-.9 4.654-1.652.014-.072.086-.273-.33-.546l-.158-.072z" class="cls-16" transform="translate(-62.216 -319.518)"/>
                        <path id="Path_3720" d="M88.69 327.442l-11.375-6.291a1.05 1.05 0 0 0-1.293.215l-7.167 8.115a1.745 1.745 0 0 0 .129 2.456 1.151 1.151 0 0 0 .3.215c4.137 2.2 7.914 3.979 13.013 6.808 6.018 3.332 4.093 3.2 11.117 7.225 4.237 2.413 7.7-2 6.018-3.246-7.7-5.616-7.181-8.589-8.733-13.329a4.224 4.224 0 0 0-2.009-2.168z" class="cls-13" transform="translate(-68.411 -321.017)"/>
                    </g>
                    <path id="Path_3721" d="M187.172 138.577s4.366-1.364 2.715-7.7c0 0 2.542-4.251 2.14-6.593 0 0 12.9-7.44 5.558-15.627s-20.783-2.7-26.715 7.742c0 0-31.527 10.241-9.58 29.53 21.429 18.817 25.882-7.352 25.882-7.352z" class="cls-13" transform="translate(-31.277 -99.842)"/>
                    <path id="Path_3722" d="M168.416 122.26s-4.912-10.815 2.47-18.988-4.897 11.505-2.47 18.988z" class="cls-13" transform="translate(-25.477 -101.322)"/>
                    <path id="Path_3723" d="M182.6 135.759a2.4 2.4 0 0 0 .345-.144c-.057-8.086-3.117-17.81-15.067-24.446a24.152 24.152 0 0 0-1.594 2.413s-.9.3-2.3.876c4.137 4.4 15.483 18.945 2.715 34.845 12.901 4.022 15.901-13.544 15.901-13.544z" class="cls-12" transform="translate(-26.71 -97.025)"/>
                    <path id="Path_3724" d="M179.339 126.065a8.216 8.216 0 0 1 2.14 5.9c-.158 2.887-2.973 3.433-5.214 1.882-2.04-1.408-4.381-4.582-3.117-7.124s4.367-2.597 6.191-.658z" class="cls-10" transform="translate(-22.87 -91.122)"/>
                    <path id="Path_3726" d="M170.43 138.72a14.147 14.147 0 0 0 5.185 5.7 41.375 41.375 0 0 0 1.307-3.979 19.983 19.983 0 0 1-6.492-1.721z" class="cls-15" transform="translate(-23.9 -85.005)"/>
                </g>
            </g>
        </g>
    </g>
</svg>
