<svg xmlns="http://www.w3.org/2000/svg" width="726" height="383.706" viewBox="0 0 726 383.706">
    <defs>
        <style>
            .cls-1,.cls-4{fill:#f45a1c}.cls-1{opacity:.103}.cls-3{fill:#db4300}.cls-7{fill:#699dee}.cls-10{fill:#afcdfb}.cls-11{fill:#e9f3fe}.cls-12{fill:#cae0ff}.cls-14{fill:#1c468a}.cls-15{fill:#78acea}.cls-16{fill:#fff}.cls-17{fill:#a8d29f}.cls-18{fill:#e49963}.cls-19{fill:#de4200}.cls-20{fill:#2b478b}.cls-21{fill:#163560}.cls-23{fill:#222}.cls-24{fill:#4a75cb}.cls-25{fill:#233862}.cls-26{fill:#213f7a}.cls-27{fill:#ffb27d}.cls-28{fill:#e2915a}.cls-31{fill:#f4a269}.cls-33{fill:#c05420}.cls-34{fill:#913c08}.cls-35{fill:#fafdff}.cls-37{fill:#d5450b}.cls-39{opacity:.5}
        </style>
    </defs>
    <g id="Group_10175" transform="translate(-9.304)">
        <path id="Path_2314" d="M796.209 1256.7s28.455 5.966 27.017 11.193-31.226-8.932-31.226-8.932-21.964 19.644-25.023 29.656c0 0 32.081-4.538 29.4.173s-35.841 10.985-35.841 10.985-15.079 23.225-1.846 33.437 23.389 6.781 25.864 3.438 12.073-27.381 14.921-25.473 1.127 20.115-5.4 27.963c0 0 28.652.226 32.811-13.331s-2.239-20.941.483-29.272 7.341-13.332 7.845-8.394-6.622 18-3.778 26.815 4.07 15.514 11.572 4.431 14.956-33.464 7.439-41.67l-.939-1.026a5.271 5.271 0 0 1 .939 1.026c2.231-1.694 9.834-2.469 15.565-2.821.948.006 2.29-.054 4.136-.2.82-.03 1.488-.048 1.956-.06 12.452.155 29.961 10.06 29.961 10.06l1.768-2.3c-16.214-13.436-35.653-9.706-35.653-9.706-14.813 1.5-25.244-3.181-25.244-3.181s-3.393-28.693-25.6-25.16c-.001.003-14.471 4.195-21.127 12.349z" class="cls-1" transform="translate(-597.693 -965.614)"/>
        <path id="Path_2315" d="M1715.933 427.3c-7.58-27.99-54.81-19.241-54.81-19.241s-32.072 48.981-41.4 50.147 19.241-47.231 19.241-47.231c-18.076-1.75-64.141 20.407-64.141 20.407s2.917 57.145-6.413 55.976 0-50.728 0-50.728c-17.494 5.248-33.819 25.658-33.819 25.658-20.407 33.237 23.323 57.727 23.323 57.727s.584 19.826-11.662 42.568a67.347 67.347 0 0 0-5.573 11.337h4.771q.586-1.919 1.294-3.7a.027.027 0 0 1 .009-.021c.006-.018.015-.033.021-.051.328-.736.8-1.786 1.381-3.062v-.006-.006c1.458-2.854 2.442-4.959 3.065-6.479a.158.158 0 0 1 .006-.015c4.365-8.954 10.654-20.619 14.849-23.067a9.206 9.206 0 0 1-1.02-2.188c.325.7.665 1.425 1.02 2.188 8.164 17.494 48.981 20.407 71.723 15.744s12.828-11.08.584-21.489-37.9-7.666-45.483-11.748 3.5-8.164 18.66-7 22.741 16.328 47.23 18.66 43.149-43.733 43.149-43.733c-16.909 5.248-47.231-4.082-48.4-9.911s43.733-5.248 50.728-7 19.249-15.742 11.667-43.736z" class="cls-1" transform="translate(-1142.247 -377.989)"/>
        <path id="Path_2316" d="M622.493 463.939c10.442-16.713 39.439-1.724 39.439-1.724s11.214 38.172 17.053 40.766-3.217-34.508-3.217-34.508c12.1 2.421 37.7 25.9 37.7 25.9s-13.147 36.592-6.849 37.671 9.989-33 9.989-33c10.344 6.858 16.945 23.347 16.945 23.347 6.73 25.637-26.535 32.954-26.535 32.954s-4.282 12.78-.8 29.981a46 46 0 0 1 1.393 8.471l-3.1-.939c0-.909-.039-1.8-.113-2.663a.013.013 0 0 0 0-.015v-.039c-.068-.543-.167-1.318-.3-2.263v-.009c-.385-2.141-.611-3.706-.716-4.818v-.009c-1.077-6.682-2.872-15.508-5.117-17.926a6.283 6.283 0 0 0 1.094-1.222l-1.094 1.222c-8.755 9.771-35.877 3.629-49.748-3.882s-6.163-9.732 3.852-14.092 26.162 2.478 31.9 1.315-.668-6-10.758-8.224-18.007 6.142-34.395 2.836-19.453-36.941-19.453-36.941c9.965 6.742 31.523 6.643 33.428 3.083s-27.414-12.011-31.621-14.53-9.42-14.029 1.023-30.742z" class="cls-1" transform="translate(-501.633 -412.567)"/>
        <path id="Path_2317" d="M1267.477 461.938c-7.308-12.171-28.386-1.744-28.386-1.744s-8.567 27.352-12.8 29.147 2.758-24.817 2.758-24.817c-8.748 1.589-27.486 18.177-27.486 18.177s9 26.526 4.452 27.223-6.775-23.9-6.775-23.9c-7.538 4.807-12.505 16.6-12.505 16.6-5.176 18.379 18.693 24.078 18.693 24.078a45.537 45.537 0 0 1 .191 21.606 33.246 33.246 0 0 0-1.112 6.083l2.245-.638c.012-.653.05-1.294.116-1.917v-.012-.027c.057-.391.137-.948.241-1.628v-.006c.3-1.539.489-2.663.579-3.462v-.001c.861-4.8 2.266-11.134 3.915-12.848a4.5 4.5 0 0 1-.772-.895c.247.286.5.582.772.895 6.181 7.15 25.795 3.074 35.885-2.162s4.562-6.932-2.594-10.2-18.875 1.449-22.992.54.558-4.312 7.854-5.787 12.89 4.654 24.74 2.484 14.485-26.359 14.485-26.359c-7.264 4.729-22.792 4.383-24.12 1.792s19.9-8.31 22.96-10.069 6.964-9.981-.344-22.153z" class="cls-1" transform="translate(-901.404 -412.567)"/>
        <path id="Path_2318" fill="#95c38b" d="M263.656 1554.78c-.233.066-.534.131-.906.2.301-.074.602-.143.906-.2z" transform="translate(-253.446 -1183.693)"/>
        <g id="Group_9253" transform="translate(152.425 109.543)">
            <g id="Group_9224">
                <path id="Path_2319" d="M1230.983 985.033l-14.342 170.523s-1.5 10.338 6.187 10.355c12.642.03 62.924 0 62.924 0s-9.515-2.153-9.4-6.992c.137-5.707 16.763-175.5 16.763-175.5z" class="cls-3" transform="translate(-1075.253 -892.242)"/>
                <path id="Path_2320" d="M1299.56 1155.542c-2.487.005-50.511.158-62.822 0-5.364-.066-6.307-4.771-6.351-7.815a15.316 15.316 0 0 1 .164-2.538l.372-4.431.952-11.3.841-9.98 1.079-12.825.909-10.823 10.196-121.167 62.131-1.613s-7 71.058-11.957 122.782c-.552 5.764-1.079 11.289-1.566 16.447q-.237 2.469-.456 4.824c-.459 4.893-.88 9.386-1.244 13.355-.194 2.09-.37 4.034-.53 5.814-.632 6.974-1 11.429-1.008 12.276a6.966 6.966 0 0 0 .122 1.38c1.008 5.435 8.235 5.614 9.168 5.614z" class="cls-4" transform="translate(-1084.982 -884.964)"/>
                <path id="Path_2321" d="M758.97 677.63l34.93 140.321 4.783 19.217 16.271 65.357h302.275l-59.969-224.9z" class="cls-4" transform="translate(-754.131 -677.63)"/>
                <path id="Path_2322" d="M747.579 677.63l-4.839 1.613 54.39 228.163 6.438-4.881z" class="cls-4" transform="translate(-742.74 -677.63)"/>
                <path id="Path_2323" d="M925.15 1436.751h300.417l8.3-4.881H931.588z" class="cls-3" transform="translate(-870.76 -1206.975)"/>
                <path id="Rectangle_2015" d="M0 0H65.044V3.092H0z" class="cls-4" transform="rotate(180 112.466 136.868)"/>
                <path id="Path_2324" fill="#f1a34f" d="M1102.589 861.085L1053.543 680.6h-293.83l-.742-2.973h298.294l48.883 183.052z" transform="translate(-754.131 -677.63)"/>
                <path id="Path_2325" d="M1296.878 1448.241l-.337 2.361-61.171 12.36.841-9.983.4-4.738z" class="cls-3" transform="translate(-1088.48 -1218.464)"/>
                <path id="Path_2326" fill="#db4300" d="M1299.564 1539.721c-2.487.006-50.511.158-62.822 0-5.364-.066-6.307-4.771-6.351-7.815l60.881-11.456c-.632 6.974-1 11.429-1.007 12.276a6.941 6.941 0 0 0 .122 1.38c1.019 5.436 8.243 5.615 9.177 5.615z" opacity="0.4" transform="translate(-1084.985 -1269.143)"/>
                <path id="Path_2327" d="M1041.228 1232.509l-132.786 45.528-16.272-65.357z" class="cls-3" transform="translate(-847.614 -1053.142)"/>
                <path id="Path_2328" d="M758.97 677.63h298.294l48.4 180.744H803.968z" class="cls-7" transform="translate(-754.131 -677.63)"/>
            </g>
            <ellipse id="Ellipse_574" cx="7.284" cy="8.844" fill="#933c00" rx="7.284" ry="8.844" transform="rotate(-47.76 329.712 -124.966)"/>
            <path id="Path_2329" fill="#e4edf9" d="M1120.677 873.33H841.385l-31.63-126-2.424-9.664-2.069-8.241-4.852-19.325h275.269l5.321 19.325 2.272 8.241 2.663 9.664z" transform="translate(-783.215 -700.419)"/>
            <path id="Path_2330" d="M1081 729.425H805.262L800.41 710.1h275.269z" class="cls-10" transform="translate(-783.215 -700.419)"/>
            <g id="Group_9225" transform="translate(28.508 16)">
                <path id="Path_2331" d="M838.424 733.705a1.825 1.825 0 0 1 1.813-2.415 3.3 3.3 0 0 1 3.018 2.415 1.825 1.825 0 0 1-1.813 2.415 3.3 3.3 0 0 1-3.018-2.415z" class="cls-11" transform="translate(-838.349 -731.29)"/>
                <path id="Path_2332" d="M865.344 733.705a1.825 1.825 0 0 1 1.813-2.415 3.3 3.3 0 0 1 3.018 2.415 1.825 1.825 0 0 1-1.813 2.415 3.3 3.3 0 0 1-3.018-2.415z" class="cls-11" transform="translate(-857.242 -731.29)"/>
                <path id="Path_2333" d="M894.334 733.705a1.825 1.825 0 0 1 1.813-2.415 3.3 3.3 0 0 1 3.017 2.415 1.825 1.825 0 0 1-1.813 2.415 3.3 3.3 0 0 1-3.017-2.415z" class="cls-11" transform="translate(-877.588 -731.29)"/>
            </g>
            <path id="Path_2334" d="M1107.121 929.239H900.242L868.76 805.69h203.96z" class="cls-12" transform="translate(-831.184 -767.506)"/>
            <path id="Path_2335" fill="#d2e3fc" d="M1627.351 834.437h-46.888l-8.573-28.747h47.457z" transform="translate(-1324.659 -767.506)"/>
            <path id="Path_2336" d="M1267.9 836.306h-26.83l-1.1-4.136h26.83z" class="cls-14" transform="translate(-1091.709 -786.09)"/>
            <path id="Path_2337" d="M1387.265 836.306h-43.888l-1.106-4.136h43.891z" class="cls-15" transform="translate(-1163.506 -786.09)"/>
            <path id="Path_2338" d="M1234.183 873.686H1186.6l-1.1-4.136h47.58z" class="cls-15" transform="translate(-1053.48 -812.325)"/>
            <path id="Path_2339" d="M1385.186 873.686h-24.662l-1.1-4.136h24.662z" class="cls-4" transform="translate(-1175.542 -812.325)"/>
            <path id="Path_2340" d="M1295.053 938.029h-26.83l-1.1-4.139h26.83z" class="cls-7" transform="translate(-1110.763 -857.48)"/>
            <path id="Path_2341" d="M1414.422 938.029h-43.888l-1.1-4.139h43.889z" class="cls-15" transform="translate(-1182.567 -857.48)"/>
            <path id="Path_2342" d="M1261.334 975.406h-47.577l-1.106-4.136h47.58z" class="cls-16" transform="translate(-1072.535 -883.714)"/>
            <path id="Path_2343" d="M1412.336 975.406h-24.659l-1.107-4.136h24.662z" class="cls-16" transform="translate(-1194.596 -883.714)"/>
            <path id="Path_2344" d="M1063.068 1033.259H972.3l-1.1-4.139h90.765z" class="cls-14" transform="translate(-903.079 -924.315)"/>
            <path id="Path_2345" d="M1322.993 1033.259h-26.83l-1.1-4.139h26.827z" class="cls-7" transform="translate(-1130.373 -924.315)"/>
            <path id="Path_2346" d="M1442.355 1033.259h-43.888l-1.106-4.139h43.891z" class="cls-15" transform="translate(-1202.169 -924.315)"/>
            <path id="Path_2347" d="M1009.1 1070.636h-26.83l-1.1-4.136H1008z" class="cls-16" transform="translate(-910.076 -950.549)"/>
            <path id="Path_2348" d="M1289.273 1070.636h-47.58l-1.1-4.136h47.58z" class="cls-4" transform="translate(-1092.144 -950.549)"/>
            <path id="Path_2349" d="M1128.465 1070.636h-43.888l-1.106-4.136h43.891z" class="cls-15" transform="translate(-981.873 -950.549)"/>
            <path id="Path_2350" d="M1440.276 1070.636h-24.662l-1.1-4.136h24.662z" class="cls-15" transform="translate(-1214.206 -950.549)"/>
            <path id="Path_2351" d="M1097.621 1136.446h-90.764l-1.106-4.136h90.767z" class="cls-14" transform="translate(-927.327 -996.736)"/>
            <path id="Path_2352" d="M1357.55 1136.446h-26.827l-1.1-4.136h26.827z" class="cls-7" transform="translate(-1154.628 -996.736)"/>
            <path id="Path_2353" d="M1043.663 1173.826h-26.83l-1.1-4.136h26.827z" class="cls-16" transform="translate(-934.331 -1022.97)"/>
            <path id="Path_2354" d="M1323.834 1173.826h-47.58l-1.1-4.136h47.577z" class="cls-4" transform="translate(-1116.399 -1022.97)"/>
            <path id="Path_2355" d="M1163.025 1173.826h-43.888l-1.106-4.136h43.891z" class="cls-15" transform="translate(-1006.128 -1022.97)"/>
            <path id="Path_2356" d="M1474.835 1173.826h-24.662l-1.1-4.136h24.662z" class="cls-15" transform="translate(-1238.461 -1022.97)"/>
            <g id="Group_9226" transform="translate(258.258 73.87)">
                <path id="Path_2357" d="M1629.961 927.516l-20.634.063-.456-1.873 20.634-.066z" class="cls-15" transform="translate(-1608.87 -925.56)"/>
                <path id="Path_2358" d="M1696.765 927.4l-7.759.024-.456-1.872 7.758-.024z" class="cls-15" transform="translate(-1664.792 -925.483)"/>
                <path id="Path_2359" d="M1735.492 927.243l-13.716.042-.456-1.872 13.713-.042z" class="cls-15" transform="translate(-1687.791 -925.37)"/>
                <path id="Path_2360" d="M1624.509 943.5l-11.312.036-.456-1.872 11.313-.036z" class="cls-15" transform="translate(-1611.586 -936.782)"/>
                <path id="Path_2361" d="M1672.074 943.333l-14.608.047-.456-1.875 14.607-.045z" class="cls-15" transform="translate(-1642.656 -936.662)"/>
                <path id="Path_2362" d="M1732.239 943.133l-16.743.054-.456-1.875 16.742-.051z" class="cls-15" transform="translate(-1683.384 -936.522)"/>
            </g>
            <g id="Group_9227" transform="translate(260.724 83.993)">
                <path id="Path_2363" d="M1638.233 961.473l-20.634.062-.459-1.873 20.636-.062z" class="cls-15" transform="translate(-1617.14 -959.517)"/>
                <path id="Path_2364" d="M1705.038 961.356l-7.761.024-.456-1.876 7.759-.024z" class="cls-15" transform="translate(-1673.062 -959.433)"/>
                <path id="Path_2365" d="M1743.77 961.2l-13.713.042-.457-1.875 13.713-.042z" class="cls-15" transform="translate(-1696.068 -959.32)"/>
                <path id="Path_2366" d="M1632.789 977.456l-11.312.036-.456-1.875 11.313-.036z" class="cls-15" transform="translate(-1619.864 -970.732)"/>
                <path id="Path_2367" d="M1680.347 977.286l-14.611.045-.456-1.875 14.611-.045z" class="cls-15" transform="translate(-1650.926 -970.613)"/>
                <path id="Path_2368" d="M1740.512 977.086l-16.745.051-.457-1.873 16.743-.054z" class="cls-15" transform="translate(-1691.653 -970.472)"/>
            </g>
            <g id="Group_9228" transform="translate(252.932 40.996)">
                <path id="Path_2369" d="M1603.712 816.417l-12.425.039-.277-1.13 12.428-.036z" class="cls-16" transform="translate(-1591.01 -815.24)"/>
                <path id="Path_2370" d="M1643.947 816.347l-4.673.015-.274-1.127 4.672-.015z" class="cls-16" transform="translate(-1624.691 -815.19)"/>
                <path id="Path_2371" d="M1667.264 816.25l-8.256.024-.277-1.127 8.26-.027z" class="cls-16" transform="translate(-1638.538 -815.12)"/>
                <path id="Path_2372" d="M1600.438 826.04l-6.813.021-.274-1.13 6.81-.021z" class="cls-16" transform="translate(-1592.653 -821.991)"/>
                <path id="Path_2373" d="M1629.074 825.94l-8.8.027-.274-1.13 8.8-.027z" class="cls-16" transform="translate(-1611.356 -821.921)"/>
                <path id="Path_2374" d="M1665.306 825.82l-10.081.03-.275-1.13 10.081-.03z" class="cls-16" transform="translate(-1635.885 -821.837)"/>
            </g>
            <g id="Group_9229" transform="translate(254.42 47.094)">
                <path id="Path_2375" d="M1608.7 836.86l-12.425.039-.275-1.13 12.425-.039z" class="cls-16" transform="translate(-1596 -835.683)"/>
                <path id="Path_2376" d="M1648.927 836.8l-4.672.015-.274-1.13 4.672-.012z" class="cls-16" transform="translate(-1629.674 -835.64)"/>
                <path id="Path_2377" d="M1672.251 836.7l-8.257.027-.274-1.13 8.256-.024z" class="cls-16" transform="translate(-1643.528 -835.57)"/>
                <path id="Path_2378" d="M1605.418 846.49l-6.814.021-.274-1.13 6.813-.021z" class="cls-16" transform="translate(-1597.635 -842.441)"/>
                <path id="Path_2379" d="M1634.061 846.387l-8.8.027-.274-1.127 8.8-.027z" class="cls-16" transform="translate(-1616.347 -842.371)"/>
                <path id="Path_2380" d="M1670.289 846.267l-10.084.033-.275-1.13 10.082-.03z" class="cls-16" transform="translate(-1640.868 -842.287)"/>
            </g>
            <g id="Group_9230" transform="translate(264.943 101.293)">
                <path id="Path_2381" d="M1652.38 1019.486l-20.634.063-.456-1.872 20.633-.066z" class="cls-15" transform="translate(-1631.291 -1017.53)"/>
                <path id="Path_2382" d="M1719.178 1019.373l-7.758.024-.459-1.873 7.761-.024z" class="cls-15" transform="translate(-1687.205 -1017.453)"/>
                <path id="Path_2383" d="M1757.91 1019.213l-13.713.042-.456-1.873 13.713-.042z" class="cls-15" transform="translate(-1710.211 -1017.34)"/>
                <path id="Path_2384" d="M1646.93 1035.473l-11.313.036-.456-1.872 11.313-.036z" class="cls-15" transform="translate(-1634.007 -1028.752)"/>
                <path id="Path_2385" d="M1694.487 1035.3l-14.607.047-.459-1.876 14.611-.045z" class="cls-15" transform="translate(-1665.069 -1028.633)"/>
                <path id="Path_2386" d="M1754.652 1035.1l-16.743.054-.459-1.876 16.742-.05z" class="cls-15" transform="translate(-1705.796 -1028.492)"/>
            </g>
            <g id="Group_9231" transform="translate(269.076 118.247)">
                <path id="Path_2387" d="M1666.24 1076.346l-20.634.063-.456-1.873 20.634-.065z" class="cls-15" transform="translate(-1645.15 -1074.39)"/>
                <path id="Path_2388" d="M1733.038 1076.233l-7.758.024-.459-1.873 7.761-.024z" class="cls-15" transform="translate(-1701.065 -1074.312)"/>
                <path id="Path_2389" d="M1771.77 1076.073l-13.713.042-.456-1.872 13.713-.042z" class="cls-15" transform="translate(-1724.071 -1074.2)"/>
                <path id="Path_2390" d="M1660.789 1092.336l-11.313.033-.456-1.872 11.313-.036z" class="cls-15" transform="translate(-1647.866 -1085.612)"/>
                <path id="Path_2391" d="M1708.347 1092.166l-14.611.045-.456-1.876 14.611-.045z" class="cls-15" transform="translate(-1678.929 -1085.493)"/>
                <path id="Path_2392" d="M1768.512 1091.963l-16.746.054-.456-1.876 16.742-.051z" class="cls-15" transform="translate(-1719.656 -1085.352)"/>
            </g>
            <g id="Group_9232" transform="translate(272.797 133.523)">
                <path id="Path_2393" d="M1678.723 1127.576l-20.637.062-.456-1.876 20.636-.062z" class="cls-15" transform="translate(-1657.63 -1125.62)"/>
                <path id="Path_2394" d="M1745.528 1127.463l-7.761.024-.456-1.872 7.758-.024z" class="cls-15" transform="translate(-1713.552 -1125.542)"/>
                <path id="Path_2395" d="M1784.259 1127.3l-13.713.042-.457-1.872 13.713-.042z" class="cls-15" transform="translate(-1736.557 -1125.43)"/>
                <path id="Path_2396" d="M1673.279 1143.563l-11.313.036-.456-1.873 11.313-.036z" class="cls-15" transform="translate(-1660.354 -1136.842)"/>
                <path id="Path_2397" d="M1720.837 1143.393l-14.611.048-.456-1.875 14.61-.045z" class="cls-15" transform="translate(-1691.416 -1136.723)"/>
                <path id="Path_2398" d="M1781 1143.193l-16.743.053-.456-1.875 16.742-.051z" class="cls-15" transform="translate(-1732.143 -1136.582)"/>
            </g>
            <g id="Group_9239" transform="translate(295.588 146.168)">
                <g id="Group_9235">
                    <g id="Group_9233">
                        <path id="Path_2399" d="M1742.087 1179.869a8.69 8.69 0 0 1-7.77-6.014c-.969-3.316.942-6.015 4.258-6.015a8.69 8.69 0 0 1 7.77 6.015c.969 3.315-.945 6.014-4.258 6.014zm-3.19-10.928c-2.71 0-4.272 2.207-3.48 4.917a7.1 7.1 0 0 0 6.351 4.917c2.711 0 4.273-2.2 3.48-4.917a7.1 7.1 0 0 0-6.348-4.918z" class="cls-17" transform="translate(-1734.065 -1167.84)"/>
                    </g>
                    <g id="Group_9234" transform="translate(2.513 3.531)">
                        <path id="Path_2400" d="M1747.018 1185.224a1.257 1.257 0 0 1-.674-.28l-3.375-2.7a.989.989 0 0 1-.349-1.294.922.922 0 0 1 1.3.03l2.385 1.908 1.222-2.827c.176-.408.722-.5 1.219-.206a1.115 1.115 0 0 1 .578 1.279l-1.607 3.715a.639.639 0 0 1-.57.376.982.982 0 0 1-.129-.001z" class="cls-17" transform="translate(-1742.492 -1179.681)"/>
                    </g>
                </g>
                <g id="Group_9238" transform="translate(16.602)">
                    <g id="Group_9236">
                        <path id="Path_2401" d="M1797.768 1179.869a8.69 8.69 0 0 1-7.771-6.014c-.969-3.316.942-6.015 4.258-6.015a8.69 8.69 0 0 1 7.77 6.015c.969 3.315-.942 6.014-4.257 6.014zm-3.19-10.928c-2.71 0-4.273 2.207-3.48 4.917a7.1 7.1 0 0 0 6.351 4.917c2.711 0 4.273-2.2 3.48-4.917a7.1 7.1 0 0 0-6.352-4.918z" class="cls-4" transform="translate(-1789.745 -1167.84)"/>
                    </g>
                    <g id="Group_9237" transform="translate(4.671 2.743)">
                        <path id="Path_2402" d="M1807.292 1181.3a1.232 1.232 0 0 1-1.1-.849l-.745-2.556a.616.616 0 0 1 .6-.85 1.232 1.232 0 0 1 1.1.85l.746 2.556a.616.616 0 0 1-.601.849z" class="cls-4" transform="translate(-1805.411 -1177.04)"/>
                        <path id="Path_2403" d="M1811.182 1194.475H1811a1.1 1.1 0 0 1-.981-.757.549.549 0 0 1 .537-.757h.185a1.1 1.1 0 0 1 .981.757.55.55 0 0 1-.54.757z" class="cls-4" transform="translate(-1808.62 -1188.213)"/>
                    </g>
                </g>
            </g>
            <g id="Group_9252" transform="translate(261.504 57.566)">
                <g id="Group_9242" transform="translate(19.208)">
                    <g id="Group_9240">
                        <path id="Path_2404" d="M1688.576 877.286a4.763 4.763 0 0 1-4.261-3.3 2.389 2.389 0 0 1 2.335-3.3 4.762 4.762 0 0 1 4.261 3.3 2.389 2.389 0 0 1-2.335 3.3zm-1.75-5.99a1.953 1.953 0 0 0-1.908 2.7 3.9 3.9 0 0 0 3.483 2.7 1.954 1.954 0 0 0 1.908-2.7 3.888 3.888 0 0 0-3.483-2.696z" class="cls-17" transform="translate(-1684.177 -870.69)"/>
                    </g>
                    <g id="Group_9241" transform="translate(1.379 1.936)">
                        <path id="Path_2405" d="M1691.282 880.225a.686.686 0 0 1-.37-.152l-1.849-1.482a.54.54 0 0 1-.191-.71.5.5 0 0 1 .713.015l1.306 1.046.671-1.55c.1-.224.4-.274.668-.113a.608.608 0 0 1 .316.7l-.883 2.036a.349.349 0 0 1-.313.206.174.174 0 0 1-.068.004z" class="cls-17" transform="translate(-1688.802 -877.185)"/>
                    </g>
                </g>
                <g id="Group_9245" transform="translate(9.774)">
                    <g id="Group_9243">
                        <path id="Path_2406" d="M1656.936 877.286a4.763 4.763 0 0 1-4.261-3.3 2.389 2.389 0 0 1 2.335-3.3 4.763 4.763 0 0 1 4.261 3.3 2.39 2.39 0 0 1-2.335 3.3zm-1.75-5.99a1.953 1.953 0 0 0-1.908 2.7 3.9 3.9 0 0 0 3.483 2.7 1.953 1.953 0 0 0 1.908-2.7 3.892 3.892 0 0 0-3.483-2.696z" class="cls-17" transform="translate(-1652.537 -870.69)"/>
                    </g>
                    <g id="Group_9244" transform="translate(1.379 1.936)">
                        <path id="Path_2407" d="M1659.642 880.225a.687.687 0 0 1-.37-.152l-1.849-1.482a.54.54 0 0 1-.191-.71.5.5 0 0 1 .713.015l1.306 1.046.671-1.55c.1-.224.4-.274.668-.113a.608.608 0 0 1 .316.7l-.882 2.036a.35.35 0 0 1-.313.206.175.175 0 0 1-.069.004z" class="cls-17" transform="translate(-1657.162 -877.185)"/>
                    </g>
                </g>
                <g id="Group_9248">
                    <g id="Group_9246">
                        <path id="Path_2408" d="M1624.156 877.286a4.762 4.762 0 0 1-4.261-3.3 2.389 2.389 0 0 1 2.335-3.3 4.762 4.762 0 0 1 4.261 3.3 2.389 2.389 0 0 1-2.335 3.3zm-1.747-5.99a1.952 1.952 0 0 0-1.908 2.7 3.9 3.9 0 0 0 3.482 2.7 1.952 1.952 0 0 0 1.908-2.7 3.894 3.894 0 0 0-3.482-2.696z" class="cls-17" transform="translate(-1619.758 -870.69)"/>
                    </g>
                    <g id="Group_9247" transform="translate(1.382 1.936)">
                        <path id="Path_2409" d="M1626.872 880.225a.688.688 0 0 1-.369-.152l-1.849-1.482a.54.54 0 0 1-.191-.71.5.5 0 0 1 .712.015l1.306 1.046.671-1.55c.1-.224.4-.274.668-.113a.609.609 0 0 1 .316.7l-.883 2.036a.35.35 0 0 1-.313.206.175.175 0 0 1-.068.004z" class="cls-17" transform="translate(-1624.392 -877.185)"/>
                    </g>
                </g>
                <g id="Group_9251" transform="translate(28.312)">
                    <g id="Group_9249">
                        <path id="Path_2410" d="M1719.106 877.286a4.763 4.763 0 0 1-4.261-3.3 2.389 2.389 0 0 1 2.335-3.3 4.763 4.763 0 0 1 4.261 3.3 2.39 2.39 0 0 1-2.335 3.3zm-1.75-5.99a1.953 1.953 0 0 0-1.908 2.7 3.9 3.9 0 0 0 3.483 2.7 1.954 1.954 0 0 0 1.909-2.7 3.9 3.9 0 0 0-3.484-2.696z" class="cls-4" transform="translate(-1714.707 -870.69)"/>
                    </g>
                    <g id="Group_9250" transform="translate(2.564 1.506)">
                        <path id="Path_2411" d="M1724.336 878.072a.673.673 0 0 1-.6-.465l-.409-1.4a.338.338 0 0 1 .331-.465.674.674 0 0 1 .6.465l.409 1.4a.339.339 0 0 1-.331.465z" class="cls-4" transform="translate(-1723.306 -875.74)"/>
                        <path id="Path_2412" d="M1726.459 885.292h-.1a.6.6 0 0 1-.536-.417.3.3 0 0 1 .3-.414h.1a.6.6 0 0 1 .537.414.3.3 0 0 1-.301.417z" class="cls-4" transform="translate(-1725.059 -881.86)"/>
                    </g>
                </g>
            </g>
        </g>
        <g id="Group_9257" transform="translate(56.49 181.97)">
            <g id="Group_9254" transform="translate(29.627 34.356)">
                <path id="Path_2413" d="M658.486 1199.14s4.971 1.276 8.131.325 8.6.611 9.473 1.762.555 1.61-1.008 2.007-7.1 2.758-10.737 1.393a29.031 29.031 0 0 0-8.385-1.416z" class="cls-18" transform="translate(-615.528 -1150.422)"/>
                <path id="Path_2414" d="M520.36 1041.291s5.585 39.684 14.828 43.238c4.562 1.754 24.725 5.731 30.688 6.131 0 0 1.461-1.187 1.106-6.011 0 0-21.123-7.755-24.125-11.972-4.467-6.276 2.773-25.643-2.833-31.538s-15.039-8.426-19.664.152z" class="cls-19" transform="translate(-520.36 -1035.752)"/>
            </g>
            <path id="Path_2415" d="M525.264 1422.962h2.7a2.52 2.52 0 0 0 2.514-2.514v-62.554a2.52 2.52 0 0 0-2.514-2.514h-2.7a2.52 2.52 0 0 0-2.514 2.514v62.554a2.52 2.52 0 0 0 2.514 2.514z" class="cls-20" transform="translate(-492.411 -1225.719)"/>
            <path id="Path_2416" d="M455.78 1575.686c2.5-5.17 12.219-9.026 23.83-9.026s21.331 3.856 23.83 9.026z" class="cls-20" transform="translate(-445.41 -1374.001)"/>
            <path id="Path_2417" d="M475.5 1531.723h34.967a.671.671 0 0 0 .668-.668v-1.387a.671.671 0 0 0-.668-.668H475.5a.671.671 0 0 0-.668.668v1.387a.667.667 0 0 0 .668.668z" class="cls-20" transform="translate(-458.779 -1347.57)"/>
            <path id="Path_2418" d="M509.89 1279.885a69.354 69.354 0 0 0 5.454 7.8c6 7.577 12.535 13.823 13.671 19.727a26.436 26.436 0 0 0 1.056 3.778c.474 1.354 1.062 2.776 1.741 4.246a130.961 130.961 0 0 0 10.156 17.366c6.572 9.741 12.753 17.867 12.753 17.867l11.336-.483c-.453-1.136-5.4-14.583-12.01-31.019-2.687-6.673-5.54-13.77-8.3-20.613q-.55-1.373-1.1-2.726c-.844-2.093-1.67-4.156-2.481-6.163l-11.158-27.722s-24.82-9.4-27.4-3.31c-2.115 5.028-.382 9.951 6.282 21.252z" class="cls-21" transform="translate(-478.382 -1156.381)"/>
            <path id="Path_2419" d="M678.22 1558.14s.578 9.354 2.388 9.488c.242.018 9.178.018 9.178.018l11.408-.065a3.7 3.7 0 0 0-3.408-3.331c-3.337-.582-8.918-2.925-10.937-7.332-2.126-4.637-8.629 1.222-8.629 1.222z" class="cls-21" transform="translate(-601.524 -1365.91)"/>
            <path id="Path_2420" d="M573.308 1475.61s-7.884 5.067-7.12 6.712c.1.218 4.458 8.024 4.458 8.024l5.62 9.929a3.7 3.7 0 0 0 1.246-4.6c-1.118-3.2-1.792-9.211 1.07-13.126 3.018-4.118-5.274-6.939-5.274-6.939z" class="cls-21" transform="translate(-522.86 -1310.099)"/>
            <path id="Path_2421" d="M539.817 1260.54s30.721 19.128 34.2 32.167-41.443 40.862-41.443 40.862-4.926-4.347-5.8-7.535c0 0 20.306-24.325 24.71-29.779 2.7-3.349-39.994-11.593-45.212-19.706s-3.349-14.941-3.349-14.941z" class="cls-14" transform="translate(-478.267 -1159.158)"/>
            <path id="Path_2422" d="M423.32 1360.563h63.762a2.326 2.326 0 0 0 2.32-2.32v-12.753a2.326 2.326 0 0 0-2.32-2.32H423.32a2.326 2.326 0 0 0-2.32 2.32v12.753a2.328 2.328 0 0 0 2.32 2.32z" class="cls-4" transform="translate(-421 -1217.15)"/>
            <path id="Path_2423" d="M542.131 993.888a17.638 17.638 0 0 1 4.747 4.3c-7.463 1.929-19.837-4.985-19.837-4.985a18.317 18.317 0 0 0 6.584-10.32c.089-.358.173-.725.244-1.1a22.55 22.55 0 0 0 .406-3.882l3.429 3.071 5.7 5.108a48.443 48.443 0 0 1-.844 5.764q-.183.956-.429 2.044z" class="cls-18" transform="translate(-495.422 -960.794)"/>
            <path id="Path_2424" d="M500.069 1058.183c1.067 14.378-.337 36.246.877 40.033 1.047 3.268 12.974 1.324 17.732.236 1.762-.4 3.9-.981 6.1-1.664 6.148-1.9 12.848-4.622 13.567-6.641a1.783 1.783 0 0 0 .066-.232 1.889 1.889 0 0 0-.012-.847c-.239-1.028-1.163-2.141-1.27-4.687-.122-2.845-.1-6.193-.209-9.792-.006-.406-.012-.847-.057-1.252v-.149c0-.078 0-.152-.006-.23-.1-4.016-.313-8.239-.558-12.425-.155-2.63-.334-5.233-.54-7.729a103.386 103.386 0 0 0-2.215-15.792 25.344 25.344 0 0 0-8.146-12.574l-2.269-1.947a13.133 13.133 0 0 1-8.233-1.1c-2.931-1.393-3.942-2.388-4.452-2.013-6.771 5.228-11.644 21.228-10.375 38.805z" class="cls-4" transform="translate(-476.352 -989.851)"/>
            <path id="Path_2425" d="M557.068 1198.292c6.148-1.9 12.848-4.622 13.567-6.64a1.837 1.837 0 0 0 .066-.233c0-.283-.006-.563-.012-.847-.239-1.029-1.163-2.141-1.27-4.687-.122-2.844-.1-6.193-.209-9.792-.006-.406-.012-.847-.057-1.252v-.149c0-.077 0-.152-.006-.23l-23.222-10.531s-1.342 18.719 11.143 34.361z" class="cls-19" transform="translate(-508.644 -1091.355)"/>
            <path id="Path_2426" fill="#d68d5d" d="M558.093 993.3a48.487 48.487 0 0 1-.844 5.764c-5.567-1.8-8.092-6.828-8.936-8.96-.238-.6-.343-.975-.343-.975s.215-.048.587-.125c.781-.167 2.257-.48 3.832-.811z" transform="translate(-510.111 -968.016)"/>
            <path id="Path_2427" d="M557.023 957.278s-12.231 1.381-12.974-6.25-2.821-12.592 4.959-13.794 9.58 1.559 10.448 4.046.728 15.44-2.433 15.998z" class="cls-18" transform="translate(-506.787 -932.049)"/>
            <path id="Path_2428" d="M536.552 940.034a12.563 12.563 0 0 1 11.909-11.175c7.627-.719 3.375-7.281 2.561-8.328 0 0-5.841.8-11.832 1.789-12.571 2.075-3.873 16.136-2.638 17.714z" class="cls-23" transform="translate(-499.235 -920.53)"/>
            <g id="Group_9255" transform="translate(66.675 64.978)">
                <path id="Rectangle_2016" d="M0 0H1.127V29.478H0z" class="cls-24" transform="rotate(-162.007 17.708 11.744)"/>
                <path id="Rectangle_2017" d="M0 0H30.933V1.852H0z" class="cls-24" transform="rotate(-180 15.61 14.021)"/>
            </g>
            <g id="Group_9256" transform="translate(32.09 36.904)">
                <path id="Path_2429" d="M648.888 1219.6s4.8 1.816 8.045 1.22 8.477 1.556 9.223 2.8.373 1.661-1.222 1.884-7.359 1.959-10.827.2a29 29 0 0 0-8.176-2.332z" class="cls-4" transform="translate(-610.951 -1167.329)"/>
                <path id="Path_2430" d="M528.62 1048.915s1.175 40.06 9.971 44.61c4.341 2.245 23.94 8.421 29.826 9.476 0 0 1.583-1.016 1.762-5.85 0 0-20.139-10.036-22.658-14.56-3.748-6.73 5.582-25.181.662-31.657s-14.02-10.034-19.563-2.019z" class="cls-4" transform="translate(-528.62 -1044.295)"/>
            </g>
        </g>
        <g id="Group_9258" transform="translate(379.195 190.569)">
            <path id="Path_2431" d="M1649.54 1576.89a21.86 21.86 0 0 1 1.488-5.578c1.041-2.081 7.66-.758 7.66-.758s1.324 1.136 1.607 6.432z" class="cls-25" transform="translate(-1605.926 -1385.041)"/>
            <path id="Path_2432" d="M1524.333 1566.577c1.557-.948.671-8.033.671-8.033s-7.249-5.8-8.245-1.36-6.885 6.431-10.236 6.974c-2.314.376-3.029 1.658-3.253 2.415h21.063z" class="cls-25" transform="translate(-1503.27 -1374.776)"/>
            <path id="Path_2433" d="M1566.15 1292.632a32.879 32.879 0 0 0-.531 3.915c-.674 13.141-11.062 43.188-12.92 43.888-2.874 1.085-7.4-1.219-9.771-1.977a2.032 2.032 0 0 1-1.425-2.308c5.143-23.651 7.034-57.706 7.723-77.868a91.679 91.679 0 0 1 2.09-17.172s25.336-6.76 25.488 1.792c.131 7.568-8.397 37.246-10.654 49.73z" class="cls-26" transform="translate(-1530.074 -1152.341)"/>
            <path id="Path_2434" d="M1584.425 1292.639l-16.924-34.347a91.683 91.683 0 0 1 2.09-17.172s25.336-6.76 25.488 1.792c.13 7.566-8.397 37.243-10.654 49.727z" class="cls-25" transform="translate(-1548.348 -1152.348)"/>
            <path id="Path_2435" d="M1605.35 1245.932l13.394 97.076s5.883 1.42 10.457.283c0 0 3.921-51.629 3.6-64.11s2.814-33.4-.716-35.707-26.735 2.458-26.735 2.458z" class="cls-26" transform="translate(-1574.913 -1155.337)"/>
            <path id="Path_2436" d="M1609.323 1084.626l1.67 23.305a1.859 1.859 0 0 1-1.342 1.92c-1.87.543-4.023.918-8.176 1.78a79.421 79.421 0 0 1-15.6 1.568c-10.26.066-14.146-3.47-14.146-3.47-.441.009.233-2.138.841-12.348.206-3.459.405-7.842.548-13.382.128-4.985.218-10.907.224-17.935.012-8.453 13.093-17.545 13.334-17.545 0 1.217 1.917 3.462 4.872 3.656 3.507.23 7.809-1.515 7.809-3.536 0-.021 6.339 10.141 8.59 20.964.286 1.372.507 2.821.683 4.345 0 .024.006.048.009.069.033.277.063.557.092.841.006.051.009.1.015.149.027.257.051.516.075.776l.018.224.063.719a.441.441 0 0 0 .006.066c.015.179.026.358.042.54.009.128.018.256.03.384l.045.635c.006.107.015.212.021.322l.036.611c.006.089.012.182.015.274.015.3.033.593.047.892v.071c.015.286.03.578.042.87 0 .071.005.143.009.215.015.275.027.549.036.829 0 .042 0 .084.006.122q.044 1.02.083 2.067a.33.33 0 0 0 0 .054z" class="cls-20" transform="translate(-1551.215 -1018.956)"/>
            <path id="Path_2437" d="M1570.337 1048.52s-12.166-.1-15.094 4-9.348 26.195-6 33.545 9.619-3.042 13.1-7.544 7.994-30.001 7.994-30.001z" class="cls-20" transform="translate(-1534.875 -1018.956)"/>
            <path id="Path_2438" d="M1621.706 1025.222l.006 1.258s-.343 3.933 4.5 4.508 8.513-1.532 8.382-4.568a35.807 35.807 0 0 1-.948-5.906 13.762 13.762 0 0 1 .173-2.356l-9.383-.188-2.764.45z" class="cls-27" transform="translate(-1586.367 -997.515)"/>
            <path id="Path_2439" d="M1621.67 1018.406l.036 6.8a7.95 7.95 0 0 0 3.381.746c4.312 0 7.1-3.164 8.557-5.46a13.813 13.813 0 0 1 .173-2.356l-9.383-.188z" class="cls-28" transform="translate(-1586.366 -997.501)"/>
            <path id="Path_2440" d="M1628.357 978.789c-1.088 5.859-8.65 5.668-11.918 5.3-.919-.1-1.5-.221-1.5-.221-1.038-.277-1.616-1.911-1.885-4.049-.534-4.234.14-10.448.856-12.037 1.077-2.391 3.1-4.979 10.719-3.113s5.124 6.612 3.728 14.12z" class="cls-27" transform="translate(-1580.187 -959.658)"/>
            <path id="Path_2441" d="M1569.721 1103.73s-4.705 10.391-4.568 13.5a16.21 16.21 0 0 1 4.568.588c3.679 1.101 0-14.088 0-14.088z" class="cls-25" transform="translate(-1546.699 -1057.704)"/>
            <path id="Path_2442" d="M1608.361 951.913a25.127 25.127 0 0 0 7.305-1.977c3.208-1.4 7.258.14 8.569.835a1.928 1.928 0 0 0-.322-.79 1.758 1.758 0 0 1 .677 1c.06.045.086.074.071.086a2.253 2.253 0 0 1 1.1.072s-.3-.042-.408.149a.16.16 0 0 1-.048.054c5.006 2.418 5.466 10.329 3.856 12.16-1.938 2.2-4.261 7.162-4.261 7.162a4.256 4.256 0 0 1-.5-3.11c.352-1.938-1.321-1.938-3.435-2.818s-.352-3.348-2.2-4.845-8.632-.617-8.543-1.763c-2.514-.916-1.861-5.955-1.861-6.215z" class="cls-23" transform="translate(-1576.972 -949.37)"/>
            <path id="Path_2443" d="M1603.231 1167.948c-1.986 7.976-23.467 12.1-28.351 12.935.206-3.459.406-7.842.549-13.382z" class="cls-25" transform="translate(-1553.528 -1102.46)"/>
            <path id="Path_2444" d="M1651.02 1157.919a38 38 0 0 0 5.594-1.091c.82-.409 4.562-5.731 2.111-7.094s-9.035 4.094-9.035 4.094z" class="cls-27" transform="translate(-1606.032 -1089.837)"/>
            <path id="Path_2445" d="M1560.531 1160.525s17.676.96 29.54-1.58a5.1 5.1 0 0 0-3.429-4.95s-18.49-3.918-22.93-2.827-3.181 9.357-3.181 9.357z" class="cls-20" transform="translate(-1543.341 -1090.862)"/>
            <path id="Path_2446" d="M1661.525 1075.042c-3.668 4.422-8.465 8.036-13.752 8.88a9.839 9.839 0 0 1-1.309-5.9 11.778 11.778 0 0 1 1.926-5.418 12.048 12.048 0 0 0 1.041-2.1c2.886-7.365 2.457-21.564 2.457-21.564s12.261 1.285 16.08 6.742c2.339 3.34-.646 12.365-6.443 19.36z" class="cls-20" transform="translate(-1603.742 -1019.251)"/>
            <path id="Path_2447" d="M1616.892 1021.25c-.918-.1-1.5-.221-1.5-.221-1.038-.277-1.616-1.911-1.885-4.049a5.115 5.115 0 0 1 3.205 2.621 3.763 3.763 0 0 1 .18 1.649z" class="cls-28" transform="translate(-1580.639 -996.82)"/>
            <path id="Path_2448" d="M1603.123 1025.184s-4.234-6.986-.942-7.291a4.975 4.975 0 0 1 5.09 2.743c.474.82-.125 4.512-.125 4.512z" class="cls-27" transform="translate(-1571.808 -997.441)"/>
            <path id="Path_2449" d="M1622.215 1070.273a9.084 9.084 0 0 1-.721 2.427 11.615 11.615 0 0 1-2.7 3.712c-11-4.965-13.221-22.008-13.594-31.374-.149-3.763 0-6.289 0-6.289 4.962-1.643 6.354 1.211 6.354 1.211s5.856 13.928 8.895 23.031c1.164 3.483 1.916 6.263 1.766 7.282z" class="cls-20" transform="translate(-1574.764 -1011.741)"/>
            <path id="Path_2450" d="M1632.7 1083.535c-3.668 4.422-8.465 8.036-13.752 8.88-11-4.964-13.221-22.008-13.594-31.374 0 0 5.2 18.871 12.285 25.47a7.732 7.732 0 0 0 4 2.192s8.93-2.523 10.8-4.9c.141-.173.221-.259.261-.268z" class="cls-25" transform="translate(-1574.913 -1027.743)"/>
        </g>
        <g id="Group_9263" transform="translate(605.196 233.386)">
            <path id="Path_2452" fill="#f75900" d="M2303.813 1304.615c2.144 8.015 17.989 12.732 35.322 15.5h64.677c15.588-7.633 15.567-16.736 16.82-41.873 2.582-51.918-24.728-76.983-36.908-72.847-.507.173-1.022.358-1.547.572-3.539 1.422-7.5 3.939-11.361 9.924 0 0-12.105 20.174-22.068 32.209-3.208 3.873-6.192 6.909-8.477 8.149a.693.693 0 0 1-.08.042c-.123.065-.239.122-.358.176-5.278 2.415-12.717 7.481-19.513 13.871-10.543 9.904-19.53 22.979-16.507 34.277z" transform="translate(-2290.696 -1171.562)"/>
            <path id="Path_2453" fill="#d84400" d="M2360.561 1286.9c9.067 2.785 55.74 16.259 66.726 1.974 7.952-10.346 3-36.851-1.392-54a8.111 8.111 0 0 0-14.721-2.6l-.117.179s-12.105 20.175-22.068 32.209c-2.883 3.8-5.725 6.733-8.477 8.149a.659.659 0 0 1-.081.042c-.119.066-.238.122-.358.176-5.273 2.418-12.717 7.481-19.512 13.871z" transform="translate(-2330.94 -1188.125)"/>
            <g id="Group_9262">
                <path id="Path_2454" d="M2416.324 1204.57s-3.235 4.786-5.078 14.846c-1.616 8.811-3.032 12.064-5.364 13.871s-15.332 7.141-15.332 7.141l.973 2.278s19.053-2.594 21.194-5.778 10.3-22 9.667-26.332-6.06-6.026-6.06-6.026z" class="cls-31" transform="translate(-2351.987 -1171.293)"/>
                <g id="Group_9259" transform="translate(0 125.217)">
                    <path id="Path_2455" d="M2278.9 1526.078c.173 1.858-2.415 2.311-5.412 2.46s-2.09.763-6.2 1.506-5.751-.379-6.051-.933c-.265-.492 1.644-1.261 3.68-2.132.257-.107.513-.221.77-.334 2.29-1.008 3.575-3.059 5.358-4.965 1.691-1.8 3.3-7.577 3.3-7.577l5.579-1.193s-1.566 5.2-2.112 7.416a6.862 6.862 0 0 0 .573 3.874 7.17 7.17 0 0 1 .515 1.878z" class="cls-27" transform="translate(-2261.217 -1512.91)"/>
                    <path id="Path_2456" d="M2273.488 1555.106c-3 .149-2.09.763-6.2 1.506s-5.751-.379-6.051-.934c-.265-.492 1.644-1.261 3.68-2.132l.033.036a11.687 11.687 0 0 0 6.22.074c2.717-.736 5.343-2.361 7.213-2.886a7.287 7.287 0 0 1 .512 1.879c.178 1.857-2.41 2.308-5.407 2.457z" class="cls-3" transform="translate(-2261.217 -1539.481)"/>
                </g>
                <path id="Path_2457" d="M2360.392 1325.328s-37.078-2.791-44.058 1.616-18.174 55.72-18.174 55.72a4.559 4.559 0 0 0 2.234.721 18.739 18.739 0 0 0 4.595-.689s16.089-22.959 17.223-28.744.856-10.946 3.438-11.083 34.749 3.912 39.616-4.661.843-17.058.843-17.058z" class="cls-21" transform="translate(-2287.145 -1253.111)"/>
                <g id="Group_9260" transform="translate(14.187 131.171)">
                    <path id="Path_2458" d="M2326.48 1546.048c.173 1.858-2.415 2.311-5.411 2.46s-2.091.763-6.2 1.506-5.752-.378-6.05-.933c-.265-.492 1.643-1.261 3.679-2.132.257-.108.513-.221.769-.334 2.291-1.008 3.575-3.059 5.359-4.965 1.69-1.8 3.3-7.576 3.3-7.576l5.58-1.193s-1.566 5.2-2.111 7.416a6.858 6.858 0 0 0 .572 3.874 7.153 7.153 0 0 1 .513 1.877z" class="cls-27" transform="translate(-2308.797 -1532.88)"/>
                    <path id="Path_2459" d="M2321.078 1575.086c-3 .149-2.09.763-6.2 1.506s-5.752-.379-6.051-.934c-.265-.492 1.643-1.261 3.68-2.132l.032.035a11.684 11.684 0 0 0 6.22.075c2.716-.736 5.343-2.361 7.212-2.886a7.294 7.294 0 0 1 .513 1.879c.176 1.854-2.412 2.308-5.406 2.457z" class="cls-3" transform="translate(-2308.805 -1559.458)"/>
                </g>
                <path id="Path_2460" d="M2400.035 1342.87s-32.937 1.559-39.74 6.232-15.995 56.385-15.995 56.385a4.535 4.535 0 0 0 2.26.632 18.758 18.758 0 0 0 4.565-.868s15.184-23.568 16.09-29.391.43-10.969 3-11.208 34.875 2.555 39.4-6.2-9.58-15.582-9.58-15.582z" class="cls-14" transform="translate(-2319.527 -1268.355)"/>
                <path id="Path_2461" fill="#be5429" d="M2483.578 1123.61a19.976 19.976 0 0 1-1.957-6.786c.072.361 1.014 4.947 2.967 7.448 7.63 4.312 22.706 19.4 22.632 22.455 0 0 4.377-8.7 4.458-8.754 0 0 8.331-12.184-2.9-18.093-5.707-3.006-5.969-7.333-5.991-11.1s-2.824-19.832-13.524-14.867a7.183 7.183 0 0 0-2.6-.495 2.176 2.176 0 0 1 1 .4 8.546 8.546 0 0 0-4.553 1.19c-3.864 2.548-6.1 23.316.468 28.602z" transform="translate(-2414.347 -1092.965)"/>
                <path id="Path_2462" d="M2504.717 1185.785a36.914 36.914 0 0 0-6.134 0 19.636 19.636 0 0 0-5.322 1.336c-2.9 1.214-2.6 6.354 3.492 5.4s8.39-5.213 7.964-6.736z" class="cls-27" transform="translate(-2422.822 -1158.017)"/>
                <path id="Path_2463" d="M2497.781 1171.781c-.036.018-.868 4.422 3.118 4.246 2.618-.116 8.265-3.283 7.767-5.525-.235-1.064-2.215-3.832-2.614-10.141l-.478.128-8.015 2.15s.355 2.544.522 4.95c.144 2.018.15 3.944-.3 4.192z" class="cls-27" transform="translate(-2427.089 -1140.265)"/>
                <path id="Path_2464" d="M2497.571 1162.93s.355 2.543.522 4.949c4.535-.432 6.662-4.738 7.493-7.1z" class="cls-31" transform="translate(-2427.096 -1140.559)"/>
                <path id="Path_2465" d="M2492.438 1119.048a23.865 23.865 0 0 0 2.487-7.177c.257-2.326-1.482-10.761-9.959-8.966a11.661 11.661 0 0 0-4.7 2.144c-1.774 1.378-4.276 4.267-.781 11.5l.945 2.457z" class="cls-33" transform="translate(-2413.17 -1099.767)"/>
                <path id="Path_2466" d="M2482.594 1132.532s10.764-.54 10.325-7.237.654-11.28-6.237-11.217-8.057 2.7-8.453 4.976 1.553 13.446 4.365 13.478z" class="cls-27" transform="translate(-2413.485 -1107.783)"/>
                <path id="Path_2467" d="M2490.241 1110.975s3.467 7.66 8.062 8.522 6.474-.48 6.474-.48a12.816 12.816 0 0 1-4.688-7.279s-7.878-4.649-9.848-.763z" class="cls-33" transform="translate(-2421.952 -1104.518)"/>
                <path id="Path_2468" d="M2480.6 1113.872a9.549 9.549 0 0 0-2.5 3.641c-.424 1.742-.429 5.269-1.461 5.219 0 0-2.573-5.195-.283-8.382 2.42-3.379 4.244-.478 4.244-.478z" class="cls-33" transform="translate(-2411.534 -1106.825)"/>
                <path id="Path_2469" d="M2456.383 1231.1c.871 1.041 3.59 1.363 6.5 1.84a19.52 19.52 0 0 1 6.4 1.854c3.879 2.278 16.558 9.977 20.272 9.628 1.44-.137 1.171-2.886.3-6.536-1.375-5.764-4.249-13.764-4.249-17.244a101.026 101.026 0 0 0-1.476-11.531c-.069-.415-.137-.832-.209-1.252-1.669-9.989-3.98-21.77-3.98-21.77s-2.579 5.627-7.6 5.627-3.855-4.291-3.855-4.291-4.583.539-5.665 1.705a44.767 44.767 0 0 0-4.374 7.583s-.11 1.75 4.222 2.582a56.9 56.9 0 0 0-1.181 7.916c-.093 2.338 1.6 9.658 2.081 14.214a8.45 8.45 0 0 1-.065 3.453 6.687 6.687 0 0 1-2.654 2.186c-2.458 1.427-5.503 2.799-4.467 4.036z" class="cls-14" transform="translate(-2398.044 -1158.323)"/>
                <path id="Path_2470" d="M2470.707 1271.137c-2.782 4.741 7.541 6.166 9.25 7.168 3.879 2.278 15.746 10.537 19.462 10.188 1.441-.137 1.172-2.886.3-6.536-1.375-5.764-4.249-13.764-4.249-17.244a100.951 100.951 0 0 0-1.476-11.53l-4.473-4.294s-4.791 12.386-9.359 14.417a38.59 38.59 0 0 1-6.733 2.191 8.433 8.433 0 0 1-.066 3.453 6.686 6.686 0 0 1-2.656 2.187z" class="cls-21" transform="translate(-2407.911 -1202.397)"/>
                <path id="Path_2471" d="M2483.4 1197.081s3.826-2.323 7.52 2.084-2.627 35.9-8.107 37.513c-6.085 1.8-23.663-.286-23.663-.286l.34-2.746s18.714-3.587 19.492-4.589 2.475-31.467 4.418-31.976z" class="cls-27" transform="translate(-2400.132 -1165.607)"/>
                <path id="Path_2472" d="M2530.768 1186.09s7.854.71 10.135 3.292 2.946 9.583 2.946 9.583-6.914 5.582-15.249 3.417z" class="cls-14" transform="translate(-2448.873 -1158.323)"/>
                <g id="Group_9261" transform="translate(18.485 58.092)">
                    <path id="Rectangle_2018" d="M0 0H10.373V1.225H0z" class="cls-34" transform="rotate(180 19.35 7.696)"/>
                    <path id="Path_2473" d="M2353.738 1303.019c-.1-.406-9.536-15.219-9.536-15.219h-20.992l10.529 14.822z" class="cls-34" transform="translate(-2323.21 -1287.797)"/>
                    <path id="Path_2474" d="M2352.862 1303.179c-.1-.406-9.565-15.389-9.565-15.389h-20.077l10.016 15.389z" class="cls-33" transform="translate(-2323.218 -1287.79)"/>
                    <path id="Path_2475" d="M2363.124 1311.209a1.677 1.677 0 0 0 1.461 1.085.748.748 0 0 0 .712-1.085 1.679 1.679 0 0 0-1.461-1.088.75.75 0 0 0-.712 1.088z" class="cls-34" transform="translate(-2351.179 -1303.462)"/>
                </g>
                <path id="Path_2476" d="M2439.671 1318.4s-6.094-1.181-6.78-.886-4.521 3.736-4.127 4.422 1.965 1.181 3.733.59 5.6-.885 6.289-1.768a5.778 5.778 0 0 0 .885-2.358z" class="cls-27" transform="translate(-2378.785 -1250.53)"/>
            </g>
        </g>
        <g id="Group_9268" transform="translate(329.731 82.359)">
            <path id="Path_2477" d="M1543.813 634.58h-191.739l-14.694-48.12h191.738z" class="cls-35" transform="translate(-1337.38 -586.46)"/>
            <g id="Group_9266" transform="translate(16.17 11.668)">
                <path id="Path_2478" fill="#b7d5f9" d="M1559.879 630.194l1.756 5.755c.772 2.531-.665 4.6-3.2 4.6h-158.849a6.786 6.786 0 0 1-6.011-4.6l-1.756-5.755c-.772-2.532.665-4.6 3.2-4.6h158.849a6.778 6.778 0 0 1 6.011 4.6z" transform="translate(-1391.61 -625.59)"/>
                <g id="Group_9264" transform="translate(133.794 4.974)">
                    <path id="Path_2479" d="M1842.986 643.3h-2.436l-.23-.749h3.409l.2.644-.9 4.2h-.957z" class="cls-7" transform="translate(-1840.32 -642.466)"/>
                    <path id="Path_2480" d="M1855.884 644.778c-.423-1.383.081-2.508 1.354-2.508a3.313 3.313 0 0 1 2.871 2.508c.423 1.384-.081 2.508-1.354 2.508a3.306 3.306 0 0 1-2.871-2.508zm3.346 0c-.292-.954-1.023-1.739-1.771-1.739s-.993.76-.695 1.739c.292.954 1.014 1.738 1.771 1.738s.99-.769.695-1.738z" class="cls-7" transform="translate(-1851.141 -642.27)"/>
                    <path id="Path_2481" d="M1871.428 643.6c-.205-.671.086-1.24.769-1.24a1.7 1.7 0 0 1 1.515 1.24c.206.671-.086 1.24-.769 1.24a1.7 1.7 0 0 1-1.515-1.24zm3.674-1.184h.686l-2.066 4.848h-.687zm-2.007 1.184a.926.926 0 0 0-.748-.707c-.325 0-.423.319-.3.707a.918.918 0 0 0 .748.707c.324 0 .419-.319.3-.707zm2.019 2.481c-.206-.671.086-1.24.772-1.24a1.7 1.7 0 0 1 1.515 1.24c.206.671-.087 1.241-.769 1.241a1.708 1.708 0 0 1-1.518-1.241zm1.667 0a.927.927 0 0 0-.748-.707c-.325 0-.424.319-.3.707a.914.914 0 0 0 .748.707c.319 0 .419-.319.3-.707z" class="cls-7" transform="translate(-1862.107 -642.333)"/>
                </g>
                <g id="Group_9265" transform="translate(.006)">
                    <path id="Path_2482" d="M1502.447 625.59l4.571 14.966h-107.411a6.763 6.763 0 0 1-5.469-3.381 5.668 5.668 0 0 1-.543-1.225l-1.756-5.755c-.772-2.532.665-4.6 3.2-4.6z" class="cls-4" transform="translate(-1391.63 -625.59)"/>
                    <path id="Path_2483" d="M1419.932 625.59l-4.529 14.966h-9.914a6.762 6.762 0 0 1-5.468-3.381l3.5-11.584z" class="cls-19" transform="translate(-1397.519 -625.59)"/>
                    <path id="Path_2484" d="M1511.812 625.59l-4.529 14.962h-16.4l4.529-14.962z" class="cls-19" transform="translate(-1461.286 -625.59)"/>
                    <path id="Path_2485" d="M1606.085 625.59l-4.526 14.962h-16.409l4.529-14.962z" class="cls-19" transform="translate(-1527.447 -625.59)"/>
                    <path id="Path_2486" d="M1700.375 625.59l-4.529 14.962h-16.406l4.526-14.962z" class="cls-19" transform="translate(-1593.623 -625.59)"/>
                </g>
            </g>
            <g id="Group_9267" transform="translate(23.988 33.518)">
                <path id="Path_2487" d="M1447.123 700.847h-28.687l-.605-1.977h28.691z" class="cls-10" transform="translate(-1417.83 -698.87)"/>
                <path id="Path_2488" d="M1444.951 719.407h-20.845l-.605-1.977h20.845z" class="cls-10" transform="translate(-1421.81 -711.896)"/>
                <path id="Path_2489" d="M1510.786 719.407h-12.461l-.605-1.977h12.461z" class="cls-10" transform="translate(-1473.899 -711.896)"/>
                <path id="Path_2490" d="M1566.378 719.407h-19.036l-.6-1.977h19.032z" class="cls-10" transform="translate(-1508.303 -711.896)"/>
                <path id="Path_2491" d="M1530.571 700.847h-8.686l-.605-1.977h8.689z" class="cls-10" transform="translate(-1490.434 -698.87)"/>
                <path id="Path_2492" d="M1592.571 700.847h-31.586l-.6-1.977h31.589z" class="cls-10" transform="translate(-1517.876 -698.87)"/>
            </g>
        </g>
        <g id="Group_9284" transform="translate(121.51 134.45)">
            <path id="Path_2493" d="M794.91 829.815H660.028L639.06 761.16h134.885z" class="cls-35" transform="translate(-639.06 -761.16)"/>
            <path id="Path_2494" d="M799.715 807.607H681.939l-8.909-29.177H790.8z" class="cls-24" transform="translate(-662.901 -773.281)"/>
            <g id="Group_9269" transform="translate(17.98 9.521)">
                <path id="Path_2495" d="M719.785 794.647h-19.951l-.474-1.557h19.948z" class="cls-12" transform="translate(-699.36 -793.09)"/>
                <path id="Path_2496" d="M799.248 794.647h-16.59l-.477-1.557h16.593z" class="cls-12" transform="translate(-757.485 -793.09)"/>
                <path id="Path_2497" d="M887.1 794.647h-34.3l-.474-1.557h34.293z" class="cls-12" transform="translate(-806.719 -793.09)"/>
                <path id="Path_2498" d="M725.5 813.357h-19.956l-.474-1.556h19.951z" class="cls-12" transform="translate(-703.368 -806.221)"/>
                <path id="Path_2499" d="M804.968 813.357h-16.593l-.475-1.557h16.59z" class="cls-12" transform="translate(-761.5 -806.221)"/>
                <path id="Path_2500" d="M870.678 813.357h-16.59l-.477-1.556H870.2z" class="cls-12" transform="translate(-807.617 -806.221)"/>
                <path id="Path_2501" d="M960.888 815.529h-34.294l-.474-1.559h34.293z" class="cls-12" transform="translate(-858.506 -807.744)"/>
            </g>
            <g id="Group_9270" transform="translate(21.841 22.169)">
                <path id="Path_2502" d="M732.735 837.067h-19.951l-.474-1.556h19.951z" class="cls-12" transform="translate(-712.31 -835.51)"/>
                <path id="Path_2503" d="M812.208 837.067h-16.594l-.474-1.556h16.591z" class="cls-12" transform="translate(-770.443 -835.51)"/>
                <path id="Path_2504" d="M900.05 837.067h-34.293l-.477-1.556h34.293z" class="cls-12" transform="translate(-819.668 -835.51)"/>
                <path id="Path_2505" d="M738.445 855.776H718.5l-.477-1.556h19.951z" class="cls-12" transform="translate(-716.318 -848.641)"/>
                <path id="Path_2506" d="M817.918 855.776h-16.594l-.474-1.556h16.593z" class="cls-12" transform="translate(-774.45 -848.641)"/>
                <path id="Path_2507" d="M883.638 855.776h-16.594l-.474-1.556h16.59z" class="cls-12" transform="translate(-820.574 -848.641)"/>
                <path id="Path_2508" d="M973.84 857.957h-34.3l-.474-1.557h34.293z" class="cls-12" transform="translate(-871.456 -850.171)"/>
            </g>
            <g id="Group_9283" transform="translate(38.518 41.92)">
                <g id="Group_9273" transform="translate(48.292)">
                    <g id="Group_9271">
                        <path id="Path_2509" d="M941.4 918.329c-4.571 0-9.425-3.718-10.823-8.289s1.186-8.289 5.757-8.289 9.425 3.718 10.824 8.289-1.184 8.289-5.758 8.289zm-4.6-15.067c-3.736 0-5.847 3.038-4.708 6.777a9.963 9.963 0 0 0 8.847 6.778c3.736 0 5.847-3.039 4.708-6.778a9.962 9.962 0 0 0-8.847-6.777z" class="cls-17" transform="translate(-930.2 -901.75)"/>
                    </g>
                    <g id="Group_9272" transform="translate(3.477 4.871)">
                        <path id="Path_2510" d="M948.173 925.72a1.755 1.755 0 0 1-.937-.385l-4.7-3.724a1.371 1.371 0 0 1-.5-1.783 1.267 1.267 0 0 1 1.795.039l3.322 2.633 1.634-3.894c.235-.564.987-.689 1.676-.28a1.553 1.553 0 0 1 .82 1.762l-2.147 5.12a.87.87 0 0 1-.778.519c-.058-.001-.122-.001-.185-.007z" class="cls-17" transform="translate(-941.861 -918.085)"/>
                    </g>
                </g>
                <g id="Group_9276" transform="translate(24.57)">
                    <g id="Group_9274">
                        <path id="Path_2511" d="M861.843 918.329c-4.571 0-9.425-3.718-10.824-8.289s1.187-8.289 5.758-8.289 9.425 3.718 10.824 8.289-1.187 8.289-5.758 8.289zm-4.6-15.067c-3.736 0-5.847 3.038-4.708 6.777a9.963 9.963 0 0 0 8.847 6.778c3.736 0 5.847-3.039 4.708-6.778a9.962 9.962 0 0 0-8.848-6.777z" class="cls-17" transform="translate(-850.64 -901.75)"/>
                    </g>
                    <g id="Group_9275" transform="translate(3.48 4.871)">
                        <path id="Path_2512" d="M868.623 925.72a1.755 1.755 0 0 1-.936-.385l-4.7-3.724a1.371 1.371 0 0 1-.5-1.783 1.267 1.267 0 0 1 1.8.039l3.313 2.633 1.634-3.894c.236-.564.987-.689 1.676-.28a1.554 1.554 0 0 1 .82 1.762l-2.147 5.12a.87.87 0 0 1-.778.519c-.063-.001-.122-.001-.182-.007z" class="cls-17" transform="translate(-862.311 -918.085)"/>
                    </g>
                </g>
                <g id="Group_9279">
                    <g id="Group_9277">
                        <path id="Path_2513" d="M779.439 918.329c-4.571 0-9.425-3.718-10.821-8.289s1.187-8.289 5.758-8.289 9.425 3.718 10.821 8.289-1.187 8.289-5.758 8.289zm-4.6-15.067c-3.736 0-5.847 3.038-4.708 6.777a9.959 9.959 0 0 0 8.847 6.778c3.736 0 5.847-3.039 4.708-6.778a9.962 9.962 0 0 0-8.847-6.777z" class="cls-17" transform="translate(-768.24 -901.75)"/>
                    </g>
                    <g id="Group_9278" transform="translate(3.477 4.871)">
                        <path id="Path_2514" d="M786.213 925.72a1.755 1.755 0 0 1-.936-.385l-4.7-3.724a1.371 1.371 0 0 1-.5-1.783 1.268 1.268 0 0 1 1.8.039l3.322 2.633 1.634-3.894c.236-.564.987-.689 1.676-.28a1.553 1.553 0 0 1 .82 1.762l-2.147 5.12a.87.87 0 0 1-.778.519c-.072-.001-.131-.001-.191-.007z" class="cls-17" transform="translate(-779.901 -918.085)"/>
                    </g>
                </g>
                <g id="Group_9282" transform="translate(71.18)">
                    <g id="Group_9280">
                        <path id="Path_2515" d="M1018.16 918.329c-4.571 0-9.426-3.718-10.821-8.289s1.187-8.289 5.758-8.289 9.425 3.718 10.821 8.289-1.187 8.289-5.758 8.289zm-4.6-15.067c-3.736 0-5.847 3.038-4.708 6.777a9.959 9.959 0 0 0 8.847 6.778c3.739 0 5.847-3.039 4.708-6.778a9.963 9.963 0 0 0-8.848-6.777z" class="cls-4" transform="translate(-1006.96 -901.75)"/>
                    </g>
                    <g id="Group_9281" transform="translate(6.423 3.781)">
                        <path id="Path_2516" d="M1031.161 920.3a1.727 1.727 0 0 1-1.53-1.172l-1.076-3.521a.84.84 0 0 1 .814-1.172 1.727 1.727 0 0 1 1.53 1.172l1.076 3.521a.84.84 0 0 1-.814 1.172z" class="cls-4" transform="translate(-1028.502 -914.43)"/>
                        <path id="Path_2517" d="M1036.757 938.443h-.253a1.541 1.541 0 0 1-1.365-1.047.75.75 0 0 1 .727-1.047h.254a1.541 1.541 0 0 1 1.366 1.047.752.752 0 0 1-.729 1.047z" class="cls-4" transform="translate(-1033.126 -929.814)"/>
                    </g>
                </g>
            </g>
        </g>
        <g id="Group_9285" transform="translate(525.581 153.971)">
            <path id="Path_2518" d="M2125.53 945.56s17.062 17.688 17.867 24.346-8.173 17.05-8.173 17.05z" class="cls-37" transform="translate(-2086.374 -910.098)"/>
            <path id="Path_2519" d="M2045.373 1553.22s-.6 9.384-2.419 9.512c-.241.018-9.207 0-9.207 0l-11.447-.093a3.713 3.713 0 0 1 3.429-3.333c3.349-.576 8.951-2.917 10.988-7.332 2.144-4.648 8.656 1.246 8.656 1.246z" class="cls-21" transform="translate(-2013.925 -1334.441)"/>
            <path id="Path_2520" d="M2130.873 1553.4s-.6 9.383-2.418 9.512c-.242.018-9.208 0-9.208 0l-11.447-.092a3.714 3.714 0 0 1 3.43-3.334c3.348-.576 8.95-2.916 10.987-7.332 2.144-4.642 8.656 1.246 8.656 1.246z" class="cls-21" transform="translate(-2073.931 -1334.57)"/>
            <path id="Path_2521" d="M2057.9 1188.437s2.952 19.152 14.047 53.165 12.583 48.734 12.583 48.734l11.981-.31s.182-37.143-4.926-54.247-.978-61.618-.978-61.618z" class="cls-21" transform="translate(-2038.91 -1070.536)"/>
            <path id="Path_2522" d="M2038.419 1177.4a464.835 464.835 0 0 0 4.428 64.287c4.914 35.435 3.19 50.469 3.19 50.469l11.954.423s7.222-35.423 5.212-53.158 9.918-60.822 9.918-60.822z" class="cls-14" transform="translate(-2025.228 -1072.809)"/>
            <path id="Path_2523" d="M2079.89 917.565l-6.378 4.163-9.2-1.735c.129-.743.743-3.823 1.3-6.611.033-.164.069-.328.1-.489.48-2.373.895-4.41.895-4.41l8.606-3.775 3.208-1.407c-.008.051-.253 2.633-.289 3.012a21.9 21.9 0 0 0 1.758 11.252z" class="cls-27" transform="translate(-2043.408 -880.439)"/>
            <path id="Path_2524" d="M2063.559 937.119c.179-.075 11.093-3.271 12.279-2.878s1.881 2.686 1.881 2.686l-17.849 4s1.408-2.854 3.689-3.808z" class="cls-37" transform="translate(-2040.292 -902.131)"/>
            <path id="Path_2525" d="M2072.9 1016.556c-1.866 8.429-32.638 9.362-40.555 1.69-.9-.874-.937-4.935-.584-10.409.688-10.7 2.862-26.779 2.96-35a65.11 65.11 0 0 1 1.339-11.712 95.162 95.162 0 0 1 3.933-14.014s15.04-4.827 17.849-3.993c13.542 4.011 16.927 65.009 15.058 73.438z" class="cls-4" transform="translate(-2020.42 -908.319)"/>
            <path id="Path_2526" d="M2032.25 1046.747c.689-10.7 2.863-26.779 2.961-35a65.066 65.066 0 0 1 1.339-11.712l9.044-1.577s8.76 36.123-13.344 48.289z" class="cls-37" transform="translate(-2020.908 -947.225)"/>
            <path id="Path_2527" d="M2042.692 1107.129a2.124 2.124 0 0 1-.683 2.46c-1.3.987-2.138 2.588-1.845 3.757s3.128 3.089 4.112 2.782 2.99-1.843 2.776-2.463 1.36-5.418-1.035-7.272-3.325.736-3.325.736z" class="cls-27" transform="translate(-2026.421 -1022.507)"/>
            <path id="Path_2528" d="M2020.694 949.53s-8.82 1.631-15.868 11.969-11.688 18.025-10.4 21.761 13.054 16.7 15.088 16.707 5.319-1.467 5.51-4.795c0 0-8.277-12.467-6.637-14.328.7-.8 10.8-8.96 12.234-5.26 2.366 6.125.073-26.054.073-26.054z" class="cls-4" transform="translate(-1994.21 -912.885)"/>
            <path id="Path_2529" fill="#fca56b" d="M2080.544 909.735c-1.894 3.194-8.937 5.946-11.873 6.956l.1-.489c.48-2.374.895-4.41.895-4.41l8.605-3.775c1.9-.023 3.057.403 2.273 1.718z" transform="translate(-2046.468 -883.75)"/>
            <path id="Path_2530" d="M2057.085 865.271s13.841 4.35 16.418-4.312 6.1-13.934-2.63-17.076-11.435-.352-13 2.329-4.321 17.705-.788 19.059z" class="cls-27" transform="translate(-2037.131 -837.761)"/>
            <path id="Path_2531" d="M2062.563 834.248s.862 10.087 2.949 9.655 3.977-.754 3.667 2.287-3.211 6.545 3.214 7.1 15.7-16.006 13.946-19.149c-5.078-9.07-31.117-10.955-23.776.107z" class="cls-23" transform="translate(-2041.273 -826.63)"/>
        </g>
        <g id="Group_9291" transform="translate(228.155)">
            <g id="Group_9286" class="cls-39" transform="translate(31.022)">
                <path id="Path_2532" d="M1100.76 596.067v-2.457h2.532v2.457z" class="cls-4" transform="translate(-1100.76 -509.119)"/>
                <path id="Path_2533" d="M1100.76 579.4v-2.46h2.532v2.46z" class="cls-4" transform="translate(-1100.76 -497.42)"/>
                <path id="Path_2534" d="M1100.76 562.727v-2.457h2.532v2.457z" class="cls-4" transform="translate(-1100.76 -485.721)"/>
                <path id="Path_2535" d="M1100.76 546.057V543.6h2.532v2.457z" class="cls-4" transform="translate(-1100.76 -474.021)"/>
                <path id="Path_2536" d="M1100.76 529.4v-2.46h2.532v2.46z" class="cls-4" transform="translate(-1100.76 -462.329)"/>
                <path id="Path_2537" d="M1100.76 512.727v-2.457h2.532v2.457z" class="cls-4" transform="translate(-1100.76 -450.629)"/>
                <path id="Path_2538" d="M1100.76 496.057V493.6h2.532v2.457z" class="cls-4" transform="translate(-1100.76 -438.93)"/>
                <path id="Path_2539" d="M1100.76 479.387v-2.457h2.532v2.457z" class="cls-4" transform="translate(-1100.76 -427.23)"/>
                <path id="Path_2540" d="M1100.76 462.717v-2.457h2.532v2.457z" class="cls-4" transform="translate(-1100.76 -415.531)"/>
                <path id="Path_2541" d="M1100.76 446.047v-2.457h2.532v2.457z" class="cls-4" transform="translate(-1100.76 -403.832)"/>
                <path id="Path_2542" d="M1100.76 429.387v-2.457h2.532v2.457z" class="cls-4" transform="translate(-1100.76 -392.139)"/>
                <path id="Path_2543" d="M1100.76 412.717v-2.457h2.532v2.457z" class="cls-4" transform="translate(-1100.76 -380.44)"/>
                <path id="Path_2544" d="M1100.76 396.047v-2.457h2.532v2.457z" class="cls-4" transform="translate(-1100.76 -368.74)"/>
                <path id="Path_2545" d="M1100.76 379.377v-2.457h2.532v2.457z" class="cls-4" transform="translate(-1100.76 -357.041)"/>
                <path id="Path_2546" d="M1100.76 362.707v-2.457h2.532v2.457z" class="cls-4" transform="translate(-1100.76 -345.341)"/>
                <path id="Path_2547" d="M1100.76 346.047v-2.457h2.532v2.457z" class="cls-4" transform="translate(-1100.76 -333.649)"/>
                <path id="Path_2548" d="M1100.76 329.377v-2.457h2.532v2.457z" class="cls-4" transform="translate(-1100.76 -321.95)"/>
                <path id="Path_2549" d="M1100.76 312.707v-2.457h2.532v2.457z" class="cls-4" transform="translate(-1100.76 -310.25)"/>
            </g>
            <g id="Group_9287" class="cls-39" transform="translate(23.284)">
                <path id="Path_2550" d="M1074.81 496.057V493.6h2.532v2.457z" class="cls-4" transform="translate(-1074.81 -438.93)"/>
                <path id="Path_2551" d="M1074.81 479.387v-2.457h2.532v2.457z" class="cls-4" transform="translate(-1074.81 -427.23)"/>
                <path id="Path_2552" d="M1074.81 462.717v-2.457h2.532v2.457z" class="cls-4" transform="translate(-1074.81 -415.531)"/>
                <path id="Path_2553" d="M1074.81 446.047v-2.457h2.532v2.457z" class="cls-4" transform="translate(-1074.81 -403.832)"/>
                <path id="Path_2554" d="M1074.81 429.387v-2.457h2.532v2.457z" class="cls-4" transform="translate(-1074.81 -392.139)"/>
                <path id="Path_2555" d="M1074.81 412.717v-2.457h2.532v2.457z" class="cls-4" transform="translate(-1074.81 -380.44)"/>
                <path id="Path_2556" d="M1074.81 396.047v-2.457h2.532v2.457z" class="cls-4" transform="translate(-1074.81 -368.74)"/>
                <path id="Path_2557" d="M1074.81 379.377v-2.457h2.532v2.457z" class="cls-4" transform="translate(-1074.81 -357.041)"/>
                <path id="Path_2558" d="M1074.81 362.707v-2.457h2.532v2.457z" class="cls-4" transform="translate(-1074.81 -345.341)"/>
                <path id="Path_2559" d="M1074.81 346.047v-2.457h2.532v2.457z" class="cls-4" transform="translate(-1074.81 -333.649)"/>
                <path id="Path_2560" d="M1074.81 329.377v-2.457h2.532v2.457z" class="cls-4" transform="translate(-1074.81 -321.95)"/>
                <path id="Path_2561" d="M1074.81 312.707v-2.457h2.532v2.457z" class="cls-4" transform="translate(-1074.81 -310.25)"/>
            </g>
            <g id="Group_9288" class="cls-39" transform="translate(15.401)">
                <path id="Path_2562" d="M1048.37 596.067v-2.457h2.531v2.457z" class="cls-4" transform="translate(-1048.37 -509.119)"/>
                <path id="Path_2563" d="M1048.37 579.4v-2.46h2.531v2.46z" class="cls-4" transform="translate(-1048.37 -497.42)"/>
                <path id="Path_2564" d="M1048.37 562.727v-2.457h2.531v2.457z" class="cls-4" transform="translate(-1048.37 -485.721)"/>
                <path id="Path_2565" d="M1048.37 546.057V543.6h2.531v2.457z" class="cls-4" transform="translate(-1048.37 -474.021)"/>
                <path id="Path_2566" d="M1048.37 529.4v-2.46h2.531v2.46z" class="cls-4" transform="translate(-1048.37 -462.329)"/>
                <path id="Path_2567" d="M1048.37 512.727v-2.457h2.531v2.457z" class="cls-4" transform="translate(-1048.37 -450.629)"/>
                <path id="Path_2568" d="M1048.37 496.057V493.6h2.531v2.457z" class="cls-4" transform="translate(-1048.37 -438.93)"/>
                <path id="Path_2569" d="M1048.37 479.387v-2.457h2.531v2.457z" class="cls-4" transform="translate(-1048.37 -427.23)"/>
                <path id="Path_2570" d="M1048.37 462.717v-2.457h2.531v2.457z" class="cls-4" transform="translate(-1048.37 -415.531)"/>
                <path id="Path_2571" d="M1048.37 446.047v-2.457h2.531v2.457z" class="cls-4" transform="translate(-1048.37 -403.832)"/>
                <path id="Path_2572" d="M1048.37 429.387v-2.457h2.531v2.457z" class="cls-4" transform="translate(-1048.37 -392.139)"/>
                <path id="Path_2573" d="M1048.37 412.717v-2.457h2.531v2.457z" class="cls-4" transform="translate(-1048.37 -380.44)"/>
                <path id="Path_2574" d="M1048.37 396.047v-2.457h2.531v2.457z" class="cls-4" transform="translate(-1048.37 -368.74)"/>
                <path id="Path_2575" d="M1048.37 379.377v-2.457h2.531v2.457z" class="cls-4" transform="translate(-1048.37 -357.041)"/>
                <path id="Path_2576" d="M1048.37 362.707v-2.457h2.531v2.457z" class="cls-4" transform="translate(-1048.37 -345.341)"/>
                <path id="Path_2577" d="M1048.37 346.047v-2.457h2.531v2.457z" class="cls-4" transform="translate(-1048.37 -333.649)"/>
                <path id="Path_2578" d="M1048.37 329.377v-2.457h2.531v2.457z" class="cls-4" transform="translate(-1048.37 -321.95)"/>
                <path id="Path_2579" d="M1048.37 312.707v-2.457h2.531v2.457z" class="cls-4" transform="translate(-1048.37 -310.25)"/>
            </g>
            <g id="Group_9289" class="cls-39" transform="translate(8.76)">
                <path id="Path_2580" d="M1026.1 629.4v-2.46h2.531v2.46z" class="cls-4" transform="translate(-1026.1 -532.511)"/>
                <path id="Path_2581" d="M1026.1 612.737v-2.457h2.531v2.457z" class="cls-4" transform="translate(-1026.1 -520.819)"/>
                <path id="Path_2582" d="M1026.1 596.067v-2.457h2.531v2.457z" class="cls-4" transform="translate(-1026.1 -509.119)"/>
                <path id="Path_2583" d="M1026.1 579.4v-2.46h2.531v2.46z" class="cls-4" transform="translate(-1026.1 -497.42)"/>
                <path id="Path_2584" d="M1026.1 562.727v-2.457h2.531v2.457z" class="cls-4" transform="translate(-1026.1 -485.721)"/>
                <path id="Path_2585" d="M1026.1 546.057V543.6h2.531v2.457z" class="cls-4" transform="translate(-1026.1 -474.021)"/>
                <path id="Path_2586" d="M1026.1 529.4v-2.46h2.531v2.46z" class="cls-4" transform="translate(-1026.1 -462.329)"/>
                <path id="Path_2587" d="M1026.1 512.727v-2.457h2.531v2.457z" class="cls-4" transform="translate(-1026.1 -450.629)"/>
                <path id="Path_2588" d="M1026.1 496.057V493.6h2.531v2.457z" class="cls-4" transform="translate(-1026.1 -438.93)"/>
                <path id="Path_2589" d="M1026.1 479.387v-2.457h2.531v2.457z" class="cls-4" transform="translate(-1026.1 -427.23)"/>
                <path id="Path_2590" d="M1026.1 462.717v-2.457h2.531v2.457z" class="cls-4" transform="translate(-1026.1 -415.531)"/>
                <path id="Path_2591" d="M1026.1 446.047v-2.457h2.531v2.457z" class="cls-4" transform="translate(-1026.1 -403.832)"/>
                <path id="Path_2592" d="M1026.1 429.387v-2.457h2.531v2.457z" class="cls-4" transform="translate(-1026.1 -392.139)"/>
                <path id="Path_2593" d="M1026.1 412.717v-2.457h2.531v2.457z" class="cls-4" transform="translate(-1026.1 -380.44)"/>
                <path id="Path_2594" d="M1026.1 396.047v-2.457h2.531v2.457z" class="cls-4" transform="translate(-1026.1 -368.74)"/>
                <path id="Path_2595" d="M1026.1 379.377v-2.457h2.531v2.457z" class="cls-4" transform="translate(-1026.1 -357.041)"/>
                <path id="Path_2596" d="M1026.1 362.707v-2.457h2.531v2.457z" class="cls-4" transform="translate(-1026.1 -345.341)"/>
                <path id="Path_2597" d="M1026.1 346.047v-2.457h2.531v2.457z" class="cls-4" transform="translate(-1026.1 -333.649)"/>
                <path id="Path_2598" d="M1026.1 329.377v-2.457h2.531v2.457z" class="cls-4" transform="translate(-1026.1 -321.95)"/>
                <path id="Path_2599" d="M1026.1 312.707v-2.457h2.531v2.457z" class="cls-4" transform="translate(-1026.1 -310.25)"/>
            </g>
            <g id="Group_9290" class="cls-39">
                <path id="Path_2600" d="M996.72 479.387v-2.457h2.531v2.457z" class="cls-4" transform="translate(-996.72 -427.23)"/>
                <path id="Path_2601" d="M996.72 462.717v-2.457h2.531v2.457z" class="cls-4" transform="translate(-996.72 -415.531)"/>
                <path id="Path_2602" d="M996.72 446.047v-2.457h2.531v2.457z" class="cls-4" transform="translate(-996.72 -403.832)"/>
                <path id="Path_2603" d="M996.72 429.387v-2.457h2.531v2.457z" class="cls-4" transform="translate(-996.72 -392.139)"/>
                <path id="Path_2604" d="M996.72 412.717v-2.457h2.531v2.457z" class="cls-4" transform="translate(-996.72 -380.44)"/>
                <path id="Path_2605" d="M996.72 396.047v-2.457h2.531v2.457z" class="cls-4" transform="translate(-996.72 -368.74)"/>
                <path id="Path_2606" d="M996.72 379.377v-2.457h2.531v2.457z" class="cls-4" transform="translate(-996.72 -357.041)"/>
                <path id="Path_2607" d="M996.72 362.707v-2.457h2.531v2.457z" class="cls-4" transform="translate(-996.72 -345.341)"/>
                <path id="Path_2608" d="M996.72 346.047v-2.457h2.531v2.457z" class="cls-4" transform="translate(-996.72 -333.649)"/>
                <path id="Path_2609" d="M996.72 329.377v-2.457h2.531v2.457z" class="cls-4" transform="translate(-996.72 -321.95)"/>
                <path id="Path_2610" d="M996.72 312.707v-2.457h2.531v2.457z" class="cls-4" transform="translate(-996.72 -310.25)"/>
            </g>
        </g>
        <g id="Group_9297" transform="translate(607.657 169.056)">
            <g id="Group_9292" class="cls-39" transform="translate(0 9.938)">
                <path id="Path_2611" d="M2272 910.55v2.457h-2.532v-2.457z" class="cls-4" transform="translate(-2269.47 -910.55)"/>
                <path id="Path_2612" d="M2272 927.22v2.457h-2.532v-2.457z" class="cls-4" transform="translate(-2269.47 -922.25)"/>
                <path id="Path_2613" d="M2272 943.89v2.457h-2.532v-2.457z" class="cls-4" transform="translate(-2269.47 -933.949)"/>
                <path id="Path_2614" d="M2272 960.56v2.457h-2.532v-2.457z" class="cls-4" transform="translate(-2269.47 -945.649)"/>
                <path id="Path_2615" d="M2272 977.23v2.457h-2.532v-2.457z" class="cls-4" transform="translate(-2269.47 -957.348)"/>
                <path id="Path_2616" d="M2272 993.89v2.457h-2.532v-2.457z" class="cls-4" transform="translate(-2269.47 -969.04)"/>
                <path id="Path_2617" d="M2272 1010.56v2.457h-2.532v-2.457z" class="cls-4" transform="translate(-2269.47 -980.74)"/>
                <path id="Path_2618" d="M2272 1027.23v2.457h-2.532v-2.457z" class="cls-4" transform="translate(-2269.47 -992.439)"/>
                <path id="Path_2619" d="M2272 1043.9v2.457h-2.532v-2.457z" class="cls-4" transform="translate(-2269.47 -1004.139)"/>
                <path id="Path_2620" d="M2272 1060.57v2.457h-2.532v-2.457z" class="cls-4" transform="translate(-2269.47 -1015.838)"/>
                <path id="Path_2621" d="M2272 1077.24v2.457h-2.532v-2.457z" class="cls-4" transform="translate(-2269.47 -1027.538)"/>
                <path id="Path_2622" d="M2272 1093.9v2.457h-2.532v-2.457z" class="cls-4" transform="translate(-2269.47 -1039.23)"/>
                <path id="Path_2623" d="M2272 1110.57v2.457h-2.532v-2.457z" class="cls-4" transform="translate(-2269.47 -1050.929)"/>
                <path id="Path_2624" d="M2272 1127.24v2.457h-2.532v-2.457z" class="cls-4" transform="translate(-2269.47 -1062.629)"/>
                <path id="Path_2625" d="M2272 1143.91v2.457h-2.532v-2.457z" class="cls-4" transform="translate(-2269.47 -1074.328)"/>
                <path id="Path_2626" d="M2272 1160.58v2.457h-2.532v-2.457z" class="cls-4" transform="translate(-2269.47 -1086.027)"/>
                <path id="Path_2627" d="M2272 1177.24v2.457h-2.532v-2.457z" class="cls-4" transform="translate(-2269.47 -1097.72)"/>
                <path id="Path_2628" d="M2272 1193.91v2.457h-2.532v-2.457z" class="cls-4" transform="translate(-2269.47 -1109.42)"/>
            </g>
            <g id="Group_9293" class="cls-39" transform="translate(7.741 39.759)">
                <path id="Path_2629" d="M2297.961 1010.56v2.457h-2.531v-2.457z" class="cls-4" transform="translate(-2295.43 -1010.56)"/>
                <path id="Path_2630" d="M2297.961 1027.23v2.457h-2.531v-2.457z" class="cls-4" transform="translate(-2295.43 -1022.26)"/>
                <path id="Path_2631" d="M2297.961 1043.9v2.457h-2.531v-2.457z" class="cls-4" transform="translate(-2295.43 -1033.959)"/>
                <path id="Path_2632" d="M2297.961 1060.57v2.457h-2.531v-2.457z" class="cls-4" transform="translate(-2295.43 -1045.659)"/>
                <path id="Path_2633" d="M2297.961 1077.24v2.457h-2.531v-2.457z" class="cls-4" transform="translate(-2295.43 -1057.358)"/>
                <path id="Path_2634" d="M2297.961 1093.9v2.457h-2.531v-2.457z" class="cls-4" transform="translate(-2295.43 -1069.051)"/>
                <path id="Path_2635" d="M2297.961 1110.57v2.457h-2.531v-2.457z" class="cls-4" transform="translate(-2295.43 -1080.75)"/>
                <path id="Path_2636" d="M2297.961 1127.24v2.457h-2.531v-2.457z" class="cls-4" transform="translate(-2295.43 -1092.449)"/>
                <path id="Path_2637" d="M2297.961 1143.91v2.457h-2.531v-2.457z" class="cls-4" transform="translate(-2295.43 -1104.148)"/>
                <path id="Path_2638" d="M2297.961 1160.58v2.457h-2.531v-2.457z" class="cls-4" transform="translate(-2295.43 -1115.848)"/>
                <path id="Path_2639" d="M2297.961 1177.24v2.457h-2.531v-2.457z" class="cls-4" transform="translate(-2295.43 -1127.541)"/>
                <path id="Path_2640" d="M2297.961 1193.91v2.457h-2.531v-2.457z" class="cls-4" transform="translate(-2295.43 -1139.24)"/>
            </g>
            <g id="Group_9294" class="cls-39" transform="translate(15.624 9.938)">
                <path id="Path_2641" d="M2324.4 910.55v2.457h-2.531v-2.457z" class="cls-4" transform="translate(-2321.871 -910.55)"/>
                <path id="Path_2642" d="M2324.4 927.22v2.457h-2.531v-2.457z" class="cls-4" transform="translate(-2321.871 -922.25)"/>
                <path id="Path_2643" d="M2324.4 943.89v2.457h-2.531v-2.457z" class="cls-4" transform="translate(-2321.871 -933.949)"/>
                <path id="Path_2644" d="M2324.4 960.56v2.457h-2.531v-2.457z" class="cls-4" transform="translate(-2321.871 -945.649)"/>
                <path id="Path_2645" d="M2324.4 977.23v2.457h-2.531v-2.457z" class="cls-4" transform="translate(-2321.871 -957.348)"/>
                <path id="Path_2646" d="M2324.4 993.89v2.457h-2.531v-2.457z" class="cls-4" transform="translate(-2321.871 -969.04)"/>
                <path id="Path_2647" d="M2324.4 1010.56v2.457h-2.531v-2.457z" class="cls-4" transform="translate(-2321.871 -980.74)"/>
                <path id="Path_2648" d="M2324.4 1027.23v2.457h-2.531v-2.457z" class="cls-4" transform="translate(-2321.871 -992.439)"/>
                <path id="Path_2649" d="M2324.4 1043.9v2.457h-2.531v-2.457z" class="cls-4" transform="translate(-2321.871 -1004.139)"/>
                <path id="Path_2650" d="M2324.4 1060.57v2.457h-2.531v-2.457z" class="cls-4" transform="translate(-2321.871 -1015.838)"/>
                <path id="Path_2651" d="M2324.4 1077.24v2.457h-2.531v-2.457z" class="cls-4" transform="translate(-2321.871 -1027.538)"/>
                <path id="Path_2652" d="M2324.4 1093.9v2.457h-2.531v-2.457z" class="cls-4" transform="translate(-2321.871 -1039.23)"/>
                <path id="Path_2653" d="M2324.4 1110.57v2.457h-2.531v-2.457z" class="cls-4" transform="translate(-2321.871 -1050.929)"/>
                <path id="Path_2654" d="M2324.4 1127.24v2.457h-2.531v-2.457z" class="cls-4" transform="translate(-2321.871 -1062.629)"/>
                <path id="Path_2655" d="M2324.4 1143.91v2.457h-2.531v-2.457z" class="cls-4" transform="translate(-2321.871 -1074.328)"/>
                <path id="Path_2656" d="M2324.4 1160.58v2.457h-2.531v-2.457z" class="cls-4" transform="translate(-2321.871 -1086.027)"/>
                <path id="Path_2657" d="M2324.4 1177.24v2.457h-2.531v-2.457z" class="cls-4" transform="translate(-2321.871 -1097.72)"/>
                <path id="Path_2658" d="M2324.4 1193.91v2.457h-2.531v-2.457z" class="cls-4" transform="translate(-2321.871 -1109.42)"/>
            </g>
            <g id="Group_9295" class="cls-39" transform="translate(22.262)">
                <path id="Path_2659" d="M2346.662 877.22v2.457h-2.531v-2.457z" class="cls-4" transform="translate(-2344.131 -877.22)"/>
                <path id="Path_2660" d="M2346.662 893.89v2.457h-2.531v-2.457z" class="cls-4" transform="translate(-2344.131 -888.92)"/>
                <path id="Path_2661" d="M2346.662 910.55v2.457h-2.531v-2.457z" class="cls-4" transform="translate(-2344.131 -900.612)"/>
                <path id="Path_2662" d="M2346.662 927.22v2.457h-2.531v-2.457z" class="cls-4" transform="translate(-2344.131 -912.312)"/>
                <path id="Path_2663" d="M2346.662 943.89v2.457h-2.531v-2.457z" class="cls-4" transform="translate(-2344.131 -924.011)"/>
                <path id="Path_2664" d="M2346.662 960.56v2.457h-2.531v-2.457z" class="cls-4" transform="translate(-2344.131 -935.71)"/>
                <path id="Path_2665" d="M2346.662 977.23v2.457h-2.531v-2.457z" class="cls-4" transform="translate(-2344.131 -947.41)"/>
                <path id="Path_2666" d="M2346.662 993.89v2.457h-2.531v-2.457z" class="cls-4" transform="translate(-2344.131 -959.102)"/>
                <path id="Path_2667" d="M2346.662 1010.56v2.457h-2.531v-2.457z" class="cls-4" transform="translate(-2344.131 -970.802)"/>
                <path id="Path_2668" d="M2346.662 1027.23v2.457h-2.531v-2.457z" class="cls-4" transform="translate(-2344.131 -982.501)"/>
                <path id="Path_2669" d="M2346.662 1043.9v2.457h-2.531v-2.457z" class="cls-4" transform="translate(-2344.131 -994.2)"/>
                <path id="Path_2670" d="M2346.662 1060.57v2.457h-2.531v-2.457z" class="cls-4" transform="translate(-2344.131 -1005.9)"/>
                <path id="Path_2671" d="M2346.662 1077.24v2.457h-2.531v-2.457z" class="cls-4" transform="translate(-2344.131 -1017.599)"/>
                <path id="Path_2672" d="M2346.662 1093.9v2.457h-2.531v-2.457z" class="cls-4" transform="translate(-2344.131 -1029.292)"/>
                <path id="Path_2673" d="M2346.662 1110.57v2.457h-2.531v-2.457z" class="cls-4" transform="translate(-2344.131 -1040.991)"/>
                <path id="Path_2674" d="M2346.662 1127.24v2.457h-2.531v-2.457z" class="cls-4" transform="translate(-2344.131 -1052.691)"/>
                <path id="Path_2675" d="M2346.662 1143.91v2.457h-2.531v-2.457z" class="cls-4" transform="translate(-2344.131 -1064.39)"/>
                <path id="Path_2676" d="M2346.662 1160.58v2.457h-2.531v-2.457z" class="cls-4" transform="translate(-2344.131 -1076.09)"/>
                <path id="Path_2677" d="M2346.662 1177.24v2.457h-2.531v-2.457z" class="cls-4" transform="translate(-2344.131 -1087.782)"/>
                <path id="Path_2678" d="M2346.662 1193.91v2.457h-2.531v-2.457z" class="cls-4" transform="translate(-2344.131 -1099.481)"/>
            </g>
            <g id="Group_9296" class="cls-39" transform="translate(31.022 44.729)">
                <path id="Path_2679" d="M2376.042 1027.23v2.457h-2.531v-2.457z" class="cls-4" transform="translate(-2373.511 -1027.23)"/>
                <path id="Path_2680" d="M2376.042 1043.9v2.457h-2.531v-2.457z" class="cls-4" transform="translate(-2373.511 -1038.93)"/>
                <path id="Path_2681" d="M2376.042 1060.57v2.457h-2.531v-2.457z" class="cls-4" transform="translate(-2373.511 -1050.629)"/>
                <path id="Path_2682" d="M2376.042 1077.24v2.457h-2.531v-2.457z" class="cls-4" transform="translate(-2373.511 -1062.329)"/>
                <path id="Path_2683" d="M2376.042 1093.9v2.457h-2.531v-2.457z" class="cls-4" transform="translate(-2373.511 -1074.021)"/>
                <path id="Path_2684" d="M2376.042 1110.57v2.457h-2.531v-2.457z" class="cls-4" transform="translate(-2373.511 -1085.72)"/>
                <path id="Path_2685" d="M2376.042 1127.24v2.457h-2.531v-2.457z" class="cls-4" transform="translate(-2373.511 -1097.42)"/>
                <path id="Path_2686" d="M2376.042 1143.91v2.457h-2.531v-2.457z" class="cls-4" transform="translate(-2373.511 -1109.119)"/>
                <path id="Path_2687" d="M2376.042 1160.58v2.457h-2.531v-2.457z" class="cls-4" transform="translate(-2373.511 -1120.819)"/>
                <path id="Path_2688" d="M2376.042 1177.24v2.457h-2.531v-2.457z" class="cls-4" transform="translate(-2373.511 -1132.511)"/>
                <path id="Path_2689" d="M2376.042 1193.91v2.457h-2.531v-2.457z" class="cls-4" transform="translate(-2373.511 -1144.21)"/>
            </g>
        </g>
    </g>
</svg>
