<svg xmlns="http://www.w3.org/2000/svg" xmlns:xlink="http://www.w3.org/1999/xlink" width="1706" height="811" viewBox="0 0 1706 811">
    <defs>
        <linearGradient id="linear-gradient" x1=".58" x2=".421" y1=".112" y2=".888" gradientUnits="objectBoundingBox">
            <stop offset="0" stop-color="#89daf4"/>
            <stop offset="1" stop-color="#008dd7"/>
        </linearGradient>
        <linearGradient id="linear-gradient-2" x2="1" y1=".5" y2=".5" gradientUnits="objectBoundingBox">
            <stop offset="0" stop-color="#144188"/>
            <stop offset=".998" stop-color="#1a7cde"/>
        </linearGradient>
        <linearGradient id="linear-gradient-3" x2="1" y1=".5" y2=".5" gradientUnits="objectBoundingBox">
            <stop offset="0" stop-color="#144188"/>
            <stop offset=".998" stop-color="#102465"/>
        </linearGradient>
        <linearGradient id="linear-gradient-4" x1=".521" x2=".485" y1=".177" y2=".729" gradientUnits="objectBoundingBox">
            <stop offset="0" stop-color="#0276ce" stop-opacity="0"/>
            <stop offset=".06" stop-color="#0276ce" stop-opacity=".075"/>
            <stop offset=".812" stop-color="#0276ce"/>
        </linearGradient>
        <linearGradient id="linear-gradient-5" x1=".58" x2=".421" y1=".111" y2=".887" xlink:href="#linear-gradient"/>
        <linearGradient id="linear-gradient-6" x1="0" x2="1" y1=".5" y2=".5" xlink:href="#linear-gradient-2"/>
        <linearGradient id="linear-gradient-7" x1="0" x2="1" y1=".5" y2=".5" xlink:href="#linear-gradient-3"/>
        <linearGradient id="linear-gradient-8" x1=".521" x2=".485" y1=".177" y2=".729" gradientUnits="objectBoundingBox">
            <stop offset="0" stop-color="#006ac6" stop-opacity="0"/>
            <stop offset=".817" stop-color="#006cc7"/>
        </linearGradient>
        <linearGradient id="linear-gradient-9" x1=".579" x2=".421" y1=".111" y2=".887" xlink:href="#linear-gradient"/>
        <linearGradient id="linear-gradient-10" x1="0" x2="1" y1=".5" y2=".5" xlink:href="#linear-gradient-2"/>
        <linearGradient id="linear-gradient-11" x1="0" x2="1" y1=".5" y2=".5" xlink:href="#linear-gradient-3"/>
        <linearGradient id="linear-gradient-12" x1=".516" x2=".489" y1=".177" y2=".729" gradientUnits="objectBoundingBox">
            <stop offset="0" stop-color="#0044ae" stop-opacity="0"/>
            <stop offset=".06" stop-color="#0044ae" stop-opacity=".075"/>
            <stop offset=".812" stop-color="#0044ae"/>
        </linearGradient>
        <linearGradient id="linear-gradient-13" x1=".58" x2=".421" y1=".111" y2=".888" xlink:href="#linear-gradient"/>
        <linearGradient id="linear-gradient-14" x1="0" x2="1" y1=".5" y2=".5" xlink:href="#linear-gradient-2"/>
        <linearGradient id="linear-gradient-15" x1="0" x2="1" y1=".5" y2=".5" xlink:href="#linear-gradient-3"/>
        <linearGradient id="linear-gradient-16" x1=".522" x2=".485" y1=".177" y2=".729" xlink:href="#linear-gradient-4"/>
        <linearGradient id="linear-gradient-17" x1=".503" x2=".496" y1=".08" y2=".805" gradientUnits="objectBoundingBox">
            <stop offset=".037" stop-color="#93fffd" stop-opacity="0"/>
            <stop offset=".622" stop-color="#a5fdfe" stop-opacity=".608"/>
            <stop offset="1" stop-color="#b2fbff"/>
        </linearGradient>
        <linearGradient id="linear-gradient-18" x1=".58" x2=".421" y1=".111" y2=".887" xlink:href="#linear-gradient"/>
        <linearGradient id="linear-gradient-19" x1="0" x2="1" y1=".5" y2=".5" xlink:href="#linear-gradient-2"/>
        <linearGradient id="linear-gradient-20" x2="1" y1=".5" y2=".5" gradientUnits="objectBoundingBox">
            <stop offset="0" stop-color="#0052d3"/>
            <stop offset=".998" stop-color="#102465"/>
            <stop offset="1" stop-color="#102465"/>
        </linearGradient>
        <linearGradient id="linear-gradient-21" x1=".498" x2=".484" y1=".128" y2=".887" xlink:href="#linear-gradient-17"/>
        <linearGradient id="linear-gradient-22" x1=".498" x2=".484" y1=".128" y2=".887" xlink:href="#linear-gradient-17"/>
        <linearGradient id="linear-gradient-25" x1=".55" x2=".435" y1="-.018" y2="1.175" gradientUnits="objectBoundingBox">
            <stop offset="0" stop-color="#cdeffb"/>
            <stop offset="1" stop-color="#89daf4"/>
        </linearGradient>
        <linearGradient id="linear-gradient-26" x1="0" x2="1" y1=".5" y2=".5" xlink:href="#linear-gradient-25"/>
        <linearGradient id="linear-gradient-27" x1=".66" x2=".276" y1=".289" y2=".794" xlink:href="#linear-gradient-2"/>
        <linearGradient id="linear-gradient-28" x1="1.004" x2="-.907" y1=".352" y2=".634" gradientUnits="objectBoundingBox">
            <stop offset=".153" stop-color="#144188"/>
            <stop offset=".998" stop-color="#1a7cde"/>
        </linearGradient>
        <linearGradient id="linear-gradient-29" x1=".66" x2=".276" y1=".289" y2=".794" xlink:href="#linear-gradient-2"/>
        <linearGradient id="linear-gradient-30" x1="1.004" x2="-.907" y1=".352" y2=".634" xlink:href="#linear-gradient-28"/>
        <linearGradient id="linear-gradient-32" x1="1.004" x2="-.907" y1=".352" y2=".634" xlink:href="#linear-gradient-28"/>
        <linearGradient id="linear-gradient-33" x1=".58" x2=".421" y1=".111" y2=".887" xlink:href="#linear-gradient"/>
        <linearGradient id="linear-gradient-34" x1="0" x2="1" y1=".5" y2=".5" xlink:href="#linear-gradient-2"/>
        <linearGradient id="linear-gradient-36" x1=".647" x2=".186" y1="-.012" y2=".855" xlink:href="#linear-gradient-17"/>
        <linearGradient id="linear-gradient-37" x1=".986" x2="-.233" y1=".501" y2=".499" xlink:href="#linear-gradient-2"/>
        <linearGradient id="linear-gradient-38" x1="1.343" x2=".34" y1=".506" y2=".489" xlink:href="#linear-gradient-2"/>
        <linearGradient id="linear-gradient-39" x1=".49" x2=".503" y1=".926" y2=".327" gradientUnits="objectBoundingBox">
            <stop offset="0" stop-color="#0044ae"/>
            <stop offset="1" stop-color="#0044ae" stop-opacity="0"/>
        </linearGradient>
        <linearGradient id="linear-gradient-40" x1=".58" x2=".421" y1=".112" y2=".888" xlink:href="#linear-gradient"/>
        <linearGradient id="linear-gradient-42" x1="0" x2="1" y1=".5" y2=".5" xlink:href="#linear-gradient-3"/>
        <linearGradient id="linear-gradient-43" x1=".647" x2=".186" y1="-.012" y2=".855" xlink:href="#linear-gradient-17"/>
        <linearGradient id="linear-gradient-44" x1=".476" x2=".524" y1=".85" y2=".308" gradientUnits="objectBoundingBox">
            <stop offset="0" stop-color="#0091de"/>
            <stop offset=".643" stop-color="#0099e3" stop-opacity=".357"/>
            <stop offset="1" stop-color="#00a0e8" stop-opacity="0"/>
        </linearGradient>
        <linearGradient id="linear-gradient-45" x1=".58" x2=".421" y1=".111" y2=".887" xlink:href="#linear-gradient"/>
        <linearGradient id="linear-gradient-47" x1="0" x2="1" y1=".5" y2=".5" xlink:href="#linear-gradient-3"/>
        <linearGradient id="linear-gradient-48" x1=".986" x2="-.233" y1=".501" y2=".499" xlink:href="#linear-gradient-2"/>
        <linearGradient id="linear-gradient-49" x1="1.343" x2=".34" y1=".506" y2=".489" xlink:href="#linear-gradient-2"/>
        <linearGradient id="linear-gradient-50" x1=".986" x2="-.233" y1=".501" y2=".499" xlink:href="#linear-gradient-2"/>
        <linearGradient id="linear-gradient-51" x1="1.343" x2=".34" y1=".506" y2=".488" xlink:href="#linear-gradient-2"/>
        <linearGradient id="linear-gradient-53" x1=".58" x2=".421" y1=".111" y2=".887" xlink:href="#linear-gradient"/>
        <linearGradient id="linear-gradient-56" x1=".642" x2=".238" y1=".004" y2="1.418" xlink:href="#linear-gradient-25"/>
        <linearGradient id="linear-gradient-57" x1=".493" x2=".467" y1=".181" y2=".901" xlink:href="#linear-gradient-17"/>
        <linearGradient id="linear-gradient-58" x1=".499" x2=".501" y1=".097" y2=".818" xlink:href="#linear-gradient-17"/>
        <linearGradient id="linear-gradient-60" x1="0" x2="1" y1=".5" y2=".5" xlink:href="#linear-gradient-2"/>
        <linearGradient id="linear-gradient-62" x1=".58" x2=".421" y1=".111" y2=".887" xlink:href="#linear-gradient"/>
        <linearGradient id="linear-gradient-63" x1="0" x2="1" y1=".5" y2=".5" xlink:href="#linear-gradient-2"/>
        <linearGradient id="linear-gradient-64" x1="0" x2="1" y1=".5" y2=".5" xlink:href="#linear-gradient-3"/>
        <linearGradient id="linear-gradient-65" x1=".516" x2=".489" y1=".177" y2=".729" xlink:href="#linear-gradient-12"/>
        <radialGradient id="radial-gradient" cx=".802" cy=".118" r="1.334" gradientTransform="matrix(.667 0 0 1 .167 0)" gradientUnits="objectBoundingBox">
            <stop offset="0" stop-color="#1dc3ff"/>
            <stop offset=".109" stop-color="#00b1f5"/>
            <stop offset=".154" stop-color="#02b6fd"/>
            <stop offset=".393" stop-color="#0495de"/>
            <stop offset=".689" stop-color="#0777d0"/>
            <stop offset=".994" stop-color="#001fcc"/>
            <stop offset="1" stop-color="#0044ae"/>
        </radialGradient>
        <clipPath id="clip-path">
            <path id="Rectangle_2003" d="M0 0H1136V756H0z" transform="translate(-.44)"/>
        </clipPath>
        <style>
            .cls-2{clip-path:url(#clip-path)}.cls-5{fill:url(#linear-gradient-3)}.cls-8{fill:url(#linear-gradient-6)}.cls-27,.cls-46,.cls-52{opacity:.561}.cls-21{fill:url(#linear-gradient-19)}.cls-24{fill:#f45a1c}.cls-26,.cls-46{fill:#a5ffff}.cls-27{fill:url(#linear-gradient-22)}.cls-30{fill:#1a6cbe}.cls-31{fill:#102465}.cls-34{fill:#1a9bdb}.cls-35{fill:#103450}.cls-36{fill:#ffc6a0}.cls-37{fill:#fff}.cls-38{fill:#fdf7fb}.cls-39,.cls-40{fill:#00edf9}.cls-40{opacity:.6}.cls-41{fill:url(#linear-gradient-27)}.cls-47{fill:#b4ffff}.cls-52{fill:url(#linear-gradient-36)}.cls-57{fill:url(#linear-gradient-42)}.cls-61{fill:url(#linear-gradient-45)}.cls-62{fill:url(#linear-gradient-47)}.cls-73{fill:#165da4}.cls-80{fill:#011c63}.cls-81{fill:#fcfefb}
        </style>
    </defs>
    <g id="Group_15217" transform="translate(266)">
        <path id="Rectangle_2002" fill="url(#radial-gradient)" d="M0 0H1706V811H0z" transform="translate(-266)"/>
        <g id="Group_10067" transform="translate(-43.56 -29)">
            <g id="Group_9115" class="cls-2" transform="translate(348 84)">
                <g id="Group_9114" transform="translate(329.866 237.824)">
                    <g id="Group_9113">
                        <g id="Group_9112">
                            <path id="Path_2089" fill="url(#linear-gradient)" d="M259.51 169.863l-20.8 12.068-20.9-12.068 20.9-12.083z" transform="translate(-217.81 -157.78)"/>
                        </g>
                        <path id="Path_2090" fill="url(#linear-gradient-2)" d="M252.415 165.76v407.794l-20.8 12.068V177.828z" transform="translate(-210.715 -153.677)"/>
                        <path id="Path_2091" d="M238.705 177.828v407.794l-20.9-12.068V165.76z" class="cls-5" transform="translate(-217.81 -153.677)"/>
                    </g>
                </g>
                <path id="Path_2092" fill="url(#linear-gradient-4)" d="M238.705 157.78l-20.9 12.083v407.794l20.9 12.068 20.8-12.068V169.863z" transform="translate(112.056 80.044)"/>
            </g>
            <g id="Group_9119" class="cls-2" transform="translate(348 84)">
                <g id="Group_9118" transform="translate(309.667 325.1)">
                    <g id="Group_9117">
                        <g id="Group_9116">
                            <path id="Path_2093" fill="url(#linear-gradient-5)" d="M232.361 223.49l-13.915 8.086-13.976-8.086 13.976-8.07z" transform="translate(-204.47 -215.42)"/>
                        </g>
                        <path id="Path_2094" d="M227.615 220.75v272.791l-13.915 8.07V228.836z" class="cls-8" transform="translate(-199.724 -212.68)"/>
                        <path id="Path_2095" fill="url(#linear-gradient-7)" d="M218.446 228.836v272.776l-13.976-8.07V220.75z" transform="translate(-204.47 -212.68)"/>
                    </g>
                </g>
                <path id="Path_2096" fill="url(#linear-gradient-8)" d="M218.446 215.42l-13.976 8.07v272.792l13.976 8.07 13.915-8.07V223.49z" transform="translate(105.197 109.68)"/>
            </g>
            <g id="Group_9123" class="cls-2" transform="translate(348 84)">
                <g id="Group_9122" transform="translate(75.154 545.259)">
                    <g id="Group_9121">
                        <g id="Group_9120">
                            <path id="Path_2097" fill="url(#linear-gradient-9)" d="M91.29 372.888l-20.8 12.083-20.9-12.083 20.9-12.068z" transform="translate(-49.59 -360.82)"/>
                        </g>
                        <path id="Path_2098" fill="url(#linear-gradient-10)" d="M84.195 368.79v295.928l-20.8 12.068V380.873z" transform="translate(-42.495 -356.722)"/>
                        <path id="Path_2099" fill="url(#linear-gradient-11)" d="M70.485 380.873v295.913l-20.9-12.068V368.79z" transform="translate(-49.59 -356.722)"/>
                    </g>
                </g>
                <path id="Path_2100" fill="url(#linear-gradient-12)" d="M70.485 360.82l-20.9 12.068v295.927l20.9 12.068 20.8-12.068V372.888z" transform="translate(25.564 184.439)"/>
            </g>
            <g id="Group_9127" class="cls-2" transform="translate(348 84)">
                <g id="Group_9126" transform="translate(386.996 312.684)">
                    <g id="Group_9125">
                        <g id="Group_9124">
                            <path id="Path_2101" fill="url(#linear-gradient-13)" d="M281.72 214.806l-13.052 7.571-13.128-7.571 13.128-7.586z" transform="translate(-255.54 -207.22)"/>
                        </g>
                        <path id="Path_2102" fill="url(#linear-gradient-14)" d="M277.262 212.23v256.03l-13.052 7.586V219.8z" transform="translate(-251.082 -204.644)"/>
                        <path id="Path_2103" fill="url(#linear-gradient-15)" d="M268.668 219.8v256.045l-13.128-7.586V212.23z" transform="translate(-255.54 -204.644)"/>
                    </g>
                </g>
                <path id="Path_2104" fill="url(#linear-gradient-16)" d="M268.668 207.22l-13.128 7.586v256.03l13.128 7.586 13.052-7.586v-256.03z" transform="translate(131.456 105.464)"/>
            </g>
            <g id="Group_9158" class="cls-2" transform="translate(348 84)">
                <g id="Group_9131" transform="translate(419.459 62.015)">
                    <path id="Path_2105" fill="url(#linear-gradient-17)" d="M276.98 41.685v599.048L550.649 798.9l272.5-158.185V41.67z" opacity="0.561" transform="translate(-276.98 -41.67)"/>
                    <g id="Group_9130" transform="translate(0 179.156)">
                        <g id="Group_9129">
                            <g id="Group_9128">
                                <path id="Path_2106" fill="url(#linear-gradient-18)" d="M823.153 318.174l-272.5 158.184L276.98 318.174 550.649 159.99z" transform="translate(-276.98 -159.99)"/>
                            </g>
                            <path id="Path_2107" d="M730.224 264.46V660.5L457.72 818.688V422.644z" class="cls-21" transform="translate(-184.051 -106.276)"/>
                            <path id="Path_2108" fill="url(#linear-gradient-20)" d="M550.649 422.644v396.044L276.98 660.519V264.46z" transform="translate(-276.98 -106.276)"/>
                        </g>
                    </g>
                    <path id="Path_2109" fill="#ff9b6d" d="M457.72 443.33l272.5-158.184v-2.7l-272.5 158.188z" transform="translate(-184.051 82.13)"/>
                    <path id="Path_2110" d="M276.98 285.16l273.669 158.17v-2.7L276.98 282.45z" class="cls-24" transform="translate(-276.98 82.13)"/>
                </g>
                <g id="Group_9132" transform="translate(436.706 188.038)">
                    <path id="Path_2111" fill="url(#linear-gradient-21)" d="M443.29 124.9l10.81 76.95 11.508 6.647 11.447-6.647 9.494-76.95z" opacity="0.561" transform="translate(-208.716 -124.9)"/>
                    <path id="Path_2112" d="M450.43 177.977l11.432-6.647 11.523 6.647-11.447 6.647z" class="cls-26" transform="translate(-205.045 -101.028)"/>
                    <path id="Path_2113" d="M288.37 214.19l10.811 76.95 11.508 6.647 11.447-6.647 9.494-76.95z" class="cls-27" transform="translate(-288.37 -78.991)"/>
                    <path id="Path_2114" d="M295.51 267.267l11.432-6.647 11.523 6.647-11.447 6.647z" class="cls-26" transform="translate(-284.699 -55.118)"/>
                    <path id="Path_2115" d="M600.87 214.19l10.811 76.95 11.508 6.647 11.447-6.647 9.494-76.95z" class="cls-27" transform="translate(-127.695 -78.991)"/>
                    <path id="Path_2116" d="M608.01 267.267l11.447-6.647 11.508 6.647-11.447 6.647z" class="cls-26" transform="translate(-124.024 -55.118)"/>
                    <path id="Path_2117" d="M443.29 301.69l10.81 76.95 11.508 6.647 11.447-6.647 9.494-76.95z" class="cls-27" transform="translate(-208.716 -34.001)"/>
                    <path id="Path_2118" d="M450.43 354.767l11.432-6.647 11.523 6.647-11.447 6.647z" class="cls-26" transform="translate(-205.045 -10.129)"/>
                </g>
                <g id="Group_9136" transform="translate(535.277 160.217)">
                    <g id="Group_9133" transform="translate(4.421 2.633)">
                        <path id="Path_2119" fill="url(#linear-gradient-25)" d="M548.8 198.517a7.926 7.926 0 0 1 7.238 0l112.8 65.548c2 1.166 2 3.043 0 4.194L478.194 378.324a7.957 7.957 0 0 1-7.253-.015l-112.8-65.548c-2-1.166-1.984-3.028.03-4.194z" transform="translate(-356.258 -62.31)"/>
                        <path id="Path_2120" fill="#193164" d="M546.7 215.754a1.924 1.924 0 0 1-1.726 0l-7.874-4.573a.531.531 0 0 1 0-1l7.934-4.573a1.924 1.924 0 0 1 1.726 0l7.874 4.573a.531.531 0 0 1 0 1zm-3.467 2a.531.531 0 0 0 0-1l-7.874-4.573a1.924 1.924 0 0 0-1.726 0l-7.934 4.573a.531.531 0 0 0 0 1l7.874 4.573a1.924 1.924 0 0 0 1.726 0zm-11.4 6.587c.485-.288.469-.727 0-1l-7.874-4.573a1.878 1.878 0 0 0-1.726 0l-7.9 4.573c-.485.288-.485.727 0 1l7.874 4.573a1.878 1.878 0 0 0 1.726 0zm45.44-.015a.531.531 0 0 0 0-1l-7.874-4.573a1.924 1.924 0 0 0-1.726 0l-7.934 4.573a.531.531 0 0 0 0 1l7.874 4.573a1.925 1.925 0 0 0 1.726 0zm-37.824 8.722l7.9-4.573c.484-.288.484-.727 0-1l-7.874-4.573a1.877 1.877 0 0 0-1.726 0l-7.9 4.573c-.485.288-.5.742-.015 1.014l7.874 4.573a1.909 1.909 0 0 0 1.743-.016zM558 225.324a1.925 1.925 0 0 0-1.726 0l-7.934 4.573a.531.531 0 0 0 0 1l7.874 4.573a1.924 1.924 0 0 0 1.726 0l7.934-4.573a.531.531 0 0 0 0-1zM509.046 237.5a.531.531 0 0 0 0-1l-7.874-4.573a1.924 1.924 0 0 0-1.726 0l-7.934 4.573a.531.531 0 0 0 0 1l7.874 4.573a1.925 1.925 0 0 0 1.726 0zm7.6 8.722l7.934-4.573a.531.531 0 0 0 0-1l-7.874-4.573a1.924 1.924 0 0 0-1.726 0l-7.934 4.573a.531.531 0 0 0 0 1l7.874 4.573a1.925 1.925 0 0 0 1.727-.003zm-19-2.15a.531.531 0 0 0 0-1l-7.874-4.573a1.924 1.924 0 0 0-1.726 0l-7.934 4.573a.531.531 0 0 0 0 1l7.874 4.573a1.925 1.925 0 0 0 1.726 0zm35.78 4.573a1.924 1.924 0 0 0 1.726 0l7.934-4.573a.531.531 0 0 0 0-1l-7.874-4.573a1.924 1.924 0 0 0-1.726 0l-7.934 4.573a.531.531 0 0 0 0 1zm-37.763-1.423a.531.531 0 0 0 0 1l7.874 4.573a1.924 1.924 0 0 0 1.726 0l7.934-4.573a.531.531 0 0 0 0-1l-7.874-4.573a1.924 1.924 0 0 0-1.726 0zm-9.4 3.422a.531.531 0 0 0 0-1l-7.874-4.573a1.924 1.924 0 0 0-1.726 0l-7.934 4.573a.531.531 0 0 0 0 1l7.874 4.573a1.924 1.924 0 0 0 1.726 0zm35.764 4.588a1.924 1.924 0 0 0 1.726 0l7.934-4.573a.531.531 0 0 0 0-1l-7.874-4.573a1.924 1.924 0 0 0-1.726 0l-7.934 4.573a.531.531 0 0 0 0 1zm62.49-.515c-.485.288-.469.727 0 1l2.362 1.363a1.878 1.878 0 0 0 1.726 0l9.464-5.466a.531.531 0 0 0 0-1l-2.362-1.363a1.925 1.925 0 0 0-1.726 0zm-100.257-.927c-.484.288-.469.727 0 1l7.874 4.573a1.878 1.878 0 0 0 1.726 0l7.919-4.573c.484-.288.469-.727 0-1l-7.874-4.573a1.878 1.878 0 0 0-1.726 0zm28.163-2.135a1.924 1.924 0 0 0-1.726 0l-7.934 4.573a.531.531 0 0 0 0 1l7.874 4.573a1.925 1.925 0 0 0 1.726 0l7.934-4.573a.531.531 0 0 0 0-1zm-39.55 8.706c-.485.288-.469.727 0 1l7.874 4.573a1.878 1.878 0 0 0 1.726 0l7.919-4.573c.484-.288.469-.727 0-1l-7.874-4.573a1.878 1.878 0 0 0-1.726 0zm61.066 2.09c.469-.273.5-.712 0-1l-7.858-4.573a1.878 1.878 0 0 0-1.726 0l-7.934 4.573c-.469.273-.5.712 0 1l7.858 4.573a1.878 1.878 0 0 0 1.726 0zm-70.484 1.363a.531.531 0 0 0 0-1l-7.874-4.573a1.925 1.925 0 0 0-1.726 0l-7.9 4.573c-.485.288-.5.742-.015 1.014l7.874 4.573a1.91 1.91 0 0 0 1.741-.015zm-2 3.134a.531.531 0 0 0 0 1l7.874 4.573a1.924 1.924 0 0 0 1.726 0l7.934-4.573a.531.531 0 0 0 0-1l-7.874-4.573a1.924 1.924 0 0 0-1.726 0zm51.436 6.662a1.878 1.878 0 0 0 1.726 0l7.934-4.573c.469-.273.5-.712 0-1l-7.858-4.573a1.878 1.878 0 0 0-1.726 0l-7.934 4.573c-.469.272-.5.712 0 1zm-60.839-3.225a.531.531 0 0 0 0-1l-7.874-4.573a1.924 1.924 0 0 0-1.726 0l-7.934 4.573a.531.531 0 0 0 0 1l7.874 4.573a1.924 1.924 0 0 0 1.726 0zm37.581-5.587a1.91 1.91 0 0 0-1.741.015l-7.919 4.573c-.485.288-.469.727 0 1l7.874 4.573a1.878 1.878 0 0 0 1.726 0l7.919-4.573c.485-.288.5-.742.015-1.014zm-39.565 8.737a.531.531 0 0 0 0 1l7.874 4.573a1.925 1.925 0 0 0 1.726 0l7.934-4.573a.531.531 0 0 0 0-1l-7.874-4.573a1.924 1.924 0 0 0-1.726 0zm90.759.076c-.485.288-.469.727 0 1l7.874 4.573a1.878 1.878 0 0 0 1.726 0l10.236-5.905a.531.531 0 0 0 0-1l-7.874-4.573a1.924 1.924 0 0 0-1.726 0zm-62.61-2.226a1.924 1.924 0 0 0-1.726 0l-7.919 4.573c-.485.288-.5.742-.015 1.014l7.874 4.573a1.91 1.91 0 0 0 1.741-.015l7.919-4.573a.531.531 0 0 0 0-1zm50.058 7.465c.469-.272.469-.727-.015-1.014l-7.858-4.573a1.878 1.878 0 0 0-1.726 0l-7.934 4.573c-.469.273-.5.712 0 1l7.858 4.573a1.91 1.91 0 0 0 1.741.015zm-89.593 1.257a.531.531 0 0 0 0 1l7.874 4.573a1.925 1.925 0 0 0 1.726 0l7.934-4.573a.531.531 0 0 0 0-1l-7.874-4.573a1.924 1.924 0 0 0-1.726 0zm-9.418 3.437a.531.531 0 0 0 0-1l-7.874-4.573a1.924 1.924 0 0 0-1.726 0l-7.934 4.573a.531.531 0 0 0 0 1l7.874 4.573a1.924 1.924 0 0 0 1.726 0zm37.566-5.572a1.925 1.925 0 0 0-1.726 0l-7.934 4.573a.531.531 0 0 0 0 1l7.874 4.573a1.924 1.924 0 0 0 1.726 0l7.934-4.573a.531.531 0 0 0 0-1zm-29.95 14.294l7.919-4.573c.485-.288.5-.742.015-1.014l-7.874-4.573a1.91 1.91 0 0 0-1.741.015l-7.919 4.573a.531.531 0 0 0 0 1l7.874 4.573a1.924 1.924 0 0 0 1.727-.002zm-19.018-2.135c.484-.288.5-.742.015-1.014l-7.874-4.573a1.91 1.91 0 0 0-1.741.015l-7.919 4.573c-.485.288-.469.727 0 1l7.874 4.573a1.878 1.878 0 0 0 1.726 0zm37.566-5.587a1.924 1.924 0 0 0-1.726 0l-7.934 4.573a.531.531 0 0 0 0 1l7.874 4.573a1.924 1.924 0 0 0 1.726 0l7.934-4.573a.531.531 0 0 0 0-1zm50.058 7.465c.469-.273.469-.727-.015-1.014l-7.858-4.573a1.878 1.878 0 0 0-1.726 0l-7.934 4.573c-.469.273-.5.712 0 1l7.859 4.573a1.909 1.909 0 0 0 1.741.015zm-89.586 1.255c-.485.288-.469.727 0 1l7.874 4.573a1.878 1.878 0 0 0 1.726 0l7.919-4.573c.485-.288.469-.727 0-1l-7.874-4.573a1.878 1.878 0 0 0-1.726 0zm26.362 8.01a1.924 1.924 0 0 0 1.726 0l7.934-4.573a.531.531 0 0 0 0-1l-7.874-4.573a1.924 1.924 0 0 0-1.726 0l-7.934 4.573a.531.531 0 0 0 0 1zm-9.615-3.573a1.91 1.91 0 0 0-1.741.015l-7.919 4.573c-.485.288-.469.727 0 1l7.874 4.573a1.878 1.878 0 0 0 1.726 0l7.919-4.573c.485-.288.5-.742.015-1.015zm50.043 7.48c.485-.288.469-.727-.015-1.014l-7.858-4.573a1.834 1.834 0 0 0-1.726 0l-7.919 4.573c-.485.288-.515.727-.015 1.014l7.859 4.573a1.9 1.9 0 0 0 1.756 0zm-112.31 1.256a.531.531 0 0 0 0 1l7.874 4.573a1.924 1.924 0 0 0 1.726 0l15.111-8.722a.531.531 0 0 0 0-1l-7.874-4.573a1.925 1.925 0 0 0-1.726 0zm49.074 8.01a1.91 1.91 0 0 0 1.741-.015l7.9-4.573a.531.531 0 0 0 0-1l-7.874-4.573a1.924 1.924 0 0 0-1.726 0l-7.919 4.573c-.484.288-.5.742-.015 1.014zm55.449-2.771c-.485.288-.5.742-.015 1.015l7.874 4.573a1.91 1.91 0 0 0 1.741-.015l62.443-36.049a.531.531 0 0 0 0-1l-7.874-4.573a1.925 1.925 0 0 0-1.726 0zm-93.212 1.333a.531.531 0 0 0 0 1l7.874 4.573a1.924 1.924 0 0 0 1.726 0l7.934-4.573a.531.531 0 0 0 0-1l-7.874-4.573a1.924 1.924 0 0 0-1.726 0zm51.436 6.662a1.878 1.878 0 0 0 1.726 0l7.9-4.573c.484-.288.515-.727.015-1.015l-7.859-4.573a1.865 1.865 0 0 0-1.741.015l-7.919 4.573c-.469.273-.5.712 0 1zm26.77-1.333c.469-.273.469-.727-.015-1.014l-7.858-4.573a1.878 1.878 0 0 0-1.726 0l-7.934 4.573c-.469.273-.5.712 0 1l7.874 4.573a1.909 1.909 0 0 0 1.741.015zm-66.881 1.262a.531.531 0 0 0 0 1l7.874 4.573a1.925 1.925 0 0 0 1.726 0l15.111-8.722a.531.531 0 0 0 0-1l-7.874-4.573a1.925 1.925 0 0 0-1.726 0zm68.168 0c-.485.288-.469.727 0 1l7.874 4.573a1.878 1.878 0 0 0 1.726 0l10.236-5.905a.531.531 0 0 0 0-1l-7.874-4.573a1.924 1.924 0 0 0-1.726 0zm-45.516 13.158c-.469.273-.5.712 0 1l7.858 4.573a1.909 1.909 0 0 0 1.741.015l23.242-13.415c.469-.273.469-.727-.015-1.015l-7.858-4.573a1.878 1.878 0 0 0-1.726 0zm22.712 0a.531.531 0 0 0 0 1l7.874 4.573a1.924 1.924 0 0 0 1.726 0l7.934-4.573a.531.531 0 0 0 0-1l-7.874-4.573a1.924 1.924 0 0 0-1.726 0zm127.568-115a.531.531 0 0 0 0-1l-7.874-4.573a1.924 1.924 0 0 0-1.726 0l-15.111 8.715c-.485.288-.469.727 0 1l7.874 4.573a1.878 1.878 0 0 0 1.726 0zm-45.516 13.158a.531.531 0 0 0 0-1l-7.874-4.573a1.924 1.924 0 0 0-1.726 0l-7.934 4.573a.531.531 0 0 0 0 1l7.874 4.573a1.925 1.925 0 0 0 1.726 0zm7.616 8.722l7.934-4.573a.531.531 0 0 0 0-1l-7.874-4.573a1.924 1.924 0 0 0-1.726 0l-7.934 4.573a.531.531 0 0 0 0 1l7.874 4.573a1.924 1.924 0 0 0 1.727-.005zm60.536-8.722c.469-.273.5-.712 0-1l-7.858-4.573a1.878 1.878 0 0 0-1.726 0l-16.989 9.812c-.469.273-.5.712 0 1l7.858 4.573a1.878 1.878 0 0 0 1.726 0zm-43.759 11.144a1.878 1.878 0 0 0 1.726 0l7.919-4.573c.485-.288.469-.727 0-1l-7.87-4.577a1.878 1.878 0 0 0-1.726 0l-7.9 4.573c-.484.288-.484.727 0 1zm23.318.651c.469-.273.5-.712 0-1l-7.858-4.573a1.878 1.878 0 0 0-1.726 0l-7.934 4.573c-.469.273-.5.712 0 1l7.858 4.573a1.878 1.878 0 0 0 1.726 0zm-.409 2.256c-.469.273-.5.712 0 1l7.828 4.542a1.924 1.924 0 0 0 1.726 0l22.591-13.037a.531.531 0 0 0 0-1l-7.828-4.542a1.878 1.878 0 0 0-1.726 0zm-11.008 4.331c.485-.288.5-.712 0-1l-7.859-4.573a1.834 1.834 0 0 0-1.726 0l-7.919 4.573c-.484.288-.5.712 0 1l7.859 4.573a1.834 1.834 0 0 0 1.726 0zm22.41 2.286c-.485.288-.469.727 0 1l2.332 1.363a1.909 1.909 0 0 0 1.741.015l9.464-5.466c.469-.273.469-.727-.015-1.014l-2.332-1.363a1.925 1.925 0 0 0-1.726 0zm-7.677 10.629c-.485.288-.469.727 0 1l2.332 1.363a1.909 1.909 0 0 0 1.741.015L585 259.12c.469-.273.469-.727-.015-1.014l-2.332-1.363a1.924 1.924 0 0 0-1.726 0zm26.119-15.051c-.485.288-.469.727 0 1l2.332 1.363a1.909 1.909 0 0 0 1.741.015l9.464-5.466c.469-.273.469-.727-.015-1.015l-2.332-1.363a1.924 1.924 0 0 0-1.726 0zm-23.756 5.338a.531.531 0 0 0 0-1l-7.828-4.542a1.878 1.878 0 0 0-1.726 0l-7.934 4.573c-.469.273-.5.712 0 1l7.828 4.542a1.925 1.925 0 0 0 1.726 0zm-28.481 3.377c.469-.273.5-.712 0-1l-7.859-4.573a1.878 1.878 0 0 0-1.726 0l-7.919 4.573c-.484.288-.515.727-.015 1.014l7.858 4.573a1.865 1.865 0 0 0 1.741-.015zm-70.5 1.363c.485-.288.5-.742.015-1.014l-7.874-4.573a1.91 1.91 0 0 0-1.741.015l-7.919 4.573c-.485.288-.469.727 0 1l7.874 4.573a1.878 1.878 0 0 0 1.726 0zm77.964 6.435a1.91 1.91 0 0 0 1.741.015l7.646-4.421.227-.182a.531.531 0 0 0 0-1l-7.828-4.542a1.878 1.878 0 0 0-1.726 0l-7.934 4.573c-.469.272-.5.712 0 1zm-51.784-5.451a1.925 1.925 0 0 0-1.726 0l-7.934 4.573a.531.531 0 0 0 0 1l7.874 4.573a1.925 1.925 0 0 0 1.726 0l7.939-4.57a.531.531 0 0 0 0-1zm40.379 12.04a1.909 1.909 0 0 0 1.741.015l7.919-4.573c.484-.288.5-.742 0-1.014l-7.859-4.573a1.864 1.864 0 0 0-1.741.015l-7.919 4.573c-.484.288-.5.712 0 1zm13.128-4.573c-.484.288-.469.727 0 1l7.874 4.573a1.878 1.878 0 0 0 1.726 0l7.843-4.527c.485-.288.5-.742.015-1.014l-7.874-4.573a1.91 1.91 0 0 0-1.741.015zm-14.854 6.587c.484-.288.469-.727-.015-1.014l-7.859-4.573a1.834 1.834 0 0 0-1.726 0l-7.919 4.573c-.484.288-.515.727-.015 1.014l7.86 4.573a1.9 1.9 0 0 0 1.756 0zm-38.172 7.9a1.878 1.878 0 0 0 1.726 0l7.934-4.573c.469-.273.5-.712 0-1l-7.858-4.573a1.878 1.878 0 0 0-1.726 0l-7.934 4.573c-.469.272-.5.712 0 1zm-60.839-3.21a.531.531 0 0 0 0-1l-7.874-4.573a1.924 1.924 0 0 0-1.726 0l-7.934 4.573a.531.531 0 0 0 0 1l7.874 4.573a1.924 1.924 0 0 0 1.726 0zm49.437 9.8a1.878 1.878 0 0 0 1.726 0l7.919-4.573c.484-.288.515-.727.015-1.014l-7.858-4.573a1.865 1.865 0 0 0-1.741.015l-7.919 4.573c-.469.273-.5.712 0 1zm26.785-1.333c.469-.272.469-.727-.015-1.014l-7.858-4.573a1.878 1.878 0 0 0-1.726 0l-7.934 4.573c-.469.273-.5.712 0 1l7.859 4.573a1.91 1.91 0 0 0 1.741.015zm-38.185 7.92a1.865 1.865 0 0 0 1.741-.015l7.919-4.573c.484-.288.5-.712 0-1l-7.86-4.567a1.834 1.834 0 0 0-1.726 0l-7.9 4.573c-.485.288-.515.727-.015 1.014zm-11.4 6.572a1.878 1.878 0 0 0 1.726 0l7.934-4.573c.469-.273.5-.712 0-1l-7.858-4.573a1.878 1.878 0 0 0-1.726 0l-7.934 4.573c-.469.272-.5.712 0 1zm-60.839-3.21a.531.531 0 0 0 0-1l-7.874-4.573a1.924 1.924 0 0 0-1.726 0l-7.919 4.573c-.485.288-.5.742-.015 1.015l7.873 4.568a1.909 1.909 0 0 0 1.741-.015zm87.624 1.878c.485-.288.5-.742 0-1.014l-7.858-4.573a1.864 1.864 0 0 0-1.741.015l-7.9 4.573c-.485.288-.5.712 0 1l7.858 4.573a1.909 1.909 0 0 0 1.741.015zm-79.993 6.829l7.919-4.573a.531.531 0 0 0 0-1l-7.874-4.573a1.924 1.924 0 0 0-1.726 0l-7.919 4.573c-.485.288-.5.742-.015 1.015l7.874 4.573a1.91 1.91 0 0 0 1.742-.016zm41.821 1.09a1.878 1.878 0 0 0 1.726 0l7.934-4.573c.469-.273.5-.712 0-1l-7.859-4.573a1.878 1.878 0 0 0-1.726 0l-7.934 4.573c-.469.273-.5.712 0 1zm-54.964 5.5a1.924 1.924 0 0 0 1.726 0l7.934-4.573a.531.531 0 0 0 0-1l-7.874-4.573a1.925 1.925 0 0 0-1.726 0l-7.934 4.573a.531.531 0 0 0 0 1zm53.223-3.5c.469-.272.5-.712 0-1l-7.859-4.573a1.878 1.878 0 0 0-1.726 0l-7.934 4.573c-.469.273-.5.712 0 1l7.858 4.573a1.878 1.878 0 0 0 1.726 0zm7.45 7.813a1.909 1.909 0 0 0 1.741.015l7.934-4.573c.469-.273.469-.727-.015-1.015l-7.859-4.573a1.878 1.878 0 0 0-1.726 0l-7.934 4.573c-.469.273-.5.712 0 1zm-57.281 9.857c-.469.272-.5.712 0 1l7.859 4.573a1.878 1.878 0 0 0 1.726 0l17.443-10.069c.485-.288.5-.712 0-1l-7.859-4.573a1.834 1.834 0 0 0-1.726 0zm45.455-.015c-.485.288-.5.742-.015 1.014l7.874 4.573a1.909 1.909 0 0 0 1.741-.015l7.919-4.573a.531.531 0 0 0 0-1l-7.874-4.573a1.925 1.925 0 0 0-1.726 0zm32.252-2.483a1.106 1.106 0 0 0-.015 2.09l23.667 13.746a4.009 4.009 0 0 0 3.619 0l42.487-24.454c1.014-.591 1-1.514.015-2.09l-23.666-13.748a3.963 3.963 0 0 0-3.619 0zm-55.055 15.641a.531.531 0 0 0 0 1l7.874 4.573a1.924 1.924 0 0 0 1.726 0l7.934-4.573a.531.531 0 0 0 0-1l-7.874-4.573a1.924 1.924 0 0 0-1.726 0z" transform="translate(-349.378 -58.319)"/>
                        <path id="Path_2121" d="M548.825 109.015c3.013-1.741 5.451-.348 5.466 3.119l.378 132.565-197.9 114.259-.379-132.565a11.982 11.982 0 0 1 5.421-9.4z" class="cls-30" transform="translate(-356.39 -108.265)"/>
                        <path id="Path_2122" d="M670.344 242.9a2.55 2.55 0 0 1-1.514 2.1L478.182 355.069a7.957 7.957 0 0 1-7.253-.015l-112.8-65.548a2.632 2.632 0 0 1-.3-.227c-.121-.091-.257-.182-.363-.273a2.312 2.312 0 0 1-.409-.454.151.151 0 0 0-.061-.076 2.311 2.311 0 0 1-.242-.469c0-.015-.015-.03-.015-.061a1.56 1.56 0 0 1-.091-.53l.03 8.343v.045a1.859 1.859 0 0 0 .03.288 1.413 1.413 0 0 0 .061.2c0 .015.015.03.015.061a.056.056 0 0 0 .015.045 1.235 1.235 0 0 0 .136.288l.091.136a1980.014 1980.014 0 0 0 .121.151 3.306 3.306 0 0 0 .318.348c.015.015.03.015.03.03.106.091.242.182.363.273.091.061.151.121.242.182a.115.115 0 0 0 .061.03l112.805 65.548a8 8 0 0 0 7.253.015L668.86 253.333a2.5 2.5 0 0 0 1.5-2.1z" class="cls-30" transform="translate(-356.261 -39.04)"/>
                    </g>
                    <g id="Group_9135">
                        <g id="Group_9134" transform="translate(13.491 15.905)">
                            <path id="Path_2123" d="M542.141 117.03l.333 117.953-179.761 103.8-.333-117.968z" class="cls-31" transform="translate(-362.38 -117.03)"/>
                        </g>
                        <path id="Path_2124" fill="#00154f" d="M542.156 120.77l-.015-3.74L362.38 220.811l.015 3.74z" transform="translate(-348.889 -101.125)"/>
                        <path id="Path_2125" fill="url(#linear-gradient-26)" d="M551.522 109.379a5 5 0 0 1 .893-.2.114.114 0 0 0 .076-.015 2.808 2.808 0 0 1 .878.045.056.056 0 0 1 .045.015 2.366 2.366 0 0 1 .787.3l-4.391-2.619c-.015 0-.015-.015-.03-.015l-.273-.136a1.61 1.61 0 0 0-.288-.106c-.061-.015-.136-.03-.2-.045a.056.056 0 0 1-.046-.015c-.015 0-.045-.015-.061-.015-.106-.015-.212-.03-.333-.045a2.909 2.909 0 0 0-.363 0c-.045 0-.076.015-.121.015a.113.113 0 0 0-.076.015c-.076 0-.136.015-.212.015-.151.03-.318.061-.484.106a1.188 1.188 0 0 0-.212.076c-.061.015-.121.045-.2.061-.076.03-.167.045-.242.076a7.051 7.051 0 0 0-.757.379L358.906 215.249a7.377 7.377 0 0 0-1.03.712l-.318.273c-.166.136-.333.273-.485.424a2.787 2.787 0 0 1-.212.212 2.323 2.323 0 0 0-.182.2c-.076.076-.136.151-.212.227a5.291 5.291 0 0 0-.439.545 1.7 1.7 0 0 1-.151.2.641.641 0 0 0-.076.106 2.217 2.217 0 0 0-.136.2c-.106.151-.212.318-.318.469-.091.151-.2.3-.288.454a.056.056 0 0 0-.015.045.053.053 0 0 1-.015.03c-.076.121-.151.257-.212.379a4.488 4.488 0 0 0-.227.469c-.076.136-.136.288-.2.424a.015.015 0 0 1-.015.015c0 .015 0 .015-.015.03-.076.167-.136.318-.2.485s-.121.348-.182.515c-.03.091-.045.167-.076.257a.281.281 0 0 0-.03.106c-.015.061-.045.121-.061.182-.061.212-.106.424-.151.621a3.279 3.279 0 0 0-.06.379.883.883 0 0 0-.03.2.759.759 0 0 0-.03.182 8.513 8.513 0 0 0-.076 1.06l.363 128.931a6.309 6.309 0 0 0 3.173 5.453l1.242.787-.378-132.565a6.994 6.994 0 0 1 .106-1.242c.015-.061.015-.136.03-.2a9.016 9.016 0 0 1 .273-1.2c.015-.03.015-.076.03-.106.136-.424.288-.863.469-1.287a.015.015 0 0 1 .015-.015q.3-.659.636-1.272a.053.053 0 0 1 .015-.03 11.83 11.83 0 0 1 .757-1.166.641.641 0 0 0 .076-.106 12.151 12.151 0 0 1 .8-.954c.061-.061.121-.136.182-.2q.341-.341.681-.636c.106-.091.212-.2.318-.273a9.577 9.577 0 0 1 1.03-.712L550.3 109.894a7.305 7.305 0 0 1 1-.469.463.463 0 0 0 .222-.046z" transform="translate(-353.47 -106.526)"/>
                    </g>
                </g>
                <g id="Group_9141" transform="translate(804.955 323.827)">
                    <g id="Group_9140">
                        <g id="Group_9139" transform="translate(0 1.663)">
                            <path id="Path_2126" d="M558.566 276.923c-6.193-3.573-16.217-3.589-22.379-.015-6.193 3.589-6.132 9.4.076 12.976 6.193 3.573 16.2 3.573 22.379-.015 6.158-3.589 6.117-9.369-.076-12.946z" class="cls-34" transform="translate(-531.574 -185.569)"/>
                            <g id="Group_9138" transform="translate(4.344)">
                                <g id="Group_9137">
                                    <path id="Path_2127" d="M540.208 285.19s-5.6-3.649-5.754-4.527 1.211-1.847 2.15-1.8c.939.03 4.906.363 4.906.363l1.272 1.438s2.271 5.419-2.574 4.526z" class="cls-35" transform="translate(-534.442 -183.191)"/>
                                    <path id="Path_2128" d="M548.308 282.17s-5.6-3.649-5.754-4.527 1.211-1.847 2.15-1.8c.939.03 4.906.363 4.906.363l1.272 1.439c0-.018 2.271 5.418-2.574 4.525z" class="cls-35" transform="translate(-530.278 -184.744)"/>
                                    <path id="Path_2129" d="M537.087 250.48l-.167 46.12a5.65 5.65 0 0 0 5.512-.121s5.224-39.838 5.315-40.792c.076-.878.742 36.37.742 36.37s3.24 1.862 5.693-.666l2.907-44.123z" class="cls-35" transform="translate(-533.168 -199.433)"/>
                                    <path id="Path_2130" d="M548.4 241.685l.318 8.116s6.359-3.361 6.208-8.282c-.03-1.105-2.135-8.161-2.6-9.948-2.154 1.15-2.291 8.387-3.926 10.114z" class="cls-36" transform="translate(-527.266 -207.506)"/>
                                    <path id="Path_2131" d="M541.911 227.234a14.52 14.52 0 0 0-5.421 3.013l.818 31.449s3.967 2.907 12.083.787c6.617-1.726 8.343-4.512 8.343-4.512s-.151-14.581-.772-20.956a49.178 49.178 0 0 0-2.453-11.265 18.857 18.857 0 0 0-4.618-.257z" class="cls-24" transform="translate(-533.39 -210.65)"/>
                                    <path id="Path_2132" d="M547.844 230.339l.182-6.148a1.447 1.447 0 0 0 1.287-1.817c-.273-1.7-1.847-.575-2.135-.076 0 0-.363-5.83-3.452-6.39s-4.376-.106-4.452 1.393-.182 6.768 0 8.722 0 2.968 2.816 2.892l.242 2.044s1.287 1.2 5.239.227z" class="cls-36" transform="translate(-532.009 -215.677)"/>
                                </g>
                            </g>
                        </g>
                        <path id="Path_2133" d="M540.07 227.552c.015-1.2.212-1.847 3-2.165s5.057-1.06 5.345 0-.273 1.726-3.074 1.968c-2.788.227-5.271.197-5.271.197z" class="cls-37" transform="translate(-527.205 -209.305)"/>
                        <path id="Path_2134" d="M544.357 223.12a.944.944 0 0 0-.53-1.242 1.036 1.036 0 0 0-1.045.439 8.059 8.059 0 0 0-1.015 2.09c-.288-.242-.575-.485-.878-.712.015-.182.03-.363.03-.56a4.56 4.56 0 0 0-.045-1.363c-.227-.939-1.211-1.09-1.681-1.787a2.991 2.991 0 0 1 .242-3.195 5.159 5.159 0 0 1 2.741-1.923c3.679-1.211 9.191 1.5 8.116 5.981-.621 2.574-1.514 5.072-2.18 7.616-.091.333-.848.469-1.181.363a2.5 2.5 0 0 1-.863-.56 13.65 13.65 0 0 1-2.953-3.876c.061.168 1.185-1.074 1.242-1.271z" class="cls-35" transform="translate(-527.843 -214.579)"/>
                    </g>
                    <path id="Path_2135" d="M536.837 252.25a.916.916 0 0 0 .757.787c.454.015.742-.454.939-.863.121-.257.257-.515.378-.772a1.2 1.2 0 0 0 .182-.666c-.03-.227-.166-.424-.182-.651-.015-.439.454-.742.576-1.151.151-.5-.227-.984-.576-1.363a3.9 3.9 0 0 0-.772-.727c-1.181-.757-2.256.591-2.029 1.756.106.515.454.984.606 1.5a20.455 20.455 0 0 1 .121 2.15z" class="cls-36" transform="translate(-529.257 -198.102)"/>
                    <path id="Path_2136" d="M538.882 258.1s-6.859-10.508-7.041-12.87c-.2-2.347 5.663-14.687 5.663-14.687l4.512 5.027-5.088 9.145 2.877 10.19z" class="cls-36" transform="translate(-531.438 -206.373)"/>
                    <path id="Path_2137" d="M539.959 242.141a15.951 15.951 0 0 0 1.105-3.831c.575-5.194-2.816-9.691-2.816-9.691-1.287.575-3.346 4.86-5.178 9.615 2.241 1.409 4.542 2.696 6.889 3.907z" class="cls-37" transform="translate(-530.804 -207.36)"/>
                    <path id="Path_2138" d="M553.609 236.027c-1.741-5.042-4.028-9.978-5.209-10.387l.5 13.128c1.514-.984 3.149-1.848 4.709-2.741z" class="cls-37" transform="translate(-522.922 -208.892)"/>
                </g>
                <g id="Group_9144" transform="translate(566.136 215.459)">
                    <g id="Group_9143">
                        <g id="Group_9142">
                            <path id="Path_2139" d="M379.165 187.809a11.741 11.741 0 0 0-5.315 9.206c.015 3.377 2.408 4.754 5.345 3.059a11.784 11.784 0 0 0 5.33-9.221c-.015-3.392-2.423-4.739-5.36-3.043" class="cls-24" transform="translate(-373.85 -120.352)"/>
                            <path id="Path_2140" d="M437.879 164.316L385.1 194.8a2.528 2.528 0 0 0-1.136 1.968v.212c0 .727.515 1.014 1.151.651l52.784-30.48a2.488 2.488 0 0 0 1.136-1.968v-.212c-.015-.727-.515-1.03-1.151-.651" class="cls-38" transform="translate(-368.652 -132.139)"/>
                            <path id="Path_2141" d="M398.173 184.123l-13.067 7.541a2.528 2.528 0 0 0-1.136 1.968v.2c0 .727.515 1.03 1.151.666l13.067-7.541a2.532 2.532 0 0 0 1.136-1.984v-.2c-.015-.727-.53-1.014-1.151-.651" class="cls-38" transform="translate(-368.647 -121.951)"/>
                            <path id="Path_2142" d="M431.757 169.017L396.976 189.1a2.753 2.753 0 0 0-1.226 2.12c0 .772.56 1.09 1.242.712l34.78-20.078a2.737 2.737 0 0 0 1.211-2.12c0-.787-.56-1.105-1.226-.712" class="cls-38" transform="translate(-362.59 -129.724)"/>
                            <path id="Path_2143" d="M392.242 191.057l-7.026 4.058a2.716 2.716 0 0 0-1.226 2.135c0 .787.545 1.105 1.242.712l7.026-4.058a2.672 2.672 0 0 0 1.211-2.12c-.015-.8-.56-1.12-1.226-.727" class="cls-38" transform="translate(-368.636 -118.392)"/>
                            <path id="Path_2144" d="M379.215 206.169a11.741 11.741 0 0 0-5.315 9.206c.015 3.377 2.408 4.739 5.345 3.043a11.78 11.78 0 0 0 5.33-9.206c-.015-3.392-2.423-4.739-5.36-3.043" class="cls-24" transform="translate(-373.824 -110.912)"/>
                            <path id="Path_2145" d="M437.929 182.676l-52.784 30.48a2.528 2.528 0 0 0-1.136 1.968v.212c0 .727.515 1.014 1.151.651l52.784-30.48a2.487 2.487 0 0 0 1.136-1.968v-.212c-.015-.727-.515-1.03-1.151-.651" class="cls-38" transform="translate(-368.626 -122.699)"/>
                            <path id="Path_2146" d="M398.223 202.484l-13.067 7.54a2.528 2.528 0 0 0-1.136 1.968v.2c0 .727.515 1.014 1.151.651l13.067-7.541a2.528 2.528 0 0 0 1.136-1.968v-.2c0-.742-.515-1.014-1.151-.651" class="cls-38" transform="translate(-368.621 -112.512)"/>
                            <path id="Path_2147" d="M431.807 187.365l-34.78 20.078a2.753 2.753 0 0 0-1.226 2.12c0 .787.56 1.09 1.242.712l34.78-20.078a2.713 2.713 0 0 0 1.211-2.12c0-.787-.545-1.09-1.227-.712" class="cls-38" transform="translate(-362.564 -120.287)"/>
                            <path id="Path_2148" d="M392.292 209.4l-7.026 4.058a2.711 2.711 0 0 0-1.227 2.12c0 .787.545 1.105 1.242.712l7.026-4.058a2.673 2.673 0 0 0 1.211-2.12c0-.772-.56-1.09-1.226-.712" class="cls-38" transform="translate(-368.611 -108.954)"/>
                            <path id="Path_2149" d="M379.265 224.531a11.741 11.741 0 0 0-5.315 9.206c.015 3.377 2.408 4.739 5.345 3.043a11.78 11.78 0 0 0 5.33-9.206c-.015-3.392-2.407-4.754-5.36-3.043" class="cls-24" transform="translate(-373.799 -101.474)"/>
                            <path id="Path_2150" d="M437.979 201.022L385.2 231.5a2.528 2.528 0 0 0-1.136 1.968v.212c0 .727.515 1.014 1.151.651l52.784-30.48a2.488 2.488 0 0 0 1.136-1.968v-.212c0-.712-.515-1.014-1.151-.651" class="cls-38" transform="translate(-368.6 -113.261)"/>
                            <path id="Path_2151" d="M398.273 220.833l-13.067 7.541a2.532 2.532 0 0 0-1.136 1.984v.2c0 .727.515 1.014 1.151.651l13.067-7.54a2.528 2.528 0 0 0 1.136-1.968v-.2c0-.742-.515-1.03-1.151-.666" class="cls-38" transform="translate(-368.595 -103.076)"/>
                            <path id="Path_2152" d="M431.857 205.716l-34.78 20.078a2.753 2.753 0 0 0-1.226 2.12c0 .787.56 1.09 1.242.712l34.78-20.078a2.673 2.673 0 0 0 1.211-2.12c0-.772-.545-1.105-1.227-.712" class="cls-38" transform="translate(-362.538 -110.853)"/>
                            <path id="Path_2153" d="M392.342 227.767l-7.026 4.058a2.711 2.711 0 0 0-1.226 2.12c0 .787.545 1.105 1.242.712l7.026-4.058a2.673 2.673 0 0 0 1.211-2.12c0-.787-.545-1.105-1.227-.712" class="cls-38" transform="translate(-368.585 -99.517)"/>
                            <path id="Path_2154" d="M451.42 147.341l.03 11.371c11.962-6.9 21.7-1.348 21.743 12.386l9.887-5.708c-.045-20.032-14.218-28.118-31.661-18.049" class="cls-39" transform="translate(-333.966 -143.009)"/>
                            <path id="Path_2155" d="M462.1 145.87c-17.428 10.069-31.51 34.462-31.464 54.495.03 10.024 3.573 17.049 9.312 20.32l6.965-12.083c-3.937-2.226-6.375-7.056-6.39-13.945-.045-13.733 9.63-30.5 21.592-37.415l-.015-11.372" class="cls-38" transform="translate(-344.651 -141.539)"/>
                            <path id="Path_2156" d="M490.593 157.78l-9.888 5.708c.045 13.749-9.63 30.51-21.592 37.415-6 3.452-11.4 3.785-15.338 1.544l-6.965 12.083c5.724 3.255 13.627 2.771 22.349-2.271 17.413-10.039 31.495-34.447 31.434-54.48" class="cls-24" transform="translate(-341.478 -135.415)"/>
                            <path id="Path_2157" d="M439.983 219.4l-57.417 33.145a2.487 2.487 0 0 0-1.136 1.968v.212c0 .727.5 1.014 1.151.651L440 222.235a2.531 2.531 0 0 0 1.151-1.984v-.212c-.015-.712-.53-1-1.166-.636" class="cls-38" transform="translate(-369.953 -103.812)"/>
                            <path id="Path_2158" d="M377.341 244.753l-2.2 1.272a2.528 2.528 0 0 0-1.136 1.968v.212c0 .727.515 1.014 1.151.651l2.2-1.272a2.528 2.528 0 0 0 1.136-1.968v-.216c-.015-.727-.53-1.015-1.151-.651" class="cls-24" transform="translate(-373.768 -90.777)"/>
                            <path id="Path_2159" d="M490.428 190.3l-57.417 33.14a2.531 2.531 0 0 0-1.151 1.984v.212c0 .727.515 1.014 1.151.651l57.417-33.145a2.487 2.487 0 0 0 1.136-1.968v-.212c0-.742-.5-1.045-1.135-.666" class="cls-38" transform="translate(-344.023 -118.781)"/>
                            <path id="Path_2160" d="M427.771 215.632l-2.2 1.272a2.488 2.488 0 0 0-1.136 1.968v.212c0 .727.5 1.014 1.151.651l2.2-1.272a2.488 2.488 0 0 0 1.136-1.968v-.212c-.015-.712-.515-1.014-1.151-.651" class="cls-24" transform="translate(-347.839 -105.749)"/>
                        </g>
                    </g>
                </g>
                <g id="Group_9147" transform="translate(511.657 138.767)">
                    <g id="Group_9146">
                        <g id="Group_9145">
                            <path id="Path_2161" d="M397.725 125.505l7.329-8.343c-.015-.2-.045-.409-.045-.621a9.3 9.3 0 0 1 4.24-7.329c2.347-1.348 4.255-.257 4.255 2.423a9.3 9.3 0 0 1-4.24 7.329 2.975 2.975 0 0 1-3.044.273l-7.329 8.343a4.132 4.132 0 0 1 .045.621 9.3 9.3 0 0 1-4.24 7.329 4.6 4.6 0 0 1-1.348.53l-9.706 20.683a3.334 3.334 0 0 1 .772 2.347 9.3 9.3 0 0 1-4.24 7.329c-2.347 1.348-4.255.257-4.255-2.423a7.868 7.868 0 0 1 .485-2.559l-9.009-5.512a7.893 7.893 0 0 1-1.832 1.544 3.886 3.886 0 0 1-1.832.575l-8.949 15.884a3.66 3.66 0 0 1 .5 1.984 9.3 9.3 0 0 1-4.24 7.329c-2.347 1.348-4.255.257-4.255-2.423a9.3 9.3 0 0 1 4.24-7.329 3.937 3.937 0 0 1 1.832-.575l8.949-15.884a3.661 3.661 0 0 1-.5-1.984 9.3 9.3 0 0 1 4.24-7.329c2.347-1.348 4.255-.257 4.255 2.423a7.709 7.709 0 0 1-.485 2.544l9.009 5.512a7.537 7.537 0 0 1 1.832-1.544 4.6 4.6 0 0 1 1.348-.53l9.706-20.668a3.375 3.375 0 0 1-.772-2.362 9.383 9.383 0 0 1 4.24-7.329 3.039 3.039 0 0 1 3.043-.257m22.561-32.872l-80.447 46.454a4.376 4.376 0 0 0-1.968 3.422l.167 56.191c0 1.257.893 1.756 1.984 1.136l80.447-46.454a4.392 4.392 0 0 0 1.984-3.422l-.166-56.19c-.015-1.257-.909-1.772-2-1.136" class="cls-40" transform="translate(-337.87 -92.36)"/>
                            <path id="Path_2162" d="M406.209 103.676A9.336 9.336 0 0 0 401.97 111a4.14 4.14 0 0 0 .045.621l-7.329 8.343a2.976 2.976 0 0 0-3.043.273 9.337 9.337 0 0 0-4.24 7.329 3.375 3.375 0 0 0 .772 2.362L378.47 150.6a4.6 4.6 0 0 0-1.348.53 7.012 7.012 0 0 0-1.832 1.544l-9.009-5.512a7.782 7.782 0 0 0 .485-2.544c-.015-2.7-1.923-3.785-4.255-2.423a9.4 9.4 0 0 0-4.24 7.329 3.661 3.661 0 0 0 .5 1.984l-8.949 15.884a3.886 3.886 0 0 0-1.832.575 9.336 9.336 0 0 0-4.24 7.328c.015 2.7 1.923 3.785 4.255 2.423a9.336 9.336 0 0 0 4.24-7.329 3.661 3.661 0 0 0-.5-1.984l8.949-15.884a3.886 3.886 0 0 0 1.832-.575 7.316 7.316 0 0 0 1.832-1.544l9.009 5.512a7.868 7.868 0 0 0-.485 2.559c.015 2.7 1.923 3.785 4.255 2.423a9.337 9.337 0 0 0 4.24-7.329 3.406 3.406 0 0 0-.772-2.347l9.706-20.683a4.214 4.214 0 0 0 1.348-.53 9.336 9.336 0 0 0 4.24-7.329 4.136 4.136 0 0 0-.045-.621l7.329-8.343a3.011 3.011 0 0 0 3.043-.273 9.336 9.336 0 0 0 4.24-7.329c0-2.7-1.908-3.785-4.255-2.438" class="cls-26" transform="translate(-334.847 -86.838)"/>
                        </g>
                    </g>
                </g>
                <g id="Group_9150" transform="translate(470.29 255.935)">
                    <g id="Group_9149">
                        <g id="Group_9148">
                            <path id="Path_2163" d="M324.889 211.53c-.348.2-.636.045-.636-.363a1.379 1.379 0 0 1 .636-1.09l2.68-1.544c.348-.2.636-.045.636.363a1.379 1.379 0 0 1-.636 1.09l-2.68 1.544m5.36-3.1c-.348.2-.636.045-.636-.363a1.379 1.379 0 0 1 .636-1.09l2.68-1.544c.348-.2.636-.045.636.363a1.379 1.379 0 0 1-.636 1.09l-2.68 1.544m-5.375-2c-.348.2-.636.045-.636-.363a1.379 1.379 0 0 1 .636-1.09l23.257-13.431c.348-.2.636-.045.636.363a1.379 1.379 0 0 1-.636 1.09l-23.257 13.431m-.015-5.118c-.348.2-.636.045-.636-.363a1.379 1.379 0 0 1 .636-1.09l13.052-7.541c.348-.212.636-.045.636.363a1.43 1.43 0 0 1-.636 1.105l-13.052 7.525m15.778-9.1c-.348.2-.636.045-.636-.363a1.379 1.379 0 0 1 .636-1.09l1.635-.939c.348-.2.636-.045.636.363a1.379 1.379 0 0 1-.636 1.09l-1.635.939m4.482-2.589c-.348.2-.636.045-.636-.363a1.379 1.379 0 0 1 .636-1.09l10.66-6.148c.348-.2.636-.045.636.363a1.379 1.379 0 0 1-.636 1.09l-10.66 6.147m-20.275 6.587c-.348.2-.636.045-.636-.363a1.379 1.379 0 0 1 .636-1.09l22.182-12.81c.348-.2.636-.045.636.363a1.379 1.379 0 0 1-.636 1.09l-22.182 12.81m24.953-14.4c-.348.2-.636.045-.636-.363a1.379 1.379 0 0 1 .636-1.09l5.951-3.437c.348-.2.636-.045.636.363a1.379 1.379 0 0 1-.636 1.09l-5.951 3.437M316.622 202.9c-1.03.59-1.862.121-1.862-1.06a4.115 4.115 0 0 1 1.847-3.21c1.03-.591 1.862-.121 1.862 1.06a4.081 4.081 0 0 1-1.847 3.21m42.9-32.963l-47.529 27.452a3.177 3.177 0 0 0-1.438 2.5l.061 23.121c0 .909.651 1.287 1.454.833l47.53-27.437a3.177 3.177 0 0 0 1.438-2.5l-.061-23.121c-.015-.939-.666-1.3-1.454-.848" class="cls-40" transform="translate(-310.55 -169.741)"/>
                            <path id="Path_2164" d="M342.388 177.829l-22.182 12.81a1.379 1.379 0 0 0-.636 1.09c0 .409.288.56.636.363l22.182-12.81a1.4 1.4 0 0 0 .636-1.09c0-.409-.288-.56-.636-.363" class="cls-26" transform="translate(-305.912 -165.627)"/>
                            <path id="Path_2165" d="M333.268 184.681l-13.052 7.541a1.4 1.4 0 0 0-.636 1.09c0 .409.288.56.636.363l13.052-7.541a1.43 1.43 0 0 0 .636-1.105c0-.394-.288-.56-.636-.348" class="cls-26" transform="translate(-305.907 -162.107)"/>
                            <path id="Path_2166" d="M343.483 184.159l-23.257 13.431a1.379 1.379 0 0 0-.636 1.09c0 .409.288.56.636.363l23.258-13.431a1.4 1.4 0 0 0 .636-1.09c0-.409-.288-.56-.636-.363" class="cls-26" transform="translate(-305.902 -162.372)"/>
                            <path id="Path_2167" d="M322.906 195.379l-2.68 1.544a1.4 1.4 0 0 0-.636 1.09c0 .409.288.56.636.363l2.68-1.544a1.4 1.4 0 0 0 .636-1.09c0-.409-.273-.56-.636-.363" class="cls-26" transform="translate(-305.902 -156.603)"/>
                            <path id="Path_2168" d="M332.261 183.019l-1.635.939a1.4 1.4 0 0 0-.636 1.09c0 .409.288.56.636.363l1.635-.939a1.4 1.4 0 0 0 .636-1.09c0-.409-.288-.56-.636-.363" class="cls-26" transform="translate(-300.555 -162.958)"/>
                            <path id="Path_2169" d="M344.246 177.868l-10.66 6.147a1.4 1.4 0 0 0-.636 1.09c0 .409.288.56.636.363l10.66-6.147a1.4 1.4 0 0 0 .636-1.09c0-.394-.288-.56-.636-.363" class="cls-26" transform="translate(-299.033 -165.605)"/>
                            <path id="Path_2170" d="M342.637 174.5l-5.951 3.437a1.379 1.379 0 0 0-.636 1.09c0 .409.288.56.636.363l5.951-3.437a1.4 1.4 0 0 0 .636-1.09c0-.409-.288-.56-.636-.363" class="cls-26" transform="translate(-297.439 -167.339)"/>
                            <path id="Path_2171" d="M315.177 188.9a4.035 4.035 0 0 0-1.847 3.21c0 1.181.833 1.65 1.862 1.06a4.091 4.091 0 0 0 1.862-3.21c-.015-1.166-.848-1.65-1.878-1.06" class="cls-26" transform="translate(-309.121 -160.023)"/>
                            <path id="Path_2172" d="M326.456 193.328l-2.68 1.544a1.4 1.4 0 0 0-.636 1.09c0 .409.288.56.636.363l2.68-1.544a1.4 1.4 0 0 0 .636-1.09c0-.394-.288-.56-.636-.363" class="cls-26" transform="translate(-304.077 -157.657)"/>
                        </g>
                    </g>
                </g>
                <g id="Group_9154" transform="translate(552.327 550.786)">
                    <g id="Group_9151">
                        <path id="Path_2173" d="M471.766 482.893v-56.569L364.73 364.47v56.569z" class="cls-41" transform="translate(-364.73 -364.47)"/>
                        <path id="Path_2174" fill="url(#linear-gradient-28)" d="M365 364.57l-.273.151v56.266l48.941-28.287z" transform="translate(-364.73 -364.419)"/>
                    </g>
                    <g id="Group_9152" transform="translate(0 84.248)">
                        <path id="Path_2175" fill="url(#linear-gradient-29)" d="M471.766 538.548v-56.569L364.73 420.11v56.569z" transform="translate(-364.73 -420.11)"/>
                        <path id="Path_2176" fill="url(#linear-gradient-30)" d="M365 420.21l-.273.151v56.266l48.938-28.284z" transform="translate(-364.73 -420.059)"/>
                    </g>
                    <g id="Group_9153" transform="translate(0 168.496)">
                        <path id="Path_2177" d="M471.766 594.188v-56.57L364.73 475.75v56.569z" class="cls-41" transform="translate(-364.73 -475.75)"/>
                        <path id="Path_2178" fill="url(#linear-gradient-32)" d="M365 475.85l-.273.151v56.266l48.938-28.284z" transform="translate(-364.73 -475.699)"/>
                    </g>
                </g>
                <g id="Group_9157" transform="translate(762.432 119.008)">
                    <g id="Group_9156">
                        <g id="Group_9155">
                            <path id="Path_2179" d="M622.408 177.517l-77.162-44.547-.136 45.607 77.177 44.562.121-45.622" class="cls-46" transform="translate(-482.091 -51.72)"/>
                            <path id="Path_2180" d="M613.033 205.683l-47.877-27.633-.046 16.943 47.863 27.649.061-16.959" class="cls-46" transform="translate(-471.807 -28.542)"/>
                            <path id="Path_2181" d="M593.4 139.055l-14.748-8.525-.045 16.943L593.358 156l.045-16.943" class="cls-46" transform="translate(-464.866 -52.975)"/>
                            <path id="Path_2182" d="M520.014 121.631s5.451-20.88 13.249-16.368 9.357 22.258 15.49 25.8 6.465-6.98 10.266-4.785c3.785 2.18 3.816 13.718 7.768 16s6.768-7.147 13.2-3.437c7.964 4.588 12.568 24.666 12.568 24.666l-72.543-41.882m77.9 5.618L514.9 79.31l-.136 49.5 83.022 47.938.136-49.5" class="cls-46" transform="translate(-497.695 -79.31)"/>
                            <path id="Path_2183" d="M531.479 96.667c-7.8-4.512-13.249 16.368-13.249 16.368l72.558 41.882s-4.618-20.078-12.568-24.666c-6.435-3.725-9.252 5.708-13.2 3.437-3.967-2.286-3.982-13.809-7.768-16s-4.134 8.328-10.266 4.785c-6.147-3.528-7.692-21.289-15.5-25.8" class="cls-47" transform="translate(-495.911 -70.714)"/>
                            <path id="Path_2184" d="M530.392 160.023l.015-7.949.015-7.949 5.981 7.435 5.981 7.45-6.011.515-5.981.5m4.876-26.952c-10.433-6.026-18.912-1.2-18.957 10.8-.03 11.992 8.4 26.6 18.836 32.63s18.927 1.181 18.957-10.811-8.4-26.589-18.836-32.615" class="cls-46" transform="translate(-496.898 -53.002)"/>
                            <path id="Path_2185" fill="#b8ffff" d="M525.656 139.48l-.015 7.949-.03 7.965 6.011-.515 6.011-.515-6-7.45-5.981-7.435" opacity="0.808" transform="translate(-492.117 -48.373)"/>
                            <path id="Path_2186" d="M521.327 180.2a9.357 9.357 0 0 1-4.225-7.313c.015-2.7 1.908-3.77 4.255-2.423a9.281 9.281 0 0 1 4.225 7.329c0 2.665-1.908 3.755-4.255 2.408m29.556-2.7l-47.3-27.315-.091 34.417 47.3 27.315-47.3-27.315.015-5.284 8.782-5 8.888 15.4 17.941-10.219 11.7 20.275.061-22.273" class="cls-46" transform="translate(-503.49 -42.866)"/>
                            <path id="Path_2187" d="M539.118 171.308l-17.958 10.221-8.888-15.4-8.782 5v5.284l47.3 27.315.03-12.144-11.7-20.275" class="cls-47" transform="translate(-503.49 -34.671)"/>
                            <path id="Path_2188" d="M516.735 163.766c-2.332-1.348-4.24-.257-4.255 2.423a9.316 9.316 0 0 0 4.22 7.311c2.347 1.348 4.255.273 4.255-2.423a9.3 9.3 0 0 0-4.224-7.313" class="cls-47" transform="translate(-498.868 -36.183)"/>
                        </g>
                    </g>
                </g>
            </g>
            <g id="Group_9168" class="cls-2" transform="translate(348 84)">
                <g id="Group_9161" transform="translate(140.99 362.651)">
                    <g id="Group_9160">
                        <g id="Group_9159">
                            <path id="Path_2189" fill="url(#linear-gradient-33)" d="M244.986 284.221l-75.784 44-76.132-44 76.132-44z" transform="translate(-93.07 -240.22)"/>
                        </g>
                        <path id="Path_2190" fill="url(#linear-gradient-34)" d="M219.134 269.28v400.041l-75.784 44V313.282z" transform="translate(-67.218 -225.278)"/>
                        <path id="Path_2191" d="M169.2 313.282v400.041l-76.132-44V269.28z" class="cls-5" transform="translate(-93.07 -225.278)"/>
                    </g>
                </g>
                <path id="Path_2192" fill="#ff9b62" d="M143.35 320.114l75.784-44v-1.834l-75.784 44z" transform="translate(73.772 139.944)"/>
                <path id="Path_2193" d="M93.07 276.112l76.132 44v-1.832l-76.132-44z" class="cls-24" transform="translate(47.92 139.944)"/>
                <path id="Path_2194" d="M97.31 147.99l25.968 183.653 43.668 25.241 43.472-25.241L236.4 147.99z" class="cls-52" transform="translate(50.1 75.01)"/>
                <g id="Group_9162" transform="translate(173.378 381.412)">
                    <path id="Path_2195" d="M201.6 277.851l-43.472 25.241-43.668-25.241 43.668-25.241z" class="cls-26" transform="translate(-114.46 -252.61)"/>
                </g>
                <g id="Group_9166" transform="translate(166.791 242.927)">
                    <path id="Path_2196" d="M210.075 188.191c-.288.182-.575.348-.878.53-.666.394-1.332.787-2.014 1.181-.318.182-.636.363-.954.53-.772.439-1.56.863-2.347 1.287-.2.106-.394.212-.606.318-1 .53-2.014 1.03-3.028 1.544-.257.136-.53.257-.787.379-.772.379-1.56.742-2.362 1.105-.348.167-.7.318-1.045.469-.772.348-1.544.681-2.332 1.014-.318.136-.621.273-.939.394-1.09.454-2.18.893-3.3 1.332l-.363.136c-1 .379-2 .757-3.013 1.121-.363.121-.712.257-1.075.379-.818.288-1.635.56-2.453.833-.363.121-.727.242-1.09.348-1.287.409-2.574.8-3.876 1.181a4.06 4.06 0 0 1-.409.106c-1.181.333-2.392.651-3.589.969-.348.091-.712.182-1.06.273-1.272.318-2.559.621-3.861.893-.076.015-.136.03-.212.045-1.363.288-2.726.56-4.1.818l-1.014.182c-1.575.273-3.149.53-4.739.757l-.363.045c-1.514.212-3.059.394-4.588.545l-.939.091c-1.287.121-2.574.242-3.876.318h-.121c-1.257.091-2.529.151-3.785.2l-1.378.045-2.241.045h-1.484c-.727 0-1.469-.015-2.211-.015-.515-.015-1.014-.015-1.529-.03-.636-.015-1.287-.045-1.923-.076-.53-.03-1.06-.045-1.6-.076-.651-.03-1.287-.091-1.938-.136-.53-.045-1.075-.076-1.6-.121l-1.938-.182c-.53-.061-1.06-.106-1.59-.167-.651-.076-1.317-.167-1.984-.257-.515-.076-1.03-.136-1.56-.212-.772-.106-1.56-.242-2.332-.363-.424-.076-.863-.136-1.287-.212-1-.182-1.984-.363-2.983-.56l-.7-.136a27.689 27.689 0 0 1-4.527-14.9l-.03 12.234a27.689 27.689 0 0 0 4.527 14.9c.03 0 .061.015.091.015.2.045.409.076.606.121 1 .2 1.984.394 2.983.56.424.076.863.136 1.287.212.772.121 1.56.257 2.332.363.121.015.227.045.348.061.409.061.8.106 1.211.151.651.091 1.317.182 1.968.257.53.061 1.06.106 1.59.167.651.061 1.287.136 1.938.182l.515.045c.363.03.727.045 1.09.076l1.938.136c.53.03 1.075.061 1.605.076.636.03 1.287.061 1.923.076.227 0 .469.015.7.03.288 0 .56 0 .833.015.742.015 1.469.015 2.211.015h1.484c.742 0 1.5-.03 2.241-.045.318-.015.636-.015.954-.015.136 0 .273-.015.409-.015 1.272-.045 2.544-.106 3.816-.2h.091c1.3-.091 2.589-.2 3.891-.318.121-.015.257-.015.379-.03.182-.015.363-.045.545-.061 1.544-.167 3.074-.333 4.6-.545l.363-.045c1.59-.227 3.165-.485 4.739-.757.167-.03.348-.045.53-.091.167-.03.333-.061.485-.091 1.378-.257 2.741-.515 4.1-.818.076-.015.136-.03.212-.045 1.3-.288 2.574-.591 3.861-.893.363-.091.712-.182 1.06-.273 1.211-.3 2.408-.621 3.589-.969a4.07 4.07 0 0 1 .409-.106c1.3-.379 2.589-.772 3.876-1.181.136-.045.273-.076.424-.121.227-.076.439-.151.666-.227.818-.273 1.635-.545 2.453-.833.363-.121.727-.242 1.075-.379 1.014-.363 2.014-.727 3.013-1.12l.363-.136c1.105-.424 2.211-.878 3.3-1.332.318-.136.621-.273.939-.394.787-.333 1.56-.681 2.332-1.014.348-.151.7-.318 1.045-.469.787-.363 1.575-.742 2.362-1.105.257-.121.53-.257.787-.379 1.03-.5 2.029-1.014 3.028-1.544.212-.106.409-.227.606-.333.787-.424 1.575-.848 2.347-1.287.318-.182.636-.363.954-.53.681-.394 1.348-.787 2.014-1.181.182-.106.379-.227.575-.333.106-.061.2-.121.3-.182.939-.575 1.862-1.151 2.771-1.741l.03-12.234c-.883.559-1.822 1.135-2.761 1.71z" class="cls-31" transform="translate(-110.11 -148.126)"/>
                    <g id="Group_9163" transform="translate(.043)">
                        <path id="Path_2197" d="M212.846 199.473c-24.484 15.868-61.278 26.271-98.178 18.609-13.355-21.35 4.482-42.7 31.813-56.932l42.063 14.006z" class="cls-39" transform="translate(-110.139 -161.15)"/>
                    </g>
                    <g id="Group_9164" transform="translate(6.015 4.3)">
                        <path id="Path_2198" d="M203.4 197.529a128.131 128.131 0 0 1-39.126 15.354 119.761 119.761 0 0 1-46.924 1c-4.83-8.782-4.3-17.928 1.56-27.179 5.163-8.131 14.233-15.944 26.392-22.712l36.824 12.25z" class="cls-30" transform="translate(-114.082 -163.99)"/>
                    </g>
                    <g id="Group_9165" transform="translate(29.178 24.969)">
                        <path id="Path_2199" d="M166.114 186.392l.015 5.209h-36.673l-.076-13.961h8.994l.045 8.752z" class="cls-38" transform="translate(-129.38 -177.64)"/>
                    </g>
                </g>
                <g id="Group_9167" transform="translate(166.791 466.159)">
                    <path id="Path_2200" fill="url(#linear-gradient-37)" d="M131.414 320.89l-21.3-12.31v234.286l21.3 12.31z" transform="translate(-110.11 -308.58)"/>
                    <path id="Path_2201" fill="url(#linear-gradient-38)" d="M110.11 467.49l21.3 12.31v-24.62z" transform="translate(-110.11 -233.204)"/>
                </g>
                <path id="Path_2202" fill="url(#linear-gradient-39)" d="M169.2 313.282l-76.132-44v400.039l76.132 44 75.784-44V269.28z" transform="translate(47.92 137.373)"/>
            </g>
            <g id="Group_9178" class="cls-2" transform="translate(348 84)">
                <g id="Group_9177" transform="translate(982.061 126.079)">
                    <g id="Group_9171" transform="translate(0 73.876)">
                        <g id="Group_9170">
                            <g id="Group_9169">
                                <path id="Path_2203" fill="url(#linear-gradient-40)" d="M728.911 156.043l-40.095 23.273-40.276-23.273 40.277-23.273z" transform="translate(-648.54 -132.77)"/>
                            </g>
                            <path id="Path_2204" d="M715.235 148.14v354.6l-40.095 23.289V171.413z" class="cls-8" transform="translate(-634.863 -124.867)"/>
                            <path id="Path_2205" d="M688.817 171.413v354.616l-40.277-23.288V148.14z" class="cls-57" transform="translate(-648.54 -124.867)"/>
                        </g>
                    </g>
                    <path id="Path_2206" fill="#fd9c6c" d="M675.14 175.032l40.095-23.273v-.969l-40.095 23.273z" transform="translate(-634.863 -49.629)"/>
                    <path id="Path_2207" d="M648.54 151.759l40.277 23.273v-.969L648.54 150.79z" class="cls-24" transform="translate(-648.54 -49.629)"/>
                    <path id="Path_2208" fill="url(#linear-gradient-43)" d="M650.78 83.98l13.748 97.149 23.091 13.355 23-13.355 13.734-97.149z" opacity="0.561" transform="translate(-647.388 -83.98)"/>
                    <g id="Group_9172" transform="translate(17.14 83.809)">
                        <path id="Path_2209" d="M705.951 152.67l-23 13.355-23.091-13.355 23.091-13.34z" class="cls-26" transform="translate(-659.86 -139.33)"/>
                    </g>
                    <g id="Group_9176" transform="translate(13.674 10.539)">
                        <path id="Path_2210" d="M710.424 105.259l-.454.273c-.348.212-.712.424-1.06.621-.167.091-.333.2-.5.288-.409.227-.833.454-1.242.681a3.19 3.19 0 0 1-.318.167c-.53.273-1.06.545-1.6.818-.136.061-.273.136-.424.2-.409.2-.833.394-1.242.591-.182.091-.363.167-.56.257-.409.182-.818.363-1.242.545-.167.076-.333.136-.5.212-.576.242-1.151.469-1.741.7-.061.03-.121.045-.2.076l-1.59.591c-.182.061-.379.136-.575.2-.424.151-.863.3-1.3.439-.2.061-.378.121-.575.182-.681.212-1.363.424-2.044.621-.076.015-.136.045-.212.061-.636.182-1.257.348-1.908.515-.182.045-.379.091-.56.136-.682.167-1.348.333-2.044.469-.03.015-.076.015-.106.03-.712.151-1.439.3-2.165.424-.182.03-.363.061-.53.091-.833.151-1.666.288-2.5.394-.061.015-.136.015-.2.03-.8.106-1.62.212-2.423.288l-.5.045c-.681.061-1.363.121-2.044.167h-.061c-.666.045-1.332.076-2 .106-.242.015-.485.015-.727.015-.394.015-.787.015-1.181.03h-.787c-.394 0-.772 0-1.166-.015-.273 0-.545-.015-.818-.015l-1.015-.045-.848-.045c-.348-.015-.681-.045-1.03-.076-.288-.015-.56-.045-.848-.061-.348-.03-.681-.061-1.03-.106l-.848-.091-1.045-.136c-.273-.03-.545-.076-.818-.106-.409-.061-.818-.121-1.242-.2-.227-.03-.454-.076-.681-.106-.53-.091-1.045-.2-1.575-.3-.121-.03-.242-.045-.363-.076a14.6 14.6 0 0 1-2.392-7.889l-.015 6.465a14.763 14.763 0 0 0 2.392 7.889.056.056 0 0 1 .046.015c.106.015.212.045.318.061.53.106 1.045.212 1.574.3.227.045.454.076.682.106.409.061.818.136 1.242.2.061.015.121.015.182.03.212.03.424.061.636.076l1.045.136.848.091c.348.03.681.076 1.03.106.091.015.182.015.273.03l.576.045c.348.03.681.045 1.03.076l.848.045 1.015.045c.121 0 .242.015.363.015h.439c.394 0 .772.015 1.166.015h.787c.394 0 .787-.015 1.181-.03.167 0 .333 0 .5-.015.076 0 .151-.015.212-.015.681-.03 1.348-.061 2.014-.106h.045c.681-.045 1.378-.106 2.059-.167.061 0 .136-.015.2-.015a1.855 1.855 0 0 1 .288-.03c.818-.091 1.62-.182 2.438-.288.06-.015.136-.015.2-.03.848-.121 1.681-.257 2.5-.394l.273-.045.257-.045c.727-.136 1.454-.273 2.165-.424.03-.015.076-.015.106-.03.681-.151 1.363-.3 2.044-.469.182-.045.379-.091.56-.136.636-.167 1.272-.333 1.908-.515.076-.015.151-.045.212-.061.7-.2 1.378-.409 2.044-.621a1.262 1.262 0 0 1 .227-.061c.121-.045.227-.076.348-.121.439-.136.863-.288 1.3-.439.2-.061.379-.136.575-.2l1.59-.591c.061-.03.136-.045.2-.076.591-.227 1.166-.469 1.741-.7.167-.076.333-.136.5-.212.409-.182.833-.363 1.242-.545.182-.076.363-.167.56-.257.424-.2.833-.394 1.242-.591.136-.061.288-.136.424-.2.545-.273 1.075-.53 1.605-.818a3.207 3.207 0 0 1 .318-.167c.424-.227.833-.454 1.242-.681.167-.091.333-.182.5-.288.363-.212.712-.409 1.06-.621.106-.061.2-.121.3-.182a1.02 1.02 0 0 0 .166-.106c.5-.3.984-.606 1.469-.924l.015-6.465c-.488.333-.973.636-1.473.939z" class="cls-31" transform="translate(-657.566 -84.061)"/>
                        <g id="Group_9173">
                            <path id="Path_2211" d="M711.9 111.215c-12.946 8.4-32.418 13.9-51.936 9.842-7.056-11.3 2.377-22.591 16.822-30.117l22.258 7.4z" class="cls-39" transform="translate(-657.571 -90.94)"/>
                        </g>
                        <g id="Group_9174" transform="translate(3.162 2.271)">
                            <path id="Path_2212" d="M706.9 110.186a67.824 67.824 0 0 1-20.7 8.131 63.3 63.3 0 0 1-24.817.53c-2.559-4.648-2.271-9.479.833-14.385 2.726-4.3 7.525-8.434 13.961-12.022l19.487 6.481z" class="cls-30" transform="translate(-659.659 -92.44)"/>
                        </g>
                        <g id="Group_9175" transform="translate(15.414 13.219)">
                            <path id="Path_2213" d="M687.177 104.3l.015 2.756H667.78l-.03-7.389h4.75l.03 4.633z" class="cls-38" transform="translate(-667.75 -99.67)"/>
                        </g>
                    </g>
                </g>
                <path id="Path_2214" fill="url(#linear-gradient-44)" d="M713.073 171.938L725.5 83.98h-73.568l12.446 88-15.838 9.146v354.6l40.277 23.288 40.095-23.288v-354.6z" transform="translate(333.521 42.099)"/>
            </g>
            <g id="Group_9185" class="cls-2" transform="translate(348 84)">
                <g id="Group_9181" transform="translate(1003.486 235.522)">
                    <g id="Group_9180">
                        <g id="Group_9179">
                            <path id="Path_2215" d="M994.443 252.334L828.93 348.422l-166.24-96.088 166.24-96.074z" class="cls-61" transform="translate(-662.69 -156.26)"/>
                        </g>
                        <path id="Path_2216" d="M937.993 219.71v450.1L772.48 765.883V315.8z" class="cls-21" transform="translate(-606.24 -123.636)"/>
                        <path id="Path_2217" d="M828.93 315.8v450.083l-166.24-96.074V219.71z" class="cls-62" transform="translate(-662.69 -123.636)"/>
                    </g>
                </g>
                <path id="Path_2218" fill="#ff65eb" d="M772.48 329.2l165.513-96.074v-2.486L772.48 326.729z" transform="translate(397.246 117.506)"/>
                <path id="Path_2219" fill="#f75900" d="M662.69 233.123L828.93 329.2v-2.468L662.69 230.64z" transform="translate(340.796 117.506)"/>
                <g id="Group_9182" transform="translate(1039.72 399.203)">
                    <path id="Path_2220" fill="url(#linear-gradient-48)" d="M707.924 276.67l-21.3-12.31v234.3l21.3 12.31z" transform="translate(-686.62 -264.36)"/>
                    <path id="Path_2221" fill="url(#linear-gradient-49)" d="M686.62 423.285l21.3 12.31V410.96z" transform="translate(-686.62 -188.984)"/>
                </g>
                <g id="Group_9183" transform="translate(1076.272 420.084)">
                    <path id="Path_2222" fill="url(#linear-gradient-50)" d="M732.064 290.46l-21.3-12.31v234.286l21.3 12.31z" transform="translate(-710.76 -278.15)"/>
                    <path id="Path_2223" fill="url(#linear-gradient-51)" d="M710.76 437.06l21.3 12.31v-24.62z" transform="translate(-710.76 -202.774)"/>
                </g>
                <path id="Path_2224" d="M696.2 18.775l43 304.059 72.3 41.776 71.983-41.776L926.474 18.76z" class="cls-52" transform="translate(358.026 8.565)"/>
                <g id="Group_9184" transform="translate(1097.228 289.608)">
                    <path id="Path_2225" d="M868.885 233.771L796.9 275.547l-72.3-41.776 72.3-41.791z" class="cls-26" transform="translate(-724.6 -191.98)"/>
                </g>
            </g>
            <g id="Group_9202" class="cls-2" transform="translate(348 84)">
                <g id="Group_9189" transform="translate(768.943 507.557)">
                    <g id="Group_9188">
                        <g id="Group_9187">
                            <g id="Group_9186">
                                <path id="Path_2226" fill="url(#linear-gradient-53)" d="M839.543 432.009l-165.528 96.073-166.225-96.073 166.225-96.089z" transform="translate(-507.79 -335.92)"/>
                            </g>
                            <path id="Path_2227" d="M783.1 399.38V637l-165.53 96.071V495.454z" class="cls-21" transform="translate(-451.345 -303.291)"/>
                            <path id="Path_2228" d="M674.015 495.454v237.617L507.79 637V399.38z" class="cls-62" transform="translate(-507.79 -303.291)"/>
                        </g>
                    </g>
                    <path id="Path_2229" fill="#ff9b72" d="M617.57 508.872l165.53-96.089V410.3l-165.53 96.089z" transform="translate(-451.345 -297.677)"/>
                    <path id="Path_2230" d="M507.79 412.783l166.225 96.089v-2.483L507.79 410.3z" class="cls-24" transform="translate(-507.79 -297.677)"/>
                </g>
                <g id="Group_9194" transform="translate(843.848 544.389)">
                    <g id="Group_9193">
                        <path id="Path_2231" fill="#162a56" d="M728.739 382.928a3.2 3.2 0 0 1-.046.379 2.213 2.213 0 0 1-.076.3 3.284 3.284 0 0 1-.106.363 2.348 2.348 0 0 1-.121.288c-.061.121-.106.257-.182.378a2.636 2.636 0 0 1-.167.273c-.091.136-.182.273-.288.424a2.77 2.77 0 0 1-.2.242q-.227.273-.5.545a2.4 2.4 0 0 1-.2.2c-.121.106-.242.2-.363.3-.106.091-.212.182-.333.273-.136.091-.288.2-.424.288a4.592 4.592 0 0 1-.454.288L624.262 446.19c-4.648 2.7-12.219 2.7-16.9 0L560.8 419.314c-2.347-1.363-3.528-3.149-3.528-4.936l-.015 6.178c0 1.787 1.166 3.573 3.528 4.936l46.561 26.876c4.679 2.7 12.25 2.7 16.9 0l101.025-58.719a1.342 1.342 0 0 1 .151-.091c.106-.061.212-.136.318-.212a4.165 4.165 0 0 0 .424-.288c.121-.091.227-.182.333-.273.121-.106.257-.2.363-.3.03-.015.045-.045.076-.061.045-.045.076-.091.121-.136q.273-.273.5-.545c.03-.045.076-.076.106-.121s.046-.076.076-.121a3.169 3.169 0 0 0 .273-.409c.03-.061.091-.121.121-.182l.045-.091a2.844 2.844 0 0 0 .167-.379c.03-.076.076-.151.106-.212a.136.136 0 0 0 .015-.076 3.3 3.3 0 0 0 .106-.363 1.505 1.505 0 0 1 .076-.242v-.061a3.227 3.227 0 0 0 .046-.379c0-.076.03-.167.03-.242v-.106l.015-6.178a.9.9 0 0 1 0 .347z" transform="translate(-557.26 -348.761)"/>
                        <g id="Group_9190" transform="translate(.03)">
                            <path id="Path_2232" fill="url(#linear-gradient-56)" d="M725.231 389.143c4.679 2.7 4.709 7.086.061 9.8l-101.025 58.716c-4.648 2.7-12.219 2.7-16.9 0l-46.56-26.876c-4.679-2.7-4.709-7.086-.06-9.8l101.025-58.719c4.648-2.7 12.219-2.7 16.9 0zm-103.4 67.092l101.025-58.719c3.316-1.923 3.3-5.057-.046-7l-4.194-2.423-6.329.167-32.115-18.548.273-3.664-4.194-2.423a13.343 13.343 0 0 0-12.068 0l-101.028 58.723c-3.316 1.923-3.3 5.057.045 7l46.56 26.876a13.2 13.2 0 0 0 12.068.015" transform="translate(-557.28 -360.245)"/>
                        </g>
                        <g id="Group_9191" transform="translate(3.456 1.972)">
                            <path id="Path_2233" d="M721.66 389.866c3.331 1.923 3.346 5.057.045 7l-101.024 58.715a13.343 13.343 0 0 1-12.068 0L562.052 428.7c-3.331-1.923-3.346-5.057-.045-7l101.025-58.71a13.343 13.343 0 0 1 12.068 0l4.194 2.423-.273 3.664 32.115 18.548 6.329-.167z" class="cls-73" transform="translate(-559.543 -361.547)"/>
                        </g>
                        <g id="Group_9192" transform="translate(3.456 1.972)">
                            <path id="Path_2234" d="M721.66 389.866c3.331 1.923 3.346 5.057.045 7l-101.024 58.715a13.343 13.343 0 0 1-12.068 0L562.052 428.7c-3.331-1.923-3.346-5.057-.045-7l101.025-58.71a13.343 13.343 0 0 1 12.068 0l4.194 2.423-.273 3.664 32.115 18.548 6.329-.167z" class="cls-73" transform="translate(-559.543 -361.547)"/>
                        </g>
                    </g>
                </g>
                <g id="Group_9198" transform="translate(856.936 476.968)">
                    <g id="Group_9195" opacity="0.3" transform="translate(0 88.07)">
                        <path id="Path_2235" d="M591.351 376.423c5.845 3.377 5.875 8.843.076 12.2-5.83 3.392-15.263 3.392-21.107.015s-5.905-8.858-.076-12.234c5.814-3.373 15.262-3.358 21.107.019z" class="cls-34" transform="translate(-565.904 -373.883)"/>
                    </g>
                    <g id="Group_9197" transform="translate(1.085)">
                        <g id="Group_9196">
                            <path id="Path_2236" d="M570.377 377.275s-.848.106-1 .424a23.914 23.914 0 0 0-.227 3.482 21.678 21.678 0 0 0 4.3 3.24c2.074 1.06 3.876 1.529 4.679.833s.3-1.5-1.408-2.892-3.361-5.1-3.361-5.1c0 .028-2.983.013-2.983.013z" class="cls-35" transform="translate(-565.32 -284.076)"/>
                            <path id="Path_2237" d="M577.587 374.385s-.848.106-1 .424a23.915 23.915 0 0 0-.227 3.483 21.678 21.678 0 0 0 4.3 3.24c2.074 1.06 3.876 1.529 4.679.833s.3-1.5-1.408-2.892-3.361-5.1-3.361-5.1c0 .012-2.983.012-2.983.012z" class="cls-35" transform="translate(-561.613 -285.562)"/>
                            <path id="Path_2238" d="M581.531 355.252s-.06 1.105-.106 1.317a12.843 12.843 0 0 0-1.014 2.09 1.225 1.225 0 0 0 .485.848 6.013 6.013 0 0 0 .121 1.242c.106.212 1.045.076 1.151.136s.712.439 1.121.273a12.158 12.158 0 0 0 1.665-.666 21.569 21.569 0 0 0-.257-6.223c-.167-.878-.954-21.319-1.423-21.168-.941.287-1.743 22.151-1.743 22.151z" class="cls-36" transform="translate(-559.53 -306.781)"/>
                            <path id="Path_2239" d="M585.038 338.8c-.424-2.014-.939-4.361-1.378-5.981-.924-3.407-1.605-6.042-3.589-6.1l-.681 11.553s.212 1.741.575 3.71a36.026 36.026 0 0 0 5.073-3.182z" class="cls-37" transform="translate(-560.054 -310.061)"/>
                            <path id="Path_2240" d="M569.172 350.123l-.151 43.5a5.336 5.336 0 0 0 5.194-.106s4.921-37.581 5.012-38.46c.076-.818.7 34.311.7 34.311s3.043 1.756 5.375-.621l2.741-41.609z" class="cls-35" transform="translate(-565.386 -299.562)"/>
                            <path id="Path_2241" d="M574.057 328.207a23.941 23.941 0 0 0-6.117 3.558l1.787 28.951s3.74 2.741 11.4.742c6.24-1.636 7.873-4.258 7.873-4.258s.576-14.218-.015-20.244a26.982 26.982 0 0 0-3.028-10.145 18.11 18.11 0 0 0-4.361-.242z" class="cls-24" transform="translate(-565.941 -310.155)"/>
                            <path id="Path_2242" d="M580.531 316.13a8.075 8.075 0 0 0-3.906-.318c-2.741.288-5.042 1.62-5.5 4.558-.348 2.211.485 4.467 1.348 6.45 1.151 2.635 1.968 1.681 1.968 1.681 2.241-.909 4.467-1.8 6.708-2.71a7.543 7.543 0 0 0 2.059-.878c.818-.712.545-1.953.7-2.907a4.869 4.869 0 0 0-.318-3.573 5.321 5.321 0 0 0-2.5-2.074c-.196-.078-.378-.153-.559-.229z" class="cls-35" transform="translate(-564.344 -315.718)"/>
                            <path id="Path_2243" d="M573.3 331.406l-.167-5.8a1.358 1.358 0 0 1-1.211-1.711c.257-1.59 1.741-.545 2.014-.076 0 0 .333-5.5 3.255-6.026s5.739.091 5.814 1.514.167 6.375 0 8.222-1.605 2.6-4.27 2.529l.182 2.983s-1.333.984-5.057.076z" class="cls-36" transform="translate(-563.909 -314.747)"/>
                            <path id="Path_2244" d="M578.693 326.23a1.826 1.826 0 0 1 .712.106 3.511 3.511 0 0 1 1.287 2.347 8.075 8.075 0 0 1-.454 2.514l-2.408-2.18-1.514 2.937a5.991 5.991 0 0 1-2.241-1.166A8.394 8.394 0 0 1 572 328.35c.424-1.06.7-1.7.7-1.7.106-.242.56-.363.56-.363s2.574 2.332 4.588 2.453c-.018.034.693-.314.845-2.51z" class="cls-37" transform="translate(-563.854 -310.313)"/>
                            <path id="Path_2245" d="M570.236 357.685s.288 1.075.363 1.272c.091.2 1.3 1.378 1.408 1.832a1.279 1.279 0 0 1-.3.939 6.028 6.028 0 0 1 .136 1.242c-.06.227-1.014.288-1.105.363s-.606.575-1.045.485a14.207 14.207 0 0 1-1.772-.318 21.568 21.568 0 0 1-1-6.147c-.015-1 .333-21.092.333-21.092.272.061 4.376 1.635 4.376 1.635z" class="cls-36" transform="translate(-566.466 -305.156)"/>
                            <path id="Path_2246" d="M572.056 342.714c.06-2.544.151-5.315.121-5.981-.106-2.271-.106-8.676-3.558-6.617-1.393.833-1.711 7.041-2 11.22a10.407 10.407 0 0 0 5.437 1.378z" class="cls-37" transform="translate(-566.62 -308.522)"/>
                        </g>
                    </g>
                    <path id="Path_2247" d="M582.035 320.608a2.074 2.074 0 0 0-.151-2.029 3.806 3.806 0 0 0-1.635-1.332c-1.59-.772-6.057-1.62-6.178 1.151-.061 1.378 1.135 3.679 2.786 3.392.712-.121 1.12-.787 1.908-.56.394.106 1.439 1.105 1.5.045a1.449 1.449 0 0 0 1.77-.667z" class="cls-35" transform="translate(-561.706 -315.321)"/>
                    <path id="Path_2248" d="M572.636 322.684a4.267 4.267 0 0 1 1.484 2.756c.182 0 .363.015.56.015-.03-.727.03-1.393 0-2.12a5.07 5.07 0 0 0 1.181-4.346c-.136-.621-.5-1.317-1.136-1.378s-1.136.56-1.393 1.151a7.087 7.087 0 0 0-.696 3.922z" class="cls-35" transform="translate(-562.467 -314.747)"/>
                </g>
                <path id="Path_2249" fill="url(#linear-gradient-57)" d="M539.71 263.885C540.164 292.033 569.781 476 569.781 476l.046-.015a4.579 4.579 0 0 0 2.423 2.922l46.56 26.876a13.344 13.344 0 0 0 12.068 0L731.9 447.068a4.265 4.265 0 0 0 2.468-3.452s17.14-112.835 25.5-179.746H539.71z" opacity="0.561" transform="translate(277.565 134.591)"/>
                <g id="Group_9201" transform="translate(916.104 470.034)">
                    <g id="Group_9200">
                        <g id="Group_9199">
                            <path id="Path_2250" d="M644.939 424.672c-.651.379-1.181.076-1.181-.681a2.568 2.568 0 0 1 1.181-2.044l5.769-3.331c.651-.379 1.181-.076 1.181.681a2.568 2.568 0 0 1-1.181 2.044l-5.769 3.331m-29.072 11.053c-.651.379-1.181.076-1.181-.681a2.587 2.587 0 0 1 1.181-2.029l9.615-5.557c.636-.363 1.166-.076 1.166.666a2.543 2.543 0 0 1-1.166 2.029l-9.615 5.572m-.015-5.693c-.651.379-1.181.076-1.181-.681a2.568 2.568 0 0 1 1.181-2.044l23.136-13.355c.636-.363 1.166-.076 1.166.681a2.543 2.543 0 0 1-1.166 2.029l-23.136 13.37m27.709-15.99c-.651.379-1.181.076-1.181-.681a2.568 2.568 0 0 1 1.181-2.044l7.117-4.1c.651-.379 1.181-.076 1.181.681a2.568 2.568 0 0 1-1.181 2.044l-7.117 4.1m13.037 3.891l-.061-19.775 13.93-8.04.061 19.775-13.93 8.04m-40.761 6.39c-.651.379-1.181.076-1.181-.651a2.568 2.568 0 0 1 1.181-2.044l7.117-4.1c.651-.379 1.181-.076 1.181.681a2.564 2.564 0 0 1-1.181 2.029l-7.117 4.088m11.689-6.753c-.651.379-1.181.076-1.181-.651a2.568 2.568 0 0 1 1.181-2.044l23.136-13.355c.651-.379 1.181-.076 1.181.681a2.587 2.587 0 0 1-1.181 2.029l-23.136 13.34m-11.719-4.648c-.651.379-1.181.076-1.181-.651a2.568 2.568 0 0 1 1.181-2.044l11.038-6.375c.651-.379 1.181-.076 1.181.681a2.587 2.587 0 0 1-1.181 2.029l-11.038 6.359m-.015-5.708c-.651.379-1.181.076-1.181-.681a2.587 2.587 0 0 1 1.181-2.029l43.123-24.893c.651-.379 1.181-.076 1.181.651a2.568 2.568 0 0 1-1.181 2.044l-43.123 24.908m47.7-27.527c-.636.363-1.181.076-1.181-.681a2.6 2.6 0 0 1 1.181-2.029l5.769-3.331c.651-.379 1.181-.076 1.181.651a2.568 2.568 0 0 1-1.181 2.044l-5.769 3.346m-47.711 21.834c-.651.379-1.181.061-1.181-.681a2.568 2.568 0 0 1 1.181-2.044l33.8-19.5c.651-.379 1.181-.076 1.181.681a2.591 2.591 0 0 1-1.181 2.044l-33.8 19.5m38.929-22.47c-.636.363-1.166.061-1.166-.681a2.542 2.542 0 0 1 1.166-2.029l14.536-8.388c.651-.379 1.181-.076 1.181.681a2.591 2.591 0 0 1-1.181 2.044l-14.536 8.373m-38.944 16.762c-.651.379-1.181.076-1.181-.681a2.564 2.564 0 0 1 1.181-2.029l53.465-30.874c.651-.379 1.181-.076 1.181.651a2.568 2.568 0 0 1-1.181 2.044l-53.465 30.889m-.727-8.282l-.091-29.344 55.343-31.949.076 29.345-55.333 31.945m61.823-75.935l-68.531 39.565a7.412 7.412 0 0 0-3.346 5.784l.273 95.983c0 2.12 1.514 2.983 3.361 1.923l68.531-39.565a7.412 7.412 0 0 0 3.346-5.784l-.273-95.983c0-2.135-1.514-2.983-3.361-1.923" class="cls-40" transform="translate(-604.98 -311.139)"/>
                            <path id="Path_2251" d="M666.913 321.1l-55.343 31.949.076 29.36L667 350.445l-.091-29.344" class="cls-26" transform="translate(-601.592 -306.017)"/>
                            <path id="Path_2252" d="M665.966 344.945L612.5 375.819a2.6 2.6 0 0 0-1.181 2.029c0 .757.53 1.06 1.181.681l53.465-30.874a2.608 2.608 0 0 0 1.181-2.044c0-.742-.53-1.045-1.181-.666" class="cls-26" transform="translate(-601.72 -293.841)"/>
                            <path id="Path_2253" d="M646.3 356.215l-33.8 19.5a2.608 2.608 0 0 0-1.181 2.044c0 .742.53 1.06 1.181.681l33.8-19.5a2.632 2.632 0 0 0 1.181-2.044c0-.757-.53-1.06-1.181-.681" class="cls-26" transform="translate(-601.72 -288.046)"/>
                            <path id="Path_2254" d="M652.752 348.705l-14.536 8.388a2.582 2.582 0 0 0-1.166 2.029c0 .742.53 1.06 1.166.681l14.536-8.388a2.631 2.631 0 0 0 1.181-2.044c0-.742-.53-1.045-1.181-.666" class="cls-26" transform="translate(-588.491 -291.908)"/>
                            <path id="Path_2255" d="M655.634 356.425l-43.123 24.893a2.6 2.6 0 0 0-1.181 2.029c0 .757.53 1.06 1.181.681l43.123-24.893a2.608 2.608 0 0 0 1.181-2.044c0-.742-.515-1.045-1.181-.666" class="cls-26" transform="translate(-601.715 -287.938)"/>
                            <path id="Path_2256" d="M649.79 352.486l-5.769 3.331a2.622 2.622 0 0 0-1.181 2.029c0 .757.545 1.045 1.181.681l5.769-3.331a2.608 2.608 0 0 0 1.181-2.044c0-.757-.53-1.045-1.181-.666" class="cls-26" transform="translate(-585.514 -289.965)"/>
                            <path id="Path_2257" d="M623.559 372.425l-11.038 6.375a2.608 2.608 0 0 0-1.181 2.044c0 .742.53 1.03 1.181.651l11.038-6.375a2.6 2.6 0 0 0 1.181-2.029c0-.742-.515-1.045-1.181-.666" class="cls-26" transform="translate(-601.71 -279.712)"/>
                            <path id="Path_2258" d="M637.978 374.645l-7.117 4.1a2.608 2.608 0 0 0-1.181 2.044c0 .757.53 1.06 1.181.681l7.117-4.1a2.608 2.608 0 0 0 1.181-2.044c0-.757-.53-1.06-1.181-.681" class="cls-26" transform="translate(-592.28 -278.57)"/>
                            <path id="Path_2259" d="M635.7 379.105l-23.139 13.355a2.608 2.608 0 0 0-1.181 2.044c0 .757.53 1.06 1.181.681l23.139-13.354a2.582 2.582 0 0 0 1.166-2.029c0-.772-.53-1.075-1.166-.7" class="cls-26" transform="translate(-601.689 -276.277)"/>
                            <path id="Path_2260" d="M637.54 382.175l-5.769 3.331a2.608 2.608 0 0 0-1.181 2.044c0 .757.53 1.06 1.181.681l5.769-3.331a2.608 2.608 0 0 0 1.181-2.044c0-.757-.53-1.06-1.181-.681" class="cls-26" transform="translate(-591.812 -274.699)"/>
                            <path id="Path_2261" d="M622.186 388.022l-9.615 5.557a2.6 2.6 0 0 0-1.181 2.029c0 .757.53 1.06 1.181.681l9.615-5.557a2.582 2.582 0 0 0 1.166-2.029c0-.742-.515-1.045-1.166-.681" class="cls-26" transform="translate(-601.684 -271.688)"/>
                            <path id="Path_2262" d="M619.668 381.456l-7.117 4.1a2.608 2.608 0 0 0-1.181 2.044c0 .742.53 1.03 1.181.651l7.117-4.1a2.6 2.6 0 0 0 1.181-2.029c0-.757-.53-1.045-1.181-.666" class="cls-26" transform="translate(-601.695 -275.07)"/>
                            <path id="Path_2263" d="M643.407 370.885l-23.136 13.355a2.608 2.608 0 0 0-1.181 2.044c0 .742.53 1.03 1.181.651l23.136-13.355a2.6 2.6 0 0 0 1.181-2.029c0-.742-.53-1.045-1.181-.666" class="cls-26" transform="translate(-597.725 -280.504)"/>
                            <path id="Path_2264" d="M652.97 363.29l-13.93 8.055.045 19.775 13.945-8.04-.061-19.79" class="cls-26" transform="translate(-587.468 -284.325)"/>
                        </g>
                    </g>
                </g>
            </g>
            <g id="Group_9218" class="cls-2" transform="translate(348 84)">
                <path id="Path_2265" fill="url(#linear-gradient-58)" d="M172.01 258.53v234.286l107.051 61.869 106.567-61.869V258.53z" opacity="0.561" transform="translate(88.508 131.846)"/>
                <g id="Group_9206" transform="translate(260.518 509.268)">
                    <g id="Group_9205">
                        <g id="Group_9204">
                            <g id="Group_9203">
                                <path id="Path_2266" d="M385.628 398.919l-106.567 61.868-107.051-61.868 107.051-61.869z" class="cls-61" transform="translate(-172.01 -337.05)"/>
                            </g>
                            <path id="Path_2267" fill="url(#linear-gradient-60)" d="M349.277 377.91V612.2L242.71 674.065V439.779z" transform="translate(-135.659 -316.041)"/>
                            <path id="Path_2268" d="M279.061 439.779v234.286L172.01 612.2V377.91z" class="cls-57" transform="translate(-172.01 -316.041)"/>
                        </g>
                    </g>
                    <path id="Path_2269" fill="#ff9b68" d="M242.71 449.383l106.567-61.869v-2.574L242.71 446.809z" transform="translate(-135.659 -312.427)"/>
                    <path id="Path_2270" d="M172.01 387.514l107.051 61.869v-2.574L172.01 384.94z" class="cls-24" transform="translate(-172.01 -312.427)"/>
                </g>
                <g id="Group_9216" transform="translate(384.694 547.8)">
                    <path id="Path_2271" fill="#1a9bdb" d="M281.526 394.2c-6.193-3.573-16.217-3.589-22.379-.015-6.193 3.589-6.132 9.4.076 12.976 6.193 3.573 16.2 3.573 22.379-.015 6.147-3.571 6.117-9.37-.076-12.946z" opacity="0.4" transform="translate(-253.756 -347.578)"/>
                    <path id="Path_2272" d="M272.987 419.28s-.8.106-.954.409a22.191 22.191 0 0 0-.212 3.346 21.288 21.288 0 0 0 4.118 3.119c2 1.03 3.71 1.469 4.482.8s.288-1.454-1.348-2.786-3.225-4.906-3.225-4.891z" class="cls-35" transform="translate(-244.869 -333.303)"/>
                    <path id="Path_2273" d="M275.949 413.887s-.8-.106-1.03.151a21.758 21.758 0 0 0-1.06 3.18 20.532 20.532 0 0 0 3.195 4.058c1.666 1.5 3.225 2.362 4.134 1.908.924-.454.651-1.317-.591-3.028s-1.878-5.557-1.878-5.557c.001.015-2.77-.712-2.77-.712z" class="cls-35" transform="translate(-243.819 -336.087)"/>
                    <path id="Path_2274" d="M257.752 391.8c-.061 3.785.424 9.812 2.377 11.159 2.983 2.044 15.217 11.447 15.217 11.447l3.331 19.351s2.074 2.059 5.3 0c0 0-2.165-21.758-2.635-23.666s-11.78-14.2-11.78-14.2z" class="cls-35" transform="translate(-252.104 -347.432)"/>
                    <path id="Path_2275" d="M264.883 390.49c-1.03 3.649-1.741 7.964-.076 9.66 1.8 1.832 20.366 7.374 20.366 7.374l-5.5 18.488s1.484 2.513 5.133 1.348c0 0 9.9-21.138 9.933-23.106s-18.7-11.038-18.7-11.038z" class="cls-35" transform="translate(-248.984 -348.105)"/>
                    <g id="Group_9215" transform="translate(13.991 38.887)">
                        <g id="Group_9213">
                            <g id="Group_9212">
                                <g id="Group_9207" transform="translate(13.597 11.205)">
                                    <path id="Path_2276" d="M290.41 395.777l-18.17 10.554a.208.208 0 0 0 .091-.2L290.5 395.58a.244.244 0 0 1-.09.197z" class="cls-80" transform="translate(-272.24 -395.58)"/>
                                </g>
                                <g id="Group_9208" transform="translate(13.673 10.811)">
                                    <path id="Path_2277" d="M272.29 405.889l18.185-10.569v.394l-18.185 10.569z" class="cls-80" transform="translate(-272.29 -395.32)"/>
                                </g>
                                <g id="Group_9209" transform="translate(0 2.771)">
                                    <path id="Path_2278" d="M263.26 400.579l18.17-10.569 13.57 7.828-18.17 10.569z" class="cls-81" transform="translate(-263.26 -390.01)"/>
                                </g>
                                <g id="Group_9210" transform="translate(7.707 6.99)">
                                    <path id="Path_2279" d="M288.382 395.891a.312.312 0 0 1 0 .591l-13.658 7.934a1.19 1.19 0 0 1-1.015 0l-5.163-2.983c-.273-.151-.257-.424.015-.575l13.658-7.934a1.107 1.107 0 0 1 1-.015z" class="cls-35" transform="translate(-268.35 -392.796)"/>
                                </g>
                                <path id="Path_2280" d="M272.771 409.522l5.633-9.948 18.17-10.554-5.633 9.948a.118.118 0 0 1-.061.061l-18.17 10.554c.015-.016.045-.031.061-.061z" class="cls-81" transform="translate(-258.401 -387.748)"/>
                                <g id="Group_9211" transform="translate(0 10.554)">
                                    <path id="Path_2281" d="M282.823 395.15l.151.167a1.094 1.094 0 0 1 .273 1.105l-5.633 9.948c-.212.454-.818.273-.984.166l-12.749-7.359a1.359 1.359 0 0 1-.621-1.075v-.182l13.567 7.828z" class="cls-81" transform="translate(-263.26 -395.15)"/>
                                </g>
                                <path id="Path_2282" d="M276.18 398.734l18.17-10.554.151.167a1.094 1.094 0 0 1 .273 1.105L276.6 400.006a1.094 1.094 0 0 0-.273-1.105z" class="cls-81" transform="translate(-256.617 -388.18)"/>
                            </g>
                        </g>
                        <g id="Group_9214" transform="translate(10.614 6.06)">
                            <path id="Path_2283" d="M277.568 393.541c.121.076.121.182 0 .257l-4.512 2.62a.453.453 0 0 1-.439 0l-2.256-1.3c-.121-.076-.121-.182 0-.257l4.512-2.62a.453.453 0 0 1 .439 0z" class="cls-35" transform="translate(-270.27 -392.183)"/>
                        </g>
                    </g>
                    <path id="Path_2284" d="M270.784 379.95s2 5.072 2.407 6.45 5.118 9.676 5.39 10.1 3.74 3.18 3.74 3.6a1.4 1.4 0 0 1-1.378 1.332c-1.105.121-4.088-2.029-4.088-2.029s-.757 1.908-1.075-.379c-.318-2.3.575-1.938-.182-3.119 0 0-4.982-3.331-6.147-7.631a15.9 15.9 0 0 1-.136-7.889z" class="cls-36" transform="translate(-246.375 -353.525)"/>
                    <path id="Path_2285" d="M272.7 383.884c-.924-4.255-2.847-9.827-4.664-10.054l1.681 12.159a7.143 7.143 0 0 0 2.983-2.105z" class="cls-37" transform="translate(-246.811 -356.671)"/>
                    <path id="Path_2286" d="M262.495 375.272a23.083 23.083 0 0 0-5.875 3.407l1.726 24.227s3.589 2.635 10.947.712c5.981-1.56 7.556-4.088 7.556-4.088s.545-11.871-.015-17.655c-.56-5.769-2.907-7.965-2.907-7.965a17.275 17.275 0 0 0-4.194-.227z" class="cls-24" transform="translate(-252.683 -356.766)"/>
                    <path id="Path_2287" d="M269.175 363.956a14.4 14.4 0 0 0-7.646.469c-3.77 1.408-1.575 6.8-.454 9.327 1.105 2.529 1.878 1.62 1.878 1.62l8.222-3.316s.242-.257.091-3.695c-.153-3.451-2.091-4.405-2.091-4.405z" class="cls-35" transform="translate(-251.247 -361.909)"/>
                    <path id="Path_2288" d="M261.762 378.337l-.167-5.572a1.3 1.3 0 0 1-1.166-1.635c.242-1.529 1.681-.53 1.923-.076 0 0 .318-5.284 3.119-5.784s5.512.091 5.587 1.454.167 6.117 0 7.889-1.544 2.5-4.1 2.423l.182 2.862s-1.287.939-4.86.061z" class="cls-36" transform="translate(-250.739 -361.163)"/>
                    <path id="Path_2289" d="M266.945 373.37a1.7 1.7 0 0 1 .681.106 3.421 3.421 0 0 1 1.242 2.256 7.87 7.87 0 0 1-.439 2.423l-2.317-2.09-1.454 2.816a5.942 5.942 0 0 1-2.15-1.12 8.252 8.252 0 0 1-2-2.332c.394-1.015.666-1.62.666-1.62.091-.227.53-.348.53-.348s2.468 2.241 4.406 2.347c.002 0 .684-.333.835-2.438z" class="cls-35" transform="translate(-250.683 -356.908)"/>
                    <path id="Path_2290" d="M259.365 389.538c.742-1.878 2.377-6.435 1.923-8.828a4.787 4.787 0 0 0-3.331-3.74c-1.151 1.317-2.831 5.678-3.937 9.312 1.787 1.06 3.543 2.196 5.345 3.256z" class="cls-37" transform="translate(-254.02 -355.057)"/>
                    <path id="Path_2291" d="M274.134 365.772a4.385 4.385 0 0 0-.787-1.484c-1.878-2.3-4.6-.954-7.026-1.378a12.579 12.579 0 0 0-1.7-.409 3.924 3.924 0 0 0-3.725 2.15c-.106.242-.212.515-.3.787a3.98 3.98 0 0 0-.257 1.3 23.433 23.433 0 0 0 .5 2.7 10.965 10.965 0 0 0 1.605 3.967c.212-.061.439-.121.651-.182a3.451 3.451 0 0 1 .379-1.756 2.944 2.944 0 0 0 .288-2.756 3.788 3.788 0 0 0 3.377.515 5.572 5.572 0 0 1 3.059.727 3.321 3.321 0 0 0 3.059.106 2.88 2.88 0 0 0 1.075-2.12 5.577 5.577 0 0 0-.198-2.167z" class="cls-35" transform="translate(-250.771 -362.498)"/>
                    <path id="Path_2292" d="M255.316 383.78s-1.257 6.42-.151 7.707 11.629 7.556 12.492 8.464c.863.893 3.77 3.392 5.724 3.346s2.953 1.8 3.922 1.984c.984.182.833-2.332.545-3.3-.348-1.151-2.7-1.363-2.7-1.363s2.529-1.242-1.438-.727l-2.3-.379-11.61-11.129.227-1.908z" class="cls-36" transform="translate(-253.665 -351.556)"/>
                </g>
                <g id="Group_9217" opacity="0.6" transform="translate(320.554 438.767)">
                    <path id="Path_2293" d="M227.468 403.19l-.03-11.129 7.571-4.376.03 11.129-7.571 4.376m28.814-16.641l-.045-16.747 7.571-4.376.045 16.747-7.571 4.376m-28.845 5.512l-.015-6.889 7.571-4.376.015 6.889-7.571 4.376m14.445 2.8l-.061-19.5 7.557-4.361.061 19.5-7.556 4.361m28.8-16.626l-.076-26.407 7.571-4.376.076 26.392-7.571 4.391m-14.445-8.449l-.03-10.372 7.571-4.376.03 10.372-7.571 4.376m-14.415 5.572l-.03-12.083 7.556-4.361.03 12.083-7.556 4.361m28.784-23.53l-.045-16.338 7.571-4.376.045 16.338-7.571 4.376m-48.757 61.764c-.333.2-.606.045-.606-.333l-.151-52.587a1.306 1.306 0 0 1 .606-1.045c.333-.2.606-.03.606.348l.151 51.89 66.214-38.232c.333-.2.606-.045.606.348a1.353 1.353 0 0 1-.606 1.045l-66.82 38.566m13.022-68.758c-.666.379-1.211.076-1.211-.7a2.641 2.641 0 0 1 1.211-2.09l19.321-11.159c.666-.379 1.211-.076 1.211.7a2.681 2.681 0 0 1-1.211 2.089l-19.321 11.159m23.428-13.521c-.666.379-1.211.076-1.211-.7a2.641 2.641 0 0 1 1.211-2.09l4.452-2.574c.666-.379 1.211-.076 1.211.7a2.641 2.641 0 0 1-1.211 2.09l-4.452 2.574m-36.612 21.4l-.015-3.271 7.253-4.179.015 3.271-7.253 4.179m26.089-22.273a.87.87 0 0 1-.863.091.829.829 0 0 1-.348-.772l.03-.288.061-.288.121-.318.151-.288a2.4 2.4 0 0 1 .863-.878.925.925 0 0 1 .863-.121l.151.121.106.182.076.212.015.273a2.447 2.447 0 0 1-.348 1.181 2.913 2.913 0 0 1-.878.893m-12.916 7.45c-.666.379-1.211.076-1.211-.7a2.641 2.641 0 0 1 1.211-2.09l9.358-5.406c.666-.379 1.211-.076 1.211.7a2.641 2.641 0 0 1-1.211 2.09l-9.358 5.406m16.656-9.615c-.666.379-1.211.076-1.211-.7a2.682 2.682 0 0 1 1.211-2.09L262.733 319c.666-.379 1.211-.076 1.211.7a2.641 2.641 0 0 1-1.211 2.089l-11.22 6.481m-29.844 17.473l-.015-3.271 7.253-4.179.015 3.271-7.253 4.179m72.18-54.752l-78.57 45.364a7.97 7.97 0 0 0-3.619 6.269l.242 83.355c0 2.3 1.635 3.225 3.649 2.074l78.57-45.364a7.948 7.948 0 0 0 3.619-6.269l-.242-83.354c0-2.3-1.635-3.24-3.649-2.074" class="cls-39" transform="translate(-211.66 -290.489)"/>
                    <path id="Path_2294" d="M218.5 336.179a1.353 1.353 0 0 0-.606 1.045l.151 52.587c0 .379.273.53.606.333l66.82-38.581a1.353 1.353 0 0 0 .606-1.045c0-.394-.273-.545-.606-.348l-66.218 38.23-.151-51.89c0-.379-.273-.53-.606-.333" class="cls-26" transform="translate(-208.457 -267.041)"/>
                    <path id="Path_2295" d="M229.636 354.68l-7.556 4.376.03 11.129 7.571-4.376-.045-11.129" class="cls-38" transform="translate(-206.302 -257.484)"/>
                    <path id="Path_2296" d="M239.136 343.66l-7.556 4.361.061 19.5 7.556-4.361-.061-19.5" class="cls-38" transform="translate(-201.418 -263.15)"/>
                    <path id="Path_2297" d="M248.671 339.98l-7.571 4.361.045 16.762 7.571-4.376-.045-16.747" class="cls-38" transform="translate(-196.523 -265.042)"/>
                    <path id="Path_2298" d="M258.161 328.12l-7.571 4.361.076 26.407 7.571-4.376-.076-26.392" class="cls-38" transform="translate(-191.644 -271.14)"/>
                    <path id="Path_2299" d="M229.631 350.13l-7.571 4.376.03 6.889 7.556-4.376-.015-6.889" class="cls-26" transform="translate(-206.313 -259.824)"/>
                    <path id="Path_2300" d="M239.116 335.67l-7.556 4.376.03 12.083 7.556-4.361-.03-12.1" class="cls-26" transform="translate(-201.428 -267.259)"/>
                    <path id="Path_2301" d="M248.651 333.13l-7.571 4.361.03 10.372 7.571-4.361-.03-10.372" class="cls-26" transform="translate(-196.533 -268.564)"/>
                    <path id="Path_2302" d="M258.131 317.33l-7.571 4.361.045 16.338 7.571-4.361-.045-16.338" class="cls-26" transform="translate(-191.659 -276.688)"/>
                    <path id="Path_2303" d="M225.513 322.06l-7.253 4.194.015 3.255 7.253-4.179-.015-3.271" class="cls-38" transform="translate(-208.266 -274.256)"/>
                    <path id="Path_2304" d="M225.523 326.65l-7.253 4.194.015 3.271 7.253-4.194-.015-3.271" class="cls-38" transform="translate(-208.261 -271.896)"/>
                    <path id="Path_2305" d="M236.749 316.447l-9.357 5.406a2.658 2.658 0 0 0-1.211 2.09c0 .772.545 1.075 1.211.7l9.357-5.406a2.658 2.658 0 0 0 1.211-2.089c0-.772-.545-1.09-1.211-.7" class="cls-26" transform="translate(-204.194 -277.229)"/>
                    <path id="Path_2306" d="M235.926 315.1a2.526 2.526 0 0 0-.863.878l-.151.288-.121.318-.061.288-.03.288a.829.829 0 0 0 .348.772.87.87 0 0 0 .863-.091 2.631 2.631 0 0 0 .863-.909 2.4 2.4 0 0 0 .348-1.181l-.015-.273-.076-.212-.106-.182-.151-.121a1 1 0 0 0-.848.136" class="cls-26" transform="translate(-199.814 -277.927)"/>
                    <path id="Path_2307" d="M249.6 309.387l-11.22 6.481a2.658 2.658 0 0 0-1.211 2.09c0 .772.545 1.075 1.211.7l11.22-6.481a2.658 2.658 0 0 0 1.211-2.09c0-.772-.545-1.09-1.211-.7" class="cls-26" transform="translate(-198.544 -280.859)"/>
                    <path id="Path_2308" d="M246.722 317.235l-19.322 11.16a2.658 2.658 0 0 0-1.211 2.09c0 .772.545 1.075 1.211.7l19.321-11.159a2.658 2.658 0 0 0 1.211-2.09c0-.772-.545-1.075-1.211-.7" class="cls-26" transform="translate(-204.189 -276.821)"/>
                    <path id="Path_2309" d="M247.323 313.975l-4.452 2.574a2.658 2.658 0 0 0-1.211 2.09c0 .772.545 1.075 1.211.7l4.452-2.574a2.658 2.658 0 0 0 1.211-2.09c0-.772-.545-1.075-1.211-.7" class="cls-26" transform="translate(-196.235 -278.497)"/>
                </g>
            </g>
            <g id="Group_9222" class="cls-2" transform="translate(348 84)">
                <g id="Group_9221" transform="translate(124.864 651.72)">
                    <g id="Group_9220">
                        <g id="Group_9219">
                            <path id="Path_2310" fill="url(#linear-gradient-62)" d="M115.747 440.775l-16.625 9.66-16.7-9.66 16.7-9.645z" transform="translate(-82.42 -431.13)"/>
                        </g>
                        <path id="Path_2311" fill="url(#linear-gradient-63)" d="M110.075 437.5v236.573l-16.625 9.66V447.16z" transform="translate(-76.749 -427.855)"/>
                        <path id="Path_2312" fill="url(#linear-gradient-64)" d="M99.121 447.16v236.573l-16.7-9.66V437.5z" transform="translate(-82.42 -427.855)"/>
                    </g>
                </g>
                <path id="Path_2313" fill="url(#linear-gradient-65)" d="M99.121 431.13l-16.7 9.645v236.573l16.7 9.66 16.625-9.66V440.775z" transform="translate(42.444 220.59)"/>
            </g>
        </g>
    </g>
</svg>
