<svg xmlns="http://www.w3.org/2000/svg" width="1440" height="469" viewBox="0 0 1440 469">
    <defs>
        <clipPath id="clip-path">
            <path id="Path_3581" d="M182.932 170.121s5.7 47.5 2.527 73.481 3.806 60.816 1.263 74.744c-2.527 13.929-5.7 45.608-1.9 49.414 0 0-12.034 6.964-16.471 0 0 0-9.507-58.273-12.034-78.55s-12.665-96.285-15.208-96.916c-2.527-.632 6.333 80.445 4.438 96.916s-4.438 62.079-2.527 72.217c0 0-15.208 4.438-19.645-.632 0 0 1.263-50.677 0-63.342s-17.735-94.39-10.139-119.72c7.617-25.346 46.892-72.217 69.696-7.612z" transform="translate(-111.248 -137.454)"/>
        </clipPath>
        <clipPath id="clip-path-2">
            <path id="Path_3584" d="M170.7 71.1h-25.982l-29.452 17.1-4.753 46.239s4.438 74.744-1.9 88.689c-6.333 13.929 24.067-1.9 27.241-6.333s6.333-12.665 6.333-12.665-3.17 12.67 15.213 20.28c18.366 7.6 40.538 11.4 39.275 8.875s-7.6-34.837-8.875-42.449c-1.263-7.6.632-44.344.632-44.344S209.655 88.2 170.7 71.1z" transform="translate(-107.752 -71.1)"/>
        </clipPath>
        <clipPath id="clip-path-4">
            <path id="Path_3588" d="M154.035 63.638c0 .632 0 12.034 2.527 15.208S143.9 82.652 143.9 82.652l-11.2-7.722s2.321-10.644 1.69-15.713 19.645 4.421 19.645 4.421z" class="cls-1" transform="translate(-132.7 -57.726)"/>
        </clipPath>
        <clipPath id="clip-path-5">
            <path id="Path_3594" d="M157.865 68.29l2.542 8.243-13.312 46.867-10.786 30.8-6.949-56.142 1.484-22.377 2.956-7.391 11.4 6.964z" transform="translate(-129.36 -68.29)"/>
        </clipPath>
        <style>
            .cls-1{fill:#ffdcd8}.cls-3{fill:#b2c3ee;opacity:.4}.cls-4{fill:#17161d}.cls-5{fill:#506ac1}.cls-7{fill:#20367b;opacity:.35}.cls-8{clip-path:url(#clip-path-2)}.cls-11{fill:#37344b}.cls-13{clip-path:url(#clip-path-5)}.cls-14{fill:#f45a1c}.cls-15{fill:#6181d8}
        </style>
    </defs>
    <g id="Group_15203" transform="translate(0 -90)">
        <path id="Rectangle_2022" fill="#ebf3fa" d="M0 0H1440V469H0z" transform="translate(0 90)"/>
        <g id="Group_10081" transform="translate(456.604 98.8)">
            <path id="Path_3573" d="M240.552 269.661l4.2-1.208 2.8-64.695c5.41 1.4 11.416-1.8 11.416-1.8 3.2-13.219-9.209-72.294-9.209-72.294l-26.438-12.624-5.515-4.412c-5.2-11.416 3.4-7.616 6.321-19.82 0 0 .35-1.646.788-4.22.07 0 .14.018.228.018 3.1 0 5.6-2.154 5.6-4.815a4.813 4.813 0 0 0-3.169-4.325 4.5 4.5 0 0 0 1.593-3.169 4.429 4.429 0 0 0 1.733-3.887 4.012 4.012 0 0 0-.753-1.943A4.451 4.451 0 0 0 232.1 66.4a4.594 4.594 0 0 0-3.222-3.747 4.124 4.124 0 0 0 .858-2.5c0-2.539-2.381-4.6-5.305-4.6h-.1c-.123-2.451-2.434-4.412-5.288-4.412a5.874 5.874 0 0 0-1.488.193 5.223 5.223 0 0 0-5.113-3.4 5.615 5.615 0 0 0-4.395 2.014 5.791 5.791 0 0 0-8.544.123 5.805 5.805 0 0 0-3.484-1.138 5.347 5.347 0 0 0-4.9 2.854 6.034 6.034 0 0 0-1.7-.245c-2.924 0-5.305 2.066-5.305 4.6a4.234 4.234 0 0 0 .928 2.609 4.734 4.734 0 0 0-3.747 4.395 4.3 4.3 0 0 0 1.7 3.362 4.5 4.5 0 0 0-2.4 3.852 4.455 4.455 0 0 0 2.224 3.747 4.509 4.509 0 0 0-2.434 3.869 4.666 4.666 0 0 0 3.467 4.307 6.25 6.25 0 0 0-.14 1.3c0 2.766 1.751 5.007 3.9 5.007a2.9 2.9 0 0 0 1.156-.228 20.157 20.157 0 0 0 1.961 5.83s8.3 10.418 4.692 17.229c-.4.753-34.334 21.431-34.334 21.431-13.622 22.831 12.011 75.5 12.011 75.5l-.805 56.676 8.019 1.208s1 55.275-1.8 63.89-6.811 73.309-9.612 79.717 1 5.2 1.611 9.42c.6 4.2-5.6 7-1.8 15.828 3.8 8.807 20.03 4.01 21.623 1.4 1.611-2.609-5.41-14.427-3.8-16.616s1-2.609.805-6.216 0-7.214 0-7.214c.4-21.028 11.818-73.5 11.818-73.5 3.2-5.6 15.618-66.1 15.618-66.1l-6.408 66.1c-6.811 21.431.4 68.7 1.4 71.3a23.837 23.837 0 0 1 1.4 12.414c-.805 5.813 2 8.4 2 8.4l-4.6 9.017c9.42 7.616 44.454 2.4 44.454 2.4s3.8-8.212-8.4-7.809c-12.221.4-14.812-7-14.812-7 3.011-3.4-1.208-9.017.193-10.61 1.4-1.611-1.4-59.687 3.011-75.5 4.335-15.821 7.539-65.896 7.539-65.896z" class="cls-3" transform="translate(160.872 -11.234)"/>
            <path id="Path_5731" d="M240.552 269.661l4.2-1.208 2.8-64.695c5.41 1.4 11.416-1.8 11.416-1.8 3.2-13.219-9.209-72.294-9.209-72.294l-26.438-12.624-5.515-4.412c-5.2-11.416 3.4-7.616 6.321-19.82 0 0 .35-1.646.788-4.22.07 0 .14.018.228.018 3.1 0 5.6-2.154 5.6-4.815a4.813 4.813 0 0 0-3.169-4.325 4.5 4.5 0 0 0 1.593-3.169 4.429 4.429 0 0 0 1.733-3.887 4.012 4.012 0 0 0-.753-1.943A4.451 4.451 0 0 0 232.1 66.4a4.594 4.594 0 0 0-3.222-3.747 4.124 4.124 0 0 0 .858-2.5c0-2.539-2.381-4.6-5.305-4.6h-.1c-.123-2.451-2.434-4.412-5.288-4.412a5.874 5.874 0 0 0-1.488.193 5.223 5.223 0 0 0-5.113-3.4 5.615 5.615 0 0 0-4.395 2.014 5.791 5.791 0 0 0-8.544.123 5.805 5.805 0 0 0-3.484-1.138 5.347 5.347 0 0 0-4.9 2.854 6.034 6.034 0 0 0-1.7-.245c-2.924 0-5.305 2.066-5.305 4.6a4.234 4.234 0 0 0 .928 2.609 4.734 4.734 0 0 0-3.747 4.395 4.3 4.3 0 0 0 1.7 3.362 4.5 4.5 0 0 0-2.4 3.852 4.455 4.455 0 0 0 2.224 3.747 4.509 4.509 0 0 0-2.434 3.869 4.666 4.666 0 0 0 3.467 4.307 6.25 6.25 0 0 0-.14 1.3c0 2.766 1.751 5.007 3.9 5.007a2.9 2.9 0 0 0 1.156-.228 20.157 20.157 0 0 0 1.961 5.83s8.3 10.418 4.692 17.229c-.4.753-34.334 21.431-34.334 21.431-13.622 22.831 12.011 75.5 12.011 75.5l-.805 56.676 8.019 1.208s1 55.275-1.8 63.89-6.811 73.309-9.612 79.717 1 5.2 1.611 9.42c.6 4.2-5.6 7-1.8 15.828 3.8 8.807 20.03 4.01 21.623 1.4 1.611-2.609-5.41-14.427-3.8-16.616s1-2.609.805-6.216 0-7.214 0-7.214c.4-21.028 11.818-73.5 11.818-73.5 3.2-5.6 15.618-66.1 15.618-66.1l-6.408 66.1c-6.811 21.431.4 68.7 1.4 71.3a23.837 23.837 0 0 1 1.4 12.414c-.805 5.813 2 8.4 2 8.4l-4.6 9.017c9.42 7.616 44.454 2.4 44.454 2.4s3.8-8.212-8.4-7.809c-12.221.4-14.812-7-14.812-7 3.011-3.4-1.208-9.017.193-10.61 1.4-1.611-1.4-59.687 3.011-75.5 4.335-15.821 7.539-65.896 7.539-65.896z" class="cls-3" transform="translate(-164.624 -11.234)"/>
            <path id="Path_3574" d="M261.4 68.27s2.416-12.764 21.2-8.649 41.915 48.149 15.408 63.784l19.277 10.3s24.565 41.566 18.787 61.316c0 0-7.231 4.115-18.314-1.243l2.416 20.573-5.305 1.646s8.194 45.68-25.055 113.58l4.342 73.659 9.157 18.1s18.787 6.583 6.741 7.826-18.314-.823-19.277-3.292-3.852-14.812-3.852-14.812-1.925 16.877-2.415 15.634-3.852-19.347-3.852-19.347l3.852-9.052-9.157-35.385L263.8 392.13s-2.416 23.865-.49 25.51 11.083 4.535 4.815 6.583c-6.268 2.066-17.351 1.243-16.861-2.469.193-1.506.945-5.655 1.768-10.05 1.208-6.443 2.574-13.412 2.574-13.412l-5.778 13.99s-.49-18.927 5.305-23.864c5.778-4.937 0-49.795 16.388-62.962l-.963-18.927s-6.741-27.156-17.824-43.212 8.667-47.729 8.667-47.729l-1.453-3.712s-3.852 2.889-11.083-10.3c-7.231-13.167-24.092-57.6-9.157-66.253s22.639-9.875 22.639-9.875-16.861-5.358-16.371-18.927 5.302-41.963 15.424-38.251z" class="cls-3" transform="translate(353.033 -3.07)"/>
            <path id="Path_5733" d="M261.4 68.27s2.416-12.764 21.2-8.649 41.915 48.149 15.408 63.784l19.277 10.3s24.565 41.566 18.787 61.316c0 0-7.231 4.115-18.314-1.243l2.416 20.573-5.305 1.646s8.194 45.68-25.055 113.58l4.342 73.659 9.157 18.1s18.787 6.583 6.741 7.826-18.314-.823-19.277-3.292-3.852-14.812-3.852-14.812-1.925 16.877-2.415 15.634-3.852-19.347-3.852-19.347l3.852-9.052-9.157-35.385L263.8 392.13s-2.416 23.865-.49 25.51 11.083 4.535 4.815 6.583c-6.268 2.066-17.351 1.243-16.861-2.469.193-1.506.945-5.655 1.768-10.05 1.208-6.443 2.574-13.412 2.574-13.412l-5.778 13.99s-.49-18.927 5.305-23.864c5.778-4.937 0-49.795 16.388-62.962l-.963-18.927s-6.741-27.156-17.824-43.212 8.667-47.729 8.667-47.729l-1.453-3.712s-3.852 2.889-11.083-10.3c-7.231-13.167-24.092-57.6-9.157-66.253s22.639-9.875 22.639-9.875-16.861-5.358-16.371-18.927 5.302-41.963 15.424-38.251z" class="cls-3" transform="translate(-13.967 -3.07)"/>
            <path id="Path_3575" d="M86.258 321.1s1.086-7.931 1.733-19.732c-3.467 1.821-3.537 1.821-.088 0 1.261-22.8.98-60.055-11.853-82.344l4.71-.665a3.7 3.7 0 0 0 3.046-2.679 3.669 3.669 0 0 1 1.086-1.751c4.78-4.342 29.659-27.261 33.266-36.4 0 0-17.491-35.893-34.352-45.1l-9.506-3.68s13.814-19.015 12.273-38.957S73 44.549 55.863 58.276c0 0-10.418-8.019-19.312 8.544s-4.587 65.938-4.587 65.938-16.248 19.312-14.41 62.261c0 0-11.958 49.392-12.886 50.3C3.74 246.25-3 256.37 1.6 265.562c4.6 9.21 7.056 2.766 7.056 2.766s5.218-5.83 2.154-12.571c0 0 .928-6.128-.613-9.21l17.81-44.787v7.214s-17.719 31.236-4.237 94.18c.035.017 0 .035.053.053 1.243 5.8 2.714 11.871 4.517 18.209a614.515 614.515 0 0 1 9.8 96.631l-9.525 18.4s-10.435 1.226-6.443 3.379 12.571.315 12.571.315l5.218-12.274 1.226 12.274c2.766-.315 5.515-18.717 5.515-18.717l-4.29-5.515s15.548-57.1 4.6-95.405c-.175-.6.56-4.938 1.593-11.293a72.836 72.836 0 0 0 15.9-.368c1.838-.245 2.013-.245.175 0 2.521 8.614 5.13 15.53 7.511 18.4l26.385 86.826-1.541 20.853s-5.515 1.838-.928 3.379c4.6 1.541 10.733 1.226 10.733-2.154s-3.379-22.1-3.379-23.322c-.028-1.225.288-72.71-17.203-91.725zM69.922 207.381L85.645 163.1l18.1 17.176-23.006 29.45z" class="cls-3" transform="translate(-162.613 -6.4)"/>
            <path id="Path_5732" d="M86.258 321.1s1.086-7.931 1.733-19.732c-3.467 1.821-3.537 1.821-.088 0 1.261-22.8.98-60.055-11.853-82.344l4.71-.665a3.7 3.7 0 0 0 3.046-2.679 3.669 3.669 0 0 1 1.086-1.751c4.78-4.342 29.659-27.261 33.266-36.4 0 0-17.491-35.893-34.352-45.1l-9.506-3.68s13.814-19.015 12.273-38.957S73 44.549 55.863 58.276c0 0-10.418-8.019-19.312 8.544s-4.587 65.938-4.587 65.938-16.248 19.312-14.41 62.261c0 0-11.958 49.392-12.886 50.3C3.74 246.25-3 256.37 1.6 265.562c4.6 9.21 7.056 2.766 7.056 2.766s5.218-5.83 2.154-12.571c0 0 .928-6.128-.613-9.21l17.81-44.787v7.214s-17.719 31.236-4.237 94.18c.035.017 0 .035.053.053 1.243 5.8 2.714 11.871 4.517 18.209a614.515 614.515 0 0 1 9.8 96.631l-9.525 18.4s-10.435 1.226-6.443 3.379 12.571.315 12.571.315l5.218-12.274 1.226 12.274c2.766-.315 5.515-18.717 5.515-18.717l-4.29-5.515s15.548-57.1 4.6-95.405c-.175-.6.56-4.938 1.593-11.293a72.836 72.836 0 0 0 15.9-.368c1.838-.245 2.013-.245.175 0 2.521 8.614 5.13 15.53 7.511 18.4l26.385 86.826-1.541 20.853s-5.515 1.838-.928 3.379c4.6 1.541 10.733 1.226 10.733-2.154s-3.379-22.1-3.379-23.322c-.028-1.225.288-72.71-17.203-91.725zM69.922 207.381L85.645 163.1l18.1 17.176-23.006 29.45z" class="cls-3" transform="translate(441.234 -6.4)"/>
            <path id="Path_3576" d="M192.394 436.442c-15.9-1.261-27.751-11.1-27.751-11.1l7.056-164.25 3.782-.508-1.261-54.242a55.494 55.494 0 0 0 8.317.735 7.3 7.3 0 0 0 7.179-5.638c6.583-28.242-1.628-56.431-5.55-67.461a11.814 11.814 0 0 0-6.338-6.828l-21.676-9.612-2.871-4.307-.683-6.706a6.868 6.868 0 0 1 1.821-5.428 6.884 6.884 0 0 0 1.751-3.484l1.471-8.089h.053a5.2 5.2 0 0 0 4.92-5.428 5.55 5.55 0 0 0-2.521-4.745c7.564-23.374-4.8-28.189-4.8-28.189-23.216-9.595-31.8 5.305-31.8 5.305-6.566-1.016-5.8 8.072-5.8 8.072l-.385 10.435a21.656 21.656 0 0 0 .193 3.834 5.332 5.332 0 0 0-3.834 5.288 5.2 5.2 0 0 0 4.92 5.428 4.345 4.345 0 0 0 1.191-.175l1.856 8.229a6.173 6.173 0 0 0 1.383 2.714l1.4 1.576a4.633 4.633 0 0 1 1.138 3.554l-.805 8.072-3.029 3.782-22.271 9.875a11.815 11.815 0 0 0-6.338 6.828c-3.922 11.031-12.133 39.22-5.55 67.461a7.3 7.3 0 0 0 7.179 5.638 57.927 57.927 0 0 0 8.317-.735l-1.258 54.241 3.782.508 7.056 164.25s-11.853 9.84-27.751 11.1c0 0-4.29.245-2.784 4.8 0 0 7.073 3.537 26.753 1.768s24.214-1.506 24.214-1.506l-5.305-14.882 2.013-5.043-2.521-7.826 11.346-143.012 11.35 143.009-2.521 7.826 2.013 5.043-5.305 14.881s4.535-.245 24.214 1.506c19.68 1.768 26.753-1.768 26.753-1.768 1.576-4.551-2.713-4.796-2.713-4.796z" class="cls-3" transform="translate(13.42 -11.226)"/>
            <g id="Group_10078" transform="translate(159.462 36.695)">
                <path id="Path_3577" d="M144.656 278.647c0 .632 3.806 12.665 1.263 13.3-2.527.632-8.875.632-10.139 0s-2.527-.632-5.069.632c-2.527 1.263-25.346 1.9-26.61 0s17.735-6.333 25.346-13.3 15.209-.632 15.209-.632z" class="cls-4" transform="translate(-90.927 123.173)"/>
                <path id="Path_3578" d="M162 282.926s12.665 8.228 12.034 10.77c-.632 2.527-16.471 4.438-22.8 2.527-6.333-1.9-9.507-2.527-5.069-7.6s8.869-8.871 15.835-5.697z" class="cls-4" transform="translate(-67.731 126.506)"/>
                <g id="Group_10069" transform="translate(24.494 180.374)">
                    <path id="Path_3579" d="M182.932 170.121s5.7 47.5 2.527 73.481 3.806 60.816 1.263 74.744c-2.527 13.929-5.7 45.608-1.9 49.414 0 0-12.034 6.964-16.471 0 0 0-9.507-58.273-12.034-78.55s-12.665-96.285-15.208-96.916c-2.527-.632 6.333 80.445 4.438 96.916s-4.438 62.079-2.527 72.217c0 0-15.208 4.438-19.645-.632 0 0 1.263-50.677 0-63.342s-17.735-94.39-10.139-119.72c7.617-25.346 46.892-72.217 69.696-7.612z" class="cls-5" transform="translate(-111.248 -137.454)"/>
                    <g id="Group_10068" clip-path="url(#clip-path)">
                        <path id="Path_3580" d="M194.422 197.945s-38.643-2.116-50.045-26.389-27.241 28.931-39.275 20.056 44.976-47.5 44.976-47.5 50.045 27.224 44.344 53.833z" class="cls-7" transform="translate(-115.774 -133.599)"/>
                    </g>
                </g>
                <g id="Group_10072" transform="translate(18.974 75.586)">
                    <path id="Path_3582" d="M170.7 71.1h-25.982l-29.452 17.1-4.753 46.239s4.438 74.744-1.9 88.689c-6.333 13.929 24.067-1.9 27.241-6.333s6.333-12.665 6.333-12.665-3.17 12.67 15.213 20.28c18.366 7.6 40.538 11.4 39.275 8.875s-7.6-34.837-8.875-42.449c-1.263-7.6.632-44.344.632-44.344S209.655 88.2 170.7 71.1z" class="cls-5" transform="translate(-107.752 -71.1)"/>
                    <g id="Group_10070" class="cls-8">
                        <path id="Path_3583" d="M107.7 131.555s12.665-2.527 17.1-3.806c0 0 63.974 28.5 74.744 21.54s-29.768-19-29.768-19l-57.638-16.469z" class="cls-7" transform="translate(-107.782 -46.356)"/>
                    </g>
                    <g id="Group_10071" class="cls-8">
                        <path id="Path_3585" d="M188.038 99.309c-.9-.063-6.333 23.151-12.034 23.293s-17.1.142-17.1.142l-1.9-3.174s-24.873-1.406-27.873-1.9c-7.6-1.263-9.507-26.926-9.507-26.926s-11.4 21.225-12.665 25.662 5.069 14.781 5.069 14.781 69.043 14.355 75.376 2.321 10.773-33.567.634-34.199z" class="cls-7" transform="translate(-108.307 -59.718)"/>
                    </g>
                </g>
                <g id="Group_10074" transform="translate(58.372 54.466)">
                    <path id="Path_3587" d="M154.035 63.638c0 .632 0 12.034 2.527 15.208S143.9 82.652 143.9 82.652l-11.2-7.722s2.321-10.644 1.69-15.713 19.645 4.421 19.645 4.421z" class="cls-1" transform="translate(-132.7 -57.726)"/>
                    <g id="Group_10073" clip-path="url(#clip-path-4)">
                        <ellipse id="Ellipse_580" cx="17.103" cy="16.471" fill="#ffdcd8" opacity="0.37" rx="17.103" ry="16.471" transform="translate(-4.643 -18.155)"/>
                    </g>
                </g>
                <ellipse id="Ellipse_581" cx="20.277" cy="26.926" class="cls-1" rx="20.277" ry="26.926" transform="translate(50.555 12.228)"/>
                <path id="Path_3589" d="M170.1 60.811l1.911-2.527s1.263-15.84-1.9-20.277c-3.174-4.438-13.945-13.265-22.172-14.576-12.034-1.9-5.069 10.77-11.4 8.228-6.333-2.527-13.929 5.069-11.4 13.3s4.438 17.1 4.438 17.1-.632-14.576 2.527-13.3c3.174 1.263 10.139 6.964 19-.632 4.533-3.866 17.72-8.227 18.996 12.684z" class="cls-11" transform="translate(-78.994 -23.237)"/>
                <path id="Path_3590" d="M152.62 49.746c-.869 3.158-.205 6.112 1.484 6.57s3.759-1.721 4.627-4.9c.869-3.158.205-6.112-1.484-6.57-1.674-.437-3.747 1.742-4.627 4.9z" class="cls-1" transform="translate(-63.011 -10.751)"/>
                <path id="Path_3591" d="M131.482 49.746c.869 3.158.205 6.112-1.484 6.57s-3.759-1.721-4.627-4.9c-.869-3.158-.205-6.112 1.484-6.57 1.689-.437 3.758 1.742 4.627 4.9z" class="cls-1" transform="translate(-78.795 -10.751)"/>
                <g id="Group_10077" transform="translate(53.097 71.148)">
                    <path id="Path_3592" fill="#fdfefd" d="M157.865 68.29l2.542 8.243-13.312 46.867-10.786 30.8-6.949-56.142 1.484-22.377 2.956-7.391 11.4 6.964z" transform="translate(-129.36 -68.29)"/>
                    <g id="Group_10075" class="cls-13">
                        <path id="Path_3593" d="M141.649 72.7s5.069 6.333 3.806 6.964-2.527 2.527-4.438 2.527-4.438-3.174-4.438-3.174z" class="cls-14" transform="translate(-125.178 -65.736)"/>
                    </g>
                    <g id="Group_10076" class="cls-13">
                        <path id="Path_3595" d="M142.877 78.72l.316 25-6.175 27.747-3.648-7.77.63-20.91z" class="cls-14" transform="translate(-127.037 -62.249)"/>
                    </g>
                </g>
                <path id="Path_3597" d="M157.57 70.3s16.471 20.277 12.665 20.909-10.139 3.174-8.875 6.333c1.263 3.174 7.6 11.4-2.527 17.1-10.139 5.7-25.978 38.012-27.873 71.586.016-.014 3.695-78.911 26.61-115.928z" class="cls-15" transform="translate(-75.336 4.022)"/>
                <path id="Path_3598" d="M137.629 70.3s-20.2 16.582-16.645 18.082 9.128 5.432 7.154 8.228c-1.974 2.779-10.044 9.317-1.516 17.229 8.528 7.9 16.424 43 10.47 76.1 0-.014 14.228-78.311.537-119.639z" class="cls-15" transform="translate(-81.357 4.022)"/>
                <path id="Path_3599" fill="#fff" d="M135.844 109.83l8.623.284-4.311 12.16-8.986-.758z" transform="translate(-75.215 26.919)"/>
                <path id="Path_3600" d="M140.764 111.815s17.261-3.932 24.178.553-.695 15.255-10.186 13.36c-9.507-1.9-18.366-3.174-18.366-3.174z" class="cls-1" transform="translate(-72.191 27.145)"/>
                <path id="Path_3601" d="M171.113 75.425c-3.79-4.848-5.432-4.327-2.527-3.806 6.759 1.232 27.62 13.013 32.627 21.54 5.464 9.286 6.964 57.641-10.139 70.322-14.26 10.565-74.744-13.929-74.744-13.929l15.208-6.333s27.873 1.9 36.1 3.806c8.228 1.9 12.192-30.163 13.613-33.574 10.139-24.097-10.138-38.026-10.138-38.026z" class="cls-5" transform="translate(-83.81 4.598)"/>
                <path id="Path_3602" d="M148.835 71.9s-28.189 10.139-35.785 20.909-19 43.713-17.1 51.94 24.067 11.37 55.746-1.279l5.069-12.65s-29.879 4.927-30.4 1.263c-6.035-41.817 22.47-60.183 22.47-60.183z" class="cls-5" transform="translate(-95.738 4.949)"/>
                <path id="Path_3603" d="M128.82 114.96s-5.006-8.575-13.313-11.686c-5.069-1.9-12.981-.316-13.613 4.753s6.664 8.386 12.192 7.675c5.558-.71 14.734-.742 14.734-.742z" class="cls-1" transform="translate(-92.194 22.673)"/>
                <path id="Path_3604" d="M168.058 44.341s-1.942 18.808-9.76 18.808-10.66-3.553-18.477 0S128.167 45.9 128.167 45.9l-1.137-.537s2.843 7.817 1.421 12.081c0 0-.711 14.213 1.421 16.345s17.056 9.949 20.625 9.238c3.553-.711 18.477-9.949 19.187-12.081s-.711-14.213-.711-14.213-.711-7.817.711-12.081c1.406-4.259-1.626-.311-1.626-.311z" class="cls-11" transform="translate(-77.612 -11.978)"/>
            </g>
            <g id="Group_10080" transform="translate(79.703 .002)">
                <path id="Path_3605" d="M336.433 327.64L185.16 178.767l29.658-30.147 151.273 148.872a21.151 21.151 0 0 1 .237 29.91 21.146 21.146 0 0 1-29.895.238z" class="cls-14" transform="translate(35.816 86.08)"/>
                <path id="Path_3606" fill="#d6d8ff" d="M311.373 311.809L213.13 215.13l38.454-39.07 98.243 96.679a27.427 27.427 0 0 1 .316 38.77 27.413 27.413 0 0 1-38.77.3z" transform="translate(52.017 101.973)"/>
                <g id="Group_10079">
                    <path id="Path_3607" d="M88.894 250.762c-57.562-56.646-58.3-149.552-1.658-207.1 56.646-57.562 149.552-58.3 207.1-1.658 57.562 56.646 58.3 149.552 1.658 207.1-56.632 57.562-149.553 58.305-207.1 1.658zM280.058 56.519a126.088 126.088 0 1 0-176.888 179.73c49.54 48.766 129.543 48.119 178.309-1.421a126.229 126.229 0 0 0-1.421-178.309z" class="cls-14" transform="translate(-45.232 -.002)"/>
                </g>
            </g>
        </g>
    </g>
</svg>
