<svg xmlns="http://www.w3.org/2000/svg" width="1440" height="469" viewBox="0 0 1440 469">
    <defs>
        <radialGradient id="radial-gradient" cx=".802" cy=".118" r="1.334" gradientTransform="matrix(.667 0 0 1 .167 0)" gradientUnits="objectBoundingBox">
            <stop offset="0" stop-color="#00b3f4"/>
            <stop offset=".109" stop-color="#00adf0"/>
            <stop offset=".154" stop-color="#00aaed"/>
            <stop offset=".393" stop-color="#007fbf"/>
            <stop offset=".689" stop-color="#02599d"/>
            <stop offset=".994" stop-color="#033480"/>
            <stop offset="1" stop-color="#0044ae"/>
        </radialGradient>
        <style>
            .cls-1{fill:url(#radial-gradient)}.cls-21,.cls-4{fill:#f45a1c}.cls-4{opacity:.103}.cls-6{fill:#9798ff}.cls-12{fill:#699dee}.cls-15{fill:#afcdfb}.cls-16{fill:#e9f3fe}.cls-17{fill:#cae0ff}.cls-19{fill:#1c468a}.cls-20{fill:#78acea}.cls-22{fill:#fff}.cls-23{fill:#a8d29f}.cls-24{fill:#e49963}.cls-25{fill:#de4200}.cls-26{fill:#2b478b}.cls-27{fill:#163560}.cls-30{fill:#222}.cls-31{fill:#4a75cb}.cls-32{fill:#233862}.cls-33{fill:#213f7a}.cls-34{fill:#ffb27d}.cls-35{fill:#e2915a}.cls-38{fill:#f4a269}.cls-39{fill:#db4300}.cls-41{fill:#c05420}.cls-42{fill:#913c08}.cls-43{fill:#fafdff}.cls-45{fill:#d5450b}.cls-47{opacity:.5}
        </style>
    </defs>
    <g id="Group_15200" transform="translate(0 -90)">
        <path id="Rectangle_2020" d="M0 0H1440V449H0z" class="cls-1" transform="translate(0 110)"/>
        <path id="Rectangle_2022" fill="#ebf3fa" d="M0 0H1440V469H0z" transform="translate(0 90)"/>
        <path id="Rectangle_2020-2" d="M0 0H1440V449H0z" class="cls-1" transform="translate(0 110)"/>
        <path id="Rectangle_2022-2" fill="#eff8ff" d="M0 0H1440V469H0z" transform="translate(0 90)"/>
        <g id="Group_10175" transform="translate(303.696 109)">
            <path id="Path_2314" d="M801.437 1258.244s31.917 6.692 30.305 12.555-35.028-10.024-35.028-10.024-24.636 22.034-28.068 33.265c0 0 35.985-5.091 32.978.194s-40.2 12.321-40.2 12.321-16.914 26.051-2.07 37.506 26.235 7.606 29.011 3.856 13.542-30.714 16.736-28.573 1.264 22.563-6.057 31.366c0 0 32.138.254 36.8-14.954s-2.512-23.489.542-32.834 8.234-14.954 8.8-9.415-7.428 20.188-4.238 30.078 4.565 17.4 12.98 4.97 16.776-37.536 8.345-46.74c-.368-.4-.719-.783-1.053-1.151a5.916 5.916 0 0 1 1.053 1.151c2.5-1.9 11.03-2.77 17.459-3.164 1.064.006 2.569-.06 4.639-.227.92-.034 1.669-.053 2.194-.067 13.967.174 33.606 11.284 33.606 11.284l1.983-2.579c-18.187-15.071-39.991-10.887-39.991-10.887-16.616 1.686-28.315-3.569-28.315-3.569s-3.806-32.185-28.713-28.221c-.002.006-16.235 4.708-23.698 13.859z" class="cls-4" transform="translate(-579.895 -931.732)"/>
            <path id="Path_2315" d="M1738.66 429.8c-8.5-31.4-61.48-21.583-61.48-21.583s-35.974 54.942-46.44 56.249 21.583-52.978 21.583-52.978c-20.275-1.963-71.946 22.89-71.946 22.89s3.271 64.1-7.194 62.788 0-56.9 0-56.9c-19.623 5.887-37.934 28.78-37.934 28.78-22.89 37.282 26.161 64.751 26.161 64.751s.656 22.238-13.08 47.747a75.548 75.548 0 0 0-6.251 12.716h5.351q.657-2.152 1.452-4.154a.03.03 0 0 1 .01-.023c.006-.02.017-.037.023-.057.368-.826.893-2 1.549-3.435v-.007-.007c1.636-3.2 2.74-5.562 3.438-7.268 0-.007 0-.01.007-.017 4.9-10.044 11.951-23.128 16.656-25.874a10.327 10.327 0 0 1-1.144-2.455l1.144 2.455c9.157 19.623 54.942 22.891 80.45 17.66s14.389-12.428.655-24.1-42.513-8.6-51.018-13.178 3.923-9.157 20.931-7.85 25.509 18.315 52.978 20.93 48.4-49.055 48.4-49.055c-18.967 5.887-52.978-4.579-54.286-11.117s49.055-5.886 56.9-7.85 21.59-17.658 13.085-49.058z" class="cls-4" transform="translate(-1096.297 -374.487)"/>
            <path id="Path_2316" d="M623.236 464.9c11.713-18.746 44.239-1.933 44.239-1.933s12.579 42.818 19.125 45.733-3.609-38.707-3.609-38.707c13.573 2.716 42.286 29.055 42.286 29.055s-14.744 41.039-7.677 42.252 11.2-37.011 11.2-37.011c11.6 7.693 19.007 26.188 19.007 26.188 7.549 28.757-29.763 36.964-29.763 36.964s-4.8 14.335-.893 33.63a51.6 51.6 0 0 1 1.562 9.5l-3.478-1.054c0-1.02-.044-2.017-.127-2.987a.015.015 0 0 0 0-.017v-.043c-.077-.609-.187-1.478-.331-2.539v-.01c-.431-2.4-.686-4.157-.8-5.4v-.01c-1.208-7.5-3.221-17.4-5.739-20.108a7.047 7.047 0 0 0 1.227-1.371l-1.227 1.371c-9.82 10.96-40.242 4.07-55.8-4.355s-6.913-10.917 4.321-15.806 29.345 2.779 35.777 1.475-.749-6.729-12.067-9.224-20.2 6.89-38.58 3.18-21.82-41.436-21.82-41.436c11.178 7.562 35.359 7.452 37.5 3.458s-30.747-13.485-35.466-16.308-10.58-15.74 1.133-34.487z" class="cls-4" transform="translate(-488.802 -407.277)"/>
            <path id="Path_2317" d="M1277.392 462.656c-8.2-13.653-31.84-1.957-31.84-1.957s-9.609 30.68-14.362 32.693 3.094-27.837 3.094-27.837c-9.813 1.783-30.83 20.389-30.83 20.389s10.1 29.753 4.993 30.536-7.6-26.8-7.6-26.8c-8.455 5.392-14.027 18.619-14.027 18.619-5.806 20.616 20.967 27.008 20.967 27.008s3.278 10.388.214 24.235a37.3 37.3 0 0 0-1.248 6.823l2.519-.716c.014-.733.057-1.452.13-2.151v-.013-.03c.063-.438.154-1.064.271-1.826v-.007c.341-1.726.549-2.987.649-3.883v-.007c.966-5.385 2.542-12.489 4.392-14.412a5.052 5.052 0 0 1-.866-1l.866 1c6.933 8.02 28.934 3.448 40.252-2.425s5.117-7.776-2.91-11.442-21.171 1.625-25.79.606.625-4.836 8.809-6.492 14.459 5.221 27.75 2.786 16.248-29.566 16.248-29.566c-8.148 5.3-25.566 4.917-27.054 2.01s22.318-9.321 25.753-11.295 7.817-11.193-.38-24.846z" class="cls-4" transform="translate(-867.905 -407.277)"/>
            <path id="Path_2318" fill="#95c38b" d="M263.767 1554.78c-.261.074-.6.148-1.017.221.338-.08.676-.157 1.017-.221z" transform="translate(-253.446 -1138.536)"/>
            <g id="Group_9253" transform="translate(169.841 122.873)">
                <g id="Group_9224">
                    <path id="Path_2319" d="M1232.743 985.23l-16.088 191.27s-1.686 11.6 6.94 11.615c14.181.033 70.581 0 70.581 0s-10.673-2.415-10.542-7.843c.154-6.4 18.8-196.856 18.8-196.856z" class="cls-6" transform="translate(-1058.062 -881.146)"/>
                    <path id="Path_2320" fill="#a5bbfb" d="M1307.977 1177.749c-2.789.006-56.657.177-70.467 0-6.017-.074-7.074-5.352-7.124-8.766a17.184 17.184 0 0 1 .184-2.846l.418-4.971 1.068-12.672.944-11.194 1.211-14.386 1.02-12.14 11.432-135.914 69.691-1.809s-7.853 79.705-13.412 137.724c-.619 6.465-1.211 12.663-1.756 18.448q-.266 2.77-.512 5.411c-.515 5.488-.986 10.529-1.395 14.981-.217 2.344-.415 4.525-.595 6.522-.709 7.823-1.124 12.819-1.131 13.77a7.824 7.824 0 0 0 .137 1.548c1.137 6.093 9.241 6.294 10.287 6.294z" transform="translate(-1067.288 -874.244)"/>
                    <path id="Path_2321" fill="#a6bcf8" d="M758.97 677.63l39.185 157.4 5.365 21.556 18.252 73.31h339.057l-67.266-252.266z" transform="translate(-753.542 -677.63)"/>
                    <path id="Path_2322" d="M748.168 677.63l-5.428 1.809 61.008 255.928 7.221-5.475z" class="cls-6" transform="translate(-742.74 -677.63)"/>
                    <path id="Path_2323" d="M925.15 1437.345h336.974l9.3-5.475H932.371z" class="cls-6" transform="translate(-864.142 -1179.608)"/>
                    <path id="Rectangle_2015" d="M0 0H72.959V3.468H0z" class="cls-6" transform="rotate(180 126.152 153.523)"/>
                    <path id="Path_2324" fill="#f1a34f" d="M1144.4 883.409l-55.015-202.445H759.8l-.833-3.334h334.592l54.831 205.327z" transform="translate(-753.542 -677.63)"/>
                    <path id="Path_2325" d="M1304.362 1448.24l-.378 2.648-68.614 13.864.943-11.2.448-5.314z" class="cls-6" transform="translate(-1070.606 -1190.503)"/>
                    <path id="Path_2326" fill="#9798ff" d="M1307.981 1542.066c-2.79.006-56.657.177-70.467 0-6.017-.074-7.074-5.352-7.124-8.766l68.289-12.85c-.708 7.823-1.123 12.82-1.13 13.77a7.79 7.79 0 0 0 .137 1.549c1.144 6.096 9.248 6.297 10.295 6.297z" opacity="0.4" transform="translate(-1067.291 -1238.562)"/>
                    <path id="Path_2327" fill="#979bff" d="M1059.366 1234.922l-148.944 51.068-18.252-73.31z" transform="translate(-842.192 -1033.728)"/>
                    <path id="Path_2328" d="M758.97 677.63h334.592l54.286 202.739H809.443z" class="cls-12" transform="translate(-753.542 -677.63)"/>
                </g>
                <ellipse id="Ellipse_574" cx="8.171" cy="9.92" fill="#6684db" rx="8.171" ry="9.92" transform="rotate(-47.76 369.833 -140.174)"/>
                <path id="Path_2329" fill="#e4edf9" d="M1159.649 893.193H846.372l-35.48-141.332-2.719-10.84-2.321-9.244-5.442-21.677h308.765l5.974 21.676 2.548 9.244 2.987 10.84z" transform="translate(-781.122 -699.24)"/>
                <path id="Path_2330" d="M1115.149 731.776h-309.3L800.41 710.1h308.765z" class="cls-15" transform="translate(-781.122 -699.24)"/>
                <g id="Group_9225" transform="translate(31.977 17.947)">
                    <path id="Path_2331" d="M838.433 734a2.047 2.047 0 0 1 2.034-2.709 3.7 3.7 0 0 1 3.384 2.709 2.047 2.047 0 0 1-2.034 2.709 3.705 3.705 0 0 1-3.384-2.709z" class="cls-16" transform="translate(-838.349 -731.29)"/>
                    <path id="Path_2332" d="M865.353 734a2.047 2.047 0 0 1 2.033-2.709 3.7 3.7 0 0 1 3.385 2.709 2.047 2.047 0 0 1-2.034 2.709 3.705 3.705 0 0 1-3.384-2.709z" class="cls-16" transform="translate(-856.265 -731.29)"/>
                    <path id="Path_2333" d="M894.343 734a2.047 2.047 0 0 1 2.034-2.709 3.7 3.7 0 0 1 3.384 2.709 2.047 2.047 0 0 1-2.033 2.709 3.705 3.705 0 0 1-3.385-2.709z" class="cls-16" transform="translate(-875.559 -731.29)"/>
                </g>
                <path id="Path_2334" d="M1136.127 944.273H904.072L868.76 805.69h228.78z" class="cls-17" transform="translate(-826.612 -762.859)"/>
                <path id="Path_2335" fill="#d2e3fc" d="M1634.1 837.935h-52.594l-9.616-32.245h53.232z" transform="translate(-1294.574 -762.859)"/>
                <path id="Path_2336" d="M1271.3 836.809h-30.095l-1.238-4.639h30.092z" class="cls-19" transform="translate(-1073.667 -780.483)"/>
                <path id="Path_2337" d="M1392.74 836.809h-49.229l-1.241-4.639h49.23z" class="cls-20" transform="translate(-1141.752 -780.483)"/>
                <path id="Path_2338" d="M1240.107 874.189h-53.37l-1.238-4.639h53.37z" class="cls-20" transform="translate(-1037.415 -805.361)"/>
                <path id="Path_2339" d="M1388.321 874.189h-27.663l-1.238-4.639h27.663z" class="cls-21" transform="translate(-1153.166 -805.361)"/>
                <path id="Path_2340" d="M1298.453 938.532h-30.095l-1.238-4.642h30.095z" class="cls-12" transform="translate(-1091.737 -848.182)"/>
                <path id="Path_2341" d="M1419.9 938.532h-49.229l-1.238-4.642h49.229z" class="cls-20" transform="translate(-1159.828 -848.182)"/>
                <path id="Path_2342" d="M1267.258 975.909h-53.366l-1.241-4.639h53.37z" class="cls-22" transform="translate(-1055.485 -873.06)"/>
                <path id="Path_2343" d="M1415.471 975.909h-27.66l-1.241-4.639h27.663z" class="cls-22" transform="translate(-1171.235 -873.06)"/>
                <path id="Path_2344" d="M1074.247 1033.763H972.438l-1.238-4.642h101.809z" class="cls-19" transform="translate(-894.789 -911.561)"/>
                <path id="Path_2345" d="M1326.392 1033.763H1296.3l-1.237-4.642h30.091z" class="cls-12" transform="translate(-1110.332 -911.561)"/>
                <path id="Path_2346" d="M1447.83 1033.763h-49.23l-1.241-4.642h49.232z" class="cls-20" transform="translate(-1178.417 -911.561)"/>
                <path id="Path_2347" d="M1012.5 1071.139h-30.092l-1.238-4.639h30.092z" class="cls-22" transform="translate(-901.425 -936.439)"/>
                <path id="Path_2348" d="M1295.2 1071.139h-53.37l-1.238-4.639h53.37z" class="cls-21" transform="translate(-1074.08 -936.439)"/>
                <path id="Path_2349" d="M1133.94 1071.139h-49.229l-1.241-4.639h49.23z" class="cls-20" transform="translate(-969.51 -936.439)"/>
                <path id="Path_2350" d="M1443.411 1071.139h-27.663l-1.237-4.639h27.663z" class="cls-20" transform="translate(-1189.831 -936.439)"/>
                <path id="Path_2351" d="M1108.8 1136.949h-101.809l-1.241-4.639h101.813z" class="cls-19" transform="translate(-917.784 -980.239)"/>
                <path id="Path_2352" d="M1360.949 1136.949h-30.092l-1.237-4.639h30.091z" class="cls-12" transform="translate(-1133.333 -980.239)"/>
                <path id="Path_2353" d="M1047.062 1174.329h-30.1l-1.237-4.639h30.091z" class="cls-22" transform="translate(-924.426 -1005.116)"/>
                <path id="Path_2354" d="M1329.758 1174.329h-53.37l-1.237-4.639h53.366z" class="cls-21" transform="translate(-1097.081 -1005.116)"/>
                <path id="Path_2355" d="M1168.5 1174.329h-49.229l-1.241-4.639h49.233z" class="cls-20" transform="translate(-992.511 -1005.116)"/>
                <path id="Path_2356" d="M1477.971 1174.329h-27.663l-1.237-4.639h27.663z" class="cls-20" transform="translate(-1212.832 -1005.116)"/>
                <g id="Group_9226" transform="translate(289.685 82.859)">
                    <path id="Path_2357" d="M1632.527 927.744l-23.145.07-.512-2.1 23.145-.074z" class="cls-20" transform="translate(-1608.87 -925.55)"/>
                    <path id="Path_2358" d="M1697.765 927.631l-8.7.027-.512-2.1 8.7-.027z" class="cls-20" transform="translate(-1661.901 -925.477)"/>
                    <path id="Path_2359" d="M1737.217 927.471l-15.385.047-.512-2.1 15.382-.047z" class="cls-20" transform="translate(-1683.71 -925.37)"/>
                    <path id="Path_2360" d="M1625.941 943.731l-12.689.04-.512-2.1 12.689-.04z" class="cls-20" transform="translate(-1611.446 -936.192)"/>
                    <path id="Path_2361" d="M1673.907 943.561l-16.385.053-.511-2.1 16.385-.05z" class="cls-20" transform="translate(-1640.91 -936.079)"/>
                    <path id="Path_2362" d="M1734.332 943.36l-18.78.06-.511-2.1 18.78-.057z" class="cls-20" transform="translate(-1679.531 -935.946)"/>
                </g>
                <g id="Group_9227" transform="translate(292.451 94.214)">
                    <path id="Path_2363" d="M1640.8 961.7l-23.145.07-.515-2.1 23.148-.07z" class="cls-20" transform="translate(-1617.14 -959.507)"/>
                    <path id="Path_2364" d="M1706.038 961.584l-8.706.027-.512-2.1 8.7-.027z" class="cls-20" transform="translate(-1670.17 -959.427)"/>
                    <path id="Path_2365" d="M1745.494 961.424l-15.381.047-.512-2.1 15.382-.047z" class="cls-20" transform="translate(-1691.987 -959.32)"/>
                    <path id="Path_2366" d="M1634.221 977.684l-12.689.04-.512-2.1 12.689-.04z" class="cls-20" transform="translate(-1619.723 -970.142)"/>
                    <path id="Path_2367" d="M1682.181 977.514l-16.389.05-.511-2.1 16.389-.05z" class="cls-20" transform="translate(-1649.179 -970.029)"/>
                    <path id="Path_2368" d="M1742.605 977.314l-18.783.057-.512-2.1 18.781-.06z" class="cls-20" transform="translate(-1687.801 -969.896)"/>
                </g>
                <g id="Group_9228" transform="translate(283.711 45.985)">
                    <path id="Path_2369" d="M1605.258 816.554l-13.937.043-.311-1.268 13.94-.04z" class="cls-22" transform="translate(-1591.01 -815.234)"/>
                    <path id="Path_2370" d="M1644.549 816.484l-5.241.017-.307-1.264 5.241-.017z" class="cls-22" transform="translate(-1622.95 -815.187)"/>
                    <path id="Path_2371" d="M1668.3 816.388l-9.261.027-.311-1.264 9.265-.03z" class="cls-22" transform="translate(-1636.081 -815.12)"/>
                    <path id="Path_2372" d="M1601.3 826.178l-7.642.023-.308-1.267 7.639-.023z" class="cls-22" transform="translate(-1592.568 -821.636)"/>
                    <path id="Path_2373" d="M1630.178 826.078l-9.87.03-.308-1.268 9.87-.03z" class="cls-22" transform="translate(-1610.304 -821.569)"/>
                    <path id="Path_2374" d="M1666.566 825.958l-11.307.034-.308-1.268 11.308-.033z" class="cls-22" transform="translate(-1633.565 -821.489)"/>
                </g>
                <g id="Group_9229" transform="translate(285.38 52.824)">
                    <path id="Path_2375" d="M1610.245 837l-13.937.044-.308-1.268 13.937-.043z" class="cls-22" transform="translate(-1596 -835.677)"/>
                    <path id="Path_2376" d="M1649.529 836.934l-5.241.016-.308-1.267 5.241-.013z" class="cls-22" transform="translate(-1627.933 -835.637)"/>
                    <path id="Path_2377" d="M1673.289 836.834l-9.261.03-.307-1.268 9.261-.026z" class="cls-22" transform="translate(-1641.071 -835.57)"/>
                    <path id="Path_2378" d="M1606.281 846.628l-7.643.024-.308-1.268 7.642-.023z" class="cls-22" transform="translate(-1597.551 -842.086)"/>
                    <path id="Path_2379" d="M1635.165 846.524l-9.867.03-.308-1.264 9.866-.03z" class="cls-22" transform="translate(-1615.294 -842.019)"/>
                    <path id="Path_2380" d="M1671.549 846.4l-11.311.037-.308-1.267 11.308-.033z" class="cls-22" transform="translate(-1638.548 -841.939)"/>
                </g>
                <g id="Group_9230" transform="translate(297.183 113.619)">
                    <path id="Path_2381" d="M1654.947 1019.714l-23.145.07-.512-2.1 23.144-.073z" class="cls-20" transform="translate(-1631.29 -1017.52)"/>
                    <path id="Path_2382" d="M1720.177 1019.6l-8.7.027-.515-2.1 8.706-.027z" class="cls-20" transform="translate(-1684.314 -1017.447)"/>
                    <path id="Path_2383" d="M1759.634 1019.44l-15.382.047-.512-2.1 15.382-.047z" class="cls-20" transform="translate(-1706.131 -1017.34)"/>
                    <path id="Path_2384" d="M1648.362 1035.7l-12.689.04-.512-2.1 12.689-.04z" class="cls-20" transform="translate(-1633.866 -1028.162)"/>
                    <path id="Path_2385" d="M1696.32 1035.531l-16.385.053-.515-2.1 16.389-.05z" class="cls-20" transform="translate(-1663.323 -1028.049)"/>
                    <path id="Path_2386" d="M1756.745 1035.33l-18.78.061-.515-2.1 18.78-.057z" class="cls-20" transform="translate(-1701.944 -1027.916)"/>
                </g>
                <g id="Group_9231" transform="translate(301.819 132.636)">
                    <path id="Path_2387" d="M1668.807 1076.574l-23.145.07-.512-2.1 23.145-.073z" class="cls-20" transform="translate(-1645.15 -1074.38)"/>
                    <path id="Path_2388" d="M1734.038 1076.461l-8.7.026-.515-2.1 8.706-.027z" class="cls-20" transform="translate(-1698.174 -1074.307)"/>
                    <path id="Path_2389" d="M1773.494 1076.3l-15.382.047-.512-2.1 15.382-.047z" class="cls-20" transform="translate(-1719.991 -1074.2)"/>
                    <path id="Path_2390" d="M1662.221 1092.564l-12.689.036-.511-2.1 12.69-.041z" class="cls-20" transform="translate(-1647.726 -1085.022)"/>
                    <path id="Path_2391" d="M1710.181 1092.394l-16.389.05-.512-2.1 16.389-.05z" class="cls-20" transform="translate(-1677.182 -1084.909)"/>
                    <path id="Path_2392" d="M1770.605 1092.19l-18.784.06-.511-2.1 18.78-.057z" class="cls-20" transform="translate(-1715.804 -1084.775)"/>
                </g>
                <g id="Group_9232" transform="translate(305.993 149.771)">
                    <path id="Path_2393" d="M1681.29 1127.8l-23.148.07-.511-2.1 23.147-.07z" class="cls-20" transform="translate(-1657.63 -1125.609)"/>
                    <path id="Path_2394" d="M1746.528 1127.69l-8.706.027-.512-2.1 8.7-.027z" class="cls-20" transform="translate(-1710.66 -1125.536)"/>
                    <path id="Path_2395" d="M1785.983 1127.531l-15.381.047-.512-2.1 15.382-.047z" class="cls-20" transform="translate(-1732.477 -1125.43)"/>
                    <path id="Path_2396" d="M1674.711 1143.79l-12.69.04-.511-2.1 12.689-.04z" class="cls-20" transform="translate(-1660.213 -1136.252)"/>
                    <path id="Path_2397" d="M1722.67 1143.621l-16.388.053-.512-2.1 16.388-.05z" class="cls-20" transform="translate(-1689.669 -1136.139)"/>
                    <path id="Path_2398" d="M1783.092 1143.421l-18.78.06-.511-2.1 18.78-.057z" class="cls-20" transform="translate(-1728.291 -1136.006)"/>
                </g>
                <g id="Group_9239" transform="translate(331.557 163.955)">
                    <g id="Group_9235">
                        <g id="Group_9233">
                            <path id="Path_2399" d="M1743.063 1181.332a9.747 9.747 0 0 1-8.716-6.746c-1.087-3.72 1.057-6.746 4.776-6.746a9.747 9.747 0 0 1 8.716 6.746c1.087 3.72-1.056 6.746-4.776 6.746zm-3.578-12.258c-3.04 0-4.792 2.475-3.9 5.516a7.969 7.969 0 0 0 7.124 5.515c3.041 0 4.793-2.472 3.9-5.515a7.965 7.965 0 0 0-7.124-5.516z" class="cls-23" transform="translate(-1734.065 -1167.84)"/>
                        </g>
                        <g id="Group_9234" transform="translate(2.819 3.96)">
                            <path id="Path_2400" d="M1747.569 1185.9a1.409 1.409 0 0 1-.756-.314l-3.786-3.03a1.11 1.11 0 0 1-.391-1.452 1.034 1.034 0 0 1 1.462.034l2.676 2.141 1.371-3.171c.2-.458.81-.562 1.368-.231a1.251 1.251 0 0 1 .649 1.435l-1.8 4.168a.717.717 0 0 1-.639.421 1.1 1.1 0 0 1-.154-.001z" class="cls-23" transform="translate(-1742.492 -1179.681)"/>
                        </g>
                    </g>
                    <g id="Group_9238" transform="translate(18.623)">
                        <g id="Group_9236">
                            <path id="Path_2401" d="M1798.744 1181.332a9.748 9.748 0 0 1-8.716-6.746c-1.087-3.72 1.057-6.746 4.776-6.746a9.747 9.747 0 0 1 8.716 6.746c1.086 3.72-1.057 6.746-4.776 6.746zm-3.579-12.258c-3.04 0-4.793 2.475-3.9 5.516a7.969 7.969 0 0 0 7.124 5.515c3.041 0 4.793-2.472 3.9-5.515a7.964 7.964 0 0 0-7.124-5.516z" class="cls-21" transform="translate(-1789.745 -1167.84)"/>
                        </g>
                        <g id="Group_9237" transform="translate(5.24 3.077)">
                            <path id="Path_2402" d="M1807.521 1181.813a1.382 1.382 0 0 1-1.234-.953l-.836-2.867a.691.691 0 0 1 .676-.953 1.381 1.381 0 0 1 1.234.953l.837 2.867a.691.691 0 0 1-.677.953z" class="cls-21" transform="translate(-1805.411 -1177.04)"/>
                            <path id="Path_2403" d="M1811.327 1194.659h-.208a1.233 1.233 0 0 1-1.1-.85.616.616 0 0 1 .6-.849h.207a1.232 1.232 0 0 1 1.1.849.617.617 0 0 1-.599.85z" class="cls-21" transform="translate(-1808.454 -1187.636)"/>
                        </g>
                    </g>
                </g>
                <g id="Group_9252" transform="translate(293.326 64.571)">
                    <g id="Group_9242" transform="translate(21.546)">
                        <g id="Group_9240">
                            <path id="Path_2404" d="M1689.112 878.088a5.343 5.343 0 0 1-4.78-3.7 2.68 2.68 0 0 1 2.619-3.7 5.342 5.342 0 0 1 4.779 3.7 2.68 2.68 0 0 1-2.618 3.7zm-1.963-6.719a2.19 2.19 0 0 0-2.141 3.024 4.369 4.369 0 0 0 3.906 3.023 2.191 2.191 0 0 0 2.141-3.023 4.361 4.361 0 0 0-3.907-3.024z" class="cls-23" transform="translate(-1684.177 -870.69)"/>
                        </g>
                        <g id="Group_9241" transform="translate(1.547 2.172)">
                            <path id="Path_2405" d="M1691.584 880.594a.771.771 0 0 1-.415-.17l-2.073-1.662a.605.605 0 0 1-.214-.8.566.566 0 0 1 .8.017l1.465 1.174.753-1.739c.11-.251.445-.308.749-.127a.683.683 0 0 1 .355.786l-.99 2.284a.392.392 0 0 1-.351.231.2.2 0 0 1-.079.006z" class="cls-23" transform="translate(-1688.802 -877.185)"/>
                        </g>
                    </g>
                    <g id="Group_9245" transform="translate(10.964)">
                        <g id="Group_9243">
                            <path id="Path_2406" d="M1657.471 878.088a5.343 5.343 0 0 1-4.78-3.7 2.68 2.68 0 0 1 2.619-3.7 5.342 5.342 0 0 1 4.78 3.7 2.68 2.68 0 0 1-2.619 3.7zm-1.963-6.719a2.19 2.19 0 0 0-2.141 3.024 4.37 4.37 0 0 0 3.907 3.023 2.19 2.19 0 0 0 2.141-3.023 4.365 4.365 0 0 0-3.907-3.024z" class="cls-23" transform="translate(-1652.537 -870.69)"/>
                        </g>
                        <g id="Group_9244" transform="translate(1.547 2.172)">
                            <path id="Path_2407" d="M1659.944 880.594a.772.772 0 0 1-.415-.17l-2.073-1.662a.605.605 0 0 1-.214-.8.566.566 0 0 1 .8.017l1.465 1.174.753-1.739c.11-.251.445-.308.749-.127a.682.682 0 0 1 .354.786l-.99 2.284a.392.392 0 0 1-.351.231.2.2 0 0 1-.078.006z" class="cls-23" transform="translate(-1657.162 -877.185)"/>
                        </g>
                    </g>
                    <g id="Group_9248">
                        <g id="Group_9246">
                            <path id="Path_2408" d="M1624.692 878.088a5.341 5.341 0 0 1-4.78-3.7 2.68 2.68 0 0 1 2.618-3.7 5.341 5.341 0 0 1 4.78 3.7 2.68 2.68 0 0 1-2.618 3.7zm-1.96-6.719a2.19 2.19 0 0 0-2.14 3.024 4.368 4.368 0 0 0 3.906 3.023 2.19 2.19 0 0 0 2.14-3.023 4.367 4.367 0 0 0-3.906-3.024z" class="cls-23" transform="translate(-1619.758 -870.69)"/>
                        </g>
                        <g id="Group_9247" transform="translate(1.55 2.172)">
                            <path id="Path_2409" d="M1627.174 880.594a.771.771 0 0 1-.414-.17l-2.074-1.662a.605.605 0 0 1-.214-.8.565.565 0 0 1 .8.017l1.465 1.174.752-1.739c.111-.251.445-.308.749-.127a.683.683 0 0 1 .355.786l-.99 2.284a.393.393 0 0 1-.351.231.2.2 0 0 1-.078.006z" class="cls-23" transform="translate(-1624.392 -877.185)"/>
                        </g>
                    </g>
                    <g id="Group_9251" transform="translate(31.757)">
                        <g id="Group_9249">
                            <path id="Path_2410" d="M1719.641 878.088a5.342 5.342 0 0 1-4.78-3.7 2.68 2.68 0 0 1 2.619-3.7 5.343 5.343 0 0 1 4.78 3.7 2.681 2.681 0 0 1-2.619 3.7zm-1.963-6.719a2.19 2.19 0 0 0-2.141 3.024 4.369 4.369 0 0 0 3.906 3.023 2.191 2.191 0 0 0 2.141-3.023 4.369 4.369 0 0 0-3.906-3.024z" class="cls-21" transform="translate(-1714.707 -870.69)"/>
                        </g>
                        <g id="Group_9250" transform="translate(2.876 1.689)">
                            <path id="Path_2411" d="M1724.461 878.356a.755.755 0 0 1-.676-.522l-.458-1.572a.38.38 0 0 1 .371-.522.756.756 0 0 1 .676.522l.458 1.572a.381.381 0 0 1-.371.522z" class="cls-21" transform="translate(-1723.306 -875.74)"/>
                            <path id="Path_2412" d="M1726.539 885.393h-.114a.672.672 0 0 1-.6-.468.337.337 0 0 1 .331-.465h.114a.674.674 0 0 1 .6.465.34.34 0 0 1-.331.468z" class="cls-21" transform="translate(-1724.968 -881.544)"/>
                        </g>
                    </g>
                </g>
            </g>
            <g id="Group_9257" transform="translate(62.232 204.113)">
                <g id="Group_9254" transform="translate(33.232 38.537)">
                    <path id="Path_2413" d="M658.793 1199.14s5.575 1.432 9.121.365 9.643.686 10.626 1.977.622 1.806-1.13 2.251-7.963 3.094-12.044 1.562a32.561 32.561 0 0 0-9.4-1.589z" class="cls-24" transform="translate(-610.608 -1144.493)"/>
                    <path id="Path_2414" d="M520.36 1041.965s6.264 44.514 16.633 48.5c5.117 1.967 27.733 6.429 34.422 6.877 0 0 1.639-1.331 1.241-6.743 0 0-23.693-8.7-27.061-13.428-5.01-7.041 3.111-28.763-3.178-35.376s-16.869-9.452-22.057.17z" class="cls-25" transform="translate(-520.36 -1035.751)"/>
                </g>
                <path id="Path_2415" d="M525.57 1431.186h3.023a2.827 2.827 0 0 0 2.82-2.82V1358.2a2.826 2.826 0 0 0-2.82-2.82h-3.023a2.826 2.826 0 0 0-2.82 2.82v70.166a2.827 2.827 0 0 0 2.82 2.82z" class="cls-26" transform="translate(-488.719 -1209.941)"/>
                <path id="Path_2416" d="M455.78 1576.784c2.8-5.8 13.706-10.124 26.73-10.124s23.927 4.325 26.73 10.124z" class="cls-26" transform="translate(-444.148 -1350.556)"/>
                <path id="Path_2417" d="M475.579 1532.054H514.8a.752.752 0 0 0 .749-.749v-1.555a.752.752 0 0 0-.749-.749h-39.221a.752.752 0 0 0-.749.749v1.555a.748.748 0 0 0 .749.749z" class="cls-26" transform="translate(-456.826 -1325.492)"/>
                <path id="Path_2418" d="M510.758 1282.72a77.83 77.83 0 0 0 6.117 8.753c6.733 8.5 14.061 15.505 15.335 22.128a29.673 29.673 0 0 0 1.184 4.237c.532 1.519 1.191 3.114 1.953 4.763a146.91 146.91 0 0 0 11.392 19.479c7.372 10.927 14.3 20.041 14.3 20.041l12.716-.542c-.508-1.274-6.054-16.358-13.472-34.794-3.013-7.485-6.214-15.445-9.3-23.121q-.617-1.54-1.231-3.057c-.947-2.348-1.873-4.662-2.783-6.913l-12.515-31.094s-27.84-10.545-30.733-3.712c-2.382 5.634-.439 11.156 7.037 23.832z" class="cls-27" transform="translate(-475.415 -1144.188)"/>
                <path id="Path_2419" d="M678.22 1558.506s.649 10.492 2.679 10.642c.271.02 10.295.02 10.295.02l12.8-.073s-.084-3.084-3.823-3.736-10-3.281-12.268-8.224c-2.389-5.201-9.683 1.371-9.683 1.371z" class="cls-27" transform="translate(-592.191 -1342.884)"/>
                <path id="Path_2420" d="M574.181 1475.61s-8.843 5.683-7.987 7.529c.114.244 5 9 5 9l6.3 11.137s2.652-1.575 1.4-5.161-2.01-10.331 1.2-14.723c3.385-4.618-5.913-7.782-5.913-7.782z" class="cls-27" transform="translate(-517.594 -1289.959)"/>
                <path id="Path_2421" fill="#19448c" d="M544.346 1260.54S578.8 1282 582.7 1296.622s-46.486 45.834-46.486 45.834-5.525-4.876-6.5-8.452c0 0 22.777-27.285 27.717-33.4 3.033-3.756-44.861-13-50.714-22.1s-3.756-16.76-3.756-16.76z" transform="translate(-475.306 -1146.821)"/>
                <path id="Path_2422" d="M423.6 1362.679h71.521a2.609 2.609 0 0 0 2.6-2.6v-14.3a2.609 2.609 0 0 0-2.6-2.6H423.6a2.609 2.609 0 0 0-2.6 2.6v14.3a2.612 2.612 0 0 0 2.6 2.6z" class="cls-21" transform="translate(-421 -1201.815)"/>
                <path id="Path_2423" d="M543.967 995.834a19.785 19.785 0 0 1 5.325 4.823c-8.371 2.164-22.251-5.592-22.251-5.592a20.546 20.546 0 0 0 7.385-11.576c.1-.4.194-.813.274-1.234a25.29 25.29 0 0 0 .455-4.354l3.845 3.444 6.395 5.729a54.355 54.355 0 0 1-.946 6.465q-.206 1.069-.482 2.295z" class="cls-24" transform="translate(-491.574 -958.712)"/>
                <path id="Path_2424" d="M500.093 1062.914c1.2 16.128-.378 40.657.983 44.9 1.174 3.666 14.552 1.485 19.89.265 1.977-.452 4.372-1.1 6.843-1.866 6.9-2.134 14.412-5.184 15.218-7.449a2.012 2.012 0 0 0 .074-.26 2.119 2.119 0 0 0-.013-.95c-.268-1.153-1.3-2.4-1.425-5.257-.137-3.191-.117-6.947-.234-10.984-.007-.455-.013-.95-.064-1.4v-.167c0-.087 0-.17-.007-.258-.117-4.505-.351-9.241-.626-13.937-.174-2.949-.375-5.87-.605-8.669a115.952 115.952 0 0 0-2.485-17.713 28.427 28.427 0 0 0-9.137-14.1l-2.545-2.184a14.731 14.731 0 0 1-9.234-1.231c-3.288-1.562-4.422-2.679-4.993-2.258-7.597 5.855-13.058 23.804-11.64 43.518z" class="cls-21" transform="translate(-473.49 -986.267)"/>
                <path id="Path_2425" d="M558.429 1202.473c6.9-2.134 14.412-5.184 15.218-7.448a2.084 2.084 0 0 0 .074-.261c0-.318-.007-.632-.013-.95-.268-1.154-1.3-2.4-1.425-5.258-.137-3.191-.117-6.947-.234-10.983-.007-.455-.013-.95-.064-1.4v-.167c0-.087 0-.17-.007-.258l-26.048-11.813s-1.505 20.992 12.499 38.538z" class="cls-25" transform="translate(-504.113 -1082.523)"/>
                <path id="Path_2426" fill="#d68d5d" d="M559.325 993.919a54.385 54.385 0 0 1-.946 6.465c-6.244-2.017-9.077-7.659-10.024-10.051-.267-.676-.384-1.094-.384-1.094s.241-.053.659-.14c.876-.187 2.532-.539 4.3-.91z" transform="translate(-505.504 -965.561)"/>
                <path id="Path_2427" d="M558.7 959.752s-13.719 1.549-14.552-7.01-3.164-14.124 5.562-15.472 10.746 1.749 11.719 4.539.818 17.318-2.729 17.943z" class="cls-24" transform="translate(-502.352 -931.454)"/>
                <path id="Path_2428" d="M537.048 942.407s.869-11.362 13.358-12.535c8.555-.806 3.786-8.167 2.873-9.341 0 0-6.552.9-13.271 2.007-14.101 2.327-4.345 18.1-2.96 19.869z" class="cls-30" transform="translate(-495.19 -920.53)"/>
                <g id="Group_9255" transform="translate(74.788 72.885)">
                    <path id="Rectangle_2016" d="M0 0H1.264V33.065H0z" class="cls-31" transform="rotate(-162.007 19.863 13.173)"/>
                    <path id="Rectangle_2017" d="M0 0H34.697V2.077H0z" class="cls-31" transform="rotate(-180 17.51 15.727)"/>
                </g>
                <g id="Group_9256" transform="translate(35.994 41.394)">
                    <path id="Path_2429" d="M649.248 1219.6s5.385 2.037 9.024 1.368 9.509 1.746 10.345 3.137.418 1.863-1.371 2.114-8.255 2.2-12.144.224a32.524 32.524 0 0 0-9.171-2.615z" class="cls-21" transform="translate(-606.695 -1160.968)"/>
                    <path id="Path_2430" d="M528.62 1049.477s1.318 44.935 11.184 50.039c4.87 2.519 26.854 9.445 33.456 10.629 0 0 1.776-1.14 1.977-6.562 0 0-22.589-11.258-25.416-16.331-4.2-7.549 6.261-28.245.743-35.51s-15.726-11.258-21.944-2.265z" class="cls-21" transform="translate(-528.62 -1044.295)"/>
                </g>
            </g>
            <g id="Group_9258" transform="translate(424.206 213.759)">
                <path id="Path_2431" d="M1649.54 1577.711a24.522 24.522 0 0 1 1.669-6.257c1.167-2.335 8.592-.85 8.592-.85s1.485 1.275 1.8 7.214z" class="cls-32" transform="translate(-1600.619 -1362.517)"/>
                <path id="Path_2432" d="M1526.9 1567.923c1.746-1.064.753-9.01.753-9.01s-8.131-6.5-9.248-1.525-7.723 7.214-11.482 7.823c-2.6.422-3.4 1.86-3.649 2.709h23.626z" class="cls-32" transform="translate(-1503.27 -1352.783)"/>
                <path id="Path_2433" d="M1569.154 1299.211a36.9 36.9 0 0 0-.6 4.391c-.756 14.74-12.408 48.443-14.492 49.229-3.224 1.217-8.3-1.368-10.96-2.217a2.279 2.279 0 0 1-1.6-2.589c5.769-26.529 7.89-64.728 8.663-87.344a102.836 102.836 0 0 1 2.344-19.261s28.42-7.582 28.59 2.01c.152 8.488-9.413 41.777-11.945 55.781z" class="cls-33" transform="translate(-1528.688 -1141.848)"/>
                <path id="Path_2434" d="M1586.484 1299.217l-18.984-38.527a102.833 102.833 0 0 1 2.344-19.261s28.419-7.582 28.589 2.01c.148 8.486-9.417 41.774-11.949 55.778z" class="cls-32" transform="translate(-1546.018 -1141.854)"/>
                <path id="Path_2435" d="M1605.35 1246.308l15.024 108.889s6.6 1.592 11.729.318c0 0 4.4-57.911 4.034-71.912s3.157-37.463-.8-40.052-29.987 2.757-29.987 2.757z" class="cls-33" transform="translate(-1571.209 -1144.689)"/>
                <path id="Path_2436" d="M1613.915 1089.02l1.873 26.142a2.086 2.086 0 0 1-1.505 2.154c-2.1.609-4.512 1.03-9.171 2a89.085 89.085 0 0 1-17.5 1.759c-11.508.074-15.867-3.892-15.867-3.892-.495.01.261-2.4.943-13.85.231-3.88.455-8.8.615-15.01.144-5.592.244-12.234.251-20.118.013-9.482 14.686-19.68 14.957-19.68 0 1.365 2.15 3.883 5.465 4.1 3.934.258 8.76-1.7 8.76-3.967 0-.024 7.111 11.375 9.636 23.516.321 1.538.569 3.164.766 4.873 0 .027.006.053.01.077.037.311.07.625.1.943.007.057.01.11.017.167.03.288.057.579.084.87l.02.25.07.806a.482.482 0 0 0 .007.073c.016.2.03.4.047.606.01.143.02.287.033.431l.05.712c.006.12.017.237.023.361l.04.686c.006.1.013.2.017.308.016.331.036.665.053 1v.08c.017.321.033.649.047.976 0 .08.006.161.01.241.017.308.03.615.04.93 0 .047 0 .094.007.137q.05 1.144.094 2.318a.372.372 0 0 0 0 .061z" class="cls-26" transform="translate(-1548.736 -1015.358)"/>
                <path id="Path_2437" d="M1573.018 1048.52s-13.646-.117-16.93 4.488-10.485 29.383-6.726 37.627 10.79-3.412 14.69-8.462 8.966-33.653 8.966-33.653z" class="cls-26" transform="translate(-1533.241 -1015.358)"/>
                <path id="Path_2438" d="M1621.71 1026.1l.007 1.411s-.385 4.411 5.047 5.057 9.549-1.719 9.4-5.124a40.2 40.2 0 0 1-1.063-6.625 15.46 15.46 0 0 1 .194-2.642l-10.525-.211-3.1.505z" class="cls-34" transform="translate(-1582.071 -995.026)"/>
                <path id="Path_2439" d="M1621.67 1018.462l.04 7.629a8.92 8.92 0 0 0 3.793.836c4.836 0 7.963-3.549 9.6-6.124a15.508 15.508 0 0 1 .194-2.642l-10.525-.211z" class="cls-35" transform="translate(-1582.07 -995.013)"/>
                <path id="Path_2440" d="M1630.242 980.585c-1.22 6.572-9.7 6.358-13.368 5.943-1.031-.114-1.679-.247-1.679-.247-1.164-.311-1.813-2.144-2.114-4.542-.6-4.749.157-11.719.96-13.5 1.208-2.682 3.481-5.586 12.024-3.492s5.743 7.416 4.177 15.838z" class="cls-34" transform="translate(-1576.211 -959.126)"/>
                <path id="Path_2441" d="M1570.277 1103.73s-5.278 11.656-5.124 15.147a18.183 18.183 0 0 1 5.124.659c4.123 1.232 0-15.806 0-15.806z" class="cls-32" transform="translate(-1544.453 -1052.103)"/>
                <path id="Path_2442" d="M1608.37 952.223a28.184 28.184 0 0 0 8.194-2.217c3.6-1.565 8.141.157 9.612.937a2.165 2.165 0 0 0-.361-.886 1.97 1.97 0 0 1 .759 1.124c.067.05.1.083.08.1a2.526 2.526 0 0 1 1.231.08s-.338-.047-.458.167a.183.183 0 0 1-.054.06c5.616 2.712 6.13 11.586 4.325 13.639-2.174 2.472-4.779 8.034-4.779 8.034a4.773 4.773 0 0 1-.556-3.489c.394-2.174-1.482-2.174-3.853-3.161s-.395-3.756-2.472-5.435-9.682-.692-9.582-1.977c-2.819-1.033-2.086-6.685-2.086-6.976z" class="cls-30" transform="translate(-1573.161 -949.37)"/>
                <path id="Path_2443" d="M1606.681 1168c-2.227 8.947-26.322 13.569-31.8 14.509.231-3.88.455-8.8.615-15.011z" class="cls-32" transform="translate(-1550.93 -1094.545)"/>
                <path id="Path_2444" d="M1651.182 1158.941a42.6 42.6 0 0 0 6.275-1.224c.92-.458 5.117-6.428 2.368-7.957s-10.134 4.592-10.134 4.592z" class="cls-34" transform="translate(-1600.719 -1082.575)"/>
                <path id="Path_2445" d="M1560.551 1161.687s19.827 1.077 33.135-1.773a5.723 5.723 0 0 0-3.846-5.552s-20.74-4.395-25.72-3.171-3.569 10.496-3.569 10.496z" class="cls-26" transform="translate(-1541.269 -1083.547)"/>
                <path id="Path_2446" d="M1663.362 1078.219c-4.114 4.96-9.5 9.014-15.425 9.96a11.037 11.037 0 0 1-1.468-6.623 13.211 13.211 0 0 1 2.161-6.077 13.509 13.509 0 0 0 1.167-2.351c3.238-8.261 2.756-24.188 2.756-24.188s13.753 1.442 18.037 7.562c2.622 3.746-.726 13.87-7.228 21.717z" class="cls-26" transform="translate(-1598.547 -1015.638)"/>
                <path id="Path_2447" d="M1617.3 1021.77c-1.03-.114-1.679-.248-1.679-.248-1.164-.311-1.813-2.144-2.114-4.542a5.737 5.737 0 0 1 3.6 2.94 4.221 4.221 0 0 1 .193 1.85z" class="cls-35" transform="translate(-1576.639 -994.367)"/>
                <path id="Path_2448" d="M1603.39 1026.075s-4.749-7.837-1.057-8.178a5.581 5.581 0 0 1 5.709 3.077c.532.92-.141 5.061-.141 5.061z" class="cls-34" transform="translate(-1568.265 -994.956)"/>
                <path id="Path_2449" d="M1624.293 1074.171a10.187 10.187 0 0 1-.809 2.723 13.027 13.027 0 0 1-3.024 4.164c-12.335-5.569-14.83-24.686-15.248-35.192-.167-4.221 0-7.054 0-7.054 5.565-1.843 7.127 1.358 7.127 1.358s6.569 15.623 9.977 25.834c1.302 3.906 2.145 7.023 1.977 8.167z" class="cls-26" transform="translate(-1571.067 -1008.517)"/>
                <path id="Path_2450" d="M1636.023 1086.272c-4.114 4.96-9.5 9.014-15.425 9.96-12.335-5.568-14.83-24.686-15.248-35.192 0 0 5.836 21.168 13.779 28.57a8.672 8.672 0 0 0 4.492 2.458s10.017-2.83 12.117-5.5c.155-.189.245-.286.285-.296z" class="cls-32" transform="translate(-1571.209 -1023.691)"/>
            </g>
            <g id="Group_9263" transform="translate(677.708 261.786)">
                <path id="Path_2452" fill="#f75900" d="M2303.885 1316.742c2.4 8.99 20.178 14.281 39.62 17.385h72.547c17.485-8.562 17.462-18.773 18.867-46.968 2.9-58.236-27.737-86.351-41.4-81.712-.569.194-1.147.4-1.736.642-3.97 1.6-8.415 4.418-12.743 11.131 0 0-13.578 22.629-24.753 36.128-3.6 4.345-6.946 7.749-9.508 9.141a.767.767 0 0 1-.09.047c-.138.073-.268.137-.4.2-5.92 2.709-14.265 8.391-21.887 15.559-11.827 11.105-21.908 25.774-18.517 38.447z" transform="translate(-2289.171 -1167.498)"/>
                <path id="Path_2453" fill="#d84400" d="M2360.561 1294c10.171 3.124 62.523 18.238 74.845 2.214 8.92-11.605 3.368-41.336-1.562-60.57a9.1 9.1 0 0 0-16.512-2.914l-.131.2s-13.578 22.63-24.753 36.128c-3.234 4.264-6.422 7.552-9.509 9.141a.734.734 0 0 1-.091.047c-.133.073-.267.137-.4.2-5.92 2.707-14.265 8.386-21.887 15.554z" transform="translate(-2327.335 -1183.205)"/>
                <g id="Group_9262">
                    <path id="Path_2454" d="M2419.461 1204.57s-3.629 5.368-5.7 16.652c-1.812 9.884-3.4 13.532-6.017 15.559s-17.2 8.01-17.2 8.01l1.091 2.555s21.372-2.91 23.773-6.482 11.552-24.677 10.844-29.536-6.791-6.758-6.791-6.758z" class="cls-38" transform="translate(-2347.294 -1167.244)"/>
                    <g id="Group_9259" transform="translate(0 140.454)">
                        <path id="Path_2455" d="M2281.052 1527.68c.194 2.084-2.709 2.592-6.071 2.759s-2.344.856-6.95 1.689-6.451-.425-6.787-1.047c-.3-.552 1.844-1.415 4.127-2.391.288-.12.576-.248.864-.375 2.568-1.13 4.01-3.432 6.01-5.569 1.9-2.023 3.7-8.5 3.7-8.5l6.258-1.338s-1.757 5.83-2.368 8.318a7.7 7.7 0 0 0 .642 4.345 8.047 8.047 0 0 1 .575 2.109z" class="cls-34" transform="translate(-2261.217 -1512.91)"/>
                        <path id="Path_2456" d="M2274.981 1555.633c-3.36.167-2.344.856-6.95 1.689s-6.451-.425-6.787-1.047c-.3-.552 1.844-1.415 4.127-2.391l.037.04a13.109 13.109 0 0 0 6.977.083c3.048-.826 5.993-2.649 8.091-3.237a8.175 8.175 0 0 1 .575 2.107c.195 2.084-2.708 2.589-6.07 2.756z" class="cls-39" transform="translate(-2261.217 -1538.107)"/>
                    </g>
                    <path id="Path_2457" d="M2367.965 1325.836s-41.59-3.13-49.419 1.813-20.386 62.5-20.386 62.5a5.112 5.112 0 0 0 2.505.809 21.021 21.021 0 0 0 5.154-.773s18.047-25.753 19.319-32.242.96-12.278 3.856-12.432 38.978 4.388 44.437-5.228.945-19.134.945-19.134z" class="cls-27" transform="translate(-2285.804 -1244.832)"/>
                    <g id="Group_9260" transform="translate(15.914 147.133)">
                        <path id="Path_2458" d="M2328.631 1547.65c.193 2.084-2.709 2.592-6.07 2.759s-2.345.856-6.95 1.689-6.452-.424-6.786-1.047c-.3-.552 1.843-1.415 4.127-2.391.288-.121.576-.248.862-.374 2.57-1.131 4.01-3.432 6.011-5.569 1.9-2.023 3.7-8.5 3.7-8.5l6.259-1.338s-1.757 5.83-2.368 8.318a7.694 7.694 0 0 0 .642 4.345 8.021 8.021 0 0 1 .573 2.108z" class="cls-34" transform="translate(-2308.797 -1532.88)"/>
                        <path id="Path_2459" d="M2322.572 1575.613c-3.362.167-2.345.856-6.949 1.689s-6.452-.425-6.787-1.047c-.3-.552 1.843-1.415 4.128-2.391l.036.04a13.109 13.109 0 0 0 6.978.084c3.047-.826 5.993-2.649 8.09-3.237a8.184 8.184 0 0 1 .575 2.107c.189 2.08-2.714 2.588-6.071 2.755z" class="cls-39" transform="translate(-2308.804 -1558.084)"/>
                    </g>
                    <path id="Path_2460" d="M2406.817 1342.87s-36.945 1.749-44.577 6.99-17.941 63.246-17.941 63.246a5.092 5.092 0 0 0 2.536.709 21.042 21.042 0 0 0 5.12-.974s17.031-26.436 18.047-32.968.482-12.3 3.368-12.572 39.119 2.866 44.2-6.953-10.753-17.478-10.753-17.478z" class="cls-19" transform="translate(-2316.512 -1259.287)"/>
                    <path id="Path_2461" fill="#be5429" d="M2484.086 1127.339a22.412 22.412 0 0 1-2.194-7.612c.081.4 1.137 5.549 3.328 8.355 8.559 4.836 25.469 21.763 25.386 25.188 0 0 4.91-9.756 5-9.82 0 0 9.344-13.666-3.251-20.295-6.4-3.372-6.7-8.225-6.719-12.455s-3.168-22.245-15.17-16.676a8.053 8.053 0 0 0-2.913-.555 2.44 2.44 0 0 1 1.127.445 9.586 9.586 0 0 0-5.107 1.334c-4.347 2.866-6.855 26.161.513 32.091z" transform="translate(-2406.43 -1092.965)"/>
                    <path id="Path_2462" d="M2506.327 1185.8a41.4 41.4 0 0 0-6.88 0 22.019 22.019 0 0 0-5.97 1.5c-3.257 1.361-2.914 7.127 3.917 6.057s9.406-5.848 8.933-7.557z" class="cls-34" transform="translate(-2414.466 -1154.654)"/>
                    <path id="Path_2463" d="M2497.808 1173.17c-.041.02-.974 4.96 3.5 4.762 2.937-.13 9.271-3.682 8.712-6.2-.263-1.194-2.485-4.3-2.932-11.375l-.536.144-8.99 2.411s.4 2.853.585 5.552c.158 2.268.166 4.428-.339 4.706z" class="cls-34" transform="translate(-2418.513 -1137.819)"/>
                    <path id="Path_2464" d="M2497.57 1163.192s.4 2.853.585 5.552c5.087-.485 7.472-5.315 8.406-7.963z" class="cls-38" transform="translate(-2418.521 -1138.098)"/>
                    <path id="Path_2465" d="M2494.228 1121.043a26.771 26.771 0 0 0 2.789-8.05c.288-2.609-1.662-12.071-11.171-10.057a13.078 13.078 0 0 0-5.271 2.405c-1.99 1.545-4.8 4.786-.876 12.9l1.06 2.756z" class="cls-41" transform="translate(-2405.313 -1099.415)"/>
                    <path id="Path_2466" d="M2483.131 1134.778s12.074-.605 11.582-8.117.733-12.652-7-12.582-9.037 3.034-9.482 5.582 1.746 15.084 4.9 15.117z" class="cls-34" transform="translate(-2405.612 -1107.016)"/>
                    <path id="Path_2467" d="M2490.24 1111.163s3.889 8.592 9.043 9.559 7.261-.539 7.261-.539a14.376 14.376 0 0 1-5.258-8.164s-8.835-5.214-11.046-.856z" class="cls-41" transform="translate(-2413.642 -1103.921)"/>
                    <path id="Path_2468" d="M2481.228 1114.013s-2.334 2.135-2.809 4.084-.481 5.91-1.639 5.854c0 0-2.885-5.827-.317-9.4 2.724-3.792 4.765-.538 4.765-.538z" class="cls-41" transform="translate(-2403.763 -1106.109)"/>
                    <path id="Path_2469" d="M2456.407 1236.577c.977 1.167 4.027 1.528 7.287 2.063a21.9 21.9 0 0 1 7.178 2.08c4.351 2.555 18.573 11.191 22.739 10.8 1.615-.154 1.314-3.238.334-7.331-1.542-6.465-4.766-15.439-4.766-19.342a113.328 113.328 0 0 0-1.656-12.934c-.077-.465-.154-.933-.235-1.4-1.872-11.2-4.465-24.419-4.465-24.419s-2.892 6.312-8.528 6.312-4.325-4.813-4.325-4.813-5.14.605-6.354 1.913-4.295 6.964-4.907 8.506c0 0-.124 1.963 4.736 2.9a63.831 63.831 0 0 0-1.324 8.88c-.1 2.622 1.789 10.833 2.334 15.944a9.476 9.476 0 0 1-.073 3.873c-.375.826-1.593 1.646-2.977 2.452-2.744 1.589-6.158 3.128-4.998 4.516z" class="cls-19" transform="translate(-2390.969 -1154.943)"/>
                    <path id="Path_2470" d="M2470.764 1273.844c-3.12 5.317 8.459 6.916 10.375 8.04 4.351 2.555 17.662 11.819 21.83 11.428 1.616-.154 1.315-3.237.334-7.331-1.542-6.465-4.766-15.439-4.766-19.342a113.2 113.2 0 0 0-1.655-12.933l-5.017-4.816s-5.374 13.893-10.5 16.171a43.308 43.308 0 0 1-7.553 2.458 9.46 9.46 0 0 1-.073 3.873c-.373.827-1.59 1.646-2.975 2.452z" class="cls-27" transform="translate(-2400.326 -1196.74)"/>
                    <path id="Path_2471" d="M2486.352 1197.155s4.292-2.606 8.435 2.337-2.947 40.266-9.094 42.078c-6.826 2.017-26.542-.321-26.542-.321l.381-3.08s20.991-4.024 21.864-5.148 2.775-35.294 4.956-35.866z" class="cls-34" transform="translate(-2392.949 -1161.851)"/>
                    <path id="Path_2472" d="M2531.031 1186.09s8.81.8 11.369 3.693 3.3 10.749 3.3 10.749-7.756 6.261-17.1 3.833z" class="cls-19" transform="translate(-2439.171 -1154.944)"/>
                    <g id="Group_9261" transform="translate(20.734 65.161)">
                        <path id="Rectangle_2018" d="M0 0H11.636V1.375H0z" class="cls-42" transform="rotate(180 21.704 8.632)"/>
                        <path id="Path_2473" d="M2357.452 1304.871c-.114-.455-10.7-17.071-10.7-17.071h-23.542l11.81 16.626z" class="cls-42" transform="translate(-2323.21 -1287.797)"/>
                        <path id="Path_2474" d="M2356.469 1305.052c-.114-.455-10.729-17.261-10.729-17.261h-22.52l11.234 17.261z" class="cls-41" transform="translate(-2323.217 -1287.79)"/>
                        <path id="Path_2475" d="M2363.131 1311.341a1.88 1.88 0 0 0 1.639 1.217.839.839 0 0 0 .8-1.217 1.883 1.883 0 0 0-1.639-1.221.841.841 0 0 0-.8 1.221z" class="cls-42" transform="translate(-2349.733 -1302.652)"/>
                    </g>
                    <path id="Path_2476" d="M2441 1318.518s-6.836-1.324-7.6-.993-5.071 4.191-4.629 4.96 2.2 1.324 4.188.662 6.284-.993 7.054-1.983a6.48 6.48 0 0 0 .987-2.646z" class="cls-34" transform="translate(-2372.707 -1242.383)"/>
                </g>
            </g>
            <g id="Group_9268" transform="translate(368.723 92.381)">
                <path id="Path_2477" d="M1568.933 640.435h-215.07l-16.483-53.975h215.07z" class="cls-43" transform="translate(-1337.38 -586.46)"/>
                <g id="Group_9266" transform="translate(18.138 13.087)">
                    <path id="Path_2478" fill="#b7d5f9" d="M1580.355 630.754l1.97 6.455c.866 2.84-.746 5.164-3.589 5.164h-178.179a7.611 7.611 0 0 1-6.743-5.164l-1.97-6.455c-.866-2.84.746-5.164 3.589-5.164h178.179a7.6 7.6 0 0 1 6.743 5.164z" transform="translate(-1391.61 -625.59)"/>
                    <g id="Group_9264" transform="translate(150.075 5.579)">
                        <path id="Path_2479" d="M1843.311 643.39h-2.733l-.258-.84h3.823l.221.723-1.013 4.716h-1.074z" class="cls-12" transform="translate(-1840.32 -642.456)"/>
                        <path id="Path_2480" d="M1855.9 645.083c-.474-1.552.091-2.813 1.519-2.813a3.716 3.716 0 0 1 3.221 2.813c.475 1.552-.091 2.813-1.518 2.813a3.709 3.709 0 0 1-3.222-2.813zm3.753 0c-.328-1.07-1.147-1.95-1.987-1.95s-1.114.853-.779 1.95c.327 1.07 1.137 1.95 1.986 1.95s1.113-.863.782-1.95z" class="cls-12" transform="translate(-1850.581 -642.27)"/>
                        <path id="Path_2481" d="M1871.436 643.752c-.23-.753.1-1.391.863-1.391a1.911 1.911 0 0 1 1.7 1.391c.231.752-.1 1.391-.863 1.391a1.907 1.907 0 0 1-1.7-1.391zm4.12-1.328h.769l-2.317 5.438h-.77zm-2.251 1.328a1.039 1.039 0 0 0-.839-.793c-.364 0-.475.358-.341.793a1.03 1.03 0 0 0 .839.793c.368-.001.475-.359.341-.793zm2.265 2.782c-.231-.753.1-1.391.866-1.391a1.911 1.911 0 0 1 1.7 1.391c.231.753-.1 1.391-.863 1.391a1.916 1.916 0 0 1-1.703-1.391zm1.87 0a1.039 1.039 0 0 0-.839-.793c-.365 0-.475.358-.341.793a1.025 1.025 0 0 0 .839.793c.367 0 .474-.358.34-.793z" class="cls-12" transform="translate(-1860.981 -642.33)"/>
                    </g>
                    <g id="Group_9265" transform="translate(.007)">
                        <path id="Path_2482" d="M1515.932 625.59l5.127 16.787h-120.482a7.586 7.586 0 0 1-6.134-3.793 6.345 6.345 0 0 1-.609-1.375l-1.97-6.455c-.866-2.84.746-5.164 3.589-5.164z" class="cls-21" transform="translate(-1391.63 -625.59)"/>
                        <path id="Path_2483" d="M1422.355 625.59l-5.08 16.787h-11.121a7.585 7.585 0 0 1-6.134-3.793l3.93-12.994z" class="cls-25" transform="translate(-1397.215 -625.59)"/>
                        <path id="Path_2484" d="M1514.359 625.59l-5.08 16.783h-18.4l5.081-16.783z" class="cls-25" transform="translate(-1457.685 -625.59)"/>
                        <path id="Path_2485" d="M1608.633 625.59l-5.077 16.783h-18.406l5.08-16.783z" class="cls-25" transform="translate(-1520.425 -625.59)"/>
                        <path id="Path_2486" d="M1702.923 625.59l-5.08 16.783h-18.4l5.077-16.783z" class="cls-25" transform="translate(-1583.18 -625.59)"/>
                    </g>
                </g>
                <g id="Group_9267" transform="translate(26.907 37.596)">
                    <path id="Path_2487" d="M1450.687 701.087h-32.178l-.679-2.217h32.182z" class="cls-15" transform="translate(-1417.83 -698.87)"/>
                    <path id="Path_2488" d="M1447.561 719.647h-23.381l-.679-2.217h23.382z" class="cls-15" transform="translate(-1421.604 -711.223)"/>
                    <path id="Path_2489" d="M1512.376 719.647H1498.4l-.679-2.217h13.979z" class="cls-15" transform="translate(-1471.001 -711.223)"/>
                    <path id="Path_2490" d="M1568.768 719.647h-21.352l-.676-2.217h21.349z" class="cls-15" transform="translate(-1503.625 -711.223)"/>
                    <path id="Path_2491" d="M1531.7 701.087h-9.743l-.679-2.217h9.746z" class="cls-15" transform="translate(-1486.681 -698.87)"/>
                    <path id="Path_2492" d="M1596.488 701.087h-35.429l-.679-2.217h35.433z" class="cls-15" transform="translate(-1512.703 -698.87)"/>
                </g>
            </g>
            <g id="Group_9284" transform="translate(135.164 150.811)">
                <path id="Path_2493" d="M813.875 838.169h-151.3L639.06 761.16h151.3z" class="cls-43" transform="translate(-639.06 -761.16)"/>
                <path id="Path_2494" d="M815.131 811.157H683.023l-9.993-32.727h132.1z" class="cls-31" transform="translate(-661.668 -772.654)"/>
                <g id="Group_9269" transform="translate(20.168 10.679)">
                    <path id="Path_2495" d="M722.271 794.836h-22.379l-.532-1.746h22.375z" class="cls-17" transform="translate(-699.36 -793.09)"/>
                    <path id="Path_2496" d="M801.325 794.836h-18.61l-.535-1.746h18.613z" class="cls-17" transform="translate(-754.48 -793.09)"/>
                    <path id="Path_2497" d="M891.331 794.836h-38.469l-.532-1.746h38.47z" class="cls-17" transform="translate(-801.168 -793.09)"/>
                    <path id="Path_2498" d="M727.981 813.546H705.6l-.532-1.746h22.378z" class="cls-17" transform="translate(-703.16 -805.542)"/>
                    <path id="Path_2499" d="M807.044 813.546h-18.612l-.532-1.746h18.609z" class="cls-17" transform="translate(-758.287 -805.542)"/>
                    <path id="Path_2500" d="M872.755 813.546h-18.61l-.535-1.746h18.613z" class="cls-17" transform="translate(-802.02 -805.542)"/>
                    <path id="Path_2501" d="M965.118 815.719h-38.466l-.532-1.749h38.466z" class="cls-17" transform="translate(-850.278 -806.987)"/>
                </g>
                <g id="Group_9270" transform="translate(24.499 24.867)">
                    <path id="Path_2502" d="M735.221 837.256h-22.379l-.532-1.746h22.379z" class="cls-17" transform="translate(-712.31 -835.51)"/>
                    <path id="Path_2503" d="M814.285 837.256h-18.613l-.532-1.746h18.61z" class="cls-17" transform="translate(-767.437 -835.51)"/>
                    <path id="Path_2504" d="M904.281 837.256h-38.466l-.535-1.746h38.466z" class="cls-17" transform="translate(-814.118 -835.51)"/>
                    <path id="Path_2505" d="M740.93 855.966h-22.375l-.535-1.746h22.38z" class="cls-17" transform="translate(-716.11 -847.962)"/>
                    <path id="Path_2506" d="M819.994 855.966h-18.612l-.531-1.746h18.612z" class="cls-17" transform="translate(-771.237 -847.962)"/>
                    <path id="Path_2507" d="M885.715 855.966H867.1l-.532-1.746h18.609z" class="cls-17" transform="translate(-814.976 -847.962)"/>
                    <path id="Path_2508" d="M978.071 858.146H939.6l-.532-1.746h38.466z" class="cls-17" transform="translate(-863.228 -849.413)"/>
                </g>
                <g id="Group_9283" transform="translate(43.205 47.022)">
                    <g id="Group_9273" transform="translate(54.169)">
                        <g id="Group_9271">
                            <path id="Path_2509" d="M942.766 920.346c-5.127 0-10.572-4.171-12.141-9.3s1.331-9.3 6.458-9.3 10.572 4.171 12.141 9.3-1.331 9.3-6.458 9.3zm-5.16-16.9c-4.191 0-6.559 3.408-5.281 7.6s5.733 7.6 9.923 7.6 6.559-3.408 5.281-7.6-5.729-7.6-9.924-7.6z" class="cls-23" transform="translate(-930.2 -901.75)"/>
                        </g>
                        <g id="Group_9272" transform="translate(3.9 5.463)">
                            <path id="Path_2510" d="M948.941 926.649a1.968 1.968 0 0 1-1.051-.431l-5.274-4.177a1.538 1.538 0 0 1-.565-2 1.421 1.421 0 0 1 2.013.043l3.726 2.953 1.833-4.368c.264-.632 1.107-.773 1.88-.315a1.742 1.742 0 0 1 .92 1.977l-2.408 5.743a.976.976 0 0 1-.873.582c-.064-.001-.131-.001-.201-.007z" class="cls-23" transform="translate(-941.861 -918.085)"/>
                        </g>
                    </g>
                    <g id="Group_9276" transform="translate(27.559)">
                        <g id="Group_9274">
                            <path id="Path_2511" d="M863.206 920.346c-5.127 0-10.572-4.171-12.141-9.3s1.331-9.3 6.458-9.3 10.572 4.171 12.141 9.3-1.331 9.3-6.458 9.3zm-5.161-16.9c-4.191 0-6.559 3.408-5.281 7.6s5.733 7.6 9.923 7.6 6.559-3.408 5.281-7.6-5.732-7.6-9.923-7.6z" class="cls-23" transform="translate(-850.64 -901.75)"/>
                        </g>
                        <g id="Group_9275" transform="translate(3.903 5.463)">
                            <path id="Path_2512" d="M869.391 926.649a1.967 1.967 0 0 1-1.05-.431l-5.274-4.177a1.538 1.538 0 0 1-.565-2 1.422 1.422 0 0 1 2.014.043l3.726 2.953 1.833-4.368c.264-.632 1.107-.773 1.88-.315a1.742 1.742 0 0 1 .92 1.977l-2.408 5.743a.976.976 0 0 1-.873.582c-.069-.001-.136-.001-.203-.007z" class="cls-23" transform="translate(-862.311 -918.085)"/>
                        </g>
                    </g>
                    <g id="Group_9279">
                        <g id="Group_9277">
                            <path id="Path_2513" d="M780.8 920.346c-5.127 0-10.572-4.171-12.137-9.3s1.331-9.3 6.458-9.3 10.572 4.171 12.138 9.3-1.329 9.3-6.459 9.3zm-5.161-16.9c-4.191 0-6.559 3.408-5.281 7.6s5.729 7.6 9.923 7.6 6.559-3.408 5.281-7.6-5.73-7.6-9.92-7.6z" class="cls-23" transform="translate(-768.24 -901.75)"/>
                        </g>
                        <g id="Group_9278" transform="translate(3.9 5.463)">
                            <path id="Path_2514" d="M786.981 926.649a1.968 1.968 0 0 1-1.05-.431l-5.274-4.177a1.538 1.538 0 0 1-.565-2 1.422 1.422 0 0 1 2.014.043l3.726 2.953 1.833-4.368c.264-.632 1.107-.773 1.88-.315a1.742 1.742 0 0 1 .92 1.977l-2.408 5.743a.976.976 0 0 1-.873.582c-.069-.001-.136-.001-.203-.007z" class="cls-23" transform="translate(-779.901 -918.085)"/>
                        </g>
                    </g>
                    <g id="Group_9282" transform="translate(79.842)">
                        <g id="Group_9280">
                            <path id="Path_2515" d="M1019.522 920.346c-5.127 0-10.573-4.171-12.137-9.3s1.331-9.3 6.458-9.3 10.572 4.171 12.138 9.3-1.331 9.3-6.459 9.3zm-5.161-16.9c-4.191 0-6.559 3.408-5.281 7.6s5.729 7.6 9.923 7.6 6.559-3.408 5.281-7.6-5.732-7.6-9.922-7.6z" class="cls-21" transform="translate(-1006.96 -901.75)"/>
                        </g>
                        <g id="Group_9281" transform="translate(7.205 4.241)">
                            <path id="Path_2516" d="M1031.484 921.009a1.937 1.937 0 0 1-1.716-1.315l-1.207-3.95a.942.942 0 0 1 .913-1.314 1.937 1.937 0 0 1 1.716 1.314l1.207 3.95a.942.942 0 0 1-.913 1.315z" class="cls-21" transform="translate(-1028.502 -914.43)"/>
                            <path id="Path_2517" d="M1036.96 938.7h-.284a1.728 1.728 0 0 1-1.532-1.174.841.841 0 0 1 .816-1.174h.284a1.728 1.728 0 0 1 1.532 1.174.844.844 0 0 1-.816 1.174z" class="cls-21" transform="translate(-1032.887 -929.019)"/>
                        </g>
                    </g>
                </g>
            </g>
            <g id="Group_9285" transform="translate(588.406 172.708)">
                <path id="Path_2518" d="M2125.53 945.56s19.139 19.84 20.042 27.308-9.168 19.125-9.168 19.125z" class="cls-45" transform="translate(-2081.609 -905.783)"/>
                <path id="Path_2519" d="M2048.18 1553.589s-.676 10.526-2.713 10.669c-.271.02-10.328 0-10.328 0l-12.84-.1s.09-3.094 3.846-3.739 10.04-3.271 12.324-8.224c2.406-5.218 9.711 1.394 9.711 1.394z" class="cls-27" transform="translate(-2012.905 -1308.187)"/>
                <path id="Path_2520" d="M2133.68 1553.772s-.675 10.526-2.712 10.669c-.271.02-10.328 0-10.328 0l-12.84-.1s.09-3.094 3.847-3.74 10.039-3.271 12.323-8.224c2.406-5.214 9.71 1.395 9.71 1.395z" class="cls-27" transform="translate(-2069.809 -1308.309)"/>
                <path id="Path_2521" d="M2057.9 1190.174s3.311 21.482 15.756 59.634 14.113 54.664 14.113 54.664l13.439-.348s.2-41.663-5.525-60.848-1.1-69.116-1.1-69.116z" class="cls-27" transform="translate(-2036.599 -1057.926)"/>
                <path id="Path_2522" d="M2038.421 1177.4a521.456 521.456 0 0 0 4.967 72.109c5.512 39.747 3.578 56.61 3.578 56.61l13.409.475s8.1-39.734 5.845-59.627 11.125-68.223 11.125-68.223z" class="cls-19" transform="translate(-2023.624 -1060.082)"/>
                <path id="Path_2523" d="M2081.786 919.3l-7.154 4.669-10.322-1.946c.144-.833.833-4.288 1.462-7.415.037-.184.078-.368.111-.549l1-4.946 9.653-4.234 3.6-1.579c-.01.057-.284 2.953-.324 3.378a24.568 24.568 0 0 0 1.974 12.622z" class="cls-34" transform="translate(-2040.865 -877.657)"/>
                <path id="Path_2524" d="M2064.007 937.473c.2-.084 12.443-3.669 13.773-3.228s2.11 3.013 2.11 3.013l-20.021 4.482s1.58-3.197 4.138-4.267z" class="cls-45" transform="translate(-2037.91 -898.227)"/>
                <path id="Path_2525" d="M2077.933 1025.5c-2.094 9.455-36.609 10.5-45.489 1.9-1.01-.98-1.051-5.535-.655-11.676.772-12 3.211-30.038 3.321-39.255a73.064 73.064 0 0 1 1.5-13.138 106.734 106.734 0 0 1 4.412-15.719s16.87-5.415 20.021-4.478c15.187 4.495 18.984 72.915 16.89 82.366z" class="cls-21" transform="translate(-2019.065 -904.095)"/>
                <path id="Path_2526" d="M2032.25 1052.623c.773-12 3.211-30.038 3.321-39.256a72.934 72.934 0 0 1 1.5-13.137l10.144-1.769s9.829 40.515-14.965 54.162z" class="cls-45" transform="translate(-2019.527 -940.99)"/>
                <path id="Path_2527" d="M2043.007 1107.3a2.382 2.382 0 0 1-.766 2.759c-1.455 1.107-2.4 2.9-2.07 4.215s3.509 3.465 4.612 3.12 3.355-2.067 3.114-2.763 1.525-6.077-1.161-8.157-3.729.826-3.729.826z" class="cls-34" transform="translate(-2024.755 -1012.38)"/>
                <path id="Path_2528" d="M2023.917 949.53s-9.893 1.83-17.8 13.425-13.11 20.218-11.666 24.409 14.643 18.733 16.924 18.74 5.966-1.646 6.181-5.378c0 0-9.285-13.984-7.445-16.071.786-.893 12.118-10.05 13.723-5.9 2.655 6.87.083-29.225.083-29.225z" class="cls-21" transform="translate(-1994.21 -908.425)"/>
                <path id="Path_2529" fill="#fca56b" d="M2081.989 909.944c-2.124 3.582-10.024 6.669-13.318 7.8.037-.184.076-.368.11-.549l1-4.946 9.652-4.234c2.138-.024 3.435.454 2.556 1.929z" transform="translate(-2043.766 -880.797)"/>
                <path id="Path_2530" d="M2057.294 868.043s15.525 4.88 18.416-4.836 6.84-15.629-2.95-19.155-12.826-.394-14.582 2.612-4.847 19.86-.884 21.379z" class="cls-34" transform="translate(-2034.912 -837.186)"/>
                <path id="Path_2531" d="M2062.72 835.175s.966 11.315 3.308 10.83 4.461-.846 4.114 2.565-3.6 7.342 3.6 7.96 17.613-17.954 15.643-21.479c-5.691-10.17-34.899-12.284-26.665.124z" class="cls-30" transform="translate(-2038.84 -826.63)"/>
            </g>
            <g id="Group_9291" transform="translate(254.786)">
                <g id="Group_9286" class="cls-47" transform="translate(34.797)">
                    <path id="Path_2532" d="M1100.76 596.366v-2.756h2.84v2.756z" class="cls-21" transform="translate(-1100.76 -498.838)"/>
                    <path id="Path_2533" d="M1100.76 579.7v-2.76h2.84v2.76z" class="cls-21" transform="translate(-1100.76 -487.743)"/>
                    <path id="Path_2534" d="M1100.76 563.026v-2.756h2.84v2.756z" class="cls-21" transform="translate(-1100.76 -476.649)"/>
                    <path id="Path_2535" d="M1100.76 546.356V543.6h2.84v2.756z" class="cls-21" transform="translate(-1100.76 -465.554)"/>
                    <path id="Path_2536" d="M1100.76 529.7v-2.76h2.84v2.76z" class="cls-21" transform="translate(-1100.76 -454.466)"/>
                    <path id="Path_2537" d="M1100.76 513.026v-2.756h2.84v2.756z" class="cls-21" transform="translate(-1100.76 -443.372)"/>
                    <path id="Path_2538" d="M1100.76 496.356V493.6h2.84v2.756z" class="cls-21" transform="translate(-1100.76 -432.277)"/>
                    <path id="Path_2539" d="M1100.76 479.686v-2.756h2.84v2.756z" class="cls-21" transform="translate(-1100.76 -421.182)"/>
                    <path id="Path_2540" d="M1100.76 463.016v-2.756h2.84v2.756z" class="cls-21" transform="translate(-1100.76 -410.088)"/>
                    <path id="Path_2541" d="M1100.76 446.346v-2.756h2.84v2.756z" class="cls-21" transform="translate(-1100.76 -398.993)"/>
                    <path id="Path_2542" d="M1100.76 429.686v-2.756h2.84v2.756z" class="cls-21" transform="translate(-1100.76 -387.905)"/>
                    <path id="Path_2543" d="M1100.76 413.016v-2.756h2.84v2.756z" class="cls-21" transform="translate(-1100.76 -376.811)"/>
                    <path id="Path_2544" d="M1100.76 396.346v-2.756h2.84v2.756z" class="cls-21" transform="translate(-1100.76 -365.716)"/>
                    <path id="Path_2545" d="M1100.76 379.676v-2.756h2.84v2.756z" class="cls-21" transform="translate(-1100.76 -354.622)"/>
                    <path id="Path_2546" d="M1100.76 363.006v-2.756h2.84v2.756z" class="cls-21" transform="translate(-1100.76 -343.527)"/>
                    <path id="Path_2547" d="M1100.76 346.346v-2.756h2.84v2.756z" class="cls-21" transform="translate(-1100.76 -332.439)"/>
                    <path id="Path_2548" d="M1100.76 329.676v-2.756h2.84v2.756z" class="cls-21" transform="translate(-1100.76 -321.345)"/>
                    <path id="Path_2549" d="M1100.76 313.006v-2.756h2.84v2.756z" class="cls-21" transform="translate(-1100.76 -310.25)"/>
                </g>
                <g id="Group_9287" class="cls-47" transform="translate(26.118)">
                    <path id="Path_2550" d="M1074.81 496.356V493.6h2.84v2.756z" class="cls-21" transform="translate(-1074.81 -432.277)"/>
                    <path id="Path_2551" d="M1074.81 479.686v-2.756h2.84v2.756z" class="cls-21" transform="translate(-1074.81 -421.182)"/>
                    <path id="Path_2552" d="M1074.81 463.016v-2.756h2.84v2.756z" class="cls-21" transform="translate(-1074.81 -410.088)"/>
                    <path id="Path_2553" d="M1074.81 446.346v-2.756h2.84v2.756z" class="cls-21" transform="translate(-1074.81 -398.993)"/>
                    <path id="Path_2554" d="M1074.81 429.686v-2.756h2.84v2.756z" class="cls-21" transform="translate(-1074.81 -387.905)"/>
                    <path id="Path_2555" d="M1074.81 413.016v-2.756h2.84v2.756z" class="cls-21" transform="translate(-1074.81 -376.811)"/>
                    <path id="Path_2556" d="M1074.81 396.346v-2.756h2.84v2.756z" class="cls-21" transform="translate(-1074.81 -365.716)"/>
                    <path id="Path_2557" d="M1074.81 379.676v-2.756h2.84v2.756z" class="cls-21" transform="translate(-1074.81 -354.622)"/>
                    <path id="Path_2558" d="M1074.81 363.006v-2.756h2.84v2.756z" class="cls-21" transform="translate(-1074.81 -343.527)"/>
                    <path id="Path_2559" d="M1074.81 346.346v-2.756h2.84v2.756z" class="cls-21" transform="translate(-1074.81 -332.439)"/>
                    <path id="Path_2560" d="M1074.81 329.676v-2.756h2.84v2.756z" class="cls-21" transform="translate(-1074.81 -321.345)"/>
                    <path id="Path_2561" d="M1074.81 313.006v-2.756h2.84v2.756z" class="cls-21" transform="translate(-1074.81 -310.25)"/>
                </g>
                <g id="Group_9288" class="cls-47" transform="translate(17.275)">
                    <path id="Path_2562" d="M1048.37 596.366v-2.756h2.84v2.756z" class="cls-21" transform="translate(-1048.37 -498.838)"/>
                    <path id="Path_2563" d="M1048.37 579.7v-2.76h2.84v2.76z" class="cls-21" transform="translate(-1048.37 -487.743)"/>
                    <path id="Path_2564" d="M1048.37 563.026v-2.756h2.84v2.756z" class="cls-21" transform="translate(-1048.37 -476.649)"/>
                    <path id="Path_2565" d="M1048.37 546.356V543.6h2.84v2.756z" class="cls-21" transform="translate(-1048.37 -465.554)"/>
                    <path id="Path_2566" d="M1048.37 529.7v-2.76h2.84v2.76z" class="cls-21" transform="translate(-1048.37 -454.466)"/>
                    <path id="Path_2567" d="M1048.37 513.026v-2.756h2.84v2.756z" class="cls-21" transform="translate(-1048.37 -443.372)"/>
                    <path id="Path_2568" d="M1048.37 496.356V493.6h2.84v2.756z" class="cls-21" transform="translate(-1048.37 -432.277)"/>
                    <path id="Path_2569" d="M1048.37 479.686v-2.756h2.84v2.756z" class="cls-21" transform="translate(-1048.37 -421.182)"/>
                    <path id="Path_2570" d="M1048.37 463.016v-2.756h2.84v2.756z" class="cls-21" transform="translate(-1048.37 -410.088)"/>
                    <path id="Path_2571" d="M1048.37 446.346v-2.756h2.84v2.756z" class="cls-21" transform="translate(-1048.37 -398.993)"/>
                    <path id="Path_2572" d="M1048.37 429.686v-2.756h2.84v2.756z" class="cls-21" transform="translate(-1048.37 -387.905)"/>
                    <path id="Path_2573" d="M1048.37 413.016v-2.756h2.84v2.756z" class="cls-21" transform="translate(-1048.37 -376.811)"/>
                    <path id="Path_2574" d="M1048.37 396.346v-2.756h2.84v2.756z" class="cls-21" transform="translate(-1048.37 -365.716)"/>
                    <path id="Path_2575" d="M1048.37 379.676v-2.756h2.84v2.756z" class="cls-21" transform="translate(-1048.37 -354.622)"/>
                    <path id="Path_2576" d="M1048.37 363.006v-2.756h2.84v2.756z" class="cls-21" transform="translate(-1048.37 -343.527)"/>
                    <path id="Path_2577" d="M1048.37 346.346v-2.756h2.84v2.756z" class="cls-21" transform="translate(-1048.37 -332.439)"/>
                    <path id="Path_2578" d="M1048.37 329.676v-2.756h2.84v2.756z" class="cls-21" transform="translate(-1048.37 -321.345)"/>
                    <path id="Path_2579" d="M1048.37 313.006v-2.756h2.84v2.756z" class="cls-21" transform="translate(-1048.37 -310.25)"/>
                </g>
                <g id="Group_9289" class="cls-47" transform="translate(9.826)">
                    <path id="Path_2580" d="M1026.1 629.7v-2.76h2.84v2.76z" class="cls-21" transform="translate(-1026.1 -521.02)"/>
                    <path id="Path_2581" d="M1026.1 613.036v-2.756h2.84v2.756z" class="cls-21" transform="translate(-1026.1 -509.933)"/>
                    <path id="Path_2582" d="M1026.1 596.366v-2.756h2.84v2.756z" class="cls-21" transform="translate(-1026.1 -498.838)"/>
                    <path id="Path_2583" d="M1026.1 579.7v-2.76h2.84v2.76z" class="cls-21" transform="translate(-1026.1 -487.743)"/>
                    <path id="Path_2584" d="M1026.1 563.026v-2.756h2.84v2.756z" class="cls-21" transform="translate(-1026.1 -476.649)"/>
                    <path id="Path_2585" d="M1026.1 546.356V543.6h2.84v2.756z" class="cls-21" transform="translate(-1026.1 -465.554)"/>
                    <path id="Path_2586" d="M1026.1 529.7v-2.76h2.84v2.76z" class="cls-21" transform="translate(-1026.1 -454.466)"/>
                    <path id="Path_2587" d="M1026.1 513.026v-2.756h2.84v2.756z" class="cls-21" transform="translate(-1026.1 -443.372)"/>
                    <path id="Path_2588" d="M1026.1 496.356V493.6h2.84v2.756z" class="cls-21" transform="translate(-1026.1 -432.277)"/>
                    <path id="Path_2589" d="M1026.1 479.686v-2.756h2.84v2.756z" class="cls-21" transform="translate(-1026.1 -421.182)"/>
                    <path id="Path_2590" d="M1026.1 463.016v-2.756h2.84v2.756z" class="cls-21" transform="translate(-1026.1 -410.088)"/>
                    <path id="Path_2591" d="M1026.1 446.346v-2.756h2.84v2.756z" class="cls-21" transform="translate(-1026.1 -398.993)"/>
                    <path id="Path_2592" d="M1026.1 429.686v-2.756h2.84v2.756z" class="cls-21" transform="translate(-1026.1 -387.905)"/>
                    <path id="Path_2593" d="M1026.1 413.016v-2.756h2.84v2.756z" class="cls-21" transform="translate(-1026.1 -376.811)"/>
                    <path id="Path_2594" d="M1026.1 396.346v-2.756h2.84v2.756z" class="cls-21" transform="translate(-1026.1 -365.716)"/>
                    <path id="Path_2595" d="M1026.1 379.676v-2.756h2.84v2.756z" class="cls-21" transform="translate(-1026.1 -354.622)"/>
                    <path id="Path_2596" d="M1026.1 363.006v-2.756h2.84v2.756z" class="cls-21" transform="translate(-1026.1 -343.527)"/>
                    <path id="Path_2597" d="M1026.1 346.346v-2.756h2.84v2.756z" class="cls-21" transform="translate(-1026.1 -332.439)"/>
                    <path id="Path_2598" d="M1026.1 329.676v-2.756h2.84v2.756z" class="cls-21" transform="translate(-1026.1 -321.345)"/>
                    <path id="Path_2599" d="M1026.1 313.006v-2.756h2.84v2.756z" class="cls-21" transform="translate(-1026.1 -310.25)"/>
                </g>
                <g id="Group_9290" class="cls-47">
                    <path id="Path_2600" d="M996.72 479.686v-2.756h2.839v2.756z" class="cls-21" transform="translate(-996.72 -421.182)"/>
                    <path id="Path_2601" d="M996.72 463.016v-2.756h2.839v2.756z" class="cls-21" transform="translate(-996.72 -410.088)"/>
                    <path id="Path_2602" d="M996.72 446.346v-2.756h2.839v2.756z" class="cls-21" transform="translate(-996.72 -398.993)"/>
                    <path id="Path_2603" d="M996.72 429.686v-2.756h2.839v2.756z" class="cls-21" transform="translate(-996.72 -387.905)"/>
                    <path id="Path_2604" d="M996.72 413.016v-2.756h2.839v2.756z" class="cls-21" transform="translate(-996.72 -376.811)"/>
                    <path id="Path_2605" d="M996.72 396.346v-2.756h2.839v2.756z" class="cls-21" transform="translate(-996.72 -365.716)"/>
                    <path id="Path_2606" d="M996.72 379.676v-2.756h2.839v2.756z" class="cls-21" transform="translate(-996.72 -354.622)"/>
                    <path id="Path_2607" d="M996.72 363.006v-2.756h2.839v2.756z" class="cls-21" transform="translate(-996.72 -343.527)"/>
                    <path id="Path_2608" d="M996.72 346.346v-2.756h2.839v2.756z" class="cls-21" transform="translate(-996.72 -332.439)"/>
                    <path id="Path_2609" d="M996.72 329.676v-2.756h2.839v2.756z" class="cls-21" transform="translate(-996.72 -321.345)"/>
                    <path id="Path_2610" d="M996.72 313.006v-2.756h2.839v2.756z" class="cls-21" transform="translate(-996.72 -310.25)"/>
                </g>
            </g>
            <g id="Group_9297" transform="translate(680.469 189.628)">
                <g id="Group_9292" class="cls-47" transform="translate(0 11.148)">
                    <path id="Path_2611" d="M2272.31 910.55v2.756h-2.84v-2.756z" class="cls-21" transform="translate(-2269.47 -910.55)"/>
                    <path id="Path_2612" d="M2272.31 927.22v2.756h-2.84v-2.756z" class="cls-21" transform="translate(-2269.47 -921.645)"/>
                    <path id="Path_2613" d="M2272.31 943.89v2.756h-2.84v-2.756z" class="cls-21" transform="translate(-2269.47 -932.739)"/>
                    <path id="Path_2614" d="M2272.31 960.56v2.756h-2.84v-2.756z" class="cls-21" transform="translate(-2269.47 -943.834)"/>
                    <path id="Path_2615" d="M2272.31 977.23v2.756h-2.84v-2.756z" class="cls-21" transform="translate(-2269.47 -954.929)"/>
                    <path id="Path_2616" d="M2272.31 993.89v2.756h-2.84v-2.756z" class="cls-21" transform="translate(-2269.47 -966.016)"/>
                    <path id="Path_2617" d="M2272.31 1010.56v2.756h-2.84v-2.756z" class="cls-21" transform="translate(-2269.47 -977.111)"/>
                    <path id="Path_2618" d="M2272.31 1027.23v2.756h-2.84v-2.756z" class="cls-21" transform="translate(-2269.47 -988.205)"/>
                    <path id="Path_2619" d="M2272.31 1043.9v2.756h-2.84v-2.756z" class="cls-21" transform="translate(-2269.47 -999.3)"/>
                    <path id="Path_2620" d="M2272.31 1060.57v2.756h-2.84v-2.756z" class="cls-21" transform="translate(-2269.47 -1010.395)"/>
                    <path id="Path_2621" d="M2272.31 1077.24v2.76h-2.84v-2.756z" class="cls-21" transform="translate(-2269.47 -1021.489)"/>
                    <path id="Path_2622" d="M2272.31 1093.9v2.756h-2.84v-2.756z" class="cls-21" transform="translate(-2269.47 -1032.577)"/>
                    <path id="Path_2623" d="M2272.31 1110.57v2.756h-2.84v-2.756z" class="cls-21" transform="translate(-2269.47 -1043.672)"/>
                    <path id="Path_2624" d="M2272.31 1127.24v2.76h-2.84v-2.756z" class="cls-21" transform="translate(-2269.47 -1054.766)"/>
                    <path id="Path_2625" d="M2272.31 1143.91v2.756h-2.84v-2.756z" class="cls-21" transform="translate(-2269.47 -1065.861)"/>
                    <path id="Path_2626" d="M2272.31 1160.58v2.756h-2.84v-2.756z" class="cls-21" transform="translate(-2269.47 -1076.955)"/>
                    <path id="Path_2627" d="M2272.31 1177.24v2.76h-2.84v-2.756z" class="cls-21" transform="translate(-2269.47 -1088.043)"/>
                    <path id="Path_2628" d="M2272.31 1193.91v2.756h-2.84v-2.756z" class="cls-21" transform="translate(-2269.47 -1099.138)"/>
                </g>
                <g id="Group_9293" class="cls-47" transform="translate(8.683 44.597)">
                    <path id="Path_2629" d="M2298.269 1010.56v2.756h-2.84v-2.756z" class="cls-21" transform="translate(-2295.429 -1010.56)"/>
                    <path id="Path_2630" d="M2298.269 1027.23v2.756h-2.84v-2.756z" class="cls-21" transform="translate(-2295.429 -1021.655)"/>
                    <path id="Path_2631" d="M2298.269 1043.9v2.756h-2.84v-2.756z" class="cls-21" transform="translate(-2295.429 -1032.749)"/>
                    <path id="Path_2632" d="M2298.269 1060.57v2.756h-2.84v-2.756z" class="cls-21" transform="translate(-2295.429 -1043.844)"/>
                    <path id="Path_2633" d="M2298.269 1077.24v2.76h-2.84v-2.756z" class="cls-21" transform="translate(-2295.429 -1054.939)"/>
                    <path id="Path_2634" d="M2298.269 1093.9v2.756h-2.84v-2.756z" class="cls-21" transform="translate(-2295.429 -1066.026)"/>
                    <path id="Path_2635" d="M2298.269 1110.57v2.756h-2.84v-2.756z" class="cls-21" transform="translate(-2295.429 -1077.121)"/>
                    <path id="Path_2636" d="M2298.269 1127.24v2.76h-2.84v-2.756z" class="cls-21" transform="translate(-2295.429 -1088.216)"/>
                    <path id="Path_2637" d="M2298.269 1143.91v2.756h-2.84v-2.756z" class="cls-21" transform="translate(-2295.429 -1099.31)"/>
                    <path id="Path_2638" d="M2298.269 1160.58v2.756h-2.84v-2.756z" class="cls-21" transform="translate(-2295.429 -1110.405)"/>
                    <path id="Path_2639" d="M2298.269 1177.24v2.76h-2.84v-2.756z" class="cls-21" transform="translate(-2295.429 -1121.493)"/>
                    <path id="Path_2640" d="M2298.269 1193.91v2.756h-2.84v-2.756z" class="cls-21" transform="translate(-2295.429 -1132.587)"/>
                </g>
                <g id="Group_9294" class="cls-47" transform="translate(17.526 11.148)">
                    <path id="Path_2641" d="M2324.71 910.55v2.756h-2.839v-2.756z" class="cls-21" transform="translate(-2321.87 -910.55)"/>
                    <path id="Path_2642" d="M2324.71 927.22v2.756h-2.839v-2.756z" class="cls-21" transform="translate(-2321.87 -921.645)"/>
                    <path id="Path_2643" d="M2324.71 943.89v2.756h-2.839v-2.756z" class="cls-21" transform="translate(-2321.87 -932.739)"/>
                    <path id="Path_2644" d="M2324.71 960.56v2.756h-2.839v-2.756z" class="cls-21" transform="translate(-2321.87 -943.834)"/>
                    <path id="Path_2645" d="M2324.71 977.23v2.756h-2.839v-2.756z" class="cls-21" transform="translate(-2321.87 -954.929)"/>
                    <path id="Path_2646" d="M2324.71 993.89v2.756h-2.839v-2.756z" class="cls-21" transform="translate(-2321.87 -966.016)"/>
                    <path id="Path_2647" d="M2324.71 1010.56v2.756h-2.839v-2.756z" class="cls-21" transform="translate(-2321.87 -977.111)"/>
                    <path id="Path_2648" d="M2324.71 1027.23v2.756h-2.839v-2.756z" class="cls-21" transform="translate(-2321.87 -988.205)"/>
                    <path id="Path_2649" d="M2324.71 1043.9v2.756h-2.839v-2.756z" class="cls-21" transform="translate(-2321.87 -999.3)"/>
                    <path id="Path_2650" d="M2324.71 1060.57v2.756h-2.839v-2.756z" class="cls-21" transform="translate(-2321.87 -1010.395)"/>
                    <path id="Path_2651" d="M2324.71 1077.24v2.76h-2.839v-2.756z" class="cls-21" transform="translate(-2321.87 -1021.489)"/>
                    <path id="Path_2652" d="M2324.71 1093.9v2.756h-2.839v-2.756z" class="cls-21" transform="translate(-2321.87 -1032.577)"/>
                    <path id="Path_2653" d="M2324.71 1110.57v2.756h-2.839v-2.756z" class="cls-21" transform="translate(-2321.87 -1043.672)"/>
                    <path id="Path_2654" d="M2324.71 1127.24v2.76h-2.839v-2.756z" class="cls-21" transform="translate(-2321.87 -1054.766)"/>
                    <path id="Path_2655" d="M2324.71 1143.91v2.756h-2.839v-2.756z" class="cls-21" transform="translate(-2321.87 -1065.861)"/>
                    <path id="Path_2656" d="M2324.71 1160.58v2.756h-2.839v-2.756z" class="cls-21" transform="translate(-2321.87 -1076.955)"/>
                    <path id="Path_2657" d="M2324.71 1177.24v2.76h-2.839v-2.756z" class="cls-21" transform="translate(-2321.87 -1088.043)"/>
                    <path id="Path_2658" d="M2324.71 1193.91v2.756h-2.839v-2.756z" class="cls-21" transform="translate(-2321.87 -1099.138)"/>
                </g>
                <g id="Group_9295" class="cls-47" transform="translate(24.971)">
                    <path id="Path_2659" d="M2346.97 877.22v2.756h-2.839v-2.756z" class="cls-21" transform="translate(-2344.131 -877.22)"/>
                    <path id="Path_2660" d="M2346.97 893.89v2.756h-2.839v-2.756z" class="cls-21" transform="translate(-2344.131 -888.315)"/>
                    <path id="Path_2661" d="M2346.97 910.55v2.756h-2.839v-2.756z" class="cls-21" transform="translate(-2344.131 -899.403)"/>
                    <path id="Path_2662" d="M2346.97 927.22v2.756h-2.839v-2.756z" class="cls-21" transform="translate(-2344.131 -910.497)"/>
                    <path id="Path_2663" d="M2346.97 943.89v2.756h-2.839v-2.756z" class="cls-21" transform="translate(-2344.131 -921.592)"/>
                    <path id="Path_2664" d="M2346.97 960.56v2.756h-2.839v-2.756z" class="cls-21" transform="translate(-2344.131 -932.686)"/>
                    <path id="Path_2665" d="M2346.97 977.23v2.756h-2.839v-2.756z" class="cls-21" transform="translate(-2344.131 -943.781)"/>
                    <path id="Path_2666" d="M2346.97 993.89v2.756h-2.839v-2.756z" class="cls-21" transform="translate(-2344.131 -954.869)"/>
                    <path id="Path_2667" d="M2346.97 1010.56v2.756h-2.839v-2.756z" class="cls-21" transform="translate(-2344.131 -965.964)"/>
                    <path id="Path_2668" d="M2346.97 1027.23v2.756h-2.839v-2.756z" class="cls-21" transform="translate(-2344.131 -977.058)"/>
                    <path id="Path_2669" d="M2346.97 1043.9v2.756h-2.839v-2.756z" class="cls-21" transform="translate(-2344.131 -988.153)"/>
                    <path id="Path_2670" d="M2346.97 1060.57v2.756h-2.839v-2.756z" class="cls-21" transform="translate(-2344.131 -999.247)"/>
                    <path id="Path_2671" d="M2346.97 1077.24v2.76h-2.839v-2.756z" class="cls-21" transform="translate(-2344.131 -1010.342)"/>
                    <path id="Path_2672" d="M2346.97 1093.9v2.756h-2.839v-2.756z" class="cls-21" transform="translate(-2344.131 -1021.43)"/>
                    <path id="Path_2673" d="M2346.97 1110.57v2.756h-2.839v-2.756z" class="cls-21" transform="translate(-2344.131 -1032.524)"/>
                    <path id="Path_2674" d="M2346.97 1127.24v2.76h-2.839v-2.756z" class="cls-21" transform="translate(-2344.131 -1043.619)"/>
                    <path id="Path_2675" d="M2346.97 1143.91v2.756h-2.839v-2.756z" class="cls-21" transform="translate(-2344.131 -1054.713)"/>
                    <path id="Path_2676" d="M2346.97 1160.58v2.756h-2.839v-2.756z" class="cls-21" transform="translate(-2344.131 -1065.808)"/>
                    <path id="Path_2677" d="M2346.97 1177.24v2.76h-2.839v-2.756z" class="cls-21" transform="translate(-2344.131 -1076.896)"/>
                    <path id="Path_2678" d="M2346.97 1193.91v2.756h-2.839v-2.756z" class="cls-21" transform="translate(-2344.131 -1087.99)"/>
                </g>
                <g id="Group_9296" class="cls-47" transform="translate(34.797 50.172)">
                    <path id="Path_2679" d="M2376.35 1027.23v2.756h-2.839v-2.756z" class="cls-21" transform="translate(-2373.51 -1027.23)"/>
                    <path id="Path_2680" d="M2376.35 1043.9v2.756h-2.839v-2.756z" class="cls-21" transform="translate(-2373.51 -1038.325)"/>
                    <path id="Path_2681" d="M2376.35 1060.57v2.756h-2.839v-2.756z" class="cls-21" transform="translate(-2373.51 -1049.419)"/>
                    <path id="Path_2682" d="M2376.35 1077.24v2.76h-2.839v-2.756z" class="cls-21" transform="translate(-2373.51 -1060.514)"/>
                    <path id="Path_2683" d="M2376.35 1093.9v2.756h-2.839v-2.756z" class="cls-21" transform="translate(-2373.51 -1071.602)"/>
                    <path id="Path_2684" d="M2376.35 1110.57v2.756h-2.839v-2.756z" class="cls-21" transform="translate(-2373.51 -1082.696)"/>
                    <path id="Path_2685" d="M2376.35 1127.24v2.76h-2.839v-2.756z" class="cls-21" transform="translate(-2373.51 -1093.791)"/>
                    <path id="Path_2686" d="M2376.35 1143.91v2.756h-2.839v-2.756z" class="cls-21" transform="translate(-2373.51 -1104.885)"/>
                    <path id="Path_2687" d="M2376.35 1160.58v2.756h-2.839v-2.756z" class="cls-21" transform="translate(-2373.51 -1115.98)"/>
                    <path id="Path_2688" d="M2376.35 1177.24v2.76h-2.839v-2.756z" class="cls-21" transform="translate(-2373.51 -1127.068)"/>
                    <path id="Path_2689" d="M2376.35 1193.91v2.756h-2.839v-2.756z" class="cls-21" transform="translate(-2373.51 -1138.163)"/>
                </g>
            </g>
        </g>
    </g>
</svg>
