<svg xmlns="http://www.w3.org/2000/svg" width="47.013" height="46.085" viewBox="0 0 47.013 46.085">
    <defs>
        <style>
            .cls-1{fill:#222;stroke:#222;stroke-width:.25px}
        </style>
    </defs>
    <g id="noun_arm_1444507" transform="translate(.125 .125)">
        <g id="Group_8942">
            <g id="Group_8930" transform="translate(12.811 20.287)">
                <path id="Path_1974" d="M33.021 45.688H18.073a.5.5 0 0 1-.5-.5v-7.47a1.642 1.642 0 0 0-1.641-1.64.5.5 0 0 1-.5-.5v-11.74a.5.5 0 0 1 .5-.5h19.22a.5.5 0 0 1 .5.5v11.745a.5.5 0 0 1-.5.5 1.642 1.642 0 0 0-1.641 1.64v7.475a.5.5 0 0 1-.49.49zM18.568 44.7h13.958v-6.98a2.635 2.635 0 0 1 2.136-2.583v-10.8h-18.23v10.8a2.635 2.635 0 0 1 2.136 2.583z" class="cls-1" transform="translate(-15.442 -23.343)"/>
            </g>
            <g id="Group_8931" transform="translate(12.811 4.271)">
                <path id="Path_1975" d="M35.156 24.172H15.937a.5.5 0 0 1-.5-.5v-6.401a10.1 10.1 0 0 1 17.25-7.141 10 10 0 0 1 2.964 7.141v6.406a.5.5 0 0 1-.495.495zm-18.725-.99h18.23v-5.911a9.13 9.13 0 0 0-9.114-9.115 9.125 9.125 0 0 0-9.115 9.115z" class="cls-1" transform="translate(-15.442 -7.166)"/>
            </g>
            <g id="Group_8932" transform="translate(6.405 32.032)">
                <path id="Path_1976" d="M15.872 49.009H11.6a2.634 2.634 0 0 1-2.631-2.631v-8.541a2.634 2.634 0 0 1 2.631-2.63h4.27a2.634 2.634 0 0 1 2.631 2.63v8.542a2.634 2.634 0 0 1-2.629 2.63zM11.6 36.2a1.642 1.642 0 0 0-1.641 1.64v8.542a1.643 1.643 0 0 0 1.641 1.637h4.27a1.643 1.643 0 0 0 1.641-1.641v-8.541a1.642 1.642 0 0 0-1.641-1.64z" class="cls-1" transform="translate(-8.971 -35.206)"/>
            </g>
            <g id="Group_8933" transform="translate(29.895 32.032)">
                <path id="Path_1977" d="M39.6 49.009h-4.272a2.634 2.634 0 0 1-2.628-2.63v-8.542a2.634 2.634 0 0 1 2.631-2.63H39.6a2.634 2.634 0 0 1 2.631 2.63v8.542a2.634 2.634 0 0 1-2.631 2.63zM35.328 36.2a1.642 1.642 0 0 0-1.641 1.64v8.542a1.643 1.643 0 0 0 1.641 1.641H39.6a1.643 1.643 0 0 0 1.641-1.641v-8.545A1.642 1.642 0 0 0 39.6 36.2z" class="cls-1" transform="translate(-32.698 -35.206)"/>
            </g>
            <g id="Group_8934" transform="translate(18.149 8.541)">
                <path id="Path_1978" d="M25.6 21.013a4.767 4.767 0 1 1 4.766-4.767 4.773 4.773 0 0 1-4.766 4.767zm0-8.544a3.777 3.777 0 1 0 3.776 3.777 3.782 3.782 0 0 0-3.776-3.777z" class="cls-1" transform="translate(-20.833 -11.479)"/>
            </g>
            <g id="Group_8935" transform="translate(22.415 12.815)">
                <path id="Path_1979" d="M25.648 16.784a.487.487 0 0 1-.357-.148.646.646 0 0 1-.109-.159.466.466 0 0 1 0-.376.646.646 0 0 1 .109-.159.5.5 0 0 1 .544-.109.412.412 0 0 1 .159.109.46.46 0 0 1 .109.159.466.466 0 0 1 0 .376.46.46 0 0 1-.109.159.412.412 0 0 1-.159.109.43.43 0 0 1-.187.039z" class="cls-1" transform="translate(-25.142 -15.795)"/>
            </g>
            <g id="Group_8936" transform="translate(8.541 20.287)">
                <path id="Path_1980" d="M15.894 28.6h-2.135a2.625 2.625 0 0 1-1.859-4.482l.074-.074a2.584 2.584 0 0 1 1.782-.7h2.135a.5.5 0 0 1 .5.5v4.271a.5.5 0 0 1-.497.485zm-2.135-4.271a1.594 1.594 0 0 0-1.1.431 1.677 1.677 0 0 0-.539 1.209 1.643 1.643 0 0 0 1.641 1.641H15.4v-3.277z" class="cls-1" transform="translate(-11.128 -23.343)"/>
            </g>
            <g id="Group_8937" transform="translate(32.031 20.287)">
                <path id="Path_1981" d="M37.486 28.6H35.35a.5.5 0 0 1-.5-.5v-4.262a.5.5 0 0 1 .5-.5h2.136a2.633 2.633 0 0 1 2.63 2.63 2.627 2.627 0 0 1-2.63 2.631zm-1.641-.99h1.641a1.639 1.639 0 0 0 1.166-.485 1.621 1.621 0 0 0 .474-1.155 1.642 1.642 0 0 0-1.64-1.64h-1.641z" class="cls-1" transform="translate(-34.855 -23.343)"/>
            </g>
            <g id="Group_8938" transform="translate(3.203 6.406)">
                <path id="Path_1982" d="M12.267 24.76a.494.494 0 0 1-.346-.141l-6.035-5.906a.494.494 0 0 1-.149-.354V9.818a.5.5 0 0 1 .99 0v8.334l5.886 5.76a.5.5 0 0 1-.346.849z" class="cls-1" transform="translate(-5.737 -9.323)"/>
            </g>
            <g id="Group_8939">
                <path id="Path_1983" d="M6.2 10.248a3.7 3.7 0 1 1 3.7-3.7 3.7 3.7 0 0 1-3.7 3.7zm0-6.406A2.708 2.708 0 1 0 8.908 6.55 2.711 2.711 0 0 0 6.2 3.842z" class="cls-1" transform="translate(-2.501 -2.852)"/>
            </g>
            <g id="Group_8940" transform="translate(36.303 6.188)">
                <path id="Path_1984" d="M39.664 24.54a.5.5 0 0 1-.346-.849l5.887-5.76V9.6a.5.5 0 1 1 .99 0v8.542a.494.494 0 0 1-.149.354L40.01 24.4a.494.494 0 0 1-.346.14z" class="cls-1" transform="translate(-39.169 -9.102)"/>
            </g>
            <g id="Group_8941" transform="translate(39.137 .719)">
                <path id="Path_1985" d="M45.729 10.037a3.7 3.7 0 0 1-2.615-6.313.495.495 0 1 1 .7.7 2.712 2.712 0 0 0 0 3.83 2.773 2.773 0 0 0 3.83 0 2.712 2.712 0 0 0 0-3.83.495.495 0 1 1 .7-.7 3.7 3.7 0 0 1-2.614 6.313z" class="cls-1" transform="translate(-42.032 -3.578)"/>
            </g>
        </g>
    </g>
</svg>
