<svg xmlns="http://www.w3.org/2000/svg" width="50.856" height="69.103" viewBox="0 0 50.856 69.103">
    <defs>
        <style>
            .cls-1{fill:#222}
        </style>
    </defs>
    <g id="noun_Award_3233094" transform="translate(-14.865)">
        <g id="Group_8871" transform="translate(14.865)">
            <g id="Group_8864" transform="translate(11.207 30.091)">
                <g id="Group_8863">
                    <path id="Path_1916" d="M340.278 454.222q-1.713 3.564-3.419 7.129l-.483 1.012.69-.529-8.048 1.15-1.134.161a1.158 1.158 0 0 0-.506 1.924q3.07 2.794 6.147 5.58c.291.261.583.529.874.79l-.3-1.119q-.943 3.955-1.893 7.9c-.092.376-.176.744-.268 1.119a1.162 1.162 0 0 0 1.686 1.3q3.61-1.886 7.213-3.764l1.019-.529H340.7q3.61 1.886 7.213 3.764l1.019.529a1.16 1.16 0 0 0 1.686-1.3q-.943-3.955-1.893-7.9c-.092-.376-.176-.744-.268-1.119l-.3 1.119q3.07-2.794 6.147-5.58c.291-.261.583-.529.874-.79a1.158 1.158 0 0 0-.506-1.924l-8.048-1.15-1.134-.161.69.529q-1.713-3.564-3.419-7.129l-.483-1.012a1.149 1.149 0 0 0-1.985 1.157q1.748 3.633 3.488 7.267c.138.291.261.6.422.874.33.567.882.56 1.441.636l4.706.667 3.725.529-.506-1.924q-3.07 2.794-6.147 5.58c-.291.261-.583.529-.874.79a1.156 1.156 0 0 0-.3 1.119q.943 3.955 1.893 7.9c.092.376.176.744.268 1.119l1.686-1.3-7.3-3.81c-.307-.161-.606-.337-.92-.483-.682-.322-1.173 0-1.748.3-1.4.736-2.805 1.464-4.216 2.2-1.15.6-2.292 1.2-3.442 1.794l1.686 1.3q.943-3.955 1.893-7.9c.092-.376.176-.743.268-1.119a1.156 1.156 0 0 0-.3-1.119q-3.07-2.794-6.147-5.58c-.291-.261-.583-.529-.874-.79l-.506 1.924c2.667-.383 5.327-.759 7.995-1.142.383-.054.782-.084 1.165-.169.575-.13.744-.59.958-1.042.667-1.4 1.334-2.782 2.008-4.178l1.656-3.449a1.15 1.15 0 1 0-1.993-1.15z" class="cls-1" transform="translate(-327.051 -453.659)"/>
                </g>
            </g>
            <g id="Group_8866" transform="translate(.681 .004)">
                <g id="Group_8865">
                    <path id="Path_1917" d="M213.475 75.536c-1.073 1.771-2.154 3.541-3.227 5.3l1.571-.414a9.6 9.6 0 0 0-1.771-.9 4.337 4.337 0 0 0-3.38.376 7.172 7.172 0 0 0-2.4 2.989 9.088 9.088 0 0 1-.935 1.51l1.809.23c-.521-.859-1.05-1.725-1.571-2.583l-3.641-5.987q-2.081-3.426-4.17-6.853c-1.035-1.694-2.07-3.4-3.1-5.09-.222-.36-.414-.759-.667-1.1-.015-.023-.023-.046-.038-.069.008.008.061.184.023.054s.015.107.008.153a.687.687 0 0 1-.061.176c.023-.046.092-.107.008-.023-.046.038-.084.077-.13.115.1-.077.061-.023-.031.008-.153.054-.13.015-.031.023s.184 0 .268 0h13.023a2.4 2.4 0 0 0 .575 0c.115-.038-.322-.031-.268-.184-.008.015.054.084.054.092.314.544.652 1.065.973 1.6q1.943 3.185 3.879 6.377c1.027 1.694 2.062 3.38 3.089 5.074.054.092.107.184.161.268a1.149 1.149 0 1 0 1.985-1.157c-.782-1.28-1.564-2.568-2.346-3.848l-4.155-6.822c-.46-.751-.92-1.51-1.372-2.261-.092-.153-.176-.307-.276-.452a2.058 2.058 0 0 0-1.725-.981c-1.794-.061-3.6 0-5.4 0h-7.389a4.516 4.516 0 0 0-2.1.238 1.992 1.992 0 0 0-.736 2.721c.054.092.115.184.169.276l2.476 4.063q2.047 3.357 4.093 6.722 2.024 3.311 4.04 6.63c.774 1.265 1.541 2.537 2.315 3.8.038.061.069.123.107.176a1.164 1.164 0 0 0 1.809.23 10.051 10.051 0 0 0 1.28-1.947c.261-.452.521-.912.79-1.364a3.755 3.755 0 0 1 .238-.368c-.115.153.161-.153.184-.184.054-.054.107-.1.161-.146-.092.069-.077.061.031-.015.123-.077.245-.146.376-.215-.176.084.069-.023.123-.046a2.706 2.706 0 0 1 .414-.1c-.245.046.176-.008.23-.008s.475.046.238.008a2.792 2.792 0 0 1 .552.146c.084.038.2.107.3.161.261.153.521.3.782.452a1.166 1.166 0 0 0 1.571-.414c1.073-1.771 2.154-3.541 3.227-5.3a1.166 1.166 0 0 0-.414-1.571 1.2 1.2 0 0 0-1.598.434z" class="cls-1" transform="translate(-189.722 -61.144)"/>
                </g>
            </g>
            <g id="Group_8868" transform="translate(0 18.221)">
                <g id="Group_8867">
                    <path id="Path_1918" d="M229.15 328.92c.023.046.054.092.077.138.015.031.1.23.054.107-.038-.092.046.161.061.207.031.115.054.23.077.353-.038-.23 0 .115 0 .2 0 .1-.008.2-.015.3.015-.245-.023.069-.038.138a2.869 2.869 0 0 1-.107.337c.077-.215-.061.123-.1.176l-.161.253c.115-.169-.061.069-.115.123a2.929 2.929 0 0 1-.222.215c-.13.115.13-.084-.015.015-.061.038-.115.077-.176.115-.13.077-.261.153-.4.23-.552.322-1.111.644-1.663.958a5.484 5.484 0 0 0-1.618 1.215 4.456 4.456 0 0 0-1.042 2.867v1.694c0 .491.031 1-.015 1.487.015-.2-.008.031-.031.107-.031.115-.069.23-.107.345s.008-.023.015-.038l-.092.184c-.054.107-.123.2-.184.3-.092.146.115-.123-.008.008-.031.038-.069.077-.1.115-.077.084-.169.161-.253.245-.1.084.023-.015.038-.023a1.169 1.169 0 0 1-.123.084c-.115.069-.23.138-.353.2s.023-.008.038-.015l-.192.069c-.1.031-.2.054-.3.077-.046.008-.222.023-.008.008-.054.008-.107.008-.161.015a1.358 1.358 0 0 0-.176.008h-2.484a5.392 5.392 0 0 0-2.277.422 4.351 4.351 0 0 0-1.932 1.84l-.92 1.587c-.13.222-.261.445-.391.675-.031.046-.054.092-.084.146l-.084.146c-.015.023-.146.207-.061.1.069-.092-.061.069-.077.084-.084.092-.169.169-.261.253-.146.138.084-.031-.092.069-.1.061-.2.123-.307.176l-.138.069c.207-.092-.008 0-.054.008-.1.023-.192.054-.291.077-.038.008-.245.046-.092.023.138-.023-.031 0-.046 0-.115.008-.238.008-.353.008-.054 0-.1-.008-.153-.008.107 0 .123.023 0 0a2.989 2.989 0 0 1-.353-.092 1.114 1.114 0 0 1-.146-.054c.184.061.023.015-.015-.008-.084-.046-.161-.084-.245-.13-.2-.115-.391-.222-.583-.337-1.288-.744-2.614-1.732-4.17-1.671-1.51.061-2.8 1.019-4.063 1.755-.161.092-.322.192-.483.284-.061.031-.414.184-.222.115-.115.038-.23.077-.345.107a1.091 1.091 0 0 1-.153.031c-.207.046.077.015-.046.008-.1-.008-.207.008-.3.008s-.36-.046-.146 0c-.1-.023-.2-.038-.291-.061-.061-.015-.406-.146-.2-.054a2.431 2.431 0 0 1-.314-.161c-.046-.031-.314-.215-.146-.077a2.8 2.8 0 0 1-.23-.207c-.054-.054-.268-.322-.161-.161-.613-.851-1.073-1.84-1.6-2.744a4.439 4.439 0 0 0-2.317-1.963 5.655 5.655 0 0 0-1.993-.245h-2.361c-.069 0-.146-.008-.215-.008-.015 0-.192-.023-.054 0s-.038-.008-.054-.015l-.2-.046c-.1-.031-.2-.061-.291-.1.207.077-.123-.069-.184-.107a1.986 1.986 0 0 1-.713-.713 1.773 1.773 0 0 1-.138-.268c.092.207-.031-.1-.046-.153-.031-.115-.061-.238-.084-.353.038.23 0-.161 0-.222-.008-.452 0-.9 0-1.349 0-.521.008-1.035 0-1.556a4.387 4.387 0 0 0-1.272-3.066 7.448 7.448 0 0 0-1.533-1.05l-1.633-.943c-.169-.1-.345-.2-.506-.314.153.115-.084-.084-.123-.123a1.477 1.477 0 0 1-.207-.23c-.084-.1.015.015.023.031-.038-.054-.077-.115-.115-.169a3.079 3.079 0 0 1-.184-.353c.077.184 0-.031-.023-.1-.031-.107-.046-.23-.084-.337s0 .031.008.061a1.741 1.741 0 0 1-.015-.2c-.008-.115.015-.238.008-.353-.015-.169-.038.169 0 0a1.356 1.356 0 0 1 .031-.153 2.918 2.918 0 0 1 .1-.345c.038-.123-.008.008-.015.031.023-.046.046-.1.069-.146s.054-.107.084-.153c.475-.851.989-1.679 1.456-2.522a4.4 4.4 0 0 0 .146-4.009c-.207-.445-.483-.866-.728-1.3-.284-.491-.575-.981-.851-1.479-.038-.061-.077-.13-.107-.192-.023-.046-.046-.092-.069-.146.084.184.015.023 0-.015-.038-.13-.077-.261-.107-.4-.046-.215-.008.123-.008-.1v-.353c0-.054.008-.1.008-.153 0 .023-.046.176-.008.061s.061-.261.1-.391c.015-.046.031-.092.046-.146-.069.2-.023.046 0 0 .046-.092.092-.176.146-.268.038-.061.077-.115.115-.169-.008.015-.107.13-.023.031a3.513 3.513 0 0 1 .284-.3 1.333 1.333 0 0 1 .115-.1c-.038.031-.161.107.023-.008l.184-.115a1.159 1.159 0 0 0 .13-.077l1.587-.92a9.807 9.807 0 0 0 1.472-.943 4.279 4.279 0 0 0 1.479-3.235c.015-.973-.015-1.947 0-2.913v-.123c0-.054.008-.107.008-.161.008-.184-.038.169 0-.008l.069-.3.046-.146c.092-.3-.061.1.023-.054.054-.107.107-.207.169-.307.038-.061.176-.238.054-.092.077-.092.153-.176.238-.261.038-.038.077-.069.107-.1.146-.146-.061.031.046-.038.084-.054.169-.115.253-.161.061-.038.33-.153.138-.077.115-.038.222-.077.345-.107.069-.015.368-.061.153-.038a5.188 5.188 0 0 1 .6-.015h1.886a6.739 6.739 0 0 0 1.962-.169 4.476 4.476 0 0 0 2.622-2.162c.222-.383.445-.774.667-1.157.253-.445.5-.9.774-1.334a1.552 1.552 0 0 1 .1-.138c-.015.023-.092.107-.008.015s.176-.184.276-.276c.008-.008.146-.115.054-.046s.084-.054.107-.069a2.779 2.779 0 0 1 .33-.184c-.176.092.115-.038.176-.061a3.177 3.177 0 0 1 .368-.084c-.192.038.046 0 .123-.008a2.647 2.647 0 0 1 .429.015c-.23-.023.192.054.253.069a1.942 1.942 0 0 1 .253.092c.123.054.238.13.353.192.23.13.46.261.69.4l1.357.782a4.648 4.648 0 0 0 2.706.743 5.309 5.309 0 0 0 2.315-.812c.56-.322 1.111-.644 1.671-.966.146-.084.291-.169.445-.253a2.014 2.014 0 0 1 .5-.207c.061-.015.383-.069.176-.046a4.084 4.084 0 0 1 .429-.015 2.021 2.021 0 0 1 .215.015c-.023 0-.176-.031-.038 0a2.757 2.757 0 0 1 .36.092c.061.023.284.123.123.046a3.645 3.645 0 0 1 .376.215c.008 0 .153.107.061.038s.077.069.092.084c.084.077.153.153.23.238.123.138-.077-.123.031.031.031.046.061.092.092.146s.054.092.084.138l.69 1.2c.245.429.491.866.744 1.288a4.317 4.317 0 0 0 3.043 2.085 25.1 25.1 0 0 0 3.48.061h.115c.107 0 .215.008.322.015-.23-.023.138.038.207.054a1.976 1.976 0 0 1 .874.506 2.754 2.754 0 0 1 .2.222c-.146-.169.054.084.084.138.061.1.115.207.169.314-.092-.2.046.146.061.207.031.1.046.2.069.307-.038-.215 0 .092 0 .169v.153a27.676 27.676 0 0 0 .031 3.288 4.357 4.357 0 0 0 1.955 3.158c.406.261.836.491 1.249.728.468.268.935.537 1.4.8.092.054.176.107.261.161.107.077-.008-.008-.023-.023.054.046.107.092.153.138a2.548 2.548 0 0 1 .276.3c-.123-.146.015.038.054.1.061.1.115.207.169.307.061.123-.015-.031-.015-.046a1.4 1.4 0 0 1 .061.192c.031.115.046.23.084.337.054.161.008-.176 0-.008 0 .046.008.1.008.153.008.115-.015.238-.008.353s.008-.023.015-.054a1.083 1.083 0 0 1-.031.153c-.031.138-.069.268-.107.4s.008-.008.015-.031c-.031.061-.061.13-.092.192-.015.038-.038.069-.054.1-.031.061-.069.115-.1.176-.307.537-.613 1.065-.92 1.6a8.728 8.728 0 0 0-.835 1.671 4.342 4.342 0 0 0 .422 3.419c.506.789.989 1.617 1.472 2.445a1.149 1.149 0 1 0 1.985-1.157c-.491-.843-.989-1.679-1.464-2.537a1.274 1.274 0 0 1-.2-.491 1.7 1.7 0 0 1-.054-.751c-.008.146.031-.146.038-.192l.069-.245c0 .015.069-.184.031-.1l.138-.261c.284-.491.567-.989.851-1.479a14.292 14.292 0 0 0 .751-1.341 4.3 4.3 0 0 0 .077-3.442 4.423 4.423 0 0 0-1.878-2.116l-1.518-.874-.759-.437-.161-.092a.311.311 0 0 0-.069-.038c-.046-.031-.1-.061-.146-.092-.284-.184.061.061-.084-.061q-.149-.138-.276-.276c-.13-.138.008.038-.092-.123-.069-.115-.13-.222-.192-.337-.084-.169.046.146-.015-.038-.023-.069-.046-.138-.069-.215-.015-.054-.084-.4-.054-.192a2.6 2.6 0 0 1-.015-.345v-.13a21.3 21.3 0 0 0-.084-3.633 4.349 4.349 0 0 0-4.384-3.449h-2.744c-.061 0-.123-.008-.184-.008-.2-.008.146.031-.054 0a3.106 3.106 0 0 1-.46-.115c-.123-.038-.031 0 0 .008-.054-.023-.107-.054-.161-.077a2.408 2.408 0 0 1-.353-.215c.13.092-.138-.123-.176-.161a1.8 1.8 0 0 1-.23-.268c-.146-.222-.276-.46-.406-.69-.222-.391-.452-.782-.675-1.173a7.026 7.026 0 0 0-1.3-1.863 4.346 4.346 0 0 0-3.472-1.073 5.757 5.757 0 0 0-2.123.851c-.567.33-1.134.659-1.7.981a4.716 4.716 0 0 1-.506.284c.023-.008.107-.038-.015.008-.077.031-.161.054-.238.077-.061.015-.376.061-.245.054-.123.008-.245.008-.376.008-.215 0-.13-.008-.069.008a2.316 2.316 0 0 1-.245-.046 2.379 2.379 0 0 1-.759-.337c-.284-.161-.567-.322-.843-.491-.4-.23-.8-.46-1.2-.7a4.677 4.677 0 0 0-3.273-.652 4.327 4.327 0 0 0-2.859 2.047c-.238.4-.46.8-.69 1.2l-.751 1.3a1.982 1.982 0 0 1-.836.813c-.046.023-.3.123-.153.077a3.4 3.4 0 0 1-.4.115c-.023.008-.268.038-.146.023.107-.008-.084 0-.084 0h-.166c-1.019.015-2.054-.046-3.074.008a4.333 4.333 0 0 0-4.116 4.316c-.008 1.05.084 2.131-.015 3.181-.015.192.038-.153-.008.031-.015.054-.023.107-.038.169s-.107.337-.084.284-.115.215-.146.261l-.092.138c-.107.161.169-.169-.061.077a2.016 2.016 0 0 1-.629.514l-1.518.874a12.81 12.81 0 0 0-1.418.874 4.334 4.334 0 0 0-1.64 3.012c-.169 1.579.767 2.874 1.51 4.17.138.245.284.491.422.736a2.32 2.32 0 0 1 .284.636 1.906 1.906 0 0 1-.084 1.28c-.038.092-.176.322-.261.468-.33.567-.652 1.134-.981 1.694a6.343 6.343 0 0 0-.8 1.732 4.348 4.348 0 0 0 .583 3.342 5.163 5.163 0 0 0 1.755 1.548c.56.322 1.127.652 1.686.973.169.1.337.192.506.291a.311.311 0 0 0 .069.038c.046.023.314.238.184.123a3.2 3.2 0 0 1 .284.276.882.882 0 0 1 .107.13c-.1-.123.015.031.046.084a2.161 2.161 0 0 1 .161.291c.084.169-.046-.146.015.038.015.054.038.107.054.161a2.194 2.194 0 0 1 .054.215c0 .008.038.192.015.069s.008.061.008.077c.008.077.008.153.008.23v2.445a5.408 5.408 0 0 0 .284 2.008 4.4 4.4 0 0 0 2.514 2.491 5.5 5.5 0 0 0 1.993.268h2.415a1.971 1.971 0 0 1 1.127.353c.023.015.176.123.038.015l.13.107a3.2 3.2 0 0 1 .276.284c-.1-.123.092.138.123.184a.31.31 0 0 1 .038.069c.107.176.207.353.307.537.713 1.226 1.326 2.644 2.545 3.449a4.338 4.338 0 0 0 3.3.56 6.465 6.465 0 0 0 1.763-.813c.56-.322 1.127-.652 1.686-.973.061-.038.13-.077.192-.115a.169.169 0 0 0 .038-.023c.031-.015.322-.153.192-.107a2.82 2.82 0 0 1 .36-.115 1.263 1.263 0 0 1 .245-.046c-.031 0-.13.015.008.008a1.574 1.574 0 0 1 .744.077 2.532 2.532 0 0 1 .59.276c.238.138.475.276.721.414.521.3 1.042.606 1.571.9a4.345 4.345 0 0 0 5.7-1.157 30.7 30.7 0 0 0 1.663-2.828c.038-.069.084-.146.13-.215a.9.9 0 0 1 .1-.138c-.038.046-.107.115.038-.031a3.124 3.124 0 0 1 .33-.307c-.13.1.092-.054.13-.077.061-.038.13-.069.2-.107.008 0 .169-.077.069-.031s.069-.023.069-.023c.069-.023.146-.046.215-.061.054-.015.107-.023.169-.038.115-.031-.123 0 .092-.015.491-.023.981-.008 1.472-.008.552 0 1.111.008 1.663 0a4.4 4.4 0 0 0 2.874-1.081 4.29 4.29 0 0 0 1.433-3.089c.015-.475 0-.95 0-1.426 0-.537-.008-1.065 0-1.6v-.13c0-.061.046-.33.008-.146a2.352 2.352 0 0 1 .1-.383c.008-.023.092-.245.038-.123-.038.092.054-.1.061-.115a3.062 3.062 0 0 1 .207-.337c-.1.138.107-.115.146-.153s.276-.253.153-.153c.092-.069.192-.13.291-.192.836-.5 1.694-.966 2.537-1.464a4.343 4.343 0 0 0 1.564-5.849 1.164 1.164 0 0 0-1.571-.414 1.127 1.127 0 0 0-.417 1.581z" class="cls-1" transform="translate(-180.84 -298.804)"/>
                </g>
            </g>
            <g id="Group_8870" transform="translate(21.038)">
                <g id="Group_8869">
                    <path id="Path_1919" d="M482.219 62.906l-4.461 7.336q-3.553 5.841-7.113 11.682c-.544.889-1.081 1.778-1.625 2.675l1.809-.23a6.7 6.7 0 0 1-.705-1.1l-.529-.92a12.148 12.148 0 0 0-.782-1.28 4.3 4.3 0 0 0-2.392-1.625 4.409 4.409 0 0 0-3.2.445c-.276.153-.544.314-.82.475-.468.268-.927.537-1.4.8-.107.061-.207.123-.314.176-.008.008-.337.169-.2.107a2.817 2.817 0 0 1-.36.115c-.038.008-.368.054-.192.038a1.994 1.994 0 0 1-1.234-.253l-.391-.23c-.422-.245-.851-.491-1.272-.736l.414 1.571 3.311-5.45q2.093-3.449 4.193-6.891 1.276-2.093 2.545-4.185c.291-.483.59-.966.882-1.449a3.747 3.747 0 0 0 .429-.713c0-.008.023-.031.023-.031.046.107-.3.176-.291.184.038.031.2 0 .245 0h13.422a.88.88 0 0 0 .284 0c.038-.023-.153-.054-.2-.077.176.077.015.015-.023-.023-.146-.153-.061-.092-.031-.023a.909.909 0 0 1-.061-.307c.008-.023.008-.046.015-.061q-.046.172.023-.023a1.173 1.173 0 0 0 .414 1.571 1.157 1.157 0 0 0 1.571-.414 1.98 1.98 0 0 0-1.732-2.951c-.33-.008-.667 0-1 0h-4.5c-2.79 0-5.58-.054-8.37 0a2.1 2.1 0 0 0-1.801 1.031c-.184.284-.353.583-.529.874l-2.254 3.7-4.944 8.117-3.434 5.642c-.061.107-.13.207-.192.314a1.166 1.166 0 0 0 .414 1.571 12.5 12.5 0 0 0 2.637 1.372 4.355 4.355 0 0 0 3.2-.353c.307-.161.606-.345.9-.514.46-.268.92-.529 1.38-.8.115-.069.23-.13.345-.2a2.4 2.4 0 0 1 .276-.146c-.1.038.161-.046.176-.054.054-.015.483-.092.238-.061a3.148 3.148 0 0 1 .537-.008c.314.008-.184-.069.123.015.1.031.207.046.314.084.069.023.138.046.2.069-.222-.092.092.061.115.069.092.054.184.115.276.176-.169-.123.092.084.107.1.077.077.153.153.23.245-.138-.161.084.123.084.13.031.054.069.107.1.169l.383.659a14.2 14.2 0 0 0 1.7 2.667 1.165 1.165 0 0 0 1.809-.23l4.461-7.336q3.553-5.841 7.113-11.682c.544-.889 1.081-1.778 1.625-2.675a1.149 1.149 0 0 0-1.985-1.157z" class="cls-1" transform="translate(-455.299 -61.089)"/>
                </g>
            </g>
        </g>
    </g>
</svg>
