<svg xmlns="http://www.w3.org/2000/svg" id="noun_Award_3233094" width="33.783" height="45.904" viewBox="0 0 33.783 45.904">
    <defs>
        <style>
            .cls-1{fill:#222}
        </style>
    </defs>
    <g id="Group_8871">
        <g id="Group_8864" transform="translate(7.445 19.989)">
            <g id="Group_8863">
                <path id="Path_1916" d="M335.837 454.033q-1.138 2.368-2.271 4.735l-.321.672.458-.351-5.346.764-.754.107a.769.769 0 0 0-.336 1.278q2.039 1.856 4.084 3.707c.193.173.387.351.58.524-.066-.25-.132-.494-.2-.743q-.626 2.627-1.258 5.25c-.061.249-.117.494-.178.743a.772.772 0 0 0 1.12.861l4.791-2.5.677-.351h-.769l4.791 2.5.677.351a.77.77 0 0 0 1.12-.861q-.626-2.627-1.258-5.25c-.061-.25-.117-.494-.178-.743-.066.25-.132.494-.2.743q2.039-1.856 4.084-3.707c.193-.173.387-.351.58-.524a.769.769 0 0 0-.336-1.278l-5.346-.764-.754-.107.458.351q-1.138-2.368-2.271-4.735l-.321-.672a.763.763 0 0 0-1.319.769q1.161 2.414 2.317 4.827c.092.193.173.4.28.58.219.377.586.372.957.423l3.126.443 2.475.351-.336-1.278q-2.039 1.856-4.084 3.707c-.193.173-.387.351-.58.524a.768.768 0 0 0-.2.743q.626 2.627 1.258 5.25c.061.25.117.494.178.743l1.12-.861q-2.429-1.268-4.853-2.531c-.2-.107-.4-.224-.611-.321-.453-.214-.779 0-1.161.2-.932.489-1.864.973-2.8 1.461l-2.286 1.191 1.12.861q.626-2.627 1.258-5.25c.061-.249.117-.494.178-.743a.768.768 0 0 0-.2-.743q-2.039-1.856-4.084-3.707c-.194-.173-.387-.351-.581-.524l-.336 1.278c1.772-.255 3.539-.5 5.311-.759.255-.036.519-.056.774-.112.382-.087.494-.392.636-.692.443-.927.886-1.848 1.334-2.775l1.1-2.291a.764.764 0 1 0-1.324-.764z" class="cls-1" transform="translate(-327.051 -453.659)"/>
            </g>
        </g>
        <g id="Group_8866" transform="translate(.452 .003)">
            <g id="Group_8865">
                <path id="Path_1917" d="M205.5 70.7c-.713 1.176-1.431 2.352-2.144 3.524l1.044-.275a6.378 6.378 0 0 0-1.176-.6 2.881 2.881 0 0 0-2.245.249 4.764 4.764 0 0 0-1.594 1.986 6.038 6.038 0 0 1-.621 1l1.2.153c-.346-.57-.7-1.146-1.044-1.716l-2.419-3.977q-1.382-2.276-2.77-4.552c-.687-1.125-1.375-2.256-2.057-3.381-.148-.239-.275-.5-.443-.728-.01-.015-.015-.031-.025-.046.005.005.041.122.015.036s.01.071.005.1a.457.457 0 0 1-.041.117c.015-.031.061-.071.005-.015-.031.025-.056.051-.087.076.066-.051.041-.015-.02.005-.1.036-.087.01-.02.015s.122 0 .178 0h8.651a1.6 1.6 0 0 0 .382 0c.076-.025-.214-.02-.178-.122-.005.01.036.056.036.061.209.362.433.708.647 1.064q1.291 2.116 2.576 4.236c.682 1.125 1.37 2.245 2.052 3.371.036.061.071.122.107.178a.763.763 0 1 0 1.319-.769l-1.558-2.556-2.76-4.532c-.305-.5-.611-1-.911-1.5-.061-.1-.117-.2-.183-.3a1.367 1.367 0 0 0-1.146-.652c-1.191-.041-2.393 0-3.59 0h-4.909a3 3 0 0 0-1.4.158 1.323 1.323 0 0 0-.489 1.808c.036.061.076.122.112.183.55.9 1.095 1.8 1.645 2.7q1.36 2.23 2.719 4.466 1.344 2.2 2.683 4.4c.514.84 1.023 1.685 1.538 2.526.025.041.046.081.071.117a.773.773 0 0 0 1.2.153 6.677 6.677 0 0 0 .85-1.293c.173-.3.346-.606.524-.906a2.494 2.494 0 0 1 .158-.244c-.076.1.107-.1.122-.122.036-.036.071-.066.107-.1-.061.046-.051.041.02-.01s.163-.1.249-.143c-.117.056.046-.015.081-.031a1.8 1.8 0 0 1 .275-.066c-.163.031.117-.005.153-.005s.316.031.158.005a1.854 1.854 0 0 1 .367.1c.056.025.132.071.2.107l.519.3a.774.774 0 0 0 1.044-.275c.713-1.176 1.431-2.352 2.144-3.524a.774.774 0 0 0-.275-1.044.8.8 0 0 0-1.051.29z" class="cls-1" transform="translate(-189.722 -61.144)"/>
            </g>
        </g>
        <g id="Group_8868" transform="translate(0 12.104)">
            <g id="Group_8867">
                <path id="Path_1918" d="M212.932 318.81c.015.031.036.061.051.092s.066.153.036.071c-.025-.061.031.107.041.137.02.076.036.153.051.234-.025-.153 0 .076 0 .132s-.005.132-.01.2c.01-.163-.015.046-.025.092a1.9 1.9 0 0 1-.071.224c.051-.143-.041.081-.066.117l-.107.168c.076-.112-.041.046-.076.081a1.947 1.947 0 0 1-.148.143c-.087.076.087-.056-.01.01-.041.025-.076.051-.117.076l-.265.153c-.367.214-.738.428-1.1.637a3.643 3.643 0 0 0-1.074.81 2.96 2.96 0 0 0-.692 1.9v1.125c0 .326.02.662-.01.988.01-.132-.005.02-.02.071-.02.076-.046.153-.071.229s.005-.015.01-.025l-.061.122c-.036.071-.081.132-.122.2-.061.1.076-.081-.005.005-.02.025-.046.051-.066.076-.051.056-.112.107-.168.163s.015-.01.025-.015a.773.773 0 0 1-.081.056c-.076.046-.153.092-.234.132s.015-.005.025-.01l-.127.046c-.066.02-.132.036-.2.051-.031.005-.148.015-.005.005-.036.005-.071.005-.107.01a.906.906 0 0 0-.117.005h-1.65a3.582 3.582 0 0 0-1.512.28 2.89 2.89 0 0 0-1.283 1.222l-.611 1.054-.26.448c-.02.031-.036.061-.056.1s-.036.061-.056.1c-.01.015-.1.138-.041.066s-.041.046-.051.056c-.056.061-.112.112-.173.168-.1.092.056-.02-.061.046-.066.041-.132.081-.2.117l-.092.046c.137-.061-.005 0-.036.005-.066.015-.127.036-.193.051-.025.005-.163.031-.061.015s-.02 0-.031 0c-.076.005-.158.005-.234.005-.036 0-.066-.005-.1-.005.071 0 .081.015 0 0a1.982 1.982 0 0 1-.234-.061.746.746 0 0 1-.1-.036c.122.041.015.01-.01-.005l-.163-.087c-.132-.076-.26-.148-.387-.224a5.381 5.381 0 0 0-2.77-1.11 6.142 6.142 0 0 0-2.7 1.166c-.107.061-.214.127-.321.188-.041.02-.275.122-.148.076-.076.025-.153.051-.229.071a.725.725 0 0 1-.1.02c-.137.031.051.01-.031.005-.066-.005-.137.005-.2.005s-.239-.031-.1 0c-.066-.015-.132-.025-.193-.041-.041-.01-.27-.1-.132-.036a1.609 1.609 0 0 1-.209-.107c-.031-.02-.209-.143-.1-.051a1.862 1.862 0 0 1-.153-.138c-.036-.036-.178-.214-.107-.107-.407-.565-.713-1.222-1.064-1.823a2.949 2.949 0 0 0-1.543-1.3 3.756 3.756 0 0 0-1.324-.163h-1.568c-.046 0-.1-.005-.143-.005-.01 0-.127-.015-.036 0s-.025-.005-.036-.01l-.132-.031c-.066-.02-.132-.041-.193-.066.137.051-.081-.046-.122-.071a1.319 1.319 0 0 1-.474-.474 1.175 1.175 0 0 1-.092-.178c.061.138-.02-.066-.031-.1-.02-.076-.041-.158-.056-.234.025.153 0-.107 0-.148-.005-.3 0-.6 0-.9 0-.346.005-.687 0-1.034a2.914 2.914 0 0 0-.845-2.037 4.949 4.949 0 0 0-1.018-.7l-1.085-.626c-.112-.066-.229-.132-.336-.209.1.076-.056-.056-.081-.081a.981.981 0 0 1-.137-.153c-.056-.066.01.01.015.02l-.076-.112a2.041 2.041 0 0 1-.122-.234c.051.122 0-.02-.015-.066-.02-.071-.031-.153-.056-.224s0 .02.005.041a1.158 1.158 0 0 1-.01-.132c-.005-.076.01-.158.005-.234-.01-.112-.025.112 0 0a.9.9 0 0 1 .02-.1 1.94 1.94 0 0 1 .066-.229c.025-.081-.005.005-.01.02l.046-.1c.015-.034.036-.071.056-.1.316-.565.657-1.115.967-1.675a2.926 2.926 0 0 0 .1-2.663c-.137-.3-.321-.575-.484-.861-.188-.326-.382-.652-.565-.983-.025-.041-.051-.087-.071-.127s-.031-.061-.046-.1c.056.122.01.015 0-.01-.025-.087-.051-.173-.071-.265-.031-.143-.005.081-.005-.066v-.234c0-.036.005-.066.005-.1 0 .015-.031.117-.005.041s.041-.173.066-.26c.01-.031.02-.061.031-.1-.046.132-.015.031 0 0 .031-.061.061-.117.1-.178.025-.041.051-.076.076-.112-.005.01-.071.087-.015.02a2.343 2.343 0 0 1 .188-.2.9.9 0 0 1 .076-.066c-.025.02-.107.071.015-.005l.122-.076a.767.767 0 0 0 .087-.051l1.054-.611a6.516 6.516 0 0 0 .978-.626 2.843 2.843 0 0 0 .983-2.149c.01-.647-.01-1.293 0-1.935v-.081c0-.036.005-.071.005-.107.005-.122-.025.112 0-.005l.046-.2.031-.1c.061-.2-.041.066.015-.036.036-.071.071-.137.112-.2.025-.041.117-.158.036-.061.051-.061.1-.117.158-.173.025-.025.051-.046.071-.066.1-.1-.041.02.031-.025.056-.036.112-.076.168-.107.041-.025.219-.1.092-.051.076-.025.148-.051.229-.071.046-.01.244-.041.1-.025a3.445 3.445 0 0 1 .4-.01h1.253a4.476 4.476 0 0 0 1.3-.112 2.974 2.974 0 0 0 1.741-1.436c.148-.255.3-.514.443-.769.168-.3.331-.6.514-.886a1.03 1.03 0 0 1 .066-.092c-.01.015-.061.071-.005.01s.117-.122.183-.183c.005-.005.1-.076.036-.031s.056-.036.071-.046a1.851 1.851 0 0 1 .219-.122c-.117.061.076-.025.117-.041a2.111 2.111 0 0 1 .244-.056c-.127.025.031 0 .081-.005a1.758 1.758 0 0 1 .285.01c-.153-.015.127.036.168.046a1.289 1.289 0 0 1 .168.061c.081.036.158.087.234.127.153.087.305.173.458.265l.9.519a3.088 3.088 0 0 0 1.8.494 3.526 3.526 0 0 0 1.538-.54l1.11-.642c.1-.056.193-.112.3-.168a1.338 1.338 0 0 1 .331-.137c.041-.01.255-.046.117-.031a2.714 2.714 0 0 1 .285-.01 1.349 1.349 0 0 1 .143.01c-.015 0-.117-.02-.025 0a1.839 1.839 0 0 1 .239.061c.041.015.188.081.081.031a2.425 2.425 0 0 1 .25.143c.005 0 .1.071.041.025s.051.046.061.056c.056.051.1.1.153.158.081.092-.051-.081.02.02.02.031.041.061.061.1s.036.061.056.092c.153.265.306.53.458.8.163.285.326.575.494.855a2.868 2.868 0 0 0 2.021 1.385 16.667 16.667 0 0 0 2.312.041H208c.071 0 .143.005.214.01-.153-.015.092.025.137.036a1.312 1.312 0 0 1 .58.336 1.837 1.837 0 0 1 .132.148c-.1-.112.036.056.056.092.041.066.076.138.112.209-.061-.132.031.1.041.137.02.066.031.132.046.2-.025-.143 0 .061 0 .112v.1a18.382 18.382 0 0 0 .02 2.184 2.894 2.894 0 0 0 1.3 2.1c.27.173.555.326.83.484.311.178.621.356.927.535.061.036.117.071.173.107.071.051-.005-.005-.015-.015.036.031.071.061.1.092a1.689 1.689 0 0 1 .183.2c-.081-.1.01.025.036.066.041.066.076.137.112.2.041.081-.01-.02-.01-.031a.93.93 0 0 1 .041.127c.02.076.031.153.056.224.036.107.005-.117 0-.005 0 .031.005.066.005.1.005.076-.01.158-.005.234s.005-.015.01-.036a.718.718 0 0 1-.02.1c-.02.092-.046.178-.071.265s.005-.005.01-.02l-.061.127c-.01.025-.025.046-.036.066-.02.041-.046.076-.066.117-.2.356-.407.708-.611 1.064a5.8 5.8 0 0 0-.555 1.11 2.884 2.884 0 0 0 .28 2.271c.336.524.657 1.074.978 1.624a.763.763 0 1 0 1.319-.769c-.326-.56-.657-1.115-.973-1.685a.846.846 0 0 1-.132-.326 1.131 1.131 0 0 1-.036-.5c-.005.1.02-.1.025-.127l.046-.163c0 .01.046-.122.02-.066.005-.01.061-.117.092-.173l.565-.983a9.492 9.492 0 0 0 .5-.891 2.858 2.858 0 0 0 .051-2.286 2.938 2.938 0 0 0-1.247-1.405l-1.008-.58-.5-.29-.107-.061a.208.208 0 0 0-.046-.025l-.1-.061c-.188-.122.041.041-.056-.041q-.1-.092-.183-.183c-.087-.092.005.025-.061-.081-.046-.076-.087-.148-.127-.224-.056-.112.031.1-.01-.025-.015-.046-.031-.092-.046-.143-.01-.036-.056-.265-.036-.127a1.726 1.726 0 0 1-.01-.229v-.087a14.149 14.149 0 0 0-.056-2.414 2.889 2.889 0 0 0-2.913-2.291h-1.823c-.041 0-.081-.005-.122-.005-.132-.005.1.02-.036 0a2.06 2.06 0 0 1-.305-.076c-.081-.025-.02 0 0 .005-.036-.015-.071-.036-.107-.051a1.6 1.6 0 0 1-.234-.143c.087.061-.092-.081-.117-.107a1.2 1.2 0 0 1-.153-.178c-.1-.148-.183-.306-.27-.458-.148-.26-.3-.519-.448-.779a4.667 4.667 0 0 0-.866-1.237 2.887 2.887 0 0 0-2.307-.713 3.824 3.824 0 0 0-1.41.565c-.377.219-.754.438-1.13.652a3.128 3.128 0 0 1-.336.188c.015-.005.071-.025-.01.005-.051.02-.107.036-.158.051s-.25.041-.163.036c-.081.005-.163.005-.249.005-.143 0-.087-.005-.046.005a1.549 1.549 0 0 1-.163-.031 1.581 1.581 0 0 1-.5-.224c-.188-.107-.377-.214-.56-.326-.265-.153-.535-.306-.8-.463a3.107 3.107 0 0 0-2.174-.433 2.874 2.874 0 0 0-1.9 1.36c-.158.265-.306.53-.458.8l-.5.866a1.316 1.316 0 0 1-.555.54c-.031.015-.2.081-.1.051a2.263 2.263 0 0 1-.265.076c-.015.005-.178.025-.1.015s-.056 0-.056 0h-.1c-.677.01-1.365-.031-2.042.005a2.878 2.878 0 0 0-2.734 2.867c-.005.7.056 1.415-.01 2.113-.01.127.025-.1-.005.02-.01.036-.015.071-.025.112s-.071.224-.056.188-.076.143-.1.173l-.061.092c-.071.107.112-.112-.041.051a1.339 1.339 0 0 1-.418.341l-1.008.58a8.518 8.518 0 0 0-.942.58 2.879 2.879 0 0 0-1.09 2 4.683 4.683 0 0 0 1 2.77c.092.163.188.326.28.489a1.542 1.542 0 0 1 .188.423 1.266 1.266 0 0 1-.056.85c-.025.061-.117.214-.173.311-.219.377-.433.754-.652 1.125a4.214 4.214 0 0 0-.53 1.151 2.888 2.888 0 0 0 .387 2.22 3.429 3.429 0 0 0 1.166 1.029l1.12.647c.112.066.224.127.336.193a.208.208 0 0 0 .046.025c.031.015.209.158.122.081a2.121 2.121 0 0 1 .188.183.583.583 0 0 1 .071.087c-.066-.081.01.02.031.056a1.436 1.436 0 0 1 .107.194c.056.112-.031-.1.01.025.01.036.025.071.036.107a1.461 1.461 0 0 1 .036.143c0 .005.025.127.01.046s.005.041.005.051c.005.051.005.1.005.153v1.624a3.592 3.592 0 0 0 .188 1.334 2.92 2.92 0 0 0 1.67 1.655 3.653 3.653 0 0 0 1.324.178h1.6a1.31 1.31 0 0 1 .749.234c.015.01.117.081.025.01l.087.071a2.125 2.125 0 0 1 .183.188c-.066-.081.061.092.081.122a.206.206 0 0 1 .025.046c.071.117.137.234.2.356a6.27 6.27 0 0 0 1.69 2.291 2.882 2.882 0 0 0 2.189.372 4.3 4.3 0 0 0 1.171-.54l1.12-.647.127-.076a.113.113 0 0 0 .025-.015c.02-.01.214-.1.127-.071a1.88 1.88 0 0 1 .239-.076.84.84 0 0 1 .163-.031c-.02 0-.087.01.005.005a1.045 1.045 0 0 1 .494.051 1.681 1.681 0 0 1 .392.183c.158.092.316.183.479.275.346.2.692.4 1.044.6a2.887 2.887 0 0 0 3.788-.769 20.39 20.39 0 0 0 1.1-1.879c.025-.046.056-.1.087-.143a.6.6 0 0 1 .066-.092c-.025.031-.071.076.025-.02a2.072 2.072 0 0 1 .219-.2c-.087.066.061-.036.087-.051.041-.025.087-.046.132-.071.005 0 .112-.051.046-.02s.046-.015.046-.015c.046-.015.1-.031.143-.041l.112-.025c.076-.02-.081 0 .061-.01.326-.015.652-.005.978-.005.367 0 .738.005 1.1 0a2.924 2.924 0 0 0 1.909-.718 2.85 2.85 0 0 0 .952-2.052c.01-.316 0-.631 0-.947 0-.356-.005-.708 0-1.064v-.087c0-.041.031-.219.005-.1a1.562 1.562 0 0 1 .066-.255c.005-.015.061-.163.025-.081-.025.061.036-.066.041-.076a2.033 2.033 0 0 1 .137-.224c-.066.092.071-.076.1-.1s.183-.168.1-.1c.061-.046.127-.087.193-.127.555-.331 1.125-.642 1.685-.973a2.885 2.885 0 0 0 1.039-3.885.773.773 0 0 0-1.044-.275.748.748 0 0 0-.243 1.043z" class="cls-1" transform="translate(-180.84 -298.804)"/>
            </g>
        </g>
        <g id="Group_8870" transform="translate(13.975)">
            <g id="Group_8869">
                <path id="Path_1919" d="M473.181 62.3l-2.963 4.873q-2.36 3.88-4.725 7.76c-.362.591-.718 1.181-1.079 1.777l1.2-.153a4.453 4.453 0 0 1-.468-.733l-.351-.611a8.062 8.062 0 0 0-.519-.85 2.856 2.856 0 0 0-1.589-1.079 2.929 2.929 0 0 0-2.128.3c-.183.1-.362.209-.545.316l-.927.535c-.071.041-.138.081-.209.117-.005.005-.224.112-.132.071a1.87 1.87 0 0 1-.239.076c-.025.005-.244.036-.127.025a1.324 1.324 0 0 1-.82-.168l-.26-.153-.845-.489c.092.346.183.7.275 1.044l2.2-3.62q1.39-2.291 2.785-4.578.848-1.39 1.691-2.78c.193-.321.392-.642.586-.962a2.491 2.491 0 0 0 .285-.474c0-.005.015-.02.015-.02.031.071-.2.117-.193.122.025.02.132 0 .163 0h8.916a.585.585 0 0 0 .188 0c.025-.015-.1-.036-.132-.051.117.051.01.01-.015-.015-.1-.1-.041-.061-.02-.015a.6.6 0 0 1-.041-.2c.005-.015.005-.031.01-.041q-.031.115.015-.015a.779.779 0 0 0 .275 1.044.769.769 0 0 0 1.044-.275 1.315 1.315 0 0 0-1.151-1.96c-.219-.005-.443 0-.667 0h-2.989c-1.853 0-3.707-.036-5.56 0a1.4 1.4 0 0 0-1.191.682c-.122.188-.234.387-.351.58l-1.5 2.459-3.284 5.392-2.281 3.748c-.041.071-.087.137-.127.209a.774.774 0 0 0 .275 1.044 8.306 8.306 0 0 0 1.752.911 2.893 2.893 0 0 0 2.128-.234c.2-.107.4-.229.6-.341.306-.178.611-.351.917-.53.076-.046.153-.087.229-.132a1.59 1.59 0 0 1 .183-.1c-.066.025.107-.031.117-.036.036-.01.321-.061.158-.041a2.093 2.093 0 0 1 .356-.005c.209.005-.122-.046.081.01.066.02.138.031.209.056.046.015.092.031.132.046-.148-.061.061.041.076.046.061.036.122.076.183.117-.112-.081.061.056.071.066.051.051.1.1.153.163-.092-.107.056.081.056.087.02.036.046.071.066.112l.255.438a9.433 9.433 0 0 0 1.13 1.772.774.774 0 0 0 1.2-.153L468.7 72.6q2.36-3.88 4.725-7.76c.362-.591.718-1.181 1.079-1.777a.763.763 0 0 0-1.319-.769z" class="cls-1" transform="translate(-455.299 -61.089)"/>
            </g>
        </g>
    </g>
</svg>
