<svg xmlns="http://www.w3.org/2000/svg" width="71.622" height="68.93" viewBox="0 0 71.622 68.93">
    <defs>
        <style>
            .cls-1{fill:#222}
        </style>
    </defs>
    <g id="noun_growth_1288611_1_" transform="translate(-5.751)">
        <g id="Group_9025" transform="translate(5.751)">
            <path id="Path_2075" d="M284.176 256.327c-2.968-1.573-9.567 1.451-20.165 9.243-1.186-2.061-3.506-1.919-6.6-1.729a38.093 38.093 0 0 1-7.369-.09 74.079 74.079 0 0 1-.212-8.078 13.7 13.7 0 0 0 2.6.26c5.45 0 8.645-3.551 10.365-6.53a17.668 17.668 0 0 0 1.051-2.145c.413-1.019.419-1.134.274-1.386a.605.605 0 0 0-.418-.294 14.931 14.931 0 0 0-2.48-.187 14.666 14.666 0 0 0-6.9 1.607 10.7 10.7 0 0 0-4.207 4.095c.124-1.3.29-2.631.507-3.985a45.452 45.452 0 0 1 5.5-16.013 8.4 8.4 0 1 0-.97-.75 45.406 45.406 0 0 0-5.409 14.742 63.646 63.646 0 0 0-5.793-9.268 8.384 8.384 0 1 0-.922.8 62.648 62.648 0 0 1 6.358 10.489c-.169 1.07-.306 2.127-.416 3.164a10.864 10.864 0 0 0-4.845-5.355 15.833 15.833 0 0 0-9.382-1.421.613.613 0 0 0-.319.168c-.318.318-.2.594.223 1.623 1.067 2.576 4.311 8.567 11.373 8.567a13.754 13.754 0 0 0 2.68-.277 74.835 74.835 0 0 0 .1 10 28.683 28.683 0 0 1-3.651-.869c-10.011-3.081-19.772-.961-22.583-.222v-1.762a2.909 2.909 0 0 0-2.906-2.905h-2.6a2.908 2.908 0 0 0-2.905 2.905v20.263a2.909 2.909 0 0 0 2.905 2.906h2.6a2.91 2.91 0 0 0 2.906-2.906v-1.493c2.753.366 13.086 1.807 17.5 3.314l.218.075a25.436 25.436 0 0 0 8.492 1.78q.38 0 .768-.017c4.186-.189 8.382-1.943 12.829-5.365 1.937-1.489 4.035-3.089 6.064-4.636 4.193-3.2 8.531-6.5 11.741-9.068 5.574-4.455 5.574-4.949 5.574-5.385 0-.044 0-.1.005-.171.043-.767.123-2.792-1.581-3.694zm-30.6-32.221a7.163 7.163 0 1 1 7.163 7.164 7.171 7.171 0 0 1-7.163-7.164zm7.639 22.5c.624 0 1.153.035 1.541.074-.819 2.05-3.774 8.037-10.333 8.037a11.953 11.953 0 0 1-1.492-.1l8.433-5.148a.609.609 0 0 0-.635-1.039l-8.431 5.147c2.196-6.021 7.685-6.971 10.916-6.971zM230.856 229.9a7.164 7.164 0 1 1 7.164 7.164 7.172 7.172 0 0 1-7.164-7.164zm4.827 14.7c.389-.038.917-.074 1.541-.074 3.231 0 8.721.95 10.919 6.971l-8.431-5.148a.608.608 0 1 0-.634 1.038l8.433 5.148a11.984 11.984 0 0 1-1.493.1c-6.561 0-9.518-5.987-10.334-8.035zm-16.02 38.073h-2.6a1.69 1.69 0 0 1-1.688-1.689v-20.265a1.69 1.69 0 0 1 1.688-1.688h2.6a1.691 1.691 0 0 1 1.689 1.688v20.263a1.691 1.691 0 0 1-1.689 1.689zm64.885-22.7c0 .05 0 .094-.005.134-.686 1.262-9.633 8.081-16.836 13.571-2.031 1.548-4.13 3.148-6.068 4.639-9.52 7.324-15.86 5.155-20.955 3.414l-.219-.075c-4.674-1.6-15.355-3.058-17.9-3.392v-14.522c2.169-.585 12.216-2.958 22.226.122a29.746 29.746 0 0 0 4.552 1.022.378.378 0 0 0 .044.007 38.035 38.035 0 0 0 8.091.161c3.462-.212 5.023-.228 5.723 1.655v.007a5.328 5.328 0 0 1 .241.879 2.4 2.4 0 0 1-.507 2.145c-2.423 2.857-11.614 2.585-14.634 2.494-.449-.014-.805-.023-1.045-.023h-4.223a.608.608 0 1 0 0 1.217h4.223c.222 0 .569.01 1.009.023 5.958.176 13.114 0 15.6-2.923a3.6 3.6 0 0 0 .774-3.165c-.045-.228-.093-.438-.151-.635 13.344-9.842 17.7-10.074 19.117-9.326.905.479.985 1.565.943 2.565z" class="cls-1" transform="translate(-214.152 -215.729)"/>
            <path id="Path_2076" d="M267.926 225.027h.331a1.57 1.57 0 0 1 0 3.139h-2.177a.608.608 0 0 0 0 1.217h1.57v.952a.608.608 0 1 0 1.217 0v-1.021a2.786 2.786 0 0 0-.608-5.5h-.331a1.57 1.57 0 1 1 0-3.139h2.179a.608.608 0 0 0 0-1.217h-1.239v-.958a.608.608 0 1 0-1.217 0v.966a2.787 2.787 0 0 0 .277 5.559z" class="cls-1" transform="translate(-221.505 -216.041)"/>
            <path id="Path_2077" d="M241.709 230.949h-.33a1.57 1.57 0 1 1 0-3.139h2.178a.608.608 0 1 0 0-1.217h-1.239v-.952a.608.608 0 0 0-1.217 0v.966a2.787 2.787 0 0 0 .277 5.559h.33a1.57 1.57 0 1 1 0 3.139h-2.179a.608.608 0 1 0 0 1.217h1.571v.953a.608.608 0 0 0 1.217 0v-1.021a2.786 2.786 0 0 0-.608-5.5z" class="cls-1" transform="translate(-217.676 -217.071)"/>
        </g>
    </g>
</svg>
