<svg xmlns="http://www.w3.org/2000/svg" width="54.086" height="46.727" viewBox="0 0 54.086 46.727">
    <g>
        <path fill="#222" stroke="#222" stroke-width="0.5px" d="M265.768 233.291l-13.414-13.414a2.56 2.56 0 0 0-3.611 0l-1.724 1.723a2.557 2.557 0 0 0-.515 2.864 6.7 6.7 0 0 0-.938-.294h-.019a6.744 6.744 0 0 0-1.706-.172c-.24.006-.476.026-.71.054-1.613-.055-4.03-.1-6.458-.016a13.068 13.068 0 0 0-3.864.677 2.557 2.557 0 0 0-.213-3.367l-1.723-1.723a2.562 2.562 0 0 0-3.613 0l-13.413 13.414a2.557 2.557 0 0 0 0 3.613l1.723 1.723a2.559 2.559 0 0 0 3.181.345c.079 1.561.818 4.815 4.877 9.117l-.751.752a2.98 2.98 0 0 0 2.107 5.087 2.984 2.984 0 0 0 .762-.1 2.978 2.978 0 0 0 2.881 3.741 3 3 0 0 0 .763-.1 2.976 2.976 0 0 0 2.879 3.74 3.037 3.037 0 0 0 .763-.1 3 3 0 0 0-.1.764 2.979 2.979 0 0 0 2.98 2.98 2.96 2.96 0 0 0 2.107-.872l.741-.741 1.24 1.239v.006a2.978 2.978 0 0 0 5.078-2.316 2.979 2.979 0 0 0 4.555-2.734 2.98 2.98 0 0 0 3.92-4.375h.125a2.981 2.981 0 0 0 2.107-5.089l-.956-.956c4.886-5.387 5.993-8.312 6.161-9.714a2.561 2.561 0 0 0 3.048-.424l1.723-1.724a2.557 2.557 0 0 0 .007-3.608zm-48.391 5.017a1.739 1.739 0 0 1-1.235-.509l-1.723-1.723a1.75 1.75 0 0 1 0-2.471l13.414-13.414a1.754 1.754 0 0 1 2.47 0l1.723 1.724a1.752 1.752 0 0 1 0 2.47l-1.744 1.744-.009.009-11.66 11.66a1.734 1.734 0 0 1-1.237.509zm7.609 14.555a2.173 2.173 0 0 1-1.536-3.709l1.022-1.023v-.005l2.446-2.447a2.16 2.16 0 0 1 1.536-.636 2.172 2.172 0 0 1 1.546 3.704l-.6.6-2.875 2.874a2.156 2.156 0 0 1-1.539.641zm3.643 3.643a2.172 2.172 0 0 1-1.536-3.709l2.45-2.45.527-.529.5-.5a2.173 2.173 0 0 1 3.072 3.074l-1.027 1.027-2.449 2.45a2.158 2.158 0 0 1-1.538.631zm2.107 3.007a2.172 2.172 0 0 1 0-3.072l1.027-1.027 1.822-1.824a2.176 2.176 0 0 1 3.068 0l.012.012a2.173 2.173 0 0 1-.012 3.06l-.8.8-1.027 1.026-1.026 1.027a2.176 2.176 0 0 1-3.065-.004zm6.716 3.642a2.153 2.153 0 0 1-1.536.637 2.172 2.172 0 0 1-1.536-3.708l1.026-1.027.8-.795.116-.115.115-.115a2.172 2.172 0 0 1 3.063 3.068l-1.027 1.027zm6.2.5a2.177 2.177 0 0 1-3.07 0l-1.244-1.245.74-.74a2.978 2.978 0 0 0-2.363-5.074 2.966 2.966 0 0 0 .388-1.473v-.093l5.565 5.564a2.176 2.176 0 0 1-.017 3.064zm12.206-11.831a2.173 2.173 0 0 1-3.707 1.539l-8.389-8.389a.4.4 0 0 0-.571.571l8.386 8.386 1.181 1.18a2.173 2.173 0 1 1-3.073 3.074l-9.57-9.57a.4.4 0 0 0-.571.571l8.655 8.657a2.174 2.174 0 0 1-3.074 3.074l-.887-.887-.024-.026-.007-.005-6.962-6.962-.026-.027a2.975 2.975 0 0 0-2.448-.85 2.977 2.977 0 0 0-3.437-4.192 3.007 3.007 0 0 0 .1-.764 2.978 2.978 0 0 0-2.98-2.98 2.963 2.963 0 0 0-2.107.872l-2.154 2.155c-4.82-5.119-4.7-8.645-4.624-9.284l11.263-11.264c.017-.017 1.734-1.728 5.862-1.872 1.33-.047 2.658-.054 3.851-.04a13.958 13.958 0 0 0-4.177 3.021l-8.585 8.586A2.981 2.981 0 0 0 232 240.62v-.006l5.231-5.231a2.175 2.175 0 0 1 3.073 0l14.906 14.906a2.154 2.154 0 0 1 .647 1.538zm-1.594-3.635l-13.379-13.379a2.984 2.984 0 0 0-4.215 0l-5.236 5.236a2.173 2.173 0 0 1-3.07-3.077l8.592-8.593.014-.016c.029-.032 2.783-3.052 6.2-3.511 1.1.036 1.894.081 2.157.1h.045a7.06 7.06 0 0 1 3.374 1.982l11.448 11.447c.064.357.267 2.971-5.931 9.815zm10.936-11.857l-1.723 1.723a1.752 1.752 0 0 1-2.47 0l-.173-.173-11.507-11.507-.007-.007-1.726-1.726a1.749 1.749 0 0 1 0-2.47l1.723-1.723a1.753 1.753 0 0 1 2.47 0l13.413 13.413a1.749 1.749 0 0 1 0 2.47z" transform="translate(.421 .25) translate(-213.1 -218.874)"/>
    </g>
</svg>
