<svg xmlns="http://www.w3.org/2000/svg" id="noun_creative_3233078" width="50.236" height="46.36" viewBox="0 0 50.236 46.36">
    <defs>
        <style>
            .cls-1{fill:#222}
        </style>
    </defs>
    <g id="Group_8926">
        <g id="Group_8895" transform="translate(18.112 33.266)">
            <g id="Group_8894">
                <path id="Path_1937" d="M396.062 697.61v5.553a2.273 2.273 0 0 1-.016.268c.011-.164-.022.1-.033.147a2.794 2.794 0 0 1-.082.284c-.016.049-.082.2-.022.071a4.031 4.031 0 0 1-.284.5c-.005.011-.076.1-.022.033s-.033.038-.049.055c-.055.06-.115.12-.175.18-.027.027-.191.169-.131.12s-.022.016-.033.022l-.147.1c-.071.044-.142.087-.218.126l-.1.049c-.115.055.115-.038-.005 0a4.476 4.476 0 0 1-.53.147c-.011 0-.131.016-.038.005s-.055 0-.076.005c-.066.005-.126.005-.191.005h-6.427a1.438 1.438 0 0 1-.153-.005c-.049 0-.1-.005-.153-.011.082.005.071.011-.005 0a5.085 5.085 0 0 1-.5-.131c-.147-.049-.038-.016-.005 0-.044-.022-.087-.038-.131-.06a2.64 2.64 0 0 1-.246-.142 2 2 0 0 1-.175-.12c.131.1-.082-.076-.1-.1a1.943 1.943 0 0 1-.147-.153c-.033-.033-.06-.071-.093-.109.076.087.016.022-.022-.033a4.315 4.315 0 0 1-.251-.437c-.044-.082.005.016.011.027l-.049-.137a2.42 2.42 0 0 1-.082-.284c-.011-.038-.044-.262-.038-.186.011.093 0-.027 0-.038 0-.049-.005-.1-.005-.153v-5.6a.819.819 0 1 0-1.638 0v5.52a3.866 3.866 0 0 0 .874 2.408 3.928 3.928 0 0 0 3.151 1.376h5.515a4.719 4.719 0 0 0 2.681-.579 3.9 3.9 0 0 0 1.775-3.374V697.6a.829.829 0 0 0-.819-.819.844.844 0 0 0-.814.825z" class="cls-1" transform="translate(-383.7 -696.785)"/>
            </g>
        </g>
        <g id="Group_8897" transform="translate(21.665 41.768)">
            <g id="Group_8896">
                <path id="Path_1938" d="M454.011 853.3v1.84a1.745 1.745 0 0 1-.005.24c.022-.218-.071.115.016-.071l-.033.06c-.049.076-.049.076.005 0 .011.005-.158.125.011.005a.876.876 0 0 1-.12.071c.087-.038.087-.038-.005-.011.005-.022.137 0-.011-.005h-2.709c-.207 0-.415-.006-.622 0h-.016c-.2.005 0-.016 0 .005l-.071-.016c.087.044.087.038.005 0-.169-.093.005-.006 0 .005l-.049-.049c.055.076.055.076.005 0l-.033-.06c.038.087.038.087.011-.005.016 0 0 .2.005 0v-.027c.005-.661 0-1.321 0-1.977l-.819.819h5.247a.819.819 0 1 0 0-1.638h-5.247a.832.832 0 0 0-.819.819c0 .65-.005 1.3 0 1.955a1.779 1.779 0 0 0 .966 1.622 2.487 2.487 0 0 0 1.125.191h2.452c.2 0 .409.011.612 0a1.8 1.8 0 0 0 1.725-1.687c.044-.688.005-1.392.005-2.08a.829.829 0 0 0-.819-.819.819.819 0 0 0-.812.813z" class="cls-1" transform="translate(-448.756 -852.485)"/>
            </g>
        </g>
        <g id="Group_8899" transform="translate(0 15.193)">
            <g id="Group_8898">
                <path id="Path_1939" d="M52.8 367.438h2.162a.819.819 0 1 0 0-1.638H52.8a.819.819 0 1 0 0 1.638z" class="cls-1" transform="translate(-51.985 -365.8)"/>
            </g>
        </g>
        <g id="Group_8901" transform="translate(46.434 15.193)">
            <g id="Group_8900">
                <path id="Path_1940" d="M903.2 367.438h2.162a.819.819 0 1 0 0-1.638H903.2a.819.819 0 1 0 0 1.638z" class="cls-1" transform="translate(-902.385 -365.8)"/>
            </g>
        </g>
        <g id="Group_8903" transform="translate(5.089 27.598)">
            <g id="Group_8902">
                <path id="Path_1941" d="M146.412 595.511c.721-.339 1.441-.682 2.157-1.021a.819.819 0 0 0-.824-1.414c-.721.339-1.441.682-2.157 1.021a.818.818 0 0 0 .824 1.414z" class="cls-1" transform="translate(-145.189 -592.976)"/>
            </g>
        </g>
        <g id="Group_8905" transform="translate(41.422 1.794)">
            <g id="Group_8904">
                <path id="Path_1942" d="M811.812 122.933l2.1-1.021a.828.828 0 0 0 .295-1.119.841.841 0 0 0-1.119-.295l-2.1 1.021a.828.828 0 0 0-.295 1.119.839.839 0 0 0 1.119.295z" class="cls-1" transform="translate(-810.589 -120.399)"/>
            </g>
        </g>
        <g id="Group_8907" transform="translate(41.422 27.599)">
            <g id="Group_8906">
                <path id="Path_1943" d="M813.915 594.119l-2.1-1.021a.839.839 0 0 0-1.119.295.828.828 0 0 0 .295 1.119l2.1 1.021a.839.839 0 0 0 1.119-.295.83.83 0 0 0-.295-1.119z" class="cls-1" transform="translate(-810.589 -592.999)"/>
            </g>
        </g>
        <g id="Group_8909" transform="translate(5.092 1.79)">
            <g id="Group_8908">
                <path id="Path_1944" d="M148.573 121.511c-.7-.36-1.4-.715-2.1-1.076a.834.834 0 0 0-1.119.295.824.824 0 0 0 .295 1.119c.7.36 1.4.715 2.1 1.076a.819.819 0 0 0 .824-1.414z" class="cls-1" transform="translate(-145.244 -120.333)"/>
            </g>
        </g>
        <g id="Group_8911" transform="translate(8.93 12.758)">
            <g id="Group_8910">
                <path id="Path_1945" d="M215.622 322.418a5.945 5.945 0 0 0 .863 1.3c.082.093.164.186.251.273.038.038.082.1.131.126.137.076-.169-.213.038.011a4.028 4.028 0 0 0 .743.612 5.883 5.883 0 0 0 3.227.977.819.819 0 0 0 0-1.638 4.211 4.211 0 0 1-2.4-.753c-.087-.06-.137-.093-.169-.12s-.071-.06-.109-.087c.093.158.071.142-.071-.066-.147-.158-.311-.295-.453-.459a4.433 4.433 0 0 1-.633-1.01.828.828 0 0 0-1.119-.295.845.845 0 0 0-.3 1.125z" class="cls-1" transform="translate(-215.525 -321.189)"/>
            </g>
        </g>
        <g id="Group_8913" transform="translate(6.762)">
            <g id="Group_8912">
                <path id="Path_1946" d="M193.362 91.32v27.465a4.343 4.343 0 0 1-.213 1.791c.055-.12-.071.137-.066.126a1.388 1.388 0 0 1-.087.153c-.044.076-.093.147-.142.224-.153.229.044-.044-.06.076a2.737 2.737 0 0 1-.328.339c-.038.038-.082.071-.126.109.06-.044.049-.033-.033.022-.044.033-.093.066-.137.093a2.582 2.582 0 0 1-1.534.431 2.682 2.682 0 0 1-2.348-1.616 2.646 2.646 0 0 1-.082-1.785.83.83 0 0 0-1.01-1.01 3.792 3.792 0 0 1-1.108.1c-.076-.005-.153-.005-.229-.016-.049-.005-.273-.038-.115-.011a4.214 4.214 0 0 1-.508-.109c-.153-.044-.3-.093-.453-.147-.033-.011-.066-.027-.1-.038.011.005.115.049.027.011s-.175-.082-.257-.126c-.137-.071-.273-.153-.4-.235-.06-.038-.12-.082-.175-.12-.011-.005-.1-.076-.033-.022s-.087-.071-.082-.071a4.957 4.957 0 0 1-.65-.661c-.022-.022-.093-.126-.005-.005-.022-.027-.044-.055-.066-.087-.038-.06-.082-.12-.12-.18a4.314 4.314 0 0 1-.251-.437c-.038-.076-.076-.153-.109-.229.055.126-.011-.027-.027-.071a5.012 5.012 0 0 1-.153-.486c-.016-.071-.033-.142-.049-.218-.005-.033-.049-.262-.033-.186a1.2 1.2 0 0 0-.016-.153 2.8 2.8 0 0 1-.016-.306 3.992 3.992 0 0 1 .693-2.375.827.827 0 0 0-.71-1.234c-.191 0-.382-.011-.573-.027-.022 0-.18-.022-.076-.005s-.055-.011-.076-.011q-.164-.025-.328-.066a5.34 5.34 0 0 1-.6-.175l-.137-.049c-.022-.005-.164-.066-.071-.027s-.049-.022-.066-.033c-.055-.027-.109-.049-.164-.076-.18-.093-.36-.191-.53-.3-.082-.049-.158-.1-.235-.158l-.06-.044c.082.06-.071-.055-.087-.071a5.538 5.538 0 0 1-.846-.868c.1.126-.076-.115-.1-.153-.055-.076-.1-.158-.153-.24-.1-.175-.2-.355-.289-.541 0 .005-.093-.213-.044-.1.038.093-.016-.049-.027-.071-.033-.093-.066-.18-.1-.273a5.477 5.477 0 0 1-.158-.606l-.033-.18c-.005-.022-.027-.18-.011-.076s-.005-.055-.005-.076a1.342 1.342 0 0 1-.011-.153 5.3 5.3 0 0 1-.005-.721c.005-.115.016-.229.027-.339.016-.142-.016.1.005-.033.011-.055.016-.109.027-.164a5.382 5.382 0 0 1 .191-.721c.038-.115.082-.235.131-.344-.049.115.005-.011.016-.027.038-.071.071-.147.109-.218a5.662 5.662 0 0 1 .4-.655c.033-.044.06-.087.093-.131.049-.066-.044.049.049-.055s.175-.2.268-.3a6.182 6.182 0 0 1 .6-.541.832.832 0 0 0 .126-.994c-.038-.087-.044-.1-.016-.027-.022-.06-.049-.115-.066-.175-.033-.087-.06-.18-.087-.273a4.538 4.538 0 0 1-.147-.655 6.207 6.207 0 0 1-.005-1.108c.011-.1.011-.1 0-.011a1.4 1.4 0 0 1 .027-.147c.011-.076.027-.147.044-.218.038-.169.087-.339.142-.5.027-.082.06-.164.093-.24.022-.055.016-.044-.011.027.022-.044.038-.087.06-.131.076-.153.158-.3.246-.448.038-.06.076-.12.12-.186.016-.027.2-.268.087-.126.1-.131.218-.262.333-.382a4.466 4.466 0 0 1 .371-.344c.011-.011.2-.153.06-.055.076-.06.158-.115.235-.169.142-.093.289-.18.437-.262l.2-.1a1.39 1.39 0 0 1 .131-.06c-.082.033-.082.033.011 0a5.934 5.934 0 0 1 1-.268.833.833 0 0 0 .573-1.01 3.712 3.712 0 0 1-.066-1.168c.005-.06.005-.049-.005.033a1.4 1.4 0 0 1 .027-.147 2.759 2.759 0 0 1 .066-.289 3.911 3.911 0 0 1 .164-.486c-.055.131.016-.022.038-.066.044-.087.087-.169.137-.251l.115-.18c.016-.027.191-.262.082-.126a3.591 3.591 0 0 1 .333-.371c.049-.049.1-.1.158-.147.022-.022.257-.2.109-.1a4.255 4.255 0 0 1 .42-.273c.071-.044.147-.076.224-.115a.774.774 0 0 1 .1-.044c-.087.033-.082.033.005 0a3.854 3.854 0 0 1 .486-.153c.1-.022.191-.044.289-.06.235-.044-.158.005.082-.011a3.294 3.294 0 0 1 2.222.557.832.832 0 0 0 1.119-.295c0-.005.147-.207.055-.093.049-.06.1-.12.153-.18a1.592 1.592 0 0 1 .169-.164c.011-.011.169-.142.1-.087s.093-.066.109-.076c.066-.044.137-.082.2-.12a1.907 1.907 0 0 1 .213-.1c-.137.06.1-.027.1-.033.066-.022.131-.038.2-.055.027-.005.24-.049.175-.038-.087.016.12-.011.142-.011.082-.005.164-.005.246-.005s.153.011.224.016c-.147-.011.022.005.076.016a3.434 3.434 0 0 1 .388.109c.066.022.147.06.038.011a1.262 1.262 0 0 1 .191.1 3.06 3.06 0 0 1 .333.207c.049.033.038.027-.027-.022a.946.946 0 0 1 .082.071c.044.038.087.082.131.12s.1.1.147.158c.147.153-.071-.12.049.06.071.109.142.218.207.333.011.022.1.218.066.131s.027.087.038.1a2.7 2.7 0 0 1 .109.426c.033.175.005-.115.011.076a1.53 1.53 0 0 0-.005.224.819.819 0 0 0 1.638 0 3.773 3.773 0 0 0-6.973-2l1.119-.295a4.862 4.862 0 0 0-7.382 5.247c.191-.339.382-.672.573-1.01a5.827 5.827 0 0 0-4 2.763 5.915 5.915 0 0 0-.24 5.5c.044-.333.087-.661.126-.994a6.436 6.436 0 0 0 4.046 11.445c-.235-.41-.47-.819-.71-1.234a5.643 5.643 0 0 0 6.077 8.567l-1.01-1.01a4.269 4.269 0 0 0 8.169 2.484 4.657 4.657 0 0 0 .2-1.425v-23.3c0-1.562.033-3.123 0-4.679v-.057a.814.814 0 1 0-1.627 0z" class="cls-1" transform="translate(-175.825 -87.544)"/>
            </g>
        </g>
        <g id="Group_8915" transform="translate(12.392 21.132)">
            <g id="Group_8914">
                <path id="Path_1947" d="M280.453 477.457a3.82 3.82 0 0 1 .688-.77 4.327 4.327 0 0 1 .95-.617.824.824 0 0 0 .295-1.119.834.834 0 0 0-1.119-.295 5.611 5.611 0 0 0-2.222 1.971.818.818 0 0 0 1.409.83z" class="cls-1" transform="translate(-278.931 -474.555)"/>
            </g>
        </g>
        <g id="Group_8917" transform="translate(12.675 5.704)">
            <g id="Group_8916">
                <path id="Path_1948" d="M284.152 193.032a4.973 4.973 0 0 0 2.239 3 .818.818 0 1 0 .824-1.414c-.1-.066-.207-.131-.306-.2s.076.066-.027-.022c-.055-.044-.1-.087-.153-.131-.093-.082-.175-.169-.262-.262-.038-.038-.071-.082-.109-.12-.016-.016-.12-.158-.049-.06a4.431 4.431 0 0 1-.36-.6c-.016-.038-.082-.169-.038-.071-.022-.049-.038-.1-.06-.153a3.685 3.685 0 0 1-.12-.4.835.835 0 0 0-1.01-.573.823.823 0 0 0-.568 1z" class="cls-1" transform="translate(-284.126 -192.006)"/>
            </g>
        </g>
        <g id="Group_8919" transform="translate(35.137 12.762)">
            <g id="Group_8918">
                <path id="Path_1949" d="M696.3 325.794a5.876 5.876 0 0 0 5.247-3.3.839.839 0 0 0-.295-1.119.823.823 0 0 0-1.119.295 4.222 4.222 0 0 1-3.833 2.49.819.819 0 1 0 0 1.638z" class="cls-1" transform="translate(-695.485 -321.266)"/>
            </g>
        </g>
        <g id="Group_8921" transform="translate(24.299 .009)">
            <g id="Group_8920">
                <path id="Path_1950" d="M509.748 110.5a.825.825 0 0 0-.71 1.234 3.943 3.943 0 0 1 .486.972 3.763 3.763 0 0 1 .207 1.1 4.369 4.369 0 0 1-.011.535c-.005.076-.011.153-.022.224-.011.1 0-.022.005-.033l-.033.18c-.033.158-.071.311-.115.464l-.066.207c-.016.044-.115.289-.049.142a4.778 4.778 0 0 1-.459.814l-.082.115c.005-.011.076-.1.016-.022-.044.055-.093.109-.137.164a4.344 4.344 0 0 1-.349.36c-.06.055-.126.109-.186.164-.038.033-.169.131-.06.049-.136.1-.273.191-.415.278a4.3 4.3 0 0 1-.415.218.774.774 0 0 1-.1.044c.011-.005.115-.049.027-.011s-.18.071-.273.1c-.175.055-.349.1-.53.142-.038.005-.071.016-.109.022-.016.005-.169.027-.076.016s-.055.005-.076.011a1.344 1.344 0 0 1-.153.011 4.106 4.106 0 0 1-1.261-.093.832.832 0 0 0-1.01 1.01 2.81 2.81 0 0 1 .1 1.054 2.95 2.95 0 0 1-.268.9 2.7 2.7 0 0 1-.284.448c.066-.087-.016.022-.027.033l-.164.18a2.359 2.359 0 0 1-.754.541c-.005 0-.246.1-.1.049l-.235.082a3.041 3.041 0 0 1-.491.109c.158-.022-.12.005-.126.005-.06.005-.115.005-.175.005-.082 0-.158 0-.24-.005l-.158-.016c.087.011.087.011-.011-.005a4.043 4.043 0 0 1-.442-.115c-.071-.022-.142-.049-.213-.076.164.066-.06-.033-.076-.044a2.728 2.728 0 0 1-.382-.229c-.016-.011-.207-.158-.071-.049-.076-.066-.153-.126-.224-.2-.087-.087-.169-.18-.251-.273-.153-.175.071.126-.055-.071-.038-.066-.082-.126-.12-.186a3.44 3.44 0 0 1-.207-.4c.071.164-.022-.071-.027-.087-.038-.115-.071-.235-.1-.355a2.919 2.919 0 0 1-.055-.573V91.481c0-.076.005-.153.011-.229.005-.235-.038.147.011-.076a4.054 4.054 0 0 1 .109-.426c.005-.022.1-.24.022-.071a2.263 2.263 0 0 1 .131-.257 1.65 1.65 0 0 1 .115-.18c0 .005.137-.18.06-.087s.076-.082.071-.082c.049-.055.1-.1.147-.153s.1-.093.158-.142c-.136.115.044-.027.06-.044a3.1 3.1 0 0 1 .437-.246c-.169.076.049-.016.071-.022.071-.022.137-.044.207-.06l.213-.049c.229-.049-.158-.005.076-.011.131-.005.262-.011.4-.005.011 0 .278.038.115.005a2.966 2.966 0 0 1 .317.071 2.248 2.248 0 0 1 1.185.879.833.833 0 0 0 1.119.295 3.241 3.241 0 0 1 1.081-.486 3.513 3.513 0 0 1 1.141-.071c.18.011-.109-.027.082.011.1.016.2.038.289.06a5.014 5.014 0 0 1 .486.153c.18.066-.082-.049.071.033.087.044.175.087.257.131a4.256 4.256 0 0 1 .42.273c-.142-.1.06.049.087.071.065.055.126.109.186.169a3.589 3.589 0 0 1 .333.371c-.109-.142.066.1.082.126l.115.18c.049.082.093.169.137.251.005.016.1.235.038.066a3.914 3.914 0 0 1 .164.486 2.483 2.483 0 0 1 .065.289c.011.049.033.224.016.076a3.8 3.8 0 0 1-.06 1.207.828.828 0 0 0 .579 1.013 6.333 6.333 0 0 1 1 .268c.087.038.093.038.011 0 .044.022.087.038.131.06l.2.1a3.558 3.558 0 0 1 .437.262c.082.055.158.109.235.169-.115-.087.027.022.06.055.131.109.251.224.371.344a4.524 4.524 0 0 1 .333.382c-.1-.137.049.071.065.1.049.071.093.142.137.213.087.147.169.295.246.448.022.044.093.2.038.071.038.093.071.18.1.273.055.164.1.333.142.5.016.071.033.147.044.218.011.049.016.1.027.147-.011-.093-.011-.087 0 .011a5.338 5.338 0 0 1-.005 1.108 3.958 3.958 0 0 1-.137.612c-.033.109-.066.213-.1.317l-.065.175c.027-.071.022-.06-.016.027a.85.85 0 0 0 .125.994 6.018 6.018 0 0 1 .486.426c.087.087.169.175.251.262.038.038.071.082.1.12s.115.142.049.055a5.092 5.092 0 0 1 .36.535c.055.093.109.186.158.284.027.049.049.1.071.147.005.016.1.229.049.1a4.93 4.93 0 0 1 .213.622l.082.322.033.164s.038.262.022.115a5.435 5.435 0 0 1 0 1.365c.022-.175-.022.109-.027.153-.016.1-.038.191-.06.289a5.966 5.966 0 0 1-.191.628 1.428 1.428 0 0 1-.055.137c.011-.033.065-.137 0 .005-.044.087-.082.175-.126.262a5.7 5.7 0 0 1-.328.557c-.055.082-.109.158-.164.235.1-.137-.071.082-.093.115-.131.153-.268.3-.415.442a2.92 2.92 0 0 1-.24.213c-.038.033-.24.186-.115.093-.164.12-.333.235-.508.339a5.84 5.84 0 0 1-.612.311c.142-.06.022-.011-.005 0l-.208.076a3.04 3.04 0 0 1-.317.1 5.7 5.7 0 0 1-.688.147c.153-.022.027-.005-.005 0-.076.005-.153.016-.224.022-.115.005-.246.005-.371.005a.819.819 0 0 0 0 1.638 6.535 6.535 0 0 0 5.176-2.615 6.42 6.42 0 0 0-1.13-8.829c.044.333.087.661.126.994a5.915 5.915 0 0 0-.24-5.5 5.856 5.856 0 0 0-4-2.763c.191.339.382.672.573 1.01a4.935 4.935 0 0 0-.994-4.3 4.848 4.848 0 0 0-6.388-.945l1.119.295a3.844 3.844 0 0 0-4.084-1.671 3.786 3.786 0 0 0-2.79 2.823 9.286 9.286 0 0 0-.1 1.949v27.028a4.28 4.28 0 0 0 4.658 4.325 4.347 4.347 0 0 0 3.642-2.839 4.279 4.279 0 0 0 .066-2.615l-1.01 1.01a5.739 5.739 0 0 0 4.974-1.158 5.645 5.645 0 0 0 1.1-7.415c-.235.41-.47.819-.71 1.234h.005a.825.825 0 0 0 .005-1.649z" class="cls-1" transform="translate(-497.01 -87.708)"/>
            </g>
        </g>
        <g id="Group_8923" transform="translate(34.059 5.697)">
            <g id="Group_8922">
                <path id="Path_1951" d="M676.98 195.918a4.943 4.943 0 0 0 2.239-3 .821.821 0 1 0-1.583-.437c-.033.12-.066.24-.109.36-.016.055-.038.1-.06.158s-.022.049 0-.005l-.033.076a5 5 0 0 1-.382.633c.049-.071.005 0-.022.027-.033.044-.071.082-.109.126-.082.093-.169.18-.257.262l-.153.136c-.027.027-.1.076-.027.022-.109.082-.224.158-.339.229a.836.836 0 0 0-.295 1.119.846.846 0 0 0 1.13.295z" class="cls-1" transform="translate(-675.743 -191.881)"/>
            </g>
        </g>
        <g id="Group_8925" transform="translate(34.288 21.137)">
            <g id="Group_8924">
                <path id="Path_1952" d="M680.346 476.17a4.473 4.473 0 0 1 .945.612 3.7 3.7 0 0 1 .688.77.837.837 0 0 0 1.119.295.827.827 0 0 0 .295-1.119 5.649 5.649 0 0 0-2.222-1.971.834.834 0 0 0-1.119.295.824.824 0 0 0 .295 1.119z" class="cls-1" transform="translate(-679.944 -474.655)"/>
            </g>
        </g>
    </g>
</svg>
