<svg xmlns="http://www.w3.org/2000/svg" width="75.625" height="69.79" viewBox="0 0 75.625 69.79">
    <defs>
        <style>
            .cls-1{fill:#222}
        </style>
    </defs>
    <g id="noun_creative_3233078" transform="translate(-4.273)">
        <g id="Group_8926" transform="translate(4.273)">
            <g id="Group_8895" transform="translate(27.266 50.078)">
                <g id="Group_8894">
                    <path id="Path_1937" d="M402.31 698.027v8.359a3.418 3.418 0 0 1-.025.4c.016-.247-.033.148-.049.222a4.183 4.183 0 0 1-.123.427c-.025.074-.123.3-.033.107a6.067 6.067 0 0 1-.427.748c-.008.016-.115.156-.033.049s-.049.058-.074.082c-.082.09-.173.181-.263.271-.041.041-.288.255-.2.181.107-.082-.033.025-.049.033l-.222.148c-.107.066-.214.132-.329.189l-.148.074c-.173.082.173-.058-.008 0a6.754 6.754 0 0 1-.8.222c-.016 0-.2.025-.058.008.156-.016-.082 0-.115.008-.1.008-.189.008-.288.008H389.4a2.148 2.148 0 0 1-.23-.008c-.074 0-.148-.008-.23-.016.123.008.107.016-.008 0a7.678 7.678 0 0 1-.748-.2c-.222-.074-.058-.025-.008 0-.066-.033-.132-.057-.2-.09a3.961 3.961 0 0 1-.37-.214 2.979 2.979 0 0 1-.263-.181c.2.156-.123-.115-.156-.156a2.932 2.932 0 0 1-.222-.23c-.049-.049-.09-.107-.14-.164.115.131.025.033-.033-.049a6.494 6.494 0 0 1-.378-.658c-.066-.123.008.025.016.041-.025-.066-.049-.14-.074-.206a3.647 3.647 0 0 1-.123-.427c-.016-.057-.066-.395-.058-.279.016.14 0-.041 0-.057 0-.074-.008-.148-.008-.23v-8.425a1.233 1.233 0 1 0-2.466 0v8.31a5.82 5.82 0 0 0 1.315 3.625 5.914 5.914 0 0 0 4.743 2.071h8.3a7.1 7.1 0 0 0 4.036-.871 5.874 5.874 0 0 0 2.671-5.08v-8.055a1.247 1.247 0 0 0-1.233-1.233 1.27 1.27 0 0 0-1.225 1.241z" class="cls-1" transform="translate(-383.7 -696.785)"/>
                </g>
            </g>
            <g id="Group_8897" transform="translate(32.614 62.877)">
                <g id="Group_8896">
                    <path id="Path_1938" d="M456.667 853.711v2.77a2.626 2.626 0 0 1-.008.362c.033-.329-.107.173.025-.107-.016.033-.033.058-.049.09-.074.115-.074.115.008 0 .016.008-.238.189.016.008a1.305 1.305 0 0 1-.181.107c.132-.058.132-.058-.008-.016.008-.033.206 0-.016-.008h-4.077c-.312 0-.625-.008-.937 0h-.025c-.3.008 0-.025 0 .008l-.107-.025c.132.066.132.057.008 0-.255-.14.008-.008 0 .008l-.074-.074c.082.115.082.115.008 0-.016-.033-.033-.058-.049-.09.058.132.058.132.016-.008.025 0 0 .3.008 0v-.041c.008-.995 0-1.989 0-2.976l-1.233 1.233h7.9a1.233 1.233 0 0 0 0-2.466h-7.9a1.253 1.253 0 0 0-1.233 1.233c0 .978-.008 1.956 0 2.943a2.678 2.678 0 0 0 1.455 2.441 3.744 3.744 0 0 0 1.693.288h3.693c.3 0 .616.016.921 0a2.708 2.708 0 0 0 2.6-2.54c.066-1.036.008-2.1.008-3.132a1.247 1.247 0 0 0-1.233-1.233 1.233 1.233 0 0 0-1.229 1.225z" class="cls-1" transform="translate(-448.756 -852.485)"/>
                </g>
            </g>
            <g id="Group_8899" transform="translate(0 22.872)">
                <g id="Group_8898">
                    <path id="Path_1939" d="M53.219 368.266h3.255a1.233 1.233 0 0 0 0-2.466h-3.255a1.233 1.233 0 1 0 0 2.466z" class="cls-1" transform="translate(-51.985 -365.8)"/>
                </g>
            </g>
            <g id="Group_8901" transform="translate(69.901 22.872)">
                <g id="Group_8900">
                    <path id="Path_1940" d="M903.619 368.266h3.255a1.233 1.233 0 1 0 0-2.466h-3.255a1.233 1.233 0 0 0 0 2.466z" class="cls-1" transform="translate(-902.385 -365.8)"/>
                </g>
            </g>
            <g id="Group_8903" transform="translate(7.661 41.546)">
                <g id="Group_8902">
                    <path id="Path_1941" d="M147.031 596.792c1.085-.51 2.17-1.028 3.247-1.537a1.232 1.232 0 0 0-1.241-2.129c-1.085.51-2.17 1.027-3.247 1.537a1.232 1.232 0 0 0 1.241 2.129z" class="cls-1" transform="translate(-145.189 -592.976)"/>
                </g>
            </g>
            <g id="Group_8905" transform="translate(62.356 2.701)">
                <g id="Group_8904">
                    <path id="Path_1942" d="M812.431 124.213c1.052-.51 2.112-1.027 3.165-1.537a1.246 1.246 0 0 0 .444-1.685 1.266 1.266 0 0 0-1.685-.444l-3.165 1.537a1.246 1.246 0 0 0-.444 1.685 1.263 1.263 0 0 0 1.685.444z" class="cls-1" transform="translate(-810.589 -120.399)"/>
                </g>
            </g>
            <g id="Group_8907" transform="translate(62.356 41.547)">
                <g id="Group_8906">
                    <path id="Path_1943" d="M815.6 594.685c-1.052-.51-2.112-1.027-3.165-1.537a1.263 1.263 0 0 0-1.685.444 1.246 1.246 0 0 0 .444 1.685c1.052.51 2.112 1.027 3.165 1.537a1.263 1.263 0 0 0 1.685-.444 1.25 1.25 0 0 0-.444-1.685z" class="cls-1" transform="translate(-810.589 -592.999)"/>
                </g>
            </g>
            <g id="Group_8909" transform="translate(7.666 2.695)">
                <g id="Group_8908">
                    <path id="Path_1944" d="M150.255 122.106c-1.052-.543-2.112-1.077-3.165-1.619a1.256 1.256 0 0 0-1.685.444 1.241 1.241 0 0 0 .444 1.685c1.052.543 2.112 1.077 3.165 1.619a1.232 1.232 0 0 0 1.241-2.129z" class="cls-1" transform="translate(-145.244 -120.333)"/>
                </g>
            </g>
            <g id="Group_8911" transform="translate(13.443 19.205)">
                <g id="Group_8910">
                    <path id="Path_1945" d="M215.671 323.039a8.95 8.95 0 0 0 1.3 1.965c.123.14.247.279.378.411.058.058.123.156.2.189.205.115-.255-.321.058.016a6.063 6.063 0 0 0 1.118.921 8.856 8.856 0 0 0 4.858 1.471 1.233 1.233 0 1 0 0-2.466 6.34 6.34 0 0 1-3.608-1.134c-.132-.09-.205-.14-.255-.181s-.107-.09-.164-.132c.14.238.107.214-.107-.1-.222-.238-.469-.444-.682-.69a6.673 6.673 0 0 1-.953-1.521 1.246 1.246 0 0 0-1.685-.444 1.272 1.272 0 0 0-.452 1.693z" class="cls-1" transform="translate(-215.525 -321.189)"/>
                </g>
            </g>
            <g id="Group_8913" transform="translate(10.179)">
                <g id="Group_8912">
                    <path id="Path_1946" d="M202.225 93.228v41.346a6.537 6.537 0 0 1-.321 2.7c.082-.181-.107.205-.1.189a2.087 2.087 0 0 1-.132.23c-.066.115-.14.222-.214.337-.23.345.066-.066-.09.115a4.12 4.12 0 0 1-.493.51c-.058.058-.123.107-.189.164.09-.066.074-.049-.049.033-.066.049-.14.1-.205.14a3.888 3.888 0 0 1-2.31.649 4.037 4.037 0 0 1-3.535-2.433 3.984 3.984 0 0 1-.123-2.688 1.25 1.25 0 0 0-1.519-1.52 5.708 5.708 0 0 1-1.669.156c-.115-.008-.23-.008-.345-.025-.074-.008-.411-.058-.173-.016a6.342 6.342 0 0 1-.764-.164c-.23-.066-.452-.14-.682-.222-.049-.016-.1-.041-.156-.058.016.008.173.074.041.016s-.263-.123-.386-.189c-.205-.107-.411-.23-.608-.353-.09-.058-.181-.123-.263-.181-.016-.008-.156-.115-.049-.033.123.09-.132-.107-.123-.107a7.46 7.46 0 0 1-.978-.995c-.033-.033-.14-.189-.008-.008-.033-.041-.066-.082-.1-.132-.058-.09-.123-.181-.181-.271a6.492 6.492 0 0 1-.378-.658c-.058-.115-.115-.23-.164-.345.082.189-.016-.041-.041-.107a7.55 7.55 0 0 1-.23-.732l-.074-.329c-.008-.049-.074-.395-.049-.279a1.814 1.814 0 0 0-.025-.23 4.206 4.206 0 0 1-.025-.46 6.009 6.009 0 0 1 1.044-3.576 1.245 1.245 0 0 0-1.069-1.858c-.288 0-.575-.016-.863-.041-.033 0-.271-.033-.115-.008s-.082-.016-.115-.016q-.247-.037-.493-.1a8.038 8.038 0 0 1-.9-.263l-.206-.074c-.033-.008-.247-.1-.107-.041s-.074-.033-.1-.049c-.082-.041-.164-.074-.247-.115-.271-.14-.542-.288-.8-.452-.123-.074-.238-.156-.353-.238-.025-.016-.214-.156-.09-.066s-.107-.082-.132-.107a8.336 8.336 0 0 1-1.274-1.307c.148.189-.115-.173-.156-.23-.082-.115-.156-.238-.23-.362-.156-.263-.3-.534-.436-.814 0 .008-.14-.321-.066-.148.058.14-.025-.074-.041-.107-.049-.14-.1-.271-.148-.411a8.251 8.251 0 0 1-.238-.912l-.049-.271c-.008-.033-.041-.271-.016-.115s-.008-.082-.008-.115a2.02 2.02 0 0 1-.016-.23 7.967 7.967 0 0 1-.008-1.085c.008-.173.025-.345.041-.51.025-.214-.025.156.008-.049.016-.082.025-.164.041-.247a8.1 8.1 0 0 1 .288-1.085c.058-.173.123-.353.2-.518-.074.173.008-.016.025-.041.058-.107.107-.222.164-.329a8.523 8.523 0 0 1 .6-.986c.049-.066.09-.132.14-.2.074-.1-.066.074.074-.082s.263-.3.4-.452a9.306 9.306 0 0 1 .9-.814 1.252 1.252 0 0 0 .189-1.5c-.058-.132-.066-.148-.025-.041-.033-.09-.074-.173-.1-.263-.049-.132-.09-.271-.132-.411a6.833 6.833 0 0 1-.222-.986 9.343 9.343 0 0 1-.008-1.669c.016-.148.016-.148 0-.016a2.105 2.105 0 0 1 .041-.222c.016-.115.041-.222.066-.329.058-.255.132-.51.214-.756.041-.123.09-.247.14-.362l-.016.041c.033-.066.058-.132.09-.2.115-.23.238-.452.37-.674.058-.09.115-.181.181-.279.025-.041.3-.4.132-.189.156-.2.329-.395.5-.575a6.723 6.723 0 0 1 .559-.518c.016-.016.3-.23.09-.082.115-.09.238-.173.353-.255.214-.14.436-.271.658-.395l.3-.148a2.1 2.1 0 0 1 .2-.09c-.123.049-.123.049.016 0a8.932 8.932 0 0 1 1.512-.4 1.254 1.254 0 0 0 .863-1.521 5.588 5.588 0 0 1-.1-1.759c.008-.09.008-.074-.008.049a2.1 2.1 0 0 1 .041-.222 4.152 4.152 0 0 1 .1-.436 5.886 5.886 0 0 1 .247-.732c-.082.2.025-.033.058-.1.066-.132.132-.255.205-.378l.173-.271c.025-.041.288-.395.123-.189a5.4 5.4 0 0 1 .5-.559c.074-.074.156-.148.238-.222.033-.033.386-.3.164-.148a6.412 6.412 0 0 1 .633-.411c.107-.066.222-.115.337-.173a1.165 1.165 0 0 1 .148-.066c-.132.049-.123.049.008 0a5.8 5.8 0 0 1 .732-.23c.148-.033.288-.066.436-.09.353-.066-.238.008.123-.016a4.959 4.959 0 0 1 3.345.838 1.252 1.252 0 0 0 1.685-.444c0-.008.222-.312.082-.14.074-.09.156-.181.23-.271a2.4 2.4 0 0 1 .255-.247c.016-.016.255-.214.148-.132s.14-.1.164-.115c.1-.066.206-.123.3-.181a2.87 2.87 0 0 1 .321-.156c-.205.09.148-.041.156-.049.1-.033.2-.058.3-.082.041-.008.362-.074.263-.058-.132.025.181-.016.214-.016.123-.008.247-.008.37-.008s.23.016.337.025c-.222-.016.033.008.115.025a5.168 5.168 0 0 1 .584.164c.1.033.222.09.058.016a1.9 1.9 0 0 1 .288.148 4.606 4.606 0 0 1 .5.312c.074.049.058.041-.041-.033a1.428 1.428 0 0 1 .123.107c.066.058.132.123.2.181.074.074.148.156.222.238.222.23-.107-.181.074.09.107.164.214.329.312.5.016.033.156.329.1.2-.058-.148.041.132.058.156a4.07 4.07 0 0 1 .164.641c.049.263.008-.173.016.115a2.307 2.307 0 0 0-.008.337 1.233 1.233 0 0 0 2.466 0 5.679 5.679 0 0 0-10.5-3.008l1.685-.444a7.319 7.319 0 0 0-11.113 7.9c.288-.51.575-1.011.863-1.521a8.772 8.772 0 0 0-6.025 4.159 8.9 8.9 0 0 0-.362 8.286c.066-.5.132-.995.189-1.5a9.688 9.688 0 0 0 6.091 17.229c-.353-.616-.707-1.233-1.069-1.858a8.5 8.5 0 0 0 9.149 12.9l-1.521-1.521a6.427 6.427 0 0 0 12.3 3.74 7.01 7.01 0 0 0 .3-2.145v-35.068c0-2.351.049-4.7 0-7.044v-.1a1.225 1.225 0 1 0-2.449 0z" class="cls-1" transform="translate(-175.825 -87.544)"/>
                </g>
            </g>
            <g id="Group_8915" transform="translate(18.655 31.812)">
                <g id="Group_8914">
                    <path id="Path_1947" d="M281.222 478.923a5.748 5.748 0 0 1 1.036-1.159 6.512 6.512 0 0 1 1.43-.929 1.241 1.241 0 0 0 .444-1.685 1.256 1.256 0 0 0-1.685-.444 8.447 8.447 0 0 0-3.345 2.967 1.231 1.231 0 0 0 2.121 1.249z" class="cls-1" transform="translate(-278.931 -474.555)"/>
                </g>
            </g>
            <g id="Group_8917" transform="translate(19.082 8.587)">
                <g id="Group_8916">
                    <path id="Path_1948" d="M284.165 193.551a7.487 7.487 0 0 0 3.37 4.521 1.232 1.232 0 1 0 1.241-2.129c-.156-.1-.312-.2-.46-.3-.164-.123.115.1-.041-.033-.082-.066-.156-.132-.23-.2-.14-.123-.263-.255-.395-.395-.058-.058-.107-.123-.164-.181-.025-.025-.181-.238-.074-.09a6.663 6.663 0 0 1-.543-.9c-.025-.058-.123-.255-.058-.107-.033-.074-.058-.156-.09-.23a5.549 5.549 0 0 1-.181-.6 1.257 1.257 0 0 0-1.521-.863 1.239 1.239 0 0 0-.855 1.5z" class="cls-1" transform="translate(-284.126 -192.006)"/>
                </g>
            </g>
            <g id="Group_8919" transform="translate(52.894 19.212)">
                <g id="Group_8918">
                    <path id="Path_1949" d="M696.719 328.083a8.845 8.845 0 0 0 7.9-4.973 1.263 1.263 0 0 0-.444-1.685 1.239 1.239 0 0 0-1.685.444 6.356 6.356 0 0 1-5.77 3.748 1.233 1.233 0 0 0 0 2.466z" class="cls-1" transform="translate(-695.485 -321.266)"/>
                </g>
            </g>
            <g id="Group_8921" transform="translate(36.58 .013)">
                <g id="Group_8920">
                    <path id="Path_1950" d="M516.186 122.017a1.242 1.242 0 0 0-1.069 1.858 5.935 5.935 0 0 1 .732 1.463 5.667 5.667 0 0 1 .312 1.652 6.585 6.585 0 0 1-.016.806c-.008.115-.016.23-.033.337-.016.148 0-.033.008-.049l-.049.271c-.049.238-.107.469-.173.7-.033.107-.066.205-.1.312-.025.066-.173.436-.074.214a7.2 7.2 0 0 1-.69 1.225l-.123.173c.008-.016.115-.148.025-.033-.066.082-.14.164-.206.247a6.544 6.544 0 0 1-.526.542c-.09.082-.189.164-.279.247-.058.049-.255.2-.09.074-.205.148-.411.288-.625.419a6.479 6.479 0 0 1-.625.329 1.166 1.166 0 0 1-.148.066c.016-.008.173-.074.041-.016s-.271.107-.411.148c-.263.082-.526.156-.8.214-.058.008-.107.025-.164.033-.025.008-.255.041-.115.025.156-.025-.082.008-.115.016a2.023 2.023 0 0 1-.23.016 6.181 6.181 0 0 1-1.9-.14 1.252 1.252 0 0 0-1.521 1.521 4.23 4.23 0 0 1 .156 1.586 4.441 4.441 0 0 1-.4 1.356 4.068 4.068 0 0 1-.427.674c.1-.132-.025.033-.041.049l-.247.271a3.552 3.552 0 0 1-1.134.814c-.008 0-.37.156-.156.074l-.353.123a4.578 4.578 0 0 1-.74.164c.238-.033-.181.008-.189.008-.09.008-.173.008-.263.008-.123 0-.238 0-.362-.008l-.238-.025c.132.016.132.016-.016-.008a6.087 6.087 0 0 1-.666-.173c-.107-.033-.214-.074-.321-.115.247.1-.09-.049-.115-.066a4.1 4.1 0 0 1-.575-.345c-.025-.016-.312-.238-.107-.074-.115-.1-.23-.189-.337-.3-.132-.132-.255-.271-.378-.411-.23-.263.107.189-.082-.107-.058-.1-.123-.189-.181-.279a5.177 5.177 0 0 1-.312-.6c.107.247-.033-.107-.041-.132-.058-.173-.107-.353-.148-.534a4.393 4.393 0 0 1-.082-.863V93.387c0-.115.008-.23.016-.345.008-.353-.058.222.016-.115a6.11 6.11 0 0 1 .164-.641c.008-.033.148-.362.033-.107a3.41 3.41 0 0 1 .2-.386 2.484 2.484 0 0 1 .173-.271c0 .008.205-.271.09-.132s.115-.123.107-.123c.074-.082.148-.156.222-.23s.156-.14.238-.214c-.205.173.066-.041.09-.066a4.664 4.664 0 0 1 .658-.37c-.255.115.074-.025.107-.033.107-.033.206-.066.312-.09l.321-.074c.345-.074-.238-.008.115-.016.2-.008.395-.016.6-.008.016 0 .419.058.173.008a4.462 4.462 0 0 1 .477.107 3.385 3.385 0 0 1 1.781 1.319 1.254 1.254 0 0 0 1.685.444 4.879 4.879 0 0 1 1.628-.732 5.288 5.288 0 0 1 1.718-.107c.271.016-.164-.041.123.016.148.025.3.058.436.09a7.545 7.545 0 0 1 .732.23c.271.1-.123-.074.107.049.132.066.263.132.386.2a6.4 6.4 0 0 1 .633.411c-.214-.156.09.074.132.107.1.082.189.164.279.255a5.4 5.4 0 0 1 .5.559c-.164-.214.1.148.123.189l.173.271c.074.123.14.255.206.378.008.025.156.353.058.1a5.884 5.884 0 0 1 .247.732 3.734 3.734 0 0 1 .1.436c.016.074.049.337.025.115a5.722 5.722 0 0 1-.09 1.817 1.247 1.247 0 0 0 .863 1.521 9.535 9.535 0 0 1 1.512.4c.132.058.14.058.016 0 .066.033.131.058.2.09l.3.148a5.356 5.356 0 0 1 .658.395c.123.082.238.164.353.255-.173-.132.041.033.09.082.2.164.378.337.559.518a6.8 6.8 0 0 1 .5.575c-.156-.205.074.107.1.148.074.107.14.214.206.321.132.222.255.444.37.674.033.066.14.3.058.107.058.14.107.271.156.411.082.247.156.5.214.756.025.107.049.222.066.329.016.074.025.148.041.222-.016-.14-.016-.132 0 .016a8.024 8.024 0 0 1-.008 1.669 5.943 5.943 0 0 1-.206.921c-.049.164-.1.321-.156.477-.033.09-.066.181-.1.263.041-.107.033-.09-.025.041a1.279 1.279 0 0 0 .189 1.5 9.073 9.073 0 0 1 .732.641c.132.132.255.263.378.395.058.058.107.123.156.181s.173.214.074.082a7.664 7.664 0 0 1 .542.806c.082.14.164.279.238.427.041.074.074.148.107.222.008.025.156.345.074.156a7.417 7.417 0 0 1 .321.937l.123.485.049.247s.058.395.033.173a8.187 8.187 0 0 1 0 2.055c.033-.263-.033.164-.041.23-.025.148-.057.288-.09.436a8.982 8.982 0 0 1-.288.945 2.152 2.152 0 0 1-.082.205c.016-.049.1-.205 0 .008-.066.132-.123.263-.189.395a8.6 8.6 0 0 1-.493.838c-.082.123-.164.238-.247.353.148-.205-.107.123-.14.173-.2.23-.4.452-.625.666a4.384 4.384 0 0 1-.362.321c-.058.049-.362.279-.173.14-.247.181-.5.353-.764.51a8.788 8.788 0 0 1-.921.469c.214-.09.033-.016-.008 0-.107.041-.206.074-.312.115a4.581 4.581 0 0 1-.477.148 8.58 8.58 0 0 1-1.036.222c.23-.033.041-.008-.008 0-.115.008-.23.025-.337.033-.173.008-.37.008-.559.008a1.233 1.233 0 0 0 0 2.466 9.838 9.838 0 0 0 7.792-3.937 9.664 9.664 0 0 0-1.7-13.291c.066.5.132.995.189 1.5a8.9 8.9 0 0 0-.362-8.286 8.815 8.815 0 0 0-6.025-4.159c.288.51.575 1.011.863 1.521a7.429 7.429 0 0 0-1.5-6.477 7.3 7.3 0 0 0-9.617-1.422l1.685.444a5.787 5.787 0 0 0-6.148-2.515 5.7 5.7 0 0 0-4.2 4.25 13.977 13.977 0 0 0-.148 2.934v40.688a6.442 6.442 0 0 0 7.012 6.51 6.544 6.544 0 0 0 5.483-4.274 6.442 6.442 0 0 0 .1-3.937l-1.521 1.521a8.639 8.639 0 0 0 7.488-1.743 8.5 8.5 0 0 0 1.66-11.162c-.353.616-.707 1.233-1.069 1.858h.008a1.241 1.241 0 0 0 .008-2.482z" class="cls-1" transform="translate(-497.01 -87.708)"/>
                </g>
            </g>
            <g id="Group_8923" transform="translate(51.272 8.576)">
                <g id="Group_8922">
                    <path id="Path_1951" d="M677.606 197.957a7.441 7.441 0 0 0 3.37-4.521 1.236 1.236 0 1 0-2.384-.658c-.049.181-.1.362-.164.543-.025.082-.058.156-.09.238s-.033.074 0-.008c-.016.041-.033.074-.049.115a7.532 7.532 0 0 1-.575.953c.074-.107.008 0-.033.041-.049.066-.107.123-.164.189-.123.14-.255.271-.386.395l-.23.205c-.041.041-.148.115-.041.033-.164.123-.337.238-.51.345a1.258 1.258 0 0 0-.444 1.685 1.274 1.274 0 0 0 1.7.444z" class="cls-1" transform="translate(-675.743 -191.882)"/>
                </g>
            </g>
            <g id="Group_8925" transform="translate(51.617 31.82)">
                <g id="Group_8924">
                    <path id="Path_1952" d="M680.549 476.935a6.732 6.732 0 0 1 1.422.921 5.564 5.564 0 0 1 1.036 1.159 1.26 1.26 0 0 0 1.685.444 1.245 1.245 0 0 0 .444-1.685 8.5 8.5 0 0 0-3.345-2.967 1.256 1.256 0 0 0-1.685.444 1.241 1.241 0 0 0 .444 1.685z" class="cls-1" transform="translate(-679.944 -474.655)"/>
                </g>
            </g>
        </g>
    </g>
</svg>
