<svg xmlns="http://www.w3.org/2000/svg" width="68" height="68.001" viewBox="0 0 68 68.001">
    <defs>
        <style>
            .cls-1{fill:#222}
        </style>
    </defs>
    <g id="noun_Rocket_3269020" transform="translate(-10 -10)">
        <path id="Path_1989" d="M43.123 24.969c-1.862-.744-9.845-3.164-18.616 5.618A.85.85 0 0 0 24.875 32l12.293 3.507 1.649 1.651-3.879 3.883a.849.849 0 0 0 0 1.2l12.993 13.013a.849.849 0 0 0 1.2 0l3.878-3.882 1.591 1.59 3.5 12.307a.85.85 0 0 0 .6.59.831.831 0 0 0 .213.027.848.848 0 0 0 .6-.249c8.646-8.655 6.422-16.543 5.644-18.552C82.7 32.137 79.979 11.164 79.944 10.922a.85.85 0 0 0-.721-.721c-.24-.034-21.17-2.76-36.1 14.768zm-1.133 1.4a50.047 50.047 0 0 0-4.8 7.387l-10.419-2.978c6.976-6.286 13.1-5.109 15.219-4.413zm6.541 27.086l-11.793-11.8 3.278-3.282L51.81 50.17zm10.8 9.917l-2.95-10.357a50.029 50.029 0 0 0 7.374-4.788c.673 2.204 1.703 8.31-4.426 15.141zm19-51.55a41.441 41.441 0 0 1-1.565 14.464c-2.191 7.558-7.646 18.027-21.19 25.252L38.656 34.6C51.328 10.781 74.18 11.478 78.329 11.818z" class="cls-1" transform="translate(-2.139 -.004)"/>
        <path id="Path_1990" d="M72.111 32.289a6.715 6.715 0 0 0 4.782-1.983 6.758 6.758 0 1 0-4.783 1.983zm-3.579-10.352a5.058 5.058 0 0 1 7.159 0 5.079 5.079 0 0 1 0 7.168 5.058 5.058 0 0 1-7.159 0 5.079 5.079 0 0 1 0-7.168z" class="cls-1" transform="translate(-8.303 -1.313)"/>
        <path id="Path_1991" d="M34.527 76.461l-10.02 10.02a.85.85 0 1 0 1.2 1.2l10.02-10.02a.85.85 0 0 0-1.2-1.2z" class="cls-1" transform="translate(-2.139 -9.932)"/>
        <path id="Path_1992" d="M10.85 85.606a.847.847 0 0 0 .6-.249l23.2-23.2a.85.85 0 1 0-1.2-1.2l-23.2 23.2a.85.85 0 0 0 .6 1.451z" class="cls-1" transform="translate(0 -7.606)"/>
        <path id="Path_1993" d="M10.25 73.424a.85.85 0 0 0 1.2 0L21.471 63.4a.85.85 0 1 0-1.2-1.2L10.25 72.222a.85.85 0 0 0 0 1.202z" class="cls-1" transform="translate(0 -7.793)"/>
        <path id="Path_1994" d="M41.734 81.173a.85.85 0 0 0 .736.513l5.277.279 2.767 4.505a.851.851 0 0 0 .725.405h.079a.849.849 0 0 0 .715-.542L53.92 81.4l5.134-1.234a.85.85 0 0 0 .336-1.487l-4.11-3.327.407-5.267a.85.85 0 0 0-1.311-.779l-4.426 2.873-4.884-2.021a.85.85 0 0 0-1.146 1.006l1.373 5.1-3.424 4.017a.85.85 0 0 0-.135.892zm5.142-4.142a.852.852 0 0 0 .174-.772l-1.041-3.87 3.7 1.532a.853.853 0 0 0 .789-.072l3.359-2.182-.309 4a.85.85 0 0 0 .313.726l3.117 2.524-3.893.936a.848.848 0 0 0-.6.522l-1.433 3.74-2.1-3.417a.851.851 0 0 0-.68-.4l-4-.212z" class="cls-1" transform="translate(-4.75 -8.875)"/>
        <path id="Path_1995" d="M10.07 22.006a.85.85 0 0 0 .736.513l5.276.279L18.85 27.3a.849.849 0 0 0 .724.405h.079a.849.849 0 0 0 .715-.542l1.888-4.931L27.389 21a.85.85 0 0 0 .336-1.487l-4.109-3.327.406-5.268a.85.85 0 0 0-1.311-.778l-4.427 2.875-4.884-2.024A.85.85 0 0 0 12.255 12l1.372 5.1-3.427 4.019a.849.849 0 0 0-.13.887zm5.142-4.143a.851.851 0 0 0 .174-.772l-1.041-3.87 3.7 1.532a.855.855 0 0 0 .789-.072L22.2 12.5l-.308 4a.85.85 0 0 0 .313.726l3.116 2.524-3.893.936a.848.848 0 0 0-.6.523L19.4 24.945l-2.1-3.417a.848.848 0 0 0-.679-.4l-4-.212z" class="cls-1"/>
        <path id="Path_1996" d="M81.538 70.584a6.247 6.247 0 1 0 6.255 6.246 6.257 6.257 0 0 0-6.255-6.246zm0 10.793a4.547 4.547 0 1 1 4.555-4.547 4.556 4.556 0 0 1-4.555 4.547z" class="cls-1" transform="translate(-9.792 -9.088)"/>
        <path id="Path_1997" d="M26.665 47.364a6.255 6.255 0 1 0-6.255 6.246 6.258 6.258 0 0 0 6.255-6.246zm-6.255 4.547a4.547 4.547 0 1 1 4.555-4.546 4.555 4.555 0 0 1-4.555 4.546z" class="cls-1" transform="translate(-.623 -4.668)"/>
    </g>
</svg>
