<svg xmlns="http://www.w3.org/2000/svg" id="noun_Rocket_3269020" width="45.171" height="45.171" viewBox="0 0 45.171 45.171">
    <defs>
        <style>
            .cls-1{fill:#222}
        </style>
    </defs>
    <path id="Path_1989" d="M36.79 19.953c-1.237-.494-6.54-2.1-12.366 3.732a.564.564 0 0 0 .244.942l8.166 2.33 1.1 1.1-2.577 2.58a.564.564 0 0 0 0 .8l8.632 8.641a.564.564 0 0 0 .8 0l2.576-2.579 1.055 1.056 2.327 8.175a.565.565 0 0 0 .4.392.552.552 0 0 0 .142.018.563.563 0 0 0 .4-.166c5.743-5.749 4.266-10.989 3.749-12.324a28.576 28.576 0 0 0 9.818-24.022.565.565 0 0 0-.479-.479 28.511 28.511 0 0 0-23.987 9.804zm-.753.927a33.245 33.245 0 0 0-3.185 4.907l-6.924-1.975c4.634-4.176 8.702-3.394 10.109-2.932zm4.345 17.993l-7.834-7.842 2.177-2.18 7.834 7.842zm7.172 6.588L45.6 38.583a33.234 33.234 0 0 0 4.9-3.18c.442 1.464 1.126 5.52-2.945 10.058zm12.622-34.244a27.529 27.529 0 0 1-1.039 9.608C57.682 25.846 54.058 32.8 45.061 37.6L33.822 26.348a27.441 27.441 0 0 1 26.354-15.131z" class="cls-1" transform="translate(-16.207 -10.012)"/>
    <path id="Path_1990" d="M69.842 27.744a4.461 4.461 0 0 0 3.177-1.317 4.489 4.489 0 1 0-3.177 1.317zm-2.378-6.877a3.36 3.36 0 0 1 4.755 0 3.374 3.374 0 0 1 0 4.762 3.36 3.36 0 0 1-4.755 0 3.374 3.374 0 0 1 .001-4.762z" class="cls-1" transform="translate(-34.099 -13.81)"/>
    <path id="Path_1991" d="M31.079 76.377l-6.656 6.656a.565.565 0 1 0 .8.8l6.656-6.656a.565.565 0 0 0-.8-.8z" class="cls-1" transform="translate(-16.207 -38.826)"/>
    <path id="Path_1992" d="M10.565 77.247a.563.563 0 0 0 .4-.165l15.41-15.412a.565.565 0 0 0-.8-.8l-15.41 15.413a.565.565 0 0 0 .4.964z" class="cls-1" transform="translate(-10 -32.075)"/>
    <path id="Path_1993" d="M10.166 69.573a.564.564 0 0 0 .8 0l6.655-6.656a.565.565 0 0 0-.8-.8l-6.655 6.656a.564.564 0 0 0 0 .8z" class="cls-1" transform="translate(-10 -32.619)"/>
    <path id="Path_1994" d="M41.711 77.142a.565.565 0 0 0 .489.341l3.505.185 1.838 2.993a.565.565 0 0 0 .481.269h.052a.564.564 0 0 0 .475-.36l1.254-3.276 3.41-.82a.564.564 0 0 0 .223-.988l-2.73-2.21.27-3.5a.565.565 0 0 0-.871-.517l-2.941 1.91-3.244-1.343a.565.565 0 0 0-.761.668l.912 3.391-2.273 2.668a.565.565 0 0 0-.089.589zm3.416-2.752a.566.566 0 0 0 .116-.513l-.691-2.571 2.46 1.018a.567.567 0 0 0 .524-.048l2.232-1.449-.205 2.655a.565.565 0 0 0 .208.482l2.071 1.677-2.586.622a.563.563 0 0 0-.4.347l-.952 2.484-1.394-2.27a.565.565 0 0 0-.452-.268l-2.66-.141z" class="cls-1" transform="translate(-23.786 -35.759)"/>
    <path id="Path_1995" d="M10.047 17.975a.565.565 0 0 0 .489.341l3.5.185 1.839 2.993a.564.564 0 0 0 .481.269h.052a.564.564 0 0 0 .475-.36l1.254-3.275 3.41-.82a.564.564 0 0 0 .223-.988l-2.729-2.21.27-3.5a.565.565 0 0 0-.871-.517L15.5 12l-3.24-1.342a.565.565 0 0 0-.761.668l.911 3.39-2.274 2.669a.564.564 0 0 0-.089.59zm3.415-2.752a.565.565 0 0 0 .116-.513l-.691-2.571 2.46 1.018a.568.568 0 0 0 .524-.048L18.1 11.66l-.2 2.656a.564.564 0 0 0 .208.482l2.07 1.677-2.586.622a.563.563 0 0 0-.4.347l-.951 2.484-1.4-2.27a.564.564 0 0 0-.451-.268l-2.659-.141z" class="cls-1" transform="translate(-10 -10)"/>
    <path id="Path_1996" d="M79.438 70.584a4.149 4.149 0 1 0 4.155 4.149 4.157 4.157 0 0 0-4.155-4.149zm0 7.17a3.02 3.02 0 1 1 3.026-3.02 3.026 3.026 0 0 1-3.026 3.02z" class="cls-1" transform="translate(-38.422 -36.376)"/>
    <path id="Path_1997" d="M22.465 45.267a4.155 4.155 0 1 0-4.155 4.149 4.157 4.157 0 0 0 4.155-4.149zm-4.155 3.02a3.02 3.02 0 1 1 3.026-3.02 3.026 3.026 0 0 1-3.026 3.02z" class="cls-1" transform="translate(-11.809 -23.547)"/>
</svg>
