<svg xmlns="http://www.w3.org/2000/svg" width="47.824" height="46.039" viewBox="0 0 47.824 46.039">
    <defs>
        <style>
            .cls-1{fill:#222;stroke:#707070;stroke-width:.25px}
        </style>
    </defs>
    <g id="noun_growth_1288611_1_" transform="translate(.125 .125)">
        <g id="Group_9025">
            <path id="Path_2075" d="M260.668 242.7c-1.971-1.045-6.355.964-13.4 6.14-.788-1.369-2.329-1.275-4.388-1.148a25.3 25.3 0 0 1-4.9-.06 49.208 49.208 0 0 1-.141-5.366 9.1 9.1 0 0 0 1.724.173 7.874 7.874 0 0 0 6.885-4.338 11.736 11.736 0 0 0 .7-1.425c.275-.677.279-.753.182-.921a.4.4 0 0 0-.277-.2 9.92 9.92 0 0 0-1.647-.124 9.743 9.743 0 0 0-4.583 1.068 7.107 7.107 0 0 0-2.795 2.72c.082-.862.193-1.748.337-2.647a30.193 30.193 0 0 1 3.656-10.637 5.58 5.58 0 1 0-.644-.5 30.162 30.162 0 0 0-3.593 9.793 42.277 42.277 0 0 0-3.848-6.157 5.569 5.569 0 1 0-.612.53 41.616 41.616 0 0 1 4.223 6.967c-.112.711-.2 1.413-.276 2.1a7.217 7.217 0 0 0-3.218-3.557 10.518 10.518 0 0 0-6.232-.944.407.407 0 0 0-.212.111c-.211.211-.135.395.148 1.078.709 1.711 2.863 5.691 7.555 5.691a9.136 9.136 0 0 0 1.781-.184 49.71 49.71 0 0 0 .069 6.64 19.05 19.05 0 0 1-2.425-.577 28.906 28.906 0 0 0-15-.147v-1.17a1.932 1.932 0 0 0-1.931-1.93h-1.729a1.932 1.932 0 0 0-1.93 1.93v13.461a1.933 1.933 0 0 0 1.93 1.931h1.729a1.933 1.933 0 0 0 1.931-1.931v-.992c1.829.243 8.693 1.2 11.627 2.2l.145.05a16.9 16.9 0 0 0 5.641 1.182q.252 0 .51-.011a15.128 15.128 0 0 0 8.522-3.564c1.286-.989 2.68-2.052 4.028-3.079 2.786-2.123 5.667-4.319 7.8-6.024 3.7-2.96 3.7-3.288 3.7-3.577v-.114a2.465 2.465 0 0 0-1.042-2.441zm-20.327-21.4a4.758 4.758 0 1 1 4.758 4.759 4.764 4.764 0 0 1-4.759-4.765zm5.074 14.946c.414 0 .766.023 1.024.049-.544 1.362-2.507 5.339-6.864 5.339a7.942 7.942 0 0 1-.991-.067l5.6-3.419a.4.4 0 0 0-.422-.69l-5.6 3.419c1.46-4.006 5.106-4.637 7.253-4.637zm-20.166-11.1a4.759 4.759 0 1 1 4.759 4.759 4.764 4.764 0 0 1-4.76-4.762zm3.207 9.763c.258-.025.609-.049 1.024-.049 2.147 0 5.793.631 7.253 4.631l-5.6-3.419a.4.4 0 1 0-.421.69l5.6 3.419a7.961 7.961 0 0 1-.992.067c-4.359-.003-6.32-3.98-6.865-5.342zM217.813 260.2h-1.729a1.123 1.123 0 0 1-1.122-1.122v-13.46a1.123 1.123 0 0 1 1.122-1.122h1.729a1.123 1.123 0 0 1 1.122 1.122v13.461a1.123 1.123 0 0 1-1.122 1.121zm43.1-15.081v.089c-.455.839-6.4 5.368-11.184 9.015-1.349 1.028-2.744 2.091-4.031 3.082-6.324 4.865-10.536 3.425-13.92 2.268l-.146-.05c-3.105-1.06-10.2-2.031-11.888-2.253v-9.643a28.592 28.592 0 0 1 14.764.081 19.76 19.76 0 0 0 3.024.679h.029a25.266 25.266 0 0 0 5.375.107c2.3-.141 3.336-.151 3.8 1.1a3.539 3.539 0 0 1 .16.584 1.6 1.6 0 0 1-.337 1.425c-1.609 1.9-7.715 1.717-9.721 1.657-.3-.009-.535-.015-.694-.015h-2.804a.4.4 0 1 0 0 .808h2.805c.147 0 .378.007.67.015 3.958.117 8.711 0 10.361-1.942a2.389 2.389 0 0 0 .514-2.1c-.03-.151-.062-.291-.1-.422 8.864-6.538 11.76-6.692 12.7-6.195.599.321.652 1.042.625 1.707z" class="cls-1" transform="translate(-214.152 -215.729)"/>
            <path id="Path_2076" d="M266.991 222.632h.22a1.043 1.043 0 0 1 0 2.085h-1.447a.4.4 0 1 0 0 .808h1.043v.633a.4.4 0 1 0 .808 0v-.678a1.851 1.851 0 0 0-.4-3.657h-.22a1.043 1.043 0 0 1 0-2.085h1.447a.4.4 0 0 0 0-.808h-.823v-.63a.4.4 0 1 0-.808 0v.642a1.851 1.851 0 0 0 .184 3.693z" class="cls-1" transform="translate(-236.154 -216.663)"/>
            <path id="Path_2077" d="M240.662 228.963h-.219a1.043 1.043 0 1 1 0-2.085h1.447a.4.4 0 0 0 0-.808h-.823v-.633a.4.4 0 0 0-.808 0v.642a1.851 1.851 0 0 0 .184 3.693h.219a1.043 1.043 0 0 1 0 2.085h-1.447a.4.4 0 1 0 0 .808h1.043v.633a.4.4 0 0 0 .808 0v-.678a1.85 1.85 0 0 0-.4-3.657z" class="cls-1" transform="translate(-224.698 -219.743)"/>
        </g>
    </g>
</svg>
