<svg xmlns="http://www.w3.org/2000/svg" width="70.305" height="69.308" viewBox="0 0 70.305 69.308">
    <g>
        <path fill="#222" d="M21.46 55.253a10.16 10.16 0 0 0 0 20.321 10.668 10.668 0 0 0 5.534-1.633 29.838 29.838 0 0 0 19.413 7.167 29.252 29.252 0 0 0 12.973-2.994 1.1 1.1 0 0 0-.907-2 27.771 27.771 0 0 1-29.665-3.624 10.073 10.073 0 0 0 2.9-7.167 10.323 10.323 0 0 0-10.248-10.07zm-7.983 10.16A7.983 7.983 0 1 1 21.46 73.4a7.995 7.995 0 0 1-7.983-7.986zM35.7 21.96v.907a33.68 33.68 0 0 0-4.808 2.359A30.043 30.043 0 0 0 16.38 49.9a1.184 1.184 0 0 0 1.089 1.179 1.048 1.048 0 0 0 1.089-1.089 27.866 27.866 0 0 1 13.425-22.859 35.807 35.807 0 0 1 4.173-2.086 10.231 10.231 0 1 0-.456-3.085zm10.251-7.983a7.983 7.983 0 1 1-7.983 7.983 7.995 7.995 0 0 1 7.986-7.983zm16.785 11.975a1.12 1.12 0 1 0-1.179 1.905 27.749 27.749 0 0 1 12.61 23.223 25.491 25.491 0 0 1-.363 4.536 9.888 9.888 0 0 0-2.359-.272A10.16 10.16 0 1 0 81.605 65.5a10.36 10.36 0 0 0-5.715-9.162 34.337 34.337 0 0 0 .454-5.262 29.76 29.76 0 0 0-13.608-25.124zm16.6 39.462a7.983 7.983 0 1 1-7.983-7.983 7.995 7.995 0 0 1 7.985 7.983z" transform="translate(-11.3 -11.8)"/>
    </g>
</svg>
