<svg xmlns="http://www.w3.org/2000/svg" id="noun_Piggy_Bank_980965" width="59.081" height="46.01" viewBox="0 0 59.081 46.01">
    <defs>
        <style>
            .cls-1{fill:#222}
        </style>
    </defs>
    <g id="Group_8862">
        <path id="Path_1913" d="M27.728 18.238a1.123 1.123 0 0 1-.364-.727H26a2.239 2.239 0 0 0 .818 1.728 2.818 2.818 0 0 0 1.182.545v1.182h1.364v-1.182a2.818 2.818 0 0 0 1.182-.546 2.233 2.233 0 0 0 0-3.455 2.621 2.621 0 0 0-1.819-.637 1.367 1.367 0 0 1-1-.364 1.123 1.123 0 0 1-.364-.727.827.827 0 0 1 .364-.727 1.506 1.506 0 0 1 1.91 0 1.123 1.123 0 0 1 .364.727h1.364a2.239 2.239 0 0 0-.818-1.728 2.818 2.818 0 0 0-1.182-.546V10.6H28v1.182a2.818 2.818 0 0 0-1.182.546 2.233 2.233 0 0 0 0 3.455 2.621 2.621 0 0 0 1.819.637 1.367 1.367 0 0 1 1 .364 1.123 1.123 0 0 1 .364.727.827.827 0 0 1-.364.727 1.506 1.506 0 0 1-1.909 0z" class="cls-1" transform="translate(-2.358 -7.508)"/>
        <path id="Path_1914" d="M11.4 29.719l1.273.364a2.65 2.65 0 0 1 1.819-1.91l-.364-1.273a3.971 3.971 0 0 0-2.728 2.819z" class="cls-1" transform="translate(-1.034 -8.987)"/>
        <path id="Path_1915" d="M58.74 32.3a3.55 3.55 0 0 0-1.819-1.819 3.107 3.107 0 0 0-2.546 0 2.45 2.45 0 0 0-1.364 3.183l1.273-.546a1.039 1.039 0 0 1 .546-1.364 2.254 2.254 0 0 1 1.546 0 2.13 2.13 0 0 1 1.091 1.091 3.419 3.419 0 0 1-1.91 4.456 5.621 5.621 0 0 1-7.365-3.092v-.455c0-6-1.637-8.82-4.456-11.548a18.183 18.183 0 0 0-2-1.728l.364-4.91a1.123 1.123 0 0 0-.364-.727.677.677 0 0 0-.818.091l-3.728 2.91h-2.91a9.885 9.885 0 0 0 .364-2.364 8.275 8.275 0 0 0-16.549 0 6.78 6.78 0 0 0 .364 2.364H15.64L11.821 15.2a.682.682 0 0 0-.818 0 .827.827 0 0 0-.364.727L11 20.839a15.855 15.855 0 0 0-4 4.546 5.555 5.555 0 0 0-.637 1.273 2.075 2.075 0 0 1-1.726 1.092H2.182A2.213 2.213 0 0 0 0 29.932V32.3a2.213 2.213 0 0 0 2.182 2.182c1.364 0 2.637 1.364 3.273 3.455 0 .091.091.182.091.364a14.883 14.883 0 0 0 3.728 6.183c.546.546 1.091 1 1.637 1.455l.273.182s2.546 1.906 2.816 4.27c.364 2.728 2 2.819 3.273 2.819h.364c1.273 0 3.273-.546 3.819-3.819h10.187a4.621 4.621 0 0 0 1.364 2.91 3.291 3.291 0 0 0 2.455.909h.364c1.182 0 2.91-.091 3.273-2.819.273-2.364 2.819-4.183 2.819-4.274l.273-.182a14.793 14.793 0 0 0 5.819-9.457 7.083 7.083 0 0 0 5.456 2.546 6.85 6.85 0 0 0 2.634-.544 4.82 4.82 0 0 0 2.637-2.546 5.02 5.02 0 0 0 .003-3.634zM26.279 8.564a6.92 6.92 0 0 1 2.727 13.276h-5.455a6.92 6.92 0 0 1 2.728-13.276zm15.094 36.281l-.182.182c-.091.091-3 2.182-3.364 5.183-.182 1.546-.727 1.637-1.91 1.637h-.182A2.223 2.223 0 0 1 34.1 51.3c-.727-.727-1.091-2.091-1.091-4h-1.366v.727h-10V47.3h-1.366v1c-.273 3.728-2.091 3.637-2.728 3.637h-.182c-1.182 0-1.728-.091-1.91-1.637-.364-2.91-3.273-5.092-3.364-5.183l-.273-.273a9.733 9.733 0 0 1-1.455-1.273 15.013 15.013 0 0 1-3.455-5.638c0-.182-.091-.273-.091-.364-.909-2.728-2.637-4.365-4.637-4.365a.815.815 0 0 1-.818-.818v-2.363a.815.815 0 0 1 .818-.818h2.364a3.571 3.571 0 0 0 2.819-1.637 2.279 2.279 0 0 0 .364-.637c0-.091.091-.182.091-.273.091-.182.182-.273.182-.455a13.8 13.8 0 0 1 2.91-3.546l.091.727 1.364-.091L12 17.02l3.094 2.18h3.728a8.393 8.393 0 0 0 2.091 2.637H18.55V23.2h15.367v-1.36h-2.365a8.393 8.393 0 0 0 2.092-2.64h3.91l3.092-2.364-.455 6 1.364.091.091-.818a13.6 13.6 0 0 1 1.182 1c2.637 2.641 4.092 5.091 4.092 10.642a13.867 13.867 0 0 1-5.547 11.094z" class="cls-1" transform="translate(0 -7.2)"/>
    </g>
</svg>
