<svg xmlns="http://www.w3.org/2000/svg" width="88.941" height="69.263" viewBox="0 0 88.941 69.263">
    <defs>
        <style>
            .cls-1{fill:#222}
        </style>
    </defs>
    <g id="noun_Piggy_Bank_980965" transform="translate(0 -7.2)">
        <g id="Group_8862" transform="translate(0 7.2)">
            <path id="Path_1913" d="M28.6 22.1a1.69 1.69 0 0 1-.548-1.1H26a3.371 3.371 0 0 0 1.232 2.6 4.243 4.243 0 0 0 1.779.821V26.2h2.053v-1.775a4.242 4.242 0 0 0 1.779-.821 3.361 3.361 0 0 0 0-5.2 3.946 3.946 0 0 0-2.738-.958A2.059 2.059 0 0 1 28.6 16.9a1.69 1.69 0 0 1-.548-1.1 1.245 1.245 0 0 1 .548-1.1 2.267 2.267 0 0 1 2.875 0 1.69 1.69 0 0 1 .548 1.1h2.053a3.371 3.371 0 0 0-1.232-2.6 4.242 4.242 0 0 0-1.779-.821V10.6h-2.054v1.779a4.242 4.242 0 0 0-1.779.821 3.361 3.361 0 0 0 0 5.2 3.946 3.946 0 0 0 2.738.958 2.059 2.059 0 0 1 1.506.548 1.69 1.69 0 0 1 .548 1.1 1.245 1.245 0 0 1-.548 1.1A2.267 2.267 0 0 1 28.6 22.1z" class="cls-1" transform="translate(9.59 -5.946)"/>
            <path id="Path_1914" d="M11.4 31.143l1.916.548a3.989 3.989 0 0 1 2.738-2.875l-.547-1.916a5.977 5.977 0 0 0-4.107 4.243z" class="cls-1" transform="translate(4.205 .066)"/>
            <path id="Path_1915" d="M88.427 44.98a5.344 5.344 0 0 0-2.738-2.738 4.677 4.677 0 0 0-3.833 0 3.688 3.688 0 0 0-2.056 4.791l1.916-.821a1.564 1.564 0 0 1 .821-2.053 3.393 3.393 0 0 1 2.327 0 3.206 3.206 0 0 1 1.647 1.641 5.147 5.147 0 0 1-2.875 6.707 8.462 8.462 0 0 1-11.088-4.654v-.683c0-9.034-2.464-13.278-6.707-17.384a27.373 27.373 0 0 0-3.011-2.6l.548-7.392a1.69 1.69 0 0 0-.548-1.1 1.019 1.019 0 0 0-1.232.137l-5.612 4.38h-4.38a14.881 14.881 0 0 0 .548-3.559 12.456 12.456 0 0 0-24.913 0 10.207 10.207 0 0 0 .548 3.559h-4.245l-5.749-3.97a1.027 1.027 0 0 0-1.232 0 1.245 1.245 0 0 0-.548 1.1l.548 7.392a23.868 23.868 0 0 0-6.023 6.844 8.363 8.363 0 0 0-.958 1.916 3.124 3.124 0 0 1-2.6 1.643h-3.7A3.331 3.331 0 0 0 0 41.421v3.559a3.331 3.331 0 0 0 3.285 3.285c2.053 0 3.97 2.053 4.928 5.2 0 .137.137.274.137.548a22.405 22.405 0 0 0 5.612 9.308c.821.821 1.643 1.506 2.464 2.19l.411.274s3.833 2.875 4.243 6.434c.548 4.107 3.011 4.243 4.928 4.243h.548c1.916 0 4.928-.821 5.749-5.749h15.331a6.956 6.956 0 0 0 2.053 4.38 4.955 4.955 0 0 0 3.7 1.369h.548c1.779 0 4.38-.137 4.928-4.243.411-3.559 4.243-6.3 4.243-6.434l.411-.274a22.27 22.27 0 0 0 8.761-14.236 10.662 10.662 0 0 0 8.213 3.833 10.312 10.312 0 0 0 3.97-.821 7.255 7.255 0 0 0 3.97-3.833 7.557 7.557 0 0 0-.006-5.474zM39.56 9.253a10.417 10.417 0 0 1 4.107 19.985h-8.214A10.417 10.417 0 0 1 39.56 9.253zM62.282 63.87l-.274.274c-.137.137-4.517 3.285-5.065 7.8-.274 2.327-1.1 2.464-2.875 2.464H53.8a3.346 3.346 0 0 1-2.464-.821c-1.1-1.1-1.643-3.148-1.643-6.023h-2.057v1.1H32.578v-1.1h-2.053v1.506c-.411 5.612-3.148 5.475-4.107 5.475h-.274c-1.779 0-2.6-.137-2.875-2.464-.548-4.38-4.928-7.666-5.065-7.8l-.411-.411a14.652 14.652 0 0 1-2.19-1.916 22.6 22.6 0 0 1-5.2-8.487c0-.274-.137-.411-.137-.548-1.369-4.107-3.97-6.57-6.981-6.57a1.227 1.227 0 0 1-1.232-1.232v-3.559a1.227 1.227 0 0 1 1.232-1.232h3.559a5.376 5.376 0 0 0 4.243-2.464 3.431 3.431 0 0 0 .548-.958c0-.137.137-.274.137-.411.137-.274.274-.411.274-.684a20.77 20.77 0 0 1 4.38-5.338l.137 1.1 2.053-.137-.548-9.445 4.654 3.285h5.612a12.635 12.635 0 0 0 3.148 3.97h-3.558v2.053h23.134v-2.059H47.5a12.635 12.635 0 0 0 3.148-3.97h5.886l4.654-3.559-.688 9.035 2.053.137.137-1.232a20.477 20.477 0 0 1 1.78 1.506c3.97 3.97 6.16 7.666 6.16 16.015a20.875 20.875 0 0 1-8.348 16.7z" class="cls-1" transform="translate(0 -7.2)"/>
        </g>
    </g>
</svg>
