<svg xmlns="http://www.w3.org/2000/svg" width="46.702" height="46.04" viewBox="0 0 46.702 46.04">
    <path fill="#222" d="M18.049 40.665a6.749 6.749 0 0 0 0 13.5 7.087 7.087 0 0 0 3.676-1.085 19.821 19.821 0 0 0 12.9 4.761 19.431 19.431 0 0 0 8.617-1.989.728.728 0 1 0-.6-1.326 18.448 18.448 0 0 1-19.705-2.41 6.691 6.691 0 0 0 1.928-4.761 6.858 6.858 0 0 0-6.816-6.69zm-5.3 6.749a5.3 5.3 0 1 1 5.3 5.3 5.311 5.311 0 0 1-5.303-5.3zM27.51 18.549v.6a22.373 22.373 0 0 0-3.194 1.567 19.957 19.957 0 0 0-9.641 16.394.786.786 0 0 0 .723.783.7.7 0 0 0 .723-.723 18.511 18.511 0 0 1 8.919-15.186 23.786 23.786 0 0 1 2.772-1.384 6.8 6.8 0 1 0-.3-2.049zm6.81-5.3a5.3 5.3 0 1 1-5.3 5.3 5.311 5.311 0 0 1 5.3-5.303zM45.468 21.2a.744.744 0 1 0-.783 1.265 18.433 18.433 0 0 1 8.376 15.427 16.933 16.933 0 0 1-.241 3.013 6.568 6.568 0 0 0-1.567-.181A6.749 6.749 0 1 0 58 47.475a6.882 6.882 0 0 0-3.8-6.086 22.81 22.81 0 0 0 .3-3.5A19.769 19.769 0 0 0 45.468 21.2zM56.5 47.414a5.3 5.3 0 1 1-5.3-5.3 5.311 5.311 0 0 1 5.3 5.3z" transform="translate(-11.3 -11.8)"/>
</svg>
