<svg xmlns="http://www.w3.org/2000/svg" width="30.126" height="46.085" viewBox="0 0 30.126 46.085">
    <defs>
        <style>
            .cls-1{fill:#222;stroke:#222;stroke-width:.25px}
        </style>
    </defs>
    <g id="noun_tech_support_3085717" transform="translate(.125 .125)">
        <g id="Group_8943">
            <path id="Path_1986" d="M35.1 51.07c-8.235 0-14.938 9.817-14.938 21.881a.5.5 0 1 0 1 0c0-11.514 6.253-20.88 13.937-20.88s13.937 9.366 13.937 20.88a.5.5 0 1 0 1 0c0-12.064-6.703-21.881-14.936-21.881z" class="cls-1" transform="translate(-20.16 -27.617)"/>
            <path id="Path_1987" d="M24.637 17.531h.691a1.775 1.775 0 0 0 1.772-1.772v-1.187a9.349 9.349 0 1 1 18.7 0v1.191a1.75 1.75 0 0 0 .185.771h-1.92a7.691 7.691 0 0 0 .12-1.327c0-.215-.015-.426-.03-.636a7.735 7.735 0 0 0-15.419 0c-.015.21-.03.421-.03.636a7.74 7.74 0 0 0 15.124 2.324h4.43a1.775 1.775 0 0 0 1.772-1.772v-2.378a1.775 1.775 0 0 0-1.772-1.772h-.69a1.732 1.732 0 0 0-1.1.4 10.343 10.343 0 0 0-20.044.005 1.753 1.753 0 0 0-1.1-.4h-.691a1.775 1.775 0 0 0-1.772 1.772v2.378a1.779 1.779 0 0 0 1.774 1.767zm12.059 0h6.067a6.734 6.734 0 0 1-13.056-2.323c0-.215.015-.426.03-.636a6.738 6.738 0 0 1 13.416 0c.02.21.03.421.03.636a6.812 6.812 0 0 1-.13 1.327H36.7a.5.5 0 1 0 0 1zm-12.83-4.145a.771.771 0 0 1 .771-.771h.691a.771.771 0 0 1 .771.771v2.383a.771.771 0 0 1-.771.771h-.691a.771.771 0 0 1-.771-.771v-2.383zm22.933 0a.771.771 0 0 1 .771-.771h.691a.771.771 0 0 1 .771.771v2.378a.771.771 0 0 1-.771.771h-.691a.771.771 0 0 1-.771-.771v-2.378z" class="cls-1" transform="translate(-21.508 -4.22)"/>
        </g>
    </g>
</svg>
