<svg xmlns="http://www.w3.org/2000/svg" width="44.975" height="69" viewBox="0 0 44.975 69">
    <defs>
        <style>
            .cls-1{fill:#222}
        </style>
    </defs>
    <g id="noun_tech_support_3085717" transform="translate(-20.16 -4.22)">
        <g id="Group_8943" transform="translate(20.16 4.22)">
            <path id="Path_1986" d="M42.647 51.07c-12.4 0-22.487 14.778-22.487 32.94a.754.754 0 1 0 1.507 0c0-17.333 9.412-31.433 20.98-31.433s20.98 14.1 20.98 31.433a.754.754 0 1 0 1.507 0c.001-18.162-10.09-32.94-22.487-32.94z" class="cls-1" transform="translate(-20.16 -15.764)"/>
            <path id="Path_1987" d="M25.535 24.258h1.04a2.673 2.673 0 0 0 2.668-2.668V19.8a14.074 14.074 0 1 1 28.147 0v1.8a2.634 2.634 0 0 0 .279 1.161h-2.886a11.577 11.577 0 0 0 .181-2c0-.324-.023-.641-.045-.957a11.644 11.644 0 0 0-23.211 0c-.023.317-.045.633-.045.957a11.652 11.652 0 0 0 22.766 3.5H61.1a2.673 2.673 0 0 0 2.668-2.668v-3.58a2.673 2.673 0 0 0-2.668-2.67h-1.04a2.607 2.607 0 0 0-1.658.6 15.57 15.57 0 0 0-30.174.008 2.638 2.638 0 0 0-1.658-.6h-1.04a2.673 2.673 0 0 0-2.668 2.668V21.6a2.678 2.678 0 0 0 2.673 2.658zm18.154 0h9.134a10.137 10.137 0 0 1-19.654-3.5c0-.324.023-.641.045-.957a10.143 10.143 0 0 1 20.2 0c.03.317.045.633.045.957a10.255 10.255 0 0 1-.2 2H43.69a.75.75 0 1 0 0 1.5zm-19.315-6.24a1.161 1.161 0 0 1 1.161-1.161h1.04a1.161 1.161 0 0 1 1.161 1.161v3.587a1.161 1.161 0 0 1-1.161 1.161h-1.04a1.161 1.161 0 0 1-1.161-1.161v-3.587zm34.522 0a1.161 1.161 0 0 1 1.161-1.161H61.1a1.161 1.161 0 0 1 1.161 1.161V21.6a1.161 1.161 0 0 1-1.161 1.159h-1.04A1.161 1.161 0 0 1 58.9 21.6v-3.58z" class="cls-1" transform="translate(-20.825 -4.22)"/>
        </g>
    </g>
</svg>
