<svg xmlns="http://www.w3.org/2000/svg" width="103.139" height="68.904" viewBox="0 0 103.139 68.904">
    <g>
        <path fill="#222" d="M94.573 67.455a4.279 4.279 0 0 1-2.521-4V61.9a10.379 10.379 0 0 0 4.136-8.284v-1.674a3.22 3.22 0 0 0 2.544-3.151 3.4 3.4 0 0 0-.16-.974v-2.234a12.775 12.775 0 0 0-25.55 0v2.383c0 .046.023.092.023.137a3.3 3.3 0 0 0-.08.676 3.219 3.219 0 0 0 2.44 3.116V53.6a10.4 10.4 0 0 0 4.629 8.639v.985a4.329 4.329 0 0 1-2.589 4.022 22.355 22.355 0 0 0-12.11-12.695 4.279 4.279 0 0 1-2.521-4V49a10.356 10.356 0 0 0 4.136-8.272v-1.676a3.22 3.22 0 0 0 2.543-3.152 3.4 3.4 0 0 0-.16-.974V32.7a12.775 12.775 0 0 0-25.55 0v2.383c0 .046.023.092.023.137a3.3 3.3 0 0 0-.08.676 3.229 3.229 0 0 0 2.44 3.116v1.707a10.4 10.4 0 0 0 4.629 8.639v.985a4.326 4.326 0 0 1-2.6 4.033 22.254 22.254 0 0 0-12.5 12.844 4.321 4.321 0 0 1-2.108-3.781v-1.552a10.356 10.356 0 0 0 4.136-8.272v-1.673a3.22 3.22 0 0 0 2.544-3.151 3.4 3.4 0 0 0-.16-.974v-2.234a12.775 12.775 0 1 0-25.55 0v2.383c0 .046.023.092.023.137a3.3 3.3 0 0 0-.08.676 3.229 3.229 0 0 0 2.44 3.116V53.6a10.4 10.4 0 0 0 4.629 8.639v.985a4.326 4.326 0 0 1-2.6 4.033A22.262 22.262 0 0 0 5 87.986a.848.848 0 0 0 1.7 0 20.54 20.54 0 0 1 11.98-18.732 12.395 12.395 0 0 0 17.32.023 20.586 20.586 0 0 1 11.961 18.71.848.848 0 0 0 1.7 0 22.283 22.283 0 0 0-12.431-20 20.531 20.531 0 0 1 10.712-11.6 12.367 12.367 0 0 0 17.289.011 20.627 20.627 0 0 1 10.678 11.56 22.225 22.225 0 0 0-12.431 20.028.848.848 0 0 0 1.7 0 20.54 20.54 0 0 1 11.98-18.732 12.366 12.366 0 0 0 17.323.023 20.586 20.586 0 0 1 11.961 18.71.848.848 0 0 0 1.7 0 22.35 22.35 0 0 0-13.569-20.532zM37.711 50.166v-2.75a1.543 1.543 0 0 1 .745.8l.034.115a1.54 1.54 0 0 1 .08.458 1.518 1.518 0 0 1-.859 1.377zm-21.529-1.375a1.54 1.54 0 0 1 .745-1.318V50.1a1.531 1.531 0 0 1-.745-1.309zm2.44 4.835v-6.92l2.853-2.853a4.547 4.547 0 0 1 3.254-1.341h5.007a.832.832 0 0 0 .6-.252l2.555-2.555a.843.843 0 1 0-1.191-1.191l-2.3 2.3h-4.659a6.25 6.25 0 0 0-4.441 1.847l-2.922 2.922a3.128 3.128 0 0 0-1.123.344v-.332a11.091 11.091 0 0 1 22.181 0v.286a3.314 3.314 0 0 0-1.008-.3l-3.93-3.93a.843.843 0 0 0-1.198 1.194l3.747 3.747v7.023a8.682 8.682 0 0 1-12.993 7.55.862.862 0 0 0-.39-.241 8.6 8.6 0 0 1-4.041-7.298zm1.708 14.849a6.085 6.085 0 0 0 2.922-5.225v-.069a10.3 10.3 0 0 0 8.627-.229v.516a6.042 6.042 0 0 0 2.521 4.961 10.7 10.7 0 0 1-14.07.046zm46.62-31.187v-2.75a1.612 1.612 0 0 1 .745.791c.011.046.023.092.034.126a1.49 1.49 0 0 1-.779 1.833zm-21.529-1.375a1.54 1.54 0 0 1 .745-1.318v2.635a1.54 1.54 0 0 1-.745-1.317zm2.44 4.824v-6.92l2.853-2.853a4.547 4.547 0 0 1 3.254-1.341h5a.832.832 0 0 0 .6-.252l2.555-2.555a.843.843 0 0 0-1.192-1.192l-2.3 2.3h-4.662a6.23 6.23 0 0 0-4.445 1.845L46.6 32.693a3.128 3.128 0 0 0-1.123.344V32.7a11.091 11.091 0 0 1 22.181 0v.286a3.314 3.314 0 0 0-1.008-.3l-3.93-3.93a.843.843 0 0 0-1.192 1.192l3.749 3.752v7.023a8.682 8.682 0 0 1-12.993 7.55.862.862 0 0 0-.39-.241 8.587 8.587 0 0 1-4.032-7.296zm1.707 14.849a6.085 6.085 0 0 0 2.922-5.225v-.069a10.3 10.3 0 0 0 8.627-.229v.516a6.072 6.072 0 0 0 2.521 4.961 10.638 10.638 0 0 1-14.07.046zm46.608-5.419v-2.75a1.543 1.543 0 0 1 .745.8l.034.115a1.54 1.54 0 0 1 .08.458 1.518 1.518 0 0 1-.858 1.376zm-21.527-1.376a1.54 1.54 0 0 1 .745-1.318v2.635a1.566 1.566 0 0 1-.745-1.317zm2.44 4.835v-6.92l2.853-2.853a4.547 4.547 0 0 1 3.258-1.341h5a.832.832 0 0 0 .6-.252l2.555-2.555a.843.843 0 0 0-1.192-1.192l-2.3 2.3h-4.655a6.25 6.25 0 0 0-4.445 1.845l-2.922 2.922a3.128 3.128 0 0 0-1.123.344v-.332a11.091 11.091 0 0 1 22.181 0v.286a3.314 3.314 0 0 0-1.008-.3l-3.93-3.93a.843.843 0 0 0-1.192 1.192l3.747 3.747v7.023a8.682 8.682 0 0 1-12.993 7.55.862.862 0 0 0-.39-.241 8.6 8.6 0 0 1-4.044-7.293zM78.8 68.475a6.085 6.085 0 0 0 2.922-5.225v-.069a10.325 10.325 0 0 0 8.639-.229v.516a6.052 6.052 0 0 0 2.532 4.961 10.669 10.669 0 0 1-14.092.046z" transform="translate(-5 -19.93)"/>
    </g>
</svg>
