<svg xmlns="http://www.w3.org/2000/svg" width="68.513" height="45.772" viewBox="0 0 68.513 45.772">
    <path fill="#222" d="M64.5 51.5a2.843 2.843 0 0 1-1.674-2.656v-1.035a6.894 6.894 0 0 0 2.748-5.5v-1.114a2.139 2.139 0 0 0 1.69-2.093 2.258 2.258 0 0 0-.107-.647v-1.484a8.486 8.486 0 0 0-16.972 0v1.583c0 .03.015.061.015.091a2.2 2.2 0 0 0-.053.449 2.138 2.138 0 0 0 1.621 2.07V42.3a6.908 6.908 0 0 0 3.075 5.739v.655a2.876 2.876 0 0 1-1.72 2.671 14.85 14.85 0 0 0-8.045-8.433 2.843 2.843 0 0 1-1.678-2.658v-1.035a6.88 6.88 0 0 0 2.748-5.5v-1.106a2.139 2.139 0 0 0 1.69-2.093 2.258 2.258 0 0 0-.107-.647v-1.477a8.486 8.486 0 1 0-16.972 0V30c0 .03.015.061.015.091a2.2 2.2 0 0 0-.053.449 2.145 2.145 0 0 0 1.621 2.07v1.134a6.908 6.908 0 0 0 3.075 5.739v.655a2.873 2.873 0 0 1-1.728 2.679 14.783 14.783 0 0 0-8.3 8.532 2.87 2.87 0 0 1-1.4-2.512V47.8a6.88 6.88 0 0 0 2.748-5.5v-1.105a2.139 2.139 0 0 0 1.69-2.093 2.258 2.258 0 0 0-.107-.647v-1.484a8.486 8.486 0 1 0-16.972 0v1.583c0 .03.015.061.015.091a2.2 2.2 0 0 0-.053.449 2.145 2.145 0 0 0 1.621 2.07V42.3a6.908 6.908 0 0 0 3.075 5.739v.655a2.873 2.873 0 0 1-1.728 2.679A14.788 14.788 0 0 0 5 65.138a.563.563 0 0 0 1.126 0 13.644 13.644 0 0 1 7.961-12.444 8.234 8.234 0 0 0 11.508.015 13.675 13.675 0 0 1 7.946 12.429.563.563 0 0 0 1.126 0 14.8 14.8 0 0 0-8.258-13.288 13.639 13.639 0 0 1 7.116-7.7 8.215 8.215 0 0 0 11.485.008 13.7 13.7 0 0 1 7.09 7.677 14.764 14.764 0 0 0-8.258 13.3.563.563 0 0 0 1.126 0 13.644 13.644 0 0 1 7.961-12.444 8.215 8.215 0 0 0 11.508.015 13.675 13.675 0 0 1 7.946 12.429.563.563 0 0 0 1.126 0A14.847 14.847 0 0 0 64.5 51.5zM26.729 40.015v-1.827a1.025 1.025 0 0 1 .495.533l.023.076a1.023 1.023 0 0 1 .053.3 1.008 1.008 0 0 1-.571.918zm-14.3-.913a1.023 1.023 0 0 1 .495-.875v1.743a1.017 1.017 0 0 1-.496-.87zm1.621 3.212v-4.6l1.9-1.9a3.02 3.02 0 0 1 2.161-.89h3.326a.553.553 0 0 0 .4-.167l1.7-1.7a.56.56 0 0 0-.792-.792L21.2 33.8h-3.09a4.152 4.152 0 0 0-2.95 1.23l-1.94 1.941a2.078 2.078 0 0 0-.746.228v-.221a7.367 7.367 0 0 1 14.735 0v.19a2.2 2.2 0 0 0-.67-.2l-2.611-2.608a.56.56 0 1 0-.792.792l2.489 2.489v4.665a5.767 5.767 0 0 1-8.631 5.016.572.572 0 0 0-.259-.16 5.713 5.713 0 0 1-2.686-4.848zm1.134 9.864a4.042 4.042 0 0 0 1.941-3.471v-.046a6.841 6.841 0 0 0 5.731-.152v.342a4.014 4.014 0 0 0 1.674 3.3 7.107 7.107 0 0 1-9.347.026zM46.152 31.46v-1.826a1.071 1.071 0 0 1 .495.525c.008.03.015.061.023.084a.99.99 0 0 1-.518 1.218zm-14.3-.913a1.023 1.023 0 0 1 .495-.875v1.75a1.023 1.023 0 0 1-.496-.875zm1.621 3.2v-4.6l1.9-1.9a3.02 3.02 0 0 1 2.161-.89h3.318a.553.553 0 0 0 .4-.167l1.7-1.7a.56.56 0 0 0-.792-.792l-1.53 1.53h-3.09a4.139 4.139 0 0 0-2.953 1.225l-1.941 1.941a2.078 2.078 0 0 0-.746.228v-.221a7.367 7.367 0 0 1 14.735 0v.19a2.2 2.2 0 0 0-.67-.2L43.343 25.8a.56.56 0 1 0-.792.792l2.489 2.489v4.665a5.767 5.767 0 0 1-8.631 5.016.572.572 0 0 0-.259-.16 5.7 5.7 0 0 1-2.678-4.851zm1.134 9.864a4.042 4.042 0 0 0 1.941-3.471v-.04a6.841 6.841 0 0 0 5.731-.152v.342a4.034 4.034 0 0 0 1.674 3.3 7.067 7.067 0 0 1-9.346.03zm30.961-3.6v-1.823a1.025 1.025 0 0 1 .495.533l.023.076a1.023 1.023 0 0 1 .053.3 1.008 1.008 0 0 1-.572.918zm-14.3-.913a1.023 1.023 0 0 1 .495-.875v1.75a1.04 1.04 0 0 1-.497-.873zm1.621 3.212v-4.6l1.9-1.9a3.02 3.02 0 0 1 2.161-.89h3.32a.553.553 0 0 0 .4-.167l1.7-1.7a.56.56 0 1 0-.792-.792l-1.53 1.53h-3.09A4.152 4.152 0 0 0 54 35.03l-1.941 1.941a2.078 2.078 0 0 0-.746.228v-.221a7.367 7.367 0 0 1 14.735 0v.19a2.2 2.2 0 0 0-.67-.2l-2.612-2.608a.56.56 0 0 0-.792.792l2.489 2.489v4.665a5.767 5.767 0 0 1-8.631 5.016.572.572 0 0 0-.259-.16 5.713 5.713 0 0 1-2.685-4.848zm1.134 9.864a4.042 4.042 0 0 0 1.941-3.471v-.046a6.858 6.858 0 0 0 5.739-.152v.342a4.02 4.02 0 0 0 1.682 3.3 7.087 7.087 0 0 1-9.361.03z" transform="translate(-5 -19.93)"/>
</svg>
