<svg xmlns="http://www.w3.org/2000/svg" width="80.91" height="70.089" viewBox="0 0 80.91 70.089">
    <g>
        <path fill="#222" stroke="#222" stroke-width="0.5px" d="M292.385 240.577l-20.193-20.193a3.853 3.853 0 0 0-5.437 0l-2.6 2.594a3.849 3.849 0 0 0-.776 4.312 10.079 10.079 0 0 0-1.411-.442l-.028-.007a10.152 10.152 0 0 0-2.568-.259c-.361.009-.717.038-1.069.082-2.428-.082-6.066-.152-9.721-.023a19.672 19.672 0 0 0-5.817 1.02 3.849 3.849 0 0 0-.321-5.069L239.855 220a3.857 3.857 0 0 0-5.438 0l-20.192 20.193a3.85 3.85 0 0 0 0 5.438l2.594 2.594a3.853 3.853 0 0 0 4.789.519c.119 2.35 1.231 7.249 7.342 13.725l-1.13 1.132a4.486 4.486 0 0 0 3.171 7.658 4.493 4.493 0 0 0 1.147-.148 4.484 4.484 0 0 0 4.336 5.632 4.513 4.513 0 0 0 1.149-.149 4.48 4.48 0 0 0 4.335 5.63 4.57 4.57 0 0 0 1.148-.149 4.523 4.523 0 0 0-.149 1.151 4.484 4.484 0 0 0 4.485 4.485 4.456 4.456 0 0 0 3.171-1.313l1.116-1.115 1.867 1.865.006.008a4.484 4.484 0 0 0 7.645-3.486 4.484 4.484 0 0 0 6.857-4.115 4.487 4.487 0 0 0 5.9-6.587c.062 0 .125.007.187.007a4.488 4.488 0 0 0 3.172-7.661l-1.44-1.44c7.355-8.109 9.021-12.513 9.274-14.623a3.856 3.856 0 0 0 4.588-.638l2.594-2.6a3.849 3.849 0 0 0 .006-5.436zm-72.848 7.552a2.618 2.618 0 0 1-1.859-.766l-2.594-2.594a2.634 2.634 0 0 1 0-3.72l20.193-20.193a2.64 2.64 0 0 1 3.719 0l2.594 2.6a2.637 2.637 0 0 1 0 3.718l-2.626 2.626-.014.014-17.55 17.548a2.61 2.61 0 0 1-1.862.766zm11.455 21.911a3.271 3.271 0 0 1-2.313-5.583l1.538-1.54h.007l.007-.008 3.682-3.684a3.251 3.251 0 0 1 2.312-.957 3.27 3.27 0 0 1 2.312 5.581l-.906.909-4.328 4.326a3.245 3.245 0 0 1-2.31.955zm5.484 5.484a3.27 3.27 0 0 1-2.313-5.584l3.688-3.688.794-.8.751-.75a3.271 3.271 0 0 1 4.624 4.627l-1.545 1.545-3.687 3.688a3.248 3.248 0 0 1-2.312.96zm3.171 4.527a3.269 3.269 0 0 1 0-4.624l1.545-1.545 2.743-2.745a3.276 3.276 0 0 1 4.618 0l.006.006.019.019a3.272 3.272 0 0 1-.018 4.606l-1.2 1.2-1.545 1.544-1.544 1.545a3.275 3.275 0 0 1-4.623-.008zm10.109 5.483a3.241 3.241 0 0 1-2.312.959 3.27 3.27 0 0 1-2.312-5.583l1.544-1.546 1.2-1.2.174-.173.173-.173a3.27 3.27 0 0 1 4.625 4.624l-1.545 1.545zm9.333.76a3.278 3.278 0 0 1-4.622 0v-.007l-1.872-1.874 1.114-1.113a4.483 4.483 0 0 0-3.558-7.638 4.465 4.465 0 0 0 .585-2.217v-.14l8.378 8.377a3.276 3.276 0 0 1-.023 4.61zm18.375-17.81a3.271 3.271 0 0 1-5.581 2.317l-12.629-12.629a.608.608 0 0 0-.859.859l12.625 12.624 1.778 1.777a3.271 3.271 0 1 1-4.626 4.627l-14.406-14.406a.608.608 0 0 0-.859.859l13.03 13.032.006.006a3.272 3.272 0 0 1-4.628 4.627l-1.336-1.335-.037-.039-.01-.008-10.481-10.481-.038-.041a4.479 4.479 0 0 0-3.685-1.28 4.482 4.482 0 0 0-5.173-6.31 4.527 4.527 0 0 0 .149-1.151 4.483 4.483 0 0 0-4.485-4.485 4.461 4.461 0 0 0-3.171 1.313l-3.243 3.244c-7.257-7.706-7.068-13.015-6.961-13.976l16.956-16.957c.025-.025 2.61-2.6 8.825-2.818 2-.07 4-.081 5.8-.061a21.013 21.013 0 0 0-6.288 4.548l-12.924 12.925a4.487 4.487 0 0 0 6.346 6.346l.007-.008 7.875-7.875a3.274 3.274 0 0 1 4.626 0l22.44 22.44a3.243 3.243 0 0 1 .959 2.313zm-2.4-5.471l-20.14-20.141a4.492 4.492 0 0 0-6.346 0l-7.883 7.883a.012.012 0 0 1 0 .006 3.271 3.271 0 0 1-4.621-4.632l12.934-12.935a.247.247 0 0 0 .022-.023c.044-.049 4.189-4.594 9.334-5.286 1.654.054 2.852.122 3.247.145h.067a10.629 10.629 0 0 1 5.079 2.984l17.233 17.232c.101.526.41 4.462-8.923 14.764zm16.459-17.855l-2.594 2.594a2.638 2.638 0 0 1-3.719 0l-.261-.26-17.319-17.326-.011-.011-2.6-2.6a2.633 2.633 0 0 1 0-3.719l2.594-2.594a2.638 2.638 0 0 1 3.719 0l20.193 20.193a2.632 2.632 0 0 1 .001 3.72z" transform="translate(-4.759 .25) translate(-208.091 -218.874)"/>
    </g>
</svg>
